<svg xmlns="http://www.w3.org/2000/svg" width="114" height="114" viewBox="0 0 114 114">
  <g id="Grupo_1052" data-name="Grupo 1052" transform="translate(-972 -1335)">
    <rect id="Retângulo_56" data-name="Retângulo 56" width="114" height="114" transform="translate(972 1335)" fill="#0055a3" opacity="0"/>
    <g id="Grupo_1047" data-name="Grupo 1047" transform="translate(1000 1359)">
      <g id="Grupo_1044" data-name="Grupo 1044">
        <g id="Grupo_1043" data-name="Grupo 1043">
          <path id="Caminho_59" data-name="Caminho 59" d="M117.864,119.8a2.021,2.021,0,0,1,.166-.8H108.1a2.033,2.033,0,1,0,0,4.066h9.454A28.435,28.435,0,0,0,117.864,119.8Z" transform="translate(-96.63 -80.336)" fill="#dfe6f2"/>
          <path id="Caminho_60" data-name="Caminho 60" d="M120.22,117.763c.085-.711,3.933-3.279,4.031-3.619H108.1a2.032,2.032,0,1,0,0,4.064h12.05C120.174,118.06,120.2,117.912,120.22,117.763Z" transform="translate(-96.63 -82.274)" fill="#dfe6f2"/>
          <path id="Caminho_61" data-name="Caminho 61" d="M107.165,143.748a3.746,3.746,0,0,1-3.779-3.793V99.275a3.816,3.816,0,0,1,3.779-3.845h19.481v7.684a6.579,6.579,0,0,0,6.564,6.577h7.03v11.993h4.066V107.646a2.119,2.119,0,0,0-.579-1.4l-13.568-14.25a2.055,2.055,0,0,0-1.48-.63H107.165a7.886,7.886,0,0,0-7.843,7.91v40.68a7.859,7.859,0,0,0,7.843,7.857H123.42l-2.565-4.052h-12.99Zm23.547-45.253,6.774,7.133h-4.276a2.509,2.509,0,0,1-2.5-2.513Z" transform="translate(-99.322 -91.365)" fill="#dfe6f2"/>
          <path id="Caminho_62" data-name="Caminho 62" d="M121.6,109.371H108.1a2.032,2.032,0,1,0,0,4.064h13.5a2.032,2.032,0,1,0,0-4.064Z" transform="translate(-96.63 -84.179)" fill="#dfe6f2"/>
        </g>
      </g>
      <g id="Grupo_1046" data-name="Grupo 1046" transform="translate(19.202 27.376)">
        <g id="Grupo_1045" data-name="Grupo 1045">
          <path id="Caminho_63" data-name="Caminho 63" d="M132.009,148.855a18.962,18.962,0,1,1,18.96-18.962A18.983,18.983,0,0,1,132.009,148.855Zm0-33.726a14.765,14.765,0,1,0,14.763,14.765A14.781,14.781,0,0,0,132.009,115.129Z" transform="translate(-113.047 -110.932)" fill="#2383c6"/>
        </g>
        <path id="Caminho_64" data-name="Caminho 64" d="M130.872,117.291l0,0a2.078,2.078,0,0,0-2.965,0L120.1,125.67a2.028,2.028,0,0,0,.092,2.868,1.971,1.971,0,0,0,1.472.548,2.058,2.058,0,0,0,1.427-.645l4.308-4.607v12.781a2.032,2.032,0,1,0,4.064,0V123.843l4.273,4.6a2.03,2.03,0,0,0,3.508-1.318,1.981,1.981,0,0,0-.544-1.455Z" transform="translate(-110.453 -108.643)" fill="#2383c6"/>
      </g>
    </g>
  </g>
</svg>
