<svg xmlns="http://www.w3.org/2000/svg" width="114" height="114" viewBox="0 0 114 114">
  <g id="Grupo_1053" data-name="Grupo 1053" transform="translate(-1110 -1335)">
    <rect id="Retângulo_57" data-name="Retângulo 57" width="114" height="114" transform="translate(1110 1335)" fill="#0055a3" opacity="0"/>
    <g id="Grupo_1029" data-name="Grupo 1029" transform="translate(1134 1359)">
      <path id="Caminho_45" data-name="Caminho 45" d="M237.26,99.609H233.2a2.031,2.031,0,1,0,0,4.063h4.063a.678.678,0,0,1,.677.677v33.859a.678.678,0,0,1-.677.677H181.732a.678.678,0,0,1-.677-.677V104.349a.678.678,0,0,1,.677-.677h4.063a2.031,2.031,0,1,0,0-4.063h-4.063a4.746,4.746,0,0,0-4.74,4.74v33.859a4.746,4.746,0,0,0,4.74,4.74h25.733v6.772h-9.48a2.031,2.031,0,1,0,0,4.063h23.023a2.031,2.031,0,0,0,0-4.063h-9.48v-6.772H237.26a4.745,4.745,0,0,0,4.74-4.74V104.349A4.745,4.745,0,0,0,237.26,99.609Z" transform="translate(-176.992 -88.775)" fill="#dfe6f2"/>
      <g id="Grupo_1028" data-name="Grupo 1028" transform="translate(14.897)">
        <g id="Grupo_1027" data-name="Grupo 1027">
          <path id="Caminho_46" data-name="Caminho 46" d="M205.247,127.077a17.606,17.606,0,1,1,17.606-17.606A17.627,17.627,0,0,1,205.247,127.077Zm0-31.149a13.543,13.543,0,1,0,13.543,13.543A13.559,13.559,0,0,0,205.247,95.928Z" transform="translate(-187.64 -91.865)" fill="#2383c6"/>
          <path id="Caminho_47" data-name="Caminho 47" d="M205.545,113.925a2.015,2.015,0,0,1-1.435-.595l-4.74-4.741a2.028,2.028,0,0,1-.6-1.435V99.7a2.031,2.031,0,0,1,4.063,0v6.606l4.144,4.144a2.032,2.032,0,0,1-1.435,3.47Z" transform="translate(-183.197 -89.547)" fill="#2383c6"/>
        </g>
      </g>
    </g>
  </g>
</svg>
