<svg xmlns="http://www.w3.org/2000/svg" width="114" height="114" viewBox="0 0 114 114">
  <g id="Grupo_1056" data-name="Grupo 1056" transform="translate(-972 -1617)">
    <rect id="Retângulo_60" data-name="Retângulo 60" width="114" height="114" transform="translate(972 1617)" fill="#0055a3" opacity="0"/>
    <g id="Grupo_1051" data-name="Grupo 1051" transform="translate(1000 1630)">
      <g id="Grupo_1050" data-name="Grupo 1050" transform="translate(0 0)">
        <g id="Grupo_1049" data-name="Grupo 1049">
          <path id="Caminho_70" data-name="Caminho 70" d="M104.46,168.55a2.182,2.182,0,0,0-.25-4.358h0a26.269,26.269,0,0,0-20.2,41l.489.716.6-.619a9.505,9.505,0,0,1,1.361-1.175c.268-.241.546-.472.826-.7l.5-.405-.354-.537A21.908,21.908,0,0,1,104.46,168.55Z" transform="translate(-79.458 -164.187)" fill="#dfe6f2"/>
          <path id="Caminho_71" data-name="Caminho 71" d="M117.48,172.591l-.388-.58-.984.645c-.383.232-.778.449-1.172.668-.318.173-.634.347-.946.53l-.656.383.428.628a21.923,21.923,0,0,1-9.135,32.308l-.931.414.712.73a5.843,5.843,0,0,1,.553.625,6.065,6.065,0,0,1,.817,1.623l.259.74.71-.333a26.238,26.238,0,0,0,10.734-38.381Z" transform="translate(-69.337 -160.92)" fill="#dfe6f2"/>
          <path id="Caminho_72" data-name="Caminho 72" d="M118.381,187.342a15.762,15.762,0,1,0-21.71,14.539l1.023.422-.045-1.106c-.023-.559-.023-1.116,0-1.738a6.6,6.6,0,0,1,.055-1.33l.079-.5-.449-.237a11.373,11.373,0,1,1,16.683-10.051,11.477,11.477,0,0,1-6.312,10.177l-.431.215.041.479a19.185,19.185,0,0,1,.011,3.1l-.086,1.118,1.048-.4A15.842,15.842,0,0,0,118.381,187.342Z" transform="translate(-76.351 -161.091)" fill="#dfe6f2"/>
          <path id="Caminho_73" data-name="Caminho 73" d="M105.464,190.153a7.447,7.447,0,1,0-12.72-5.252,7.442,7.442,0,0,0,2.006,5.052l.574.622.512-.676a10.233,10.233,0,0,1,1.894-2l.591-.452-.481-.568a3.039,3.039,0,0,1-.733-1.978,3.092,3.092,0,1,1,5.361,2.077l-.424.466.414.475a2.547,2.547,0,0,1,.282.4l.4.556.415.556a5.119,5.119,0,0,0,.653.651c.084.051.167.1.252.147l.695.231Z" transform="translate(-73.91 -158.651)" fill="#dfe6f2"/>
        </g>
      </g>
      <path id="Caminho_74" data-name="Caminho 74" d="M125.594,207.974a6.157,6.157,0,0,0-8.212-2.737,6.155,6.155,0,0,0-7.5-3.032V189.632a6.252,6.252,0,0,0-6-6.242,6.163,6.163,0,0,0-6.344,6.156v31.626l-2.413-2.526a6.243,6.243,0,0,0-8.64-.378,6.152,6.152,0,0,0-.333,8.816l13.86,14.784a10.3,10.3,0,0,0,7.488,3.243H124.21a10.275,10.275,0,0,0,10.263-10.265V213.5A6.163,6.163,0,0,0,125.594,207.974Zm4.774,26.873a6.166,6.166,0,0,1-6.158,6.159H107.493A6.179,6.179,0,0,1,103,239.059l-13.879-14.8a2.052,2.052,0,0,1,.111-2.943,2.112,2.112,0,0,1,2.917.169l5.95,6.23a2.055,2.055,0,0,0,3.538-1.418V189.547a2.06,2.06,0,0,1,2.126-2.053,2.119,2.119,0,0,1,2.009,2.138c0,22.589-.038,12.35-.038,24.549a2.073,2.073,0,0,0,4.145,0v-6.549a2.052,2.052,0,0,1,4.067.391v6.158a2.053,2.053,0,1,0,4.105,0V210.76a2.053,2.053,0,1,1,4.105,0v3.422a2.053,2.053,0,0,0,4.107,0V213.5a2.053,2.053,0,1,1,4.105,0Z" transform="translate(-77.375 -156.169)" fill="#2383c6"/>
      <g id="Caminho_75" data-name="Caminho 75" transform="translate(-62.523 -158.328)" fill="#0091d5" stroke-linecap="round">
        <path d="M 107.3146438598633 171.1418609619141 C 105.5343627929688 171.1418609619141 104.0859985351562 169.6936798095703 104.0859985351562 167.9136199951172 C 104.0859985351562 166.1333312988281 105.5343627929688 164.6849517822266 107.3146438598633 164.6849517822266 C 109.0946884155273 164.6849517822266 110.5428619384766 166.1333312988281 110.5428619384766 167.9136199951172 C 110.5428619384766 169.6936798095703 109.0946884155273 171.1418609619141 107.3146438598633 171.1418609619141 Z M 107.3146438598633 167.2900848388672 C 106.970817565918 167.2900848388672 106.6911010742188 167.5697937011719 106.6911010742188 167.9136199951172 C 106.6911010742188 168.2572021484375 106.970817565918 168.5367279052734 107.3146438598633 168.5367279052734 C 107.6582336425781 168.5367279052734 107.9377593994141 168.2572021484375 107.9377593994141 167.9136199951172 C 107.9377593994141 167.5697937011719 107.6582336425781 167.2900848388672 107.3146438598633 167.2900848388672 Z" stroke="none"/>
        <path d="M 107.3146438598633 166.1849517822266 C 106.3598175048828 166.1849517822266 105.5859985351562 166.9588165283203 105.5859985351562 167.9136199951172 C 105.5859985351562 168.8680572509766 106.3598175048828 169.6418609619141 107.3146438598633 169.6418609619141 C 108.26904296875 169.6418609619141 109.0428619384766 168.8680572509766 109.0428619384766 167.9136199951172 C 109.0428619384766 166.9588165283203 108.26904296875 166.1849517822266 107.3146438598633 166.1849517822266 M 107.3146438598633 168.7900848388672 C 106.8312683105469 168.7900848388672 106.4377593994141 168.3969573974609 106.4377593994141 167.9136199951172 C 106.4377593994141 167.4302520751953 106.8312683105469 167.0367279052734 107.3146438598633 167.0367279052734 C 107.7980194091797 167.0367279052734 108.1911010742188 167.4302520751953 108.1911010742188 167.9136199951172 C 108.1911010742188 168.3969573974609 107.7980194091797 168.7900848388672 107.3146438598633 168.7900848388672 M 107.3146438598633 163.1849517822266 C 109.9217910766602 163.1849517822266 112.0428619384766 165.3062286376953 112.0428619384766 167.9136199951172 C 112.0428619384766 170.5207824707031 109.9217910766602 172.6418609619141 107.3146438598633 172.6418609619141 C 104.7072601318359 172.6418609619141 102.5859985351562 170.5207824707031 102.5859985351562 167.9136199951172 C 102.5859985351562 165.3062286376953 104.7072601318359 163.1849517822266 107.3146438598633 163.1849517822266 Z" stroke="none" fill="#0091d5"/>
      </g>
      <g id="Caminho_128" data-name="Caminho 128" transform="translate(-99.523 -125.328)" fill="#0091d5" stroke-linecap="round">
        <path d="M 107.3146438598633 171.1418609619141 C 105.5343627929688 171.1418609619141 104.0859985351562 169.6936798095703 104.0859985351562 167.9136199951172 C 104.0859985351562 166.1333312988281 105.5343627929688 164.6849517822266 107.3146438598633 164.6849517822266 C 109.0946884155273 164.6849517822266 110.5428619384766 166.1333312988281 110.5428619384766 167.9136199951172 C 110.5428619384766 169.6936798095703 109.0946884155273 171.1418609619141 107.3146438598633 171.1418609619141 Z M 107.3146438598633 167.2900848388672 C 106.970817565918 167.2900848388672 106.6911010742188 167.5697937011719 106.6911010742188 167.9136199951172 C 106.6911010742188 168.2572021484375 106.970817565918 168.5367279052734 107.3146438598633 168.5367279052734 C 107.6582336425781 168.5367279052734 107.9377593994141 168.2572021484375 107.9377593994141 167.9136199951172 C 107.9377593994141 167.5697937011719 107.6582336425781 167.2900848388672 107.3146438598633 167.2900848388672 Z" stroke="none"/>
        <path d="M 107.3146438598633 166.1849517822266 C 106.3598175048828 166.1849517822266 105.5859985351562 166.9588165283203 105.5859985351562 167.9136199951172 C 105.5859985351562 168.8680572509766 106.3598175048828 169.6418609619141 107.3146438598633 169.6418609619141 C 108.26904296875 169.6418609619141 109.0428619384766 168.8680572509766 109.0428619384766 167.9136199951172 C 109.0428619384766 166.9588165283203 108.26904296875 166.1849517822266 107.3146438598633 166.1849517822266 M 107.3146438598633 168.7900848388672 C 106.8312683105469 168.7900848388672 106.4377593994141 168.3969573974609 106.4377593994141 167.9136199951172 C 106.4377593994141 167.4302520751953 106.8312683105469 167.0367279052734 107.3146438598633 167.0367279052734 C 107.7980194091797 167.0367279052734 108.1911010742188 167.4302520751953 108.1911010742188 167.9136199951172 C 108.1911010742188 168.3969573974609 107.7980194091797 168.7900848388672 107.3146438598633 168.7900848388672 M 107.3146438598633 163.1849517822266 C 109.9217910766602 163.1849517822266 112.0428619384766 165.3062286376953 112.0428619384766 167.9136199951172 C 112.0428619384766 170.5207824707031 109.9217910766602 172.6418609619141 107.3146438598633 172.6418609619141 C 104.7072601318359 172.6418609619141 102.5859985351562 170.5207824707031 102.5859985351562 167.9136199951172 C 102.5859985351562 165.3062286376953 104.7072601318359 163.1849517822266 107.3146438598633 163.1849517822266 Z" stroke="none" fill="#0091d5"/>
      </g>
    </g>
  </g>
</svg>
