<svg xmlns="http://www.w3.org/2000/svg" width="114" height="114" viewBox="0 0 114 114">
  <g id="Grupo_1098" data-name="Grupo 1098" transform="translate(-696 -11830)" opacity="0.32">
    <rect id="Retângulo_37" data-name="Retângulo 37" width="114" height="114" transform="translate(696 11830)" fill="#f5f5f5" opacity="0"/>
    <g id="Grupo_1070" data-name="Grupo 1070" transform="translate(722 11856)">
      <path id="Caminho_98" data-name="Caminho 98" d="M168.655,435.709l-9.062-9.062V408.214a1.788,1.788,0,0,0-1.789-1.789h-7.669a1.79,1.79,0,0,0-1.791,1.789V415.4l-8.447-8.449a1.792,1.792,0,0,0-2.533,0l-28.76,28.76a1.789,1.789,0,0,0,1.265,3.055h5.88v26.971a1.789,1.789,0,0,0,1.789,1.789h42.182a1.788,1.788,0,0,0,1.789-1.789V438.763h5.879a1.788,1.788,0,0,0,1.265-3.055ZM151.924,410h4.09v13.063l-4.09-4.09Zm7.8,25.181a1.788,1.788,0,0,0-1.789,1.789v26.971h-38.6V436.974a1.789,1.789,0,0,0-1.789-1.789h-3.349l24.438-24.438,24.438,24.438Z" transform="translate(-108.081 -406.425)"/>
      <path id="Caminho_99" data-name="Caminho 99" d="M121.356,425.3a7.519,7.519,0,0,0,2.179,5.3,11.411,11.411,0,0,0-6.014,10.041v3.834a1.789,1.789,0,0,0,1.789,1.789h19.174a1.791,1.791,0,0,0,1.789-1.789v-3.834a11.3,11.3,0,0,0-3.333-8.044,11.417,11.417,0,0,0-2.683-2,7.54,7.54,0,1,0-12.9-5.3Zm13.055,9.826a7.745,7.745,0,0,1,2.283,5.514v2.043H121.1v-2.043a7.8,7.8,0,0,1,13.311-5.514Zm-1.552-9.826a3.962,3.962,0,1,1-3.962-3.962A3.966,3.966,0,0,1,132.859,425.3Z" transform="translate(-98.348 -394.747)"/>
    </g>
  </g>
</svg>
