<svg xmlns="http://www.w3.org/2000/svg" width="114" height="114" viewBox="0 0 114 114">
  <g id="Grupo_1099" data-name="Grupo 1099" transform="translate(-696 -12161)" opacity="0.32">
    <rect id="Retângulo_40" data-name="Retângulo 40" width="114" height="114" transform="translate(696 12161)" fill="#f5f5f5" opacity="0"/>
    <g id="Grupo_1080" data-name="Grupo 1080" transform="translate(721 12186)">
      <g id="Grupo_1079" data-name="Grupo 1079">
        <g id="Grupo_1078" data-name="Grupo 1078">
          <path id="Caminho_104" data-name="Caminho 104" d="M306.544,421.089l3.416-7.354A5.608,5.608,0,1,0,299.794,409l-5.5,11.838h-42.01a5.613,5.613,0,0,0-5.607,5.607v37.513a5.615,5.615,0,0,0,5.607,5.607h52.593a5.615,5.615,0,0,0,5.607-5.607V426.445A5.619,5.619,0,0,0,306.544,421.089Zm-3.361-10.514a1.87,1.87,0,1,1,3.388,1.584l-.983,2.116-3.39-1.58Zm-2.559,5.512,3.388,1.578-10.874,23.417-3.388-1.58C290.161,438.618,300.165,417.074,300.624,416.087Zm-15.5,37.759a1.871,1.871,0,0,0,2.149-.408l8.128-8.587.01-.01a1.859,1.859,0,0,0,.327-.483v0l2.242-4.823h1.288v18.819H257.949V439.506h27.665a2.2,2.2,0,0,0-.2.674l0,.012-1.351,11.747A1.869,1.869,0,0,0,285.126,453.846Zm3.288-7.051.414-3.6,2.076.969Zm-38-20.35a1.872,1.872,0,0,1,1.868-1.87h40.273l-1.736,3.739H250.418Zm56.33,37.511a1.872,1.872,0,0,1-1.868,1.871H252.286a1.872,1.872,0,0,1-1.868-1.871v-31.9h38.669l-1.736,3.739H256.08a1.87,1.87,0,0,0-1.871,1.871v22.557a1.869,1.869,0,0,0,1.871,1.868h45.06a1.869,1.869,0,0,0,1.868-1.868V437.662a1.869,1.869,0,0,0-1.868-1.871h-1.422l1.734-3.739h5.295Zm0-35.643h-3.558l1.737-3.735a1.868,1.868,0,0,1,1.822,1.866Z" transform="translate(-246.679 -405.758)"/>
        </g>
      </g>
    </g>
  </g>
</svg>
