<svg xmlns="http://www.w3.org/2000/svg" width="974.714" height="132.494" viewBox="0 0 974.714 132.494">
  <g id="Grupo_1003" data-name="Grupo 1003" transform="translate(417.061 -580.45)">
    <path id="Caminho_43" data-name="Caminho 43" d="M108.434,711.271a65.92,65.92,0,0,1-11.589-2.664c-.224-.079-.444-.158-.663-.238a26.508,26.508,0,0,0-.933-6.7c-2.032-6.082-4.9-8.667-4.9-8.667s-2.068,1.933.78,10.261a19.476,19.476,0,0,0,2.324,4.059c-3.007-1.225-5.063-2.293-5.232-2.386s-.327-.186-.491-.279a23.161,23.161,0,0,0-.852-7.561c-2.034-6.082-4.9-8.667-4.9-8.667s-2.069,1.933.78,10.261a20.587,20.587,0,0,0,2.829,4.723,85.327,85.327,0,0,1-7.441-5c.009,0,.018,0,.027,0,.6-.255.783-5.684.37-7.883-1.184-6.3-3.675-9.254-3.675-9.254s-2.312,1.632-.626,10.271a20.4,20.4,0,0,0,2.768,6,76.749,76.749,0,0,1-7.409-6.574c.641-1.029,1.538-5.476,1.515-7.475-.071-6.413-2.011-9.752-2.011-9.752s-2.561,1.206-2.4,10.005a20.782,20.782,0,0,0,1.33,5.582,68.842,68.842,0,0,1-5.491-6.713c.786-.755,2.516-5.136,2.848-7.157,1.043-6.328-.288-9.953-.288-9.953s-2.731.742-4.1,9.437a20.784,20.784,0,0,0,.408,6.041,62.873,62.873,0,0,1-4.474-7.8c.72-.116,3.487-4.563,4.211-6.628,2.126-6.052,1.445-9.853,1.445-9.853s-2.819.258-5.677,8.582a20.431,20.431,0,0,0-.605,6.551,58.844,58.844,0,0,1-3.222-9.045.294.294,0,0,0,.079.058c.619.187,4.253-3.852,5.349-5.8,3.144-5.589,3.133-9.451,3.133-9.451s-2.821-.237-7.082,7.465a20,20,0,0,0-1.75,6.663,57.7,57.7,0,0,1-1.526-9.722L51.3,652c.577.292,4.857-3.053,6.275-4.783,4.067-4.958,4.728-8.763,4.728-8.763s-2.737-.723-8.271,6.122a20.389,20.389,0,0,0-2.822,6.006,59.617,59.617,0,0,1,.333-9.544c1.045-.037,5.246-2.31,6.812-3.656,4.866-4.177,6.177-7.809,6.177-7.809s-2.57-1.187-9.208,4.592a20.786,20.786,0,0,0-3.5,4.751,64.8,64.8,0,0,1,1.924-8.661,24.111,24.111,0,0,0,7.082-2.424c5.518-3.269,7.439-6.617,7.439-6.617s-2.325-1.616-9.866,2.923a20.309,20.309,0,0,0-3.843,3.545c.272-.81.558-1.619.865-2.43q1.024-2.71,2.151-5.214a23.349,23.349,0,0,0,7.084-1.119c5.793-2.189,8.176-5.069,8.176-5.069s-1.944-1.944-9.872,1.117a19.638,19.638,0,0,0-4.321,2.8,65.7,65.7,0,0,1,4.081-7.21c.8.476,5.395.606,7.332.242,5.955-1.119,8.743-3.472,8.743-3.472s-1.542-2.185-9.7-.592a19.577,19.577,0,0,0-5.448,2.458,50.253,50.253,0,0,1,5.55-6.651c.882.592,5.055,1.44,6.919,1.417,5.907-.065,8.984-1.854,8.984-1.854s-1.11-2.359-9.219-2.211a19.218,19.218,0,0,0-5.254,1.268,46.214,46.214,0,0,1,6.854-5.255.289.289,0,0,0-.037.132c.031.566,4.452,2.352,6.388,2.67,5.552.914,8.734-.253,8.734-.253s-.652-2.4-8.281-3.6a17.627,17.627,0,0,0-5.97.541,52.057,52.057,0,0,1,7.035-3.5c0,.006,0,.011,0,.017.015.509,3.939,2.212,5.668,2.544,4.961.95,7.841-.023,7.841-.023s-.529-2.165-7.344-3.422a15.928,15.928,0,0,0-4.078.081c1.357-.5,2.753-.959,4.205-1.38l.051-.116a17.861,17.861,0,0,0,7.552-.389c1.75-.426,5.618-2.445,5.578-3-.065-.934-4.915-1.13-6.458-.768-5,1.181-6.537,2.764-7.009,3.551a44.184,44.184,0,0,0-6.255,1.971,21.608,21.608,0,0,0,4.745-4.2c1.274-1.483,3.41-5.709,3.021-6.179-.647-.784-5.051,2.11-6.182,3.407-4.305,4.938-4.045,7.352-3.873,7.961a46.339,46.339,0,0,0-5.462,3,25.007,25.007,0,0,0,3.015-4.115c1.093-1.843,2.593-6.811,2.084-7.244-.848-.722-5.05,3.239-6.024,4.854-3.375,5.6-3.063,8.211-2.752,9.107a51.648,51.648,0,0,0-4.41,3.869,25.527,25.527,0,0,0,1.946-4.071c.756-2,1.371-7.157.795-7.5-.961-.563-4.411,4.067-5.09,5.826-2.375,6.161-1.576,8.668-1.115,9.471q-1.718,2.028-3.249,4.214a26.414,26.414,0,0,0,.8-3.183c.4-2.105.107-7.287-.519-7.521-1.044-.388-3.637,4.771-4,6.622-1.175,6-.21,8.449.409,9.342-.907,1.617-1.739,3.277-2.5,4.966a25.983,25.983,0,0,0,.341-3.967c.025-2.142-1.16-7.2-1.817-7.316-1.1-.2-2.753,5.331-2.79,7.216-.123,6.557,1.467,8.662,2.18,9.275-.086.245-.176.488-.259.733-.566,1.669-1.059,3.3-1.5,4.918a25.533,25.533,0,0,0-.35-4.438c-.348-2.114-2.391-6.884-3.06-6.889-1.113-.007-1.786,5.727-1.5,7.591,1,6.354,2.874,8.2,3.71,8.725q-.643,3.124-.993,6.106a25.385,25.385,0,0,0-1.16-4.575c-.709-2.021-3.55-6.365-4.209-6.253-1.1.185-.764,5.951-.154,7.735,2.06,6.007,4.2,7.543,5.133,7.935-.083,1.941-.07,3.83.022,5.672a25.667,25.667,0,0,0-1.769-3.824c-1.05-1.867-4.6-5.651-5.231-5.427-1.05.373.28,5.992,1.191,7.644,2.944,5.328,5.248,6.6,6.3,6.89.233,1.637.539,3.224.9,4.776a26.7,26.7,0,0,0-1.9-2.618c-1.358-1.658-5.513-4.766-6.095-4.437-.968.551,1.318,5.853,2.5,7.322,3.619,4.48,6.042,5.481,7.215,5.666q.819,2.328,1.806,4.517a26.535,26.535,0,0,0-2.284-2.2c-1.624-1.4-6.256-3.737-6.771-3.311-.858.71,2.313,5.535,3.733,6.776,4.5,3.923,7.087,4.387,8.215,4.322q1.324,2.254,2.79,4.337a26.243,26.243,0,0,0-2.867-1.962c-1.844-1.092-6.811-2.593-7.245-2.084-.722.848,3.239,5.05,4.854,6.024,5.321,3.207,7.946,3.085,8.963,2.8,1.144,1.35,2.32,2.633,3.513,3.852a25.842,25.842,0,0,0-3.154-1.428c-2-.757-7.157-1.372-7.495-.8-.564.961,4.066,4.411,5.826,5.091,5.555,2.141,8.139,1.7,9.183,1.256,1.7,1.492,3.408,2.857,5.073,4.1A25.4,25.4,0,0,0,72.87,698c-2.106-.4-7.288-.107-7.521.519-.388,1.044,4.771,3.637,6.622,4,6.2,1.213,8.607.144,9.425-.468,2.239,1.5,4.335,2.761,6.175,3.791a25.41,25.41,0,0,0-4.7-1.345c-2.105-.4-7.287-.107-7.521.519-.388,1.044,4.772,3.637,6.622,4,8.278,1.62,9.8-.829,9.8-.829s-.175-.155-.525-.405c2.015,1,3.312,1.533,3.532,1.622,2.567,1.025,10.407,3.576,15.207,3.541C109.243,712.408,109.139,711.851,108.434,711.271Z" transform="translate(-460 0)" fill="#d1d2d4" fill-rule="evenodd"/>
    <path id="Caminho_44" data-name="Caminho 44" d="M174.221,662.387c1.183-1.469,3.468-6.771,2.5-7.322-.581-.329-4.735,2.779-6.094,4.437a26.5,26.5,0,0,0-1.9,2.618c.36-1.55.666-3.139.9-4.776,1.056-.293,3.36-1.562,6.3-6.89.911-1.652,2.241-7.271,1.191-7.644-.63-.224-4.182,3.559-5.231,5.427a25.669,25.669,0,0,0-1.769,3.824c.092-1.842.1-3.731.022-5.672.932-.392,3.074-1.928,5.133-7.935.61-1.785.944-7.55-.154-7.735-.659-.112-3.5,4.231-4.209,6.253a25.411,25.411,0,0,0-1.16,4.575q-.349-2.978-.993-6.106c.836-.521,2.712-2.371,3.71-8.725.291-1.864-.382-7.6-1.5-7.591-.668,0-2.712,4.775-3.059,6.889a25.529,25.529,0,0,0-.35,4.438c-.442-1.612-.935-3.249-1.5-4.918-.083-.245-.173-.488-.259-.733.714-.613,2.3-2.718,2.18-9.275-.037-1.886-1.695-7.417-2.79-7.216-.657.121-1.841,5.174-1.817,7.316a25.826,25.826,0,0,0,.341,3.967c-.763-1.689-1.595-3.349-2.5-4.966.619-.893,1.584-3.34.408-9.342-.364-1.851-2.957-7.011-4-6.622-.626.234-.916,5.416-.519,7.521a26.186,26.186,0,0,0,.8,3.183q-1.531-2.182-3.249-4.214c.461-.8,1.26-3.309-1.115-9.471-.679-1.759-4.129-6.389-5.09-5.826-.577.339.038,5.492.795,7.5a25.527,25.527,0,0,0,1.946,4.071,51.651,51.651,0,0,0-4.41-3.869c.311-.9.622-3.508-2.752-9.107-.975-1.615-5.177-5.576-6.024-4.854-.509.433.991,5.4,2.084,7.244a25.008,25.008,0,0,0,3.015,4.115,46.437,46.437,0,0,0-5.462-3c.173-.609.433-3.022-3.873-7.961-1.131-1.3-5.535-4.191-6.183-3.407-.388.47,1.748,4.7,3.022,6.179a21.551,21.551,0,0,0,4.746,4.2,44.3,44.3,0,0,0-6.256-1.971c-.472-.786-2.015-2.37-7.009-3.551-1.544-.362-6.394-.166-6.458.768-.039.56,3.828,2.578,5.578,3a17.855,17.855,0,0,0,7.55.389l.052.116c1.451.422,2.848.884,4.205,1.38a15.928,15.928,0,0,0-4.078-.081c-6.816,1.256-7.345,3.422-7.345,3.422s2.88.974,7.841.023c1.729-.332,5.654-2.035,5.668-2.544,0-.006,0-.011,0-.017a52.13,52.13,0,0,1,7.035,3.5,17.627,17.627,0,0,0-5.97-.541c-7.629,1.2-8.281,3.6-8.281,3.6s3.181,1.167,8.734.253c1.936-.318,6.357-2.1,6.388-2.67a.276.276,0,0,0-.038-.132,46.205,46.205,0,0,1,6.764,5.172A19.045,19.045,0,0,0,144.7,599.9c-8.107-.148-9.218,2.211-9.218,2.211s3.075,1.788,8.984,1.854A21.73,21.73,0,0,0,151.3,602.6a50.376,50.376,0,0,1,5.5,6.6,19.577,19.577,0,0,0-5.448-2.458c-8.162-1.594-9.7.592-9.7.592s2.788,2.353,8.743,3.472c1.937.365,6.531.234,7.332-.242a65.7,65.7,0,0,1,4.081,7.21,19.638,19.638,0,0,0-4.321-2.8c-7.929-3.06-9.872-1.117-9.872-1.117s2.384,2.88,8.176,5.069a23.349,23.349,0,0,0,7.084,1.119q1.128,2.507,2.151,5.214c.307.811.593,1.621.865,2.432a20.278,20.278,0,0,0-3.843-3.546c-7.542-4.539-9.866-2.923-9.866-2.923s1.921,3.349,7.439,6.617a24.111,24.111,0,0,0,7.082,2.424,64.8,64.8,0,0,1,1.924,8.661,20.787,20.787,0,0,0-3.5-4.751c-6.638-5.779-9.208-4.592-9.208-4.592s1.311,3.632,6.177,7.809c1.567,1.346,5.767,3.619,6.812,3.656a59.625,59.625,0,0,1,.333,9.546,20.4,20.4,0,0,0-2.822-6.007c-5.534-6.845-8.271-6.122-8.271-6.122s.661,3.8,4.728,8.763c1.417,1.73,5.7,5.075,6.275,4.783l.009-.007a57.7,57.7,0,0,1-1.526,9.722,20,20,0,0,0-1.75-6.663c-4.261-7.7-7.082-7.465-7.082-7.465s-.011,3.861,3.133,9.451c1.1,1.95,4.73,5.989,5.349,5.8a.3.3,0,0,0,.079-.057,58.875,58.875,0,0,1-3.222,9.044,20.466,20.466,0,0,0-.605-6.551c-2.858-8.324-5.678-8.582-5.678-8.582s-.68,3.8,1.446,9.853c.725,2.066,3.492,6.513,4.211,6.628a62.871,62.871,0,0,1-4.474,7.8,20.783,20.783,0,0,0,.408-6.041c-1.369-8.7-4.1-9.437-4.1-9.437s-1.331,3.625-.288,9.953c.332,2.021,2.062,6.4,2.848,7.157a68.847,68.847,0,0,1-5.491,6.713,20.783,20.783,0,0,0,1.33-5.582c.16-8.8-2.4-10.005-2.4-10.005s-1.94,3.339-2.011,9.752c-.023,2,.874,6.446,1.515,7.475a76.877,76.877,0,0,1-7.407,6.574,20.424,20.424,0,0,0,2.767-6c1.686-8.639-.626-10.271-.626-10.271s-2.491,2.951-3.675,9.254c-.414,2.2-.226,7.628.37,7.883.009,0,.018,0,.027,0a85.331,85.331,0,0,1-7.441,5,20.632,20.632,0,0,0,2.829-4.723c2.85-8.328.78-10.261.78-10.261s-2.869,2.585-4.9,8.667a23.2,23.2,0,0,0-.853,7.561c-.163.093-.324.187-.489.279S130,706.1,127,707.321a19.477,19.477,0,0,0,2.324-4.059c2.848-8.328.78-10.261.78-10.261s-2.871,2.585-4.9,8.667a26.507,26.507,0,0,0-.933,6.7c-.219.08-.439.159-.663.238a65.92,65.92,0,0,1-11.589,2.664c-.7.581-.809,1.138-1.546,1.674,4.8.035,12.639-2.516,15.207-3.541.221-.089,1.517-.621,3.532-1.622-.35.25-.525.405-.525.405s1.52,2.449,9.8.829c1.85-.365,7.009-2.958,6.621-4-.233-.626-5.414-.916-7.52-.519a25.41,25.41,0,0,0-4.7,1.345c1.84-1.03,3.934-2.291,6.175-3.791.818.613,3.227,1.681,9.426.468,1.85-.365,7.009-2.958,6.621-4-.233-.626-5.414-.914-7.521-.519a25.37,25.37,0,0,0-4.709,1.347c1.665-1.246,3.368-2.61,5.073-4.1,1.044.444,3.628.885,9.183-1.256,1.76-.68,6.391-4.13,5.826-5.091-.338-.576-5.491.039-7.5.8a26.015,26.015,0,0,0-3.154,1.428c1.194-1.219,2.37-2.5,3.514-3.852,1.017.287,3.642.409,8.962-2.8,1.616-.975,5.577-5.177,4.855-6.024-.434-.509-5.4.992-7.245,2.084a26.241,26.241,0,0,0-2.867,1.962q1.464-2.08,2.79-4.337c1.128.064,3.714-.4,8.213-4.322,1.421-1.241,4.592-6.066,3.734-6.776-.515-.426-5.147,1.914-6.773,3.311a26.716,26.716,0,0,0-2.284,2.2q.987-2.187,1.806-4.517C168.179,667.868,170.6,666.867,174.221,662.387Z" transform="translate(380.146 0)" fill="#d1d2d4" fill-rule="evenodd"/>
  </g>
</svg>
