<svg xmlns="http://www.w3.org/2000/svg" width="399.714" height="159.894" viewBox="0 0 399.714 159.894">
  <g id="Grupo_1154" data-name="Grupo 1154" transform="translate(-934 -6046.503)">
    <g id="Grupo_1011" data-name="Grupo 1011" transform="translate(1351.061 5466.052)">
      <path id="Caminho_43" data-name="Caminho 43" d="M108.434,738.325a56.566,56.566,0,0,1-11.589-3.214c-.224-.1-.444-.19-.663-.287a38.209,38.209,0,0,0-.933-8.087c-2.032-7.34-4.9-10.459-4.9-10.459s-2.068,2.332.78,12.383a25.169,25.169,0,0,0,2.324,4.9,58.276,58.276,0,0,1-5.232-2.88c-.165-.11-.327-.225-.491-.336a33.476,33.476,0,0,0-.852-9.125c-2.034-7.34-4.9-10.459-4.9-10.459s-2.069,2.332.78,12.383a26.369,26.369,0,0,0,2.829,5.7,86.322,86.322,0,0,1-7.441-6.039c.009,0,.018,0,.027,0,.6-.308.783-6.86.37-9.513-1.184-7.606-3.675-11.167-3.675-11.167s-2.312,1.969-.626,12.394a27.275,27.275,0,0,0,2.768,7.238,83.717,83.717,0,0,1-7.409-7.934c.641-1.242,1.538-6.608,1.515-9.021-.071-7.739-2.011-11.768-2.011-11.768s-2.561,1.455-2.4,12.075a29.49,29.49,0,0,0,1.33,6.736,81.974,81.974,0,0,1-5.491-8.1c.786-.912,2.516-6.2,2.848-8.637,1.043-7.636-.288-12.011-.288-12.011s-2.731.9-4.1,11.389a30.162,30.162,0,0,0,.408,7.29,81.109,81.109,0,0,1-4.474-9.417c.72-.14,3.487-5.506,4.211-8,2.126-7.3,1.445-11.89,1.445-11.89s-2.819.311-5.677,10.357a29.569,29.569,0,0,0-.605,7.905,81.169,81.169,0,0,1-3.222-10.916c.026.024.048.058.079.07.619.226,4.253-4.648,5.349-7,3.144-6.745,3.133-11.405,3.133-11.405s-2.821-.286-7.082,9.009a28.168,28.168,0,0,0-1.75,8.041,83.035,83.035,0,0,1-1.526-11.732l.009.009c.577.353,4.857-3.684,6.275-5.772,4.067-5.984,4.728-10.575,4.728-10.575s-2.737-.873-8.271,7.388a27.131,27.131,0,0,0-2.822,7.248,86.731,86.731,0,0,1,.333-11.518c1.045-.045,5.246-2.787,6.812-4.412,4.866-5.041,6.177-9.424,6.177-9.424s-2.57-1.432-9.208,5.542a25.332,25.332,0,0,0-3.5,5.734,92.264,92.264,0,0,1,1.924-10.452,21.447,21.447,0,0,0,7.082-2.926c5.518-3.945,7.439-7.986,7.439-7.986s-2.325-1.95-9.866,3.528a22.331,22.331,0,0,0-3.843,4.278c.272-.977.558-1.954.865-2.933q1.024-3.271,2.151-6.292a19.711,19.711,0,0,0,7.084-1.351c5.793-2.642,8.176-6.118,8.176-6.118s-1.944-2.346-9.872,1.348a19.639,19.639,0,0,0-4.321,3.384,84.953,84.953,0,0,1,4.081-8.7c.8.574,5.395.732,7.332.292,5.955-1.351,8.743-4.19,8.743-4.19s-1.542-2.637-9.7-.714a18.131,18.131,0,0,0-5.448,2.966,59.509,59.509,0,0,1,5.55-8.026c.882.714,5.055,1.737,6.919,1.71,5.907-.079,8.984-2.237,8.984-2.237s-1.11-2.847-9.219-2.668a16.539,16.539,0,0,0-5.254,1.53,48.41,48.41,0,0,1,6.854-6.342.4.4,0,0,0-.037.159c.031.683,4.452,2.838,6.388,3.222,5.552,1.1,8.734-.3,8.734-.3s-.652-2.893-8.281-4.343a14.732,14.732,0,0,0-5.97.653,49.158,49.158,0,0,1,7.035-4.227c0,.008,0,.013,0,.021.015.614,3.939,2.67,5.668,3.07,4.961,1.147,7.841-.028,7.841-.028s-.529-2.613-7.344-4.129a13.224,13.224,0,0,0-4.078.1c1.357-.6,2.753-1.157,4.205-1.666l.051-.14a14.889,14.889,0,0,0,7.552-.47c1.75-.515,5.618-2.951,5.578-3.626-.065-1.127-4.915-1.364-6.458-.927-5,1.425-6.537,3.336-7.009,4.285a38.917,38.917,0,0,0-6.255,2.378,23.452,23.452,0,0,0,4.745-5.066c1.274-1.789,3.41-6.889,3.021-7.456-.647-.946-5.051,2.547-6.182,4.111-4.305,5.96-4.045,8.872-3.873,9.607a44.662,44.662,0,0,0-5.462,3.623,30.547,30.547,0,0,0,3.015-4.966c1.093-2.224,2.593-8.219,2.084-8.742-.848-.872-5.05,3.909-6.024,5.857-3.375,6.757-3.063,9.909-2.752,10.99a56.141,56.141,0,0,0-4.41,4.669,33.931,33.931,0,0,0,1.946-4.913c.756-2.419,1.371-8.637.795-9.046-.961-.68-4.411,4.908-5.09,7.031-2.375,7.435-1.576,10.461-1.115,11.429q-1.718,2.448-3.249,5.085a37.378,37.378,0,0,0,.8-3.842c.4-2.541.107-8.794-.519-9.076-1.044-.469-3.637,5.758-4,7.992-1.175,7.244-.21,10.2.409,11.274-.907,1.952-1.739,3.955-2.5,5.993a37.688,37.688,0,0,0,.341-4.788c.025-2.585-1.16-8.683-1.817-8.829-1.1-.242-2.753,6.433-2.79,8.709-.123,7.913,1.467,10.454,2.18,11.193-.086.3-.176.589-.259.885-.566,2.014-1.059,3.988-1.5,5.935a37.062,37.062,0,0,0-.35-5.356c-.348-2.551-2.391-8.307-3.06-8.313-1.113-.009-1.786,6.912-1.5,9.161,1,7.668,2.874,9.9,3.71,10.529q-.643,3.77-.993,7.368a35.924,35.924,0,0,0-1.16-5.521c-.709-2.439-3.55-7.681-4.209-7.546-1.1.223-.764,7.181-.154,9.335,2.06,7.25,4.2,9.1,5.133,9.576-.083,2.343-.07,4.621.022,6.845a34.338,34.338,0,0,0-1.769-4.615c-1.05-2.253-4.6-6.82-5.231-6.549-1.05.451.28,7.232,1.191,9.225,2.944,6.43,5.248,7.96,6.3,8.314.233,1.975.539,3.891.9,5.764a32.769,32.769,0,0,0-1.9-3.159c-1.358-2-5.513-5.752-6.095-5.355-.968.665,1.318,7.064,2.5,8.837,3.619,5.407,6.042,6.615,7.215,6.838q.819,2.809,1.806,5.451a29.653,29.653,0,0,0-2.284-2.661c-1.624-1.685-6.256-4.51-6.771-4-.858.857,2.313,6.68,3.733,8.178,4.5,4.734,7.087,5.294,8.215,5.216q1.324,2.72,2.79,5.234a26.687,26.687,0,0,0-2.867-2.368c-1.844-1.318-6.811-3.129-7.245-2.515-.722,1.023,3.239,6.094,4.854,7.27,5.321,3.87,7.946,3.723,8.963,3.376,1.144,1.629,2.32,3.177,3.513,4.648a23.972,23.972,0,0,0-3.154-1.724c-2-.913-7.157-1.655-7.495-.961-.564,1.16,4.066,5.323,5.826,6.144,5.555,2.584,8.139,2.051,9.183,1.516,1.7,1.8,3.408,3.448,5.073,4.951a22.182,22.182,0,0,0-4.709-1.626c-2.106-.477-7.288-.129-7.521.626-.388,1.26,4.771,4.389,6.622,4.83,6.2,1.464,8.607.174,9.425-.565,2.239,1.81,4.335,3.332,6.175,4.575a22.191,22.191,0,0,0-4.7-1.623c-2.105-.479-7.287-.129-7.521.626-.388,1.26,4.772,4.389,6.622,4.83,8.278,1.954,9.8-1,9.8-1s-.175-.187-.525-.489c2.015,1.208,3.312,1.85,3.532,1.957,2.567,1.237,10.407,4.315,15.207,4.273C109.243,739.7,109.139,739.025,108.434,738.325Z" transform="translate(-460 0)" fill="#d6442e" fill-rule="evenodd"/>
      <path id="Caminho_44" data-name="Caminho 44" d="M174.221,679.332c1.183-1.773,3.468-8.172,2.5-8.837-.581-.4-4.735,3.354-6.094,5.355a32.52,32.52,0,0,0-1.9,3.159c.36-1.871.666-3.788.9-5.764,1.056-.354,3.36-1.885,6.3-8.314.911-1.993,2.241-8.774,1.191-9.225-.63-.271-4.182,4.3-5.231,6.549a34.34,34.34,0,0,0-1.769,4.615c.092-2.224.1-4.5.022-6.845.932-.473,3.074-2.326,5.133-9.576.61-2.154.944-9.112-.154-9.335-.659-.135-3.5,5.106-4.209,7.546a35.96,35.96,0,0,0-1.16,5.521q-.349-3.594-.993-7.368c.836-.629,2.712-2.862,3.71-10.529.291-2.249-.382-9.17-1.5-9.161-.668.006-2.712,5.762-3.059,8.313a37.056,37.056,0,0,0-.35,5.356c-.442-1.946-.935-3.921-1.5-5.935-.083-.3-.173-.589-.259-.885.714-.739,2.3-3.28,2.18-11.193-.037-2.276-1.695-8.951-2.79-8.709-.657.146-1.841,6.244-1.817,8.829a37.461,37.461,0,0,0,.341,4.788c-.763-2.038-1.595-4.041-2.5-5.993.619-1.078,1.584-4.031.408-11.274-.364-2.234-2.957-8.46-4-7.992-.626.282-.916,6.536-.519,9.076a37.054,37.054,0,0,0,.8,3.842q-1.531-2.633-3.249-5.085c.461-.968,1.26-3.994-1.115-11.429-.679-2.123-4.129-7.711-5.09-7.031-.577.409.038,6.628.795,9.046a33.931,33.931,0,0,0,1.946,4.913,56.145,56.145,0,0,0-4.41-4.669c.311-1.081.622-4.233-2.752-10.99-.975-1.948-5.177-6.729-6.024-5.857-.509.522.991,6.518,2.084,8.742a30.549,30.549,0,0,0,3.015,4.966,44.757,44.757,0,0,0-5.462-3.623c.173-.735.433-3.647-3.873-9.607-1.131-1.565-5.535-5.057-6.183-4.111-.388.567,1.748,5.667,3.022,7.456a23.388,23.388,0,0,0,4.746,5.066,39.019,39.019,0,0,0-6.256-2.378c-.472-.949-2.015-2.86-7.009-4.285-1.544-.437-6.394-.2-6.458.927-.039.675,3.828,3.112,5.578,3.626a14.884,14.884,0,0,0,7.55.47l.052.14c1.451.509,2.848,1.066,4.205,1.666a13.223,13.223,0,0,0-4.078-.1c-6.816,1.516-7.345,4.129-7.345,4.129s2.88,1.175,7.841.028c1.729-.4,5.654-2.456,5.668-3.07,0-.007,0-.013,0-.021a49.227,49.227,0,0,1,7.035,4.227,14.732,14.732,0,0,0-5.97-.653c-7.629,1.45-8.281,4.343-8.281,4.343s3.181,1.409,8.734.3c1.936-.384,6.357-2.539,6.388-3.222a.386.386,0,0,0-.038-.159,48.361,48.361,0,0,1,6.764,6.241,16.358,16.358,0,0,0-5.036-1.429c-8.107-.179-9.218,2.668-9.218,2.668s3.075,2.158,8.984,2.237a18.547,18.547,0,0,0,6.842-1.648,59.673,59.673,0,0,1,5.5,7.964,18.13,18.13,0,0,0-5.448-2.966c-8.162-1.923-9.7.714-9.7.714s2.788,2.839,8.743,4.19c1.937.44,6.531.283,7.332-.292a84.95,84.95,0,0,1,4.081,8.7,19.639,19.639,0,0,0-4.321-3.384c-7.929-3.693-9.872-1.348-9.872-1.348s2.384,3.476,8.176,6.118a19.711,19.711,0,0,0,7.084,1.351q1.128,3.025,2.151,6.292c.307.979.593,1.956.865,2.935a22.3,22.3,0,0,0-3.843-4.279c-7.542-5.478-9.866-3.528-9.866-3.528s1.921,4.041,7.439,7.986a21.447,21.447,0,0,0,7.082,2.926,92.266,92.266,0,0,1,1.924,10.452,25.333,25.333,0,0,0-3.5-5.734c-6.638-6.974-9.208-5.542-9.208-5.542s1.311,4.383,6.177,9.424c1.567,1.624,5.767,4.367,6.812,4.412a86.743,86.743,0,0,1,.333,11.52,27.141,27.141,0,0,0-2.822-7.25c-5.534-8.261-8.271-7.388-8.271-7.388s.661,4.591,4.728,10.575c1.417,2.088,5.7,6.125,6.275,5.772l.009-.009a83.032,83.032,0,0,1-1.526,11.732,28.168,28.168,0,0,0-1.75-8.041c-4.261-9.295-7.082-9.009-7.082-9.009s-.011,4.66,3.133,11.405c1.1,2.353,4.73,7.227,5.349,7,.032-.012.053-.046.079-.068a81.21,81.21,0,0,1-3.222,10.914,29.619,29.619,0,0,0-.605-7.905c-2.858-10.046-5.678-10.357-5.678-10.357s-.68,4.587,1.446,11.89c.725,2.493,3.492,7.859,4.211,8a81.107,81.107,0,0,1-4.474,9.417,30.161,30.161,0,0,0,.408-7.29c-1.369-10.494-4.1-11.389-4.1-11.389s-1.331,4.375-.288,12.011c.332,2.439,2.062,7.725,2.848,8.637a81.981,81.981,0,0,1-5.491,8.1,29.491,29.491,0,0,0,1.33-6.736c.16-10.62-2.4-12.075-2.4-12.075s-1.94,4.029-2.011,11.768c-.023,2.413.874,7.779,1.515,9.021a83.86,83.86,0,0,1-7.407,7.934,27.312,27.312,0,0,0,2.767-7.238c1.686-10.425-.626-12.394-.626-12.394s-2.491,3.561-3.675,11.167c-.414,2.654-.226,9.206.37,9.513.009,0,.018,0,.027,0a86.326,86.326,0,0,1-7.441,6.039,26.426,26.426,0,0,0,2.829-5.7c2.85-10.05.78-12.383.78-12.383s-2.869,3.119-4.9,10.459a33.531,33.531,0,0,0-.853,9.125c-.163.112-.324.226-.489.336a58.272,58.272,0,0,1-5.232,2.88,25.17,25.17,0,0,0,2.324-4.9c2.848-10.05.78-12.383.78-12.383s-2.871,3.119-4.9,10.459a38.209,38.209,0,0,0-.933,8.087c-.219.1-.439.192-.663.287a56.566,56.566,0,0,1-11.589,3.214c-.7.7-.809,1.373-1.546,2.02,4.8.042,12.639-3.036,15.207-4.273.221-.107,1.517-.75,3.532-1.957-.35.3-.525.489-.525.489s1.52,2.955,9.8,1c1.85-.44,7.009-3.57,6.621-4.83-.233-.756-5.414-1.105-7.52-.626a22.191,22.191,0,0,0-4.7,1.623c1.84-1.243,3.934-2.765,6.175-4.575.818.739,3.227,2.029,9.426.565,1.85-.44,7.009-3.57,6.621-4.83-.233-.756-5.414-1.1-7.521-.626a22.158,22.158,0,0,0-4.709,1.626c1.665-1.5,3.368-3.15,5.073-4.951,1.044.535,3.628,1.068,9.183-1.516,1.76-.821,6.391-4.984,5.826-6.144-.338-.695-5.491.048-7.5.961A24.131,24.131,0,0,0,152.3,714q1.791-2.206,3.514-4.648c1.017.347,3.642.494,8.962-3.376,1.616-1.176,5.577-6.247,4.855-7.27-.434-.614-5.4,1.2-7.245,2.515a26.684,26.684,0,0,0-2.867,2.368q1.464-2.51,2.79-5.234c1.128.078,3.714-.482,8.213-5.216,1.421-1.5,4.592-7.321,3.734-8.178-.515-.515-5.147,2.31-6.773,4a29.855,29.855,0,0,0-2.284,2.661q.987-2.64,1.806-5.451C168.179,685.946,170.6,684.738,174.221,679.332Z" transform="translate(-194.854 0)" fill="#d6442e" fill-rule="evenodd"/>
    </g>
  </g>
</svg>
