<svg xmlns="http://www.w3.org/2000/svg" width="36" height="36" viewBox="0 0 36 36">
  <path id="Caminho_7149" data-name="Caminho 7149" d="M704.828,52.464a17.858,17.858,0,0,1-17.843,17.979,18,18,0,1,1,17.843-17.979Zm-20.52,1.072V64.864c1.562.008,3.037.055,4.538-.011,0-.817,0-1.562,0-2.307s0-1.493-.007-2.239,0-1.493,0-2.239,0-1.493,0-2.239-.03-1.477.012-2.284h3.778c.175-1.5.42-2.917.52-4.391-1.472-.057-2.876.023-4.337-.053,0-.764-.009-1.449,0-2.133a10.071,10.071,0,0,1,.074-1.349,1.518,1.518,0,0,1,1.381-1.387,6.706,6.706,0,0,1,1-.057c.66-.008,1.322,0,2,0v-4c-.961-.047-1.876-.122-2.792-.128a10.161,10.161,0,0,0-2.047.142,4.732,4.732,0,0,0-3.733,3.147,7.137,7.137,0,0,0-.417,2.544c0,.884.01,1.768.009,2.651,0,.187-.028.374-.046.614h-3.716v4.394Z" transform="translate(-668.829 -34.443)" fill="#fff"/>
</svg>
