<svg xmlns="http://www.w3.org/2000/svg" xmlns:xlink="http://www.w3.org/1999/xlink" width="114" height="114" viewBox="0 0 114 114">
  <defs>
    <clipPath id="clip-path">
      <rect id="Ret칙ngulo_172" data-name="Ret칙ngulo 172" width="114" height="114" transform="translate(2300 7724)" fill="#f5f5f5"/>
    </clipPath>
  </defs>
  <g id="Grupo_de_m치scara_69" data-name="Grupo de m치scara 69" transform="translate(-2300 -7724)" clip-path="url(#clip-path)">
    <g id="Layer_2" data-name="Layer 2" transform="translate(2322 7747)">
      <g id="Surfaces">
        <g id="Video_Audio_Surface" data-name="Video Audio Surface">
          <g id="Outline_no_shadow" data-name="Outline no shadow">
            <path id="Caminho_7496" data-name="Caminho 7496" d="M12.459,0H57.9A12.449,12.449,0,0,1,70.36,12.459V56.141A12.449,12.449,0,0,1,57.9,68.6H12.459A12.449,12.449,0,0,1,0,56.141V12.459A12.449,12.449,0,0,1,12.459,0Z" fill="#00005b"/>
          </g>
        </g>
      </g>
      <g id="Outlined_Mnemonics_Logos" data-name="Outlined Mnemonics Logos" transform="translate(8.851 17.619)">
        <g id="An">
          <path id="Caminho_7497" data-name="Caminho 7497" d="M49.777,83.524H38.9l-2.228,6.889a.513.513,0,0,1-.557.41h-5.57c-.322,0-.41-.176-.322-.528l9.469-27.059c.088-.293.176-.528.293-.909a10.24,10.24,0,0,0,.176-1.906A.29.29,0,0,1,40.4,60.1h7.622c.235,0,.352.088.381.235L59.07,90.325c.088.322,0,.469-.293.469H52.65a.443.443,0,0,1-.469-.322ZM40.6,77.69h7.446c-.176-.616-.41-1.349-.674-2.111-.264-.792-.528-1.642-.792-2.521-.293-.909-.557-1.788-.85-2.7s-.557-1.759-.792-2.609c-.235-.821-.44-1.583-.645-2.287h-.059a36,36,0,0,1-1,3.782c-.44,1.407-.879,2.873-1.349,4.339C41.48,75.081,41.04,76.459,40.6,77.69Z" transform="translate(-30.19 -60.1)" fill="#99f"/>
          <path id="Caminho_7498" data-name="Caminho 7498" d="M139.534,107.136V89.722c0-.528,0-1.143-.029-1.788-.029-.674-.029-1.29-.059-1.876s-.059-1.143-.088-1.5a.28.28,0,0,1,.059-.293.5.5,0,0,1,.293-.088h4.72a1.215,1.215,0,0,1,.469.088.454.454,0,0,1,.235.322c.059.176.147.41.205.645a5.6,5.6,0,0,1,.176.967,9.74,9.74,0,0,1,3.108-1.818,11.248,11.248,0,0,1,3.547-.586,8.745,8.745,0,0,1,2.756.44,7.049,7.049,0,0,1,4.456,4.339,13.3,13.3,0,0,1,.645,4.691v13.867c0,.293-.117.41-.381.41l-5.512.059a.406.406,0,0,1-.469-.352V94a6.868,6.868,0,0,0-.557-2.551,3.218,3.218,0,0,0-3.2-1.994,5.779,5.779,0,0,0-2.228.41,6.165,6.165,0,0,0-1.759,1.114v16.183c0,.293-.117.41-.381.41h-5.57a.365.365,0,0,1-.41-.322C139.5,107.195,139.5,107.165,139.534,107.136Z" transform="translate(-107.341 -76.852)" fill="#99f"/>
        </g>
      </g>
    </g>
  </g>
</svg>
