<svg xmlns="http://www.w3.org/2000/svg" xmlns:xlink="http://www.w3.org/1999/xlink" width="114" height="114" viewBox="0 0 114 114">
  <defs>
    <clipPath id="clip-path">
      <rect width="114" height="114" fill="none"/>
    </clipPath>
    <clipPath id="clip-path-2">
      <rect id="Retângulo_177" data-name="Retângulo 177" width="114" height="114" transform="translate(1886 7724)" fill="#f5f5f5"/>
    </clipPath>
  </defs>
  <g id="Repetição_de_grade_3" data-name="Repetição de grade 3" clip-path="url(#clip-path)">
    <g transform="translate(-1886 -7724)">
      <g id="Grupo_de_máscara_66" data-name="Grupo de máscara 66" clip-path="url(#clip-path-2)">
        <g id="Layer_2" data-name="Layer 2" transform="translate(1907.517 7747)">
          <g id="Surfaces" transform="translate(0)">
            <g id="Video_Audio_Surface" data-name="Video Audio Surface">
              <g id="Outline_no_shadow" data-name="Outline no shadow">
                <rect id="Retângulo_222" data-name="Retângulo 222" width="70" height="68" rx="13" transform="translate(0.483)" fill="#00005b"/>
              </g>
            </g>
          </g>
          <g id="Outlined_Mnemonics_Logos" data-name="Outlined Mnemonics Logos" transform="translate(8.061 17.598)">
            <g id="Au">
              <path id="Caminho_7499" data-name="Caminho 7499" d="M26.016,36.565H15.287L13.1,43.679a.547.547,0,0,1-.557.418H7.112c-.31,0-.418-.169-.325-.511l9.29-26.406q.139-.418.28-.953a9.947,9.947,0,0,0,.185-1.881.288.288,0,0,1,.325-.325h7.386c.215,0,.339.078.37.232L35.166,43.633c.093.31,0,.466-.279.464H28.849a.427.427,0,0,1-.463-.325Zm-9.057-4.942h7.758c-.186-.619-.668-1.919-.915-2.694s-.428-1.628-.707-2.511-.559-1.681-.837-2.563-.475-1.742-.706-2.562-.311-1.543-.5-2.223l-.473-.025a37.257,37.257,0,0,1-.975,3.716q-.65,2.09-1.323,4.273C17.834,28.49,17.393,30.384,16.959,31.623Z" transform="translate(-6.754 -14.019)" fill="#99f"/>
              <path id="Caminho_7500" data-name="Caminho 7500" d="M51.055,20.359l-.113,17.018q0,1.162.023,2.068c.016.6.046,1.13.094,1.579s.085.829.115,1.137c.03.249-.078.372-.325.372l-4.784.062a.545.545,0,0,1-.557-.325,7.086,7.086,0,0,1-.162-.719,4.2,4.2,0,0,1-.07-.721A8.19,8.19,0,0,1,42.2,42.778a12.562,12.562,0,0,1-3.2.442,10.575,10.575,0,0,1-3.3-.523,5.833,5.833,0,0,1-2.482-1.414A8.79,8.79,0,0,1,31.6,38.206a12.779,12.779,0,0,1-.581-4.111v-13.7a.329.329,0,0,1,.279-.372.3.3,0,0,1,.094,0h5.462a.328.328,0,0,1,.372.279.288.288,0,0,1,0,.093V33.351a4.818,4.818,0,0,0,.836,3,3.922,3.922,0,0,0,3.02,1.341,6.536,6.536,0,0,0,2.154-.6,6.151,6.151,0,0,0,1.626-.953V20.347c0-.216.139-.325.418-.325l5.453.013a.288.288,0,0,1,.325.325Z" transform="translate(-0.56 -12.487)" fill="#99f"/>
            </g>
          </g>
        </g>
      </g>
    </g>
  </g>
</svg>
