<svg xmlns="http://www.w3.org/2000/svg" xmlns:xlink="http://www.w3.org/1999/xlink" width="114" height="114" viewBox="0 0 114 114">
  <defs>
    <clipPath id="clip-path">
      <rect id="Ret칙ngulo_182" data-name="Ret칙ngulo 182" width="114" height="114" transform="translate(1886 7922)" fill="#f5f5f5"/>
    </clipPath>
  </defs>
  <g id="Grupo_de_m치scara_67" data-name="Grupo de m치scara 67" transform="translate(-1886 -7922)" clip-path="url(#clip-path)">
    <g id="Grupo_1507" data-name="Grupo 1507" transform="translate(1908 7945)">
      <path id="Caminho_7504" data-name="Caminho 7504" d="M12.459,0H57.9A12.449,12.449,0,0,1,70.36,12.459V56.141A12.449,12.449,0,0,1,57.9,68.6H12.459A12.449,12.449,0,0,1,0,56.141V12.459A12.449,12.449,0,0,1,12.459,0Z" fill="#00005b"/>
      <path id="Caminho_7505" data-name="Caminho 7505" d="M59.025,83.656v4.867a.649.649,0,0,1-.381.674,12.82,12.82,0,0,1-2.785.645,31.2,31.2,0,0,1-3.694.205,20.857,20.857,0,0,1-5.218-.645,16.164,16.164,0,0,1-4.515-1.935,13.426,13.426,0,0,1-3.489-3.2,13.916,13.916,0,0,1-2.257-4.4,18.589,18.589,0,0,1-.792-5.658,16.622,16.622,0,0,1,2.081-8.385A14.341,14.341,0,0,1,43.869,60.2a19.3,19.3,0,0,1,9.117-2.111c1.231,0,2.433.059,3.665.176a12.239,12.239,0,0,1,2.492.557.614.614,0,0,1,.235.557v5.306c0,.293-.117.381-.322.293a10.415,10.415,0,0,0-2.814-.85,22.621,22.621,0,0,0-3.459-.264,10.846,10.846,0,0,0-5.424,1.319A8.76,8.76,0,0,0,43.869,68.7a11.121,11.121,0,0,0-1.231,5.306,11.6,11.6,0,0,0,.586,3.87,8.516,8.516,0,0,0,1.642,2.873,8.279,8.279,0,0,0,2.345,1.935,11.6,11.6,0,0,0,2.814,1.055,12.2,12.2,0,0,0,2.9.44,29.14,29.14,0,0,0,3.2-.147,10.855,10.855,0,0,0,2.551-.645c.117-.088.205-.117.293-.059A.407.407,0,0,1,59.025,83.656Z" transform="translate(-25.37 -41.059)" fill="#99f"/>
      <path id="Caminho_7506" data-name="Caminho 7506" d="M135.826,67.706V84.241c0,.264-.117.381-.322.381H129.61a.365.365,0,0,1-.41-.322V51.612c0-.205.117-.322.381-.322h5.951a.275.275,0,0,1,.322.235v.088l.029,11.14a13.223,13.223,0,0,1,2.726-1.378,10.44,10.44,0,0,1,3.459-.44,9.648,9.648,0,0,1,2.756.41,6.883,6.883,0,0,1,2.58,1.378,7.228,7.228,0,0,1,1.818,2.873,13.176,13.176,0,0,1,.7,4.691v13.9c0,.293-.117.41-.381.41H144a.406.406,0,0,1-.469-.352V70.931a6.052,6.052,0,0,0-.44-2.492,3.572,3.572,0,0,0-1.231-1.5,3.976,3.976,0,0,0-2.169-.528,7.144,7.144,0,0,0-2.081.293A7.581,7.581,0,0,0,135.826,67.706Z" transform="translate(-91.323 -36.25)" fill="#99f"/>
    </g>
  </g>
</svg>
