<svg xmlns="http://www.w3.org/2000/svg" xmlns:xlink="http://www.w3.org/1999/xlink" width="114" height="114" viewBox="0 0 114 114">
  <defs>
    <clipPath id="clip-path">
      <rect id="Ret칙ngulo_160" data-name="Ret칙ngulo 160" width="114" height="114" transform="translate(1110 8201)" fill="#f5f5f5"/>
    </clipPath>
  </defs>
  <g id="Grupo_de_m치scara_19" data-name="Grupo de m치scara 19" transform="translate(-1110 -8201)" clip-path="url(#clip-path)">
    <g id="Grupo_1349" data-name="Grupo 1349" transform="translate(1132 8224)">
      <path id="Caminho_7268" data-name="Caminho 7268" d="M96.823,89C88.6,89,86.7,93.888,86.7,102.11l.03,40c0,8.252,2.576,11,10.8,11h44.094c8.222,0,11-2.751,11-10.973V100.616c0-8.252-3.073-11.616-11.3-11.616Z" transform="translate(-84.563 -86.806)" fill="#001d26" fill-rule="evenodd"/>
      <path id="Caminho_7269" data-name="Caminho 7269" d="M0,12.582V55.947A12.28,12.28,0,0,0,12.259,68.47H57.7A12.525,12.525,0,0,0,70.254,55.947V12.523A12.57,12.57,0,0,0,57.672,0H12.259A12.28,12.28,0,0,0,0,12.523ZM56.765,2.955a10.509,10.509,0,0,1,10.5,10.182V54.776c0,5.59-4.535,10.739-10.125,10.739H13.08A10.3,10.3,0,0,1,2.955,55.185V13.724c0-5.56,4.535-10.768,10.1-10.768Z" fill="#00c8ff" fill-rule="evenodd"/>
      <path id="Caminho_7270" data-name="Caminho 7270" d="M1060.2,1021.681a.155.155,0,0,0,.175.175h2.341a.155.155,0,0,0,.175-.175v-6.263c.409,0,.614.03,1.23.03,3.569,0,6.5-1.725,6.5-5.706,0-3.073-1.9-5.442-6.263-5.442-1.55,0-3.014.03-4.008.089-.116,0-.146.089-.146.175C1060.2,1004.564,1060.2,1021.681,1060.2,1021.681Zm2.721-14.862c.293-.03.877-.059,1.521-.059,2.107,0,3.394,1.025,3.394,3.014,0,2.487-1.755,3.13-3.628,3.13-.614,0-.907,0-1.286-.03Zm16.91,4.885a.154.154,0,0,0,.234-.145v-2.167a.379.379,0,0,0-.145-.323,7.832,7.832,0,0,0-2.9-.439c-2.751,0-4.33,1.7-4.33,3.717,0,1.814.937,2.9,3.16,3.98,1.58.818,1.959,1.316,1.959,1.9,0,.7-.527,1.23-1.755,1.23a6.324,6.324,0,0,1-3.308-.937c-.116-.089-.175-.03-.175.116v2.312a.29.29,0,0,0,.116.264,7.655,7.655,0,0,0,3.364.673c2.605,0,4.535-1.346,4.535-3.862,0-1.7-.791-2.839-3.249-4.037-1.669-.848-1.959-1.257-1.959-1.814,0-.527.409-1.141,1.669-1.141A5.971,5.971,0,0,1,1079.831,1011.7Z" transform="translate(-1034.069 -979.547)" fill="#00c8ff" fill-rule="evenodd"/>
      <path id="Caminho_7271" data-name="Caminho 7271" d="M561.144,548.415a4.01,4.01,0,0,1-2.81-1.141l-17.847-17.847a3.941,3.941,0,0,1,0-5.59l17.847-17.849a3.941,3.941,0,0,1,5.59,0h0l17.849,17.849a3.941,3.941,0,0,1,0,5.59l-17.849,17.849A3.9,3.9,0,0,1,561.144,548.415Zm0-42.718a3.076,3.076,0,0,0-2.194.907L541.1,524.453a3.09,3.09,0,0,0,0,4.36l17.849,17.849a3.09,3.09,0,0,0,4.36,0l17.849-17.849a3.09,3.09,0,0,0,0-4.36L563.311,506.6A2.961,2.961,0,0,0,561.144,505.7Z" transform="translate(-526.032 -492.383)" fill="#caf1fe"/>
    </g>
  </g>
</svg>
