<svg xmlns="http://www.w3.org/2000/svg" xmlns:xlink="http://www.w3.org/1999/xlink" width="114" height="114" viewBox="0 0 114 114">
  <defs>
    <clipPath id="clip-path">
      <rect width="114" height="114" fill="none"/>
    </clipPath>
    <clipPath id="clip-path-2">
      <rect id="Retângulo_198" data-name="Retângulo 198" width="114" height="114" transform="translate(4846 7526)" fill="#f5f5f5"/>
    </clipPath>
  </defs>
  <g id="Repetição_de_grade_1" data-name="Repetição de grade 1" clip-path="url(#clip-path)">
    <g transform="translate(-4846 -7526)">
      <g id="Grupo_de_máscara_73" data-name="Grupo de máscara 73" clip-path="url(#clip-path-2)">
        <g id="Layer_2" data-name="Layer 2" transform="translate(4868 7549)">
          <g id="Surfaces">
            <g id="UI_UX_Surface" data-name="UI UX Surface">
              <g id="Outline_no_shadow" data-name="Outline no shadow">
                <path id="Caminho_7385" data-name="Caminho 7385" d="M12.459,0H57.9A12.449,12.449,0,0,1,70.36,12.459V56.141A12.449,12.449,0,0,1,57.9,68.6H12.459A12.449,12.449,0,0,1,0,56.141V12.459A12.449,12.449,0,0,1,12.459,0Z" fill="#470137"/>
              </g>
            </g>
          </g>
          <g id="Outlined_Mnemonics_Logos" data-name="Outlined Mnemonics Logos" transform="translate(10.249 15.035)">
            <g id="Xd">
              <path id="Caminho_7386" data-name="Caminho 7386" d="M61.709,60.44,52.914,74.951,62.3,90.343a.5.5,0,0,1,.059.352c-.029.117-.147.029-.322.059H55.318c-.469,0-.792-.029-1-.322C53.705,89.2,53.061,88,52.445,86.766c-.616-1.2-1.29-2.433-1.994-3.694s-1.407-2.521-2.111-3.811h-.059c-.616,1.261-1.29,2.521-1.964,3.782s-1.349,2.521-1.994,3.753c-.674,1.231-1.349,2.492-2.023,3.694-.117.293-.352.322-.674.322h-6.45c-.117,0-.205.059-.205-.088a.407.407,0,0,1,.059-.322L44.148,75.45,35.265,60.41c-.088-.117-.117-.235-.059-.293A.34.34,0,0,1,35.5,60h6.655a1.73,1.73,0,0,1,.41.059.832.832,0,0,1,.293.264c.557,1.261,1.2,2.521,1.876,3.782.7,1.261,1.378,2.492,2.111,3.723.7,1.231,1.349,2.463,1.964,3.723h.059c.616-1.29,1.261-2.551,1.906-3.782s1.319-2.463,1.994-3.694,1.319-2.492,1.964-3.694a.5.5,0,0,1,.176-.293.559.559,0,0,1,.381-.059h6.186a.27.27,0,0,1,.322.205c.029.029-.029.147-.088.205Z" transform="translate(-34.961 -57.445)" fill="#ff61f6"/>
              <path id="Caminho_7387" data-name="Caminho 7387" d="M142.64,85.208a14.575,14.575,0,0,1-6.3-1.319A10.221,10.221,0,0,1,131.91,79.9a12.685,12.685,0,0,1-1.612-6.684,12.041,12.041,0,0,1,1.612-6.186,12.174,12.174,0,0,1,4.661-4.544,15,15,0,0,1,7.417-1.7,5.235,5.235,0,0,1,.616.029c.264.029.557.029.909.059V51.611c0-.205.088-.322.293-.322h5.951a.263.263,0,0,1,.293.205V79.462c0,.528.029,1.114.059,1.759.059.616.088,1.2.117,1.7a.476.476,0,0,1-.293.469,22.39,22.39,0,0,1-4.779,1.407A25.86,25.86,0,0,1,142.64,85.208Zm2.873-5.863v-12.9a7.5,7.5,0,0,0-.792-.147c-.322-.029-.645-.059-.967-.059a7.227,7.227,0,0,0-3.313.762,6.572,6.572,0,0,0-2.492,2.169,6.5,6.5,0,0,0-.967,3.723,8.169,8.169,0,0,0,.5,3.02A5.729,5.729,0,0,0,138.8,78a5.064,5.064,0,0,0,1.994,1.173,7.674,7.674,0,0,0,2.433.381c.44,0,.85-.029,1.231-.059A2.564,2.564,0,0,0,145.513,79.345Z" transform="translate(-102.347 -51.284)" fill="#ff61f6"/>
            </g>
          </g>
        </g>
      </g>
    </g>
  </g>
</svg>
