<svg xmlns="http://www.w3.org/2000/svg" xmlns:xlink="http://www.w3.org/1999/xlink" width="114" height="114" viewBox="0 0 114 114">
  <defs>
    <clipPath id="clip-path">
      <rect id="Ret칙ngulo_36" data-name="Ret칙ngulo 36" width="114" height="114" transform="translate(6328 7526)" fill="#f5f5f5"/>
    </clipPath>
  </defs>
  <g id="Grupo_de_m치scara_75" data-name="Grupo de m치scara 75" transform="translate(-6328 -7526)" clip-path="url(#clip-path)">
    <g id="Grupo_1509" data-name="Grupo 1509" transform="translate(6350 7549)">
      <path id="Caminho_7509" data-name="Caminho 7509" d="M12.959,0H58.4A12.449,12.449,0,0,1,70.86,12.459V56.141A12.449,12.449,0,0,1,58.4,68.6H12.959A12.449,12.449,0,0,1,.5,56.141V12.459A12.449,12.449,0,0,1,12.959,0Z" transform="translate(-0.5)" fill="#013301"/>
      <path id="Caminho_7510" data-name="Caminho 7510" d="M61.347,83.524H50.442l-2.228,6.919a.513.513,0,0,1-.557.41H42.145c-.322,0-.41-.176-.322-.528l9.44-27.088c.088-.293.176-.557.293-.909a10.24,10.24,0,0,0,.176-1.906.29.29,0,0,1,.235-.322h7.593c.235,0,.352.088.381.235l10.7,30.049c.088.322,0,.469-.293.469H64.22a.443.443,0,0,1-.469-.322ZM52.142,77.69h7.446c-.176-.616-.41-1.349-.674-2.111-.264-.792-.528-1.642-.792-2.521-.293-.909-.557-1.788-.85-2.7s-.557-1.759-.792-2.609c-.235-.821-.44-1.583-.645-2.287h-.059a35.993,35.993,0,0,1-1,3.782c-.44,1.407-.879,2.873-1.349,4.339-.41,1.5-.85,2.873-1.29,4.1Z" transform="translate(-29.686 -42.481)" fill="#3f6"/>
      <path id="Caminho_7511" data-name="Caminho 7511" d="M150.109,84.072h5.13a.66.66,0,0,1,.616.469,3.29,3.29,0,0,1,.235.762c.059.293.117.616.147.909.029.322.059.674.059,1.055a10.911,10.911,0,0,1,3.137-2.521,8.112,8.112,0,0,1,4.192-1.055.365.365,0,0,1,.41.322v5.834c0,.235-.147.322-.469.322a10.987,10.987,0,0,0-2.932.205,12.064,12.064,0,0,0-2.463.792,5.838,5.838,0,0,0-1.759,1.085v14.863c0,.293-.117.41-.381.41h-5.511a.406.406,0,0,1-.469-.352V90.932c0-.7,0-1.437-.029-2.2s-.029-1.524-.059-2.287c-.029-.674-.088-1.378-.176-2.052a.27.27,0,0,1,.205-.322Z" transform="translate(-106.017 -59.153)" fill="#3f6"/>
    </g>
  </g>
</svg>
