<svg xmlns="http://www.w3.org/2000/svg" xmlns:xlink="http://www.w3.org/1999/xlink" width="114" height="114" viewBox="0 0 114 114">
  <defs>
    <clipPath id="clip-path">
      <rect id="Ret칙ngulo_161" data-name="Ret칙ngulo 161" width="114" height="114" transform="translate(6328 7754)" fill="#f5f5f5"/>
    </clipPath>
  </defs>
  <g id="Grupo_de_m치scara_76" data-name="Grupo de m치scara 76" transform="translate(-6328 -7754)" clip-path="url(#clip-path)">
    <g id="Grupo_1511" data-name="Grupo 1511" transform="translate(6355 7777)">
      <path id="Caminho_7513" data-name="Caminho 7513" d="M-232.688,213.2-262.4,196.071V161.736l29.686-17.141,29.725,17.129v34.324Zm0-2.366,27.612-15.943v-32l-27.637-15.927-27.6,15.936v32.009Z" transform="translate(262.4 -144.595)" fill="#f8880c"/>
      <path id="Caminho_7514" data-name="Caminho 7514" d="M-189.018,219.366l.171-.832a8.537,8.537,0,0,0-1.772.4,7.02,7.02,0,0,1-1.759.136c-.59-.05-1.188-.011-1.833-.011-.4-.884-.8-1.707-1.155-2.551a53.618,53.618,0,0,1-2.169-6.109,2.725,2.725,0,0,0-1.627-1.825q-2.259-.9-4.536-1.762c-.783-.3-1.577-.563-2.378-.807a1.175,1.175,0,0,1-.859-.779,21.828,21.828,0,0,1-.628-2.174,2.8,2.8,0,0,1,.143-1.6c.326-.829.608-1.676.949-2.5a7.243,7.243,0,0,1,.6-.981c1.014.587,1.962,1.157,2.931,1.688.854.469,1.733.89,2.6,1.34a.9.9,0,0,0,1.055-.084c1.963-1.449,3.976-2.833,5.889-4.343a28.292,28.292,0,0,0,2.575-2.6,1.067,1.067,0,0,0,.258-1.1,1.851,1.851,0,0,0-1.766-1.556l-.7.619c-.13-.246.03-.683-.44-.636-.229.491-.44.985-.689,1.459a.851.851,0,0,0-.061.771,4.8,4.8,0,0,1,.192.7c.211.925.139,1.089-.686,1.582a26.035,26.035,0,0,1-3.68,1.7c-.376.152-.761.283-1.136.436a.584.584,0,0,1-.6-.089c-1.341-.919-2.7-1.82-4.033-2.743a9.676,9.676,0,0,1-1.857-1.7,1.88,1.88,0,0,1,1.232-1.323.8.8,0,0,1,.532.033c.555.216,1.1.466,1.644.7a1.18,1.18,0,0,0,1.689-.685c.111-.293.157-.594.544-.735.141-.051.149-.471.225-.749.253-.282.777.157,1.008-.388-.145-.283-.331-.605-.48-.944-.249-.567-.2-.864.337-1.162a.86.86,0,0,0,.457-.786,7.767,7.767,0,0,0-.185-2.5,4.026,4.026,0,0,0-3.223-2.86,5.03,5.03,0,0,0-2.092.011,4.365,4.365,0,0,0-3.059,2.329,3.449,3.449,0,0,0-.287,1.891c.1,1.023.077,2.059.1,3.09a1.545,1.545,0,0,1-.6,1.11,4.063,4.063,0,0,1-.513.4,2.2,2.2,0,0,1-1.959.446c-1.28-.332-2.575-.589-3.834-1.022-1.479-.508-3.006-.875-4.507-1.321a1.286,1.286,0,0,0-1.388.377c-1.3,1.27-2.636,2.5-3.941,3.767-1.185,1.149-2.347,2.323-3.526,3.493.195.66.352,1.258.556,1.84a.756.756,0,0,0,.381.372c.341.157.7.263,1.187.436l.716-.74.284.389a13,13,0,0,0,.789-1.795c.039-.075-.032-.206-.051-.311l-.321-1.734,5.175-3.532,4.584,2.754c-.267,1.648-.518,3.22-.778,4.791a4.694,4.694,0,0,0,.02,1.768c.272,1.3.456,2.609.695,3.912.136.741.309,1.475.462,2.2l-4.536,6.588c-.344-.5-.715-.965-1-1.477a2.6,2.6,0,0,0-1.484-1.17c-1.161-.445-2.3-.941-3.453-1.413a2.085,2.085,0,0,1-1.258-1.3,4.2,4.2,0,0,0-.447-.864.611.611,0,0,0-.9-.28c-.471.206-.926.453-1.381.693q-1.077.569-2.146,1.154a2.87,2.87,0,0,0-1.3,1.988,2.561,2.561,0,0,0,1.278-.429c1.152-.693,2.413-.5,3.649-.477a1.13,1.13,0,0,1,.62.339c1.149,1.033,2.314,2.05,3.413,3.134,1.177,1.161,2.294,2.384,3.425,3.591a1.874,1.874,0,0,0,2.477.127q2.777-2.318,5.576-4.61c.565-.461,1.191-.847,1.766-1.3a4.291,4.291,0,0,1,3.7-.738c1.349.28,2.683.632,4.024.95.393.093.788.175,1.263.28.233.728.5,1.463.7,2.217a2.45,2.45,0,0,0,.51.987c.976,1.2,1.927,2.412,2.891,3.619a6.168,6.168,0,0,1,1.406,2.972,1.232,1.232,0,0,0,.945,1.048c-5.839,3.384-11.574,6.685-17.335,10.016L-237.38,217.82V188.161l25.612-14.789,25.64,14.779V217.8c-.887.506-1.821,1.041-2.758,1.57-.035.02-.1-.015-.152-.025Z" transform="translate(241.456 -168.684)" fill="#f8880c"/>
      <path id="Caminho_7515" data-name="Caminho 7515" d="M59.106,455.572l-.047.1c0-.014,0-.031.012-.04a.354.354,0,0,1,.056-.039Z" transform="translate(-6.689 -404.909)" fill="#f8880c"/>
    </g>
  </g>
</svg>
