<svg width="33" height="33" viewBox="0 0 33 33" fill="none" xmlns="http://www.w3.org/2000/svg">
<path d="M22.088 11.434C22.088 11.2922 21.972 11.1762 21.8302 11.1762L19.7033 11.1858L16.5 15.0047L13.2999 11.1891L11.1697 11.1794C11.0279 11.1794 10.9119 11.2922 10.9119 11.4372C10.9119 11.4984 10.9344 11.5565 10.9731 11.6048L15.1658 16.5999L10.9731 21.5918C10.9342 21.639 10.9125 21.6982 10.9119 21.7594C10.9119 21.9012 11.0279 22.0172 11.1697 22.0172L13.2999 22.0075L16.5 18.1887L19.7001 22.0043L21.827 22.014C21.9688 22.014 22.0848 21.9012 22.0848 21.7562C22.0848 21.6949 22.0623 21.6369 22.0236 21.5886L17.8374 16.5967L22.03 11.6016C22.0687 11.5565 22.088 11.4952 22.088 11.434Z" fill="black"/>
<path d="M16.5 2.09473C8.52715 2.09473 2.0625 8.55938 2.0625 16.5322C2.0625 24.5051 8.52715 30.9697 16.5 30.9697C24.4729 30.9697 30.9375 24.5051 30.9375 16.5322C30.9375 8.55938 24.4729 2.09473 16.5 2.09473ZM16.5 28.5205C9.88066 28.5205 4.51172 23.1516 4.51172 16.5322C4.51172 9.91289 9.88066 4.54395 16.5 4.54395C23.1193 4.54395 28.4883 9.91289 28.4883 16.5322C28.4883 23.1516 23.1193 28.5205 16.5 28.5205Z" fill="black"/>
</svg>
