<svg width="18" height="18" viewBox="0 0 18 18" fill="none" xmlns="http://www.w3.org/2000/svg">
<circle r="9" transform="matrix(-1 0 0 1 9 9)" fill="#DF4D33"/>
<path d="M4.2749 4.9502H13.7249C13.9039 4.9502 14.0756 5.02131 14.2022 5.1479C14.3288 5.27449 14.3999 5.44617 14.3999 5.6252V12.3752C14.3999 12.5542 14.3288 12.7259 14.2022 12.8525C14.0756 12.9791 13.9039 13.0502 13.7249 13.0502H4.2749C4.09588 13.0502 3.92419 12.9791 3.7976 12.8525C3.67102 12.7259 3.5999 12.5542 3.5999 12.3752V5.6252C3.5999 5.44617 3.67102 5.27449 3.7976 5.1479C3.92419 5.02131 4.09588 4.9502 4.2749 4.9502ZM4.79465 12.3752H13.1647L10.8022 9.9317L11.2882 9.46257L13.7249 11.9837V6.1382L9.52978 10.3131C9.40331 10.4388 9.23223 10.5094 9.0539 10.5094C8.87558 10.5094 8.7045 10.4388 8.57803 10.3131L4.2749 6.03357V11.9398L6.7589 9.45582L7.23478 9.9317L4.79465 12.3752ZM13.2828 5.6252H4.82165L9.0539 9.83382L13.2828 5.6252Z" fill="#FFFDFD"/>
</svg>
