<svg xmlns="http://www.w3.org/2000/svg" width="21" height="21" viewBox="0 0 21 21">
  <path id="Icon_simple-whatsapp" data-name="Icon simple-whatsapp" d="M15.311,12.584c-.263-.131-1.546-.759-1.785-.845s-.414-.131-.589.131-.675.843-.826,1.017-.305.184-.565.066a7.1,7.1,0,0,1-2.1-1.3A7.938,7.938,0,0,1,7.99,9.842c-.152-.262-.017-.407.114-.538s.263-.3.395-.458a2.218,2.218,0,0,0,.26-.434.481.481,0,0,0-.022-.458c-.066-.131-.588-1.417-.807-1.93s-.426-.446-.588-.446-.325-.013-.5-.013a.986.986,0,0,0-.7.314,2.921,2.921,0,0,0-.914,2.166A5.12,5.12,0,0,0,6.3,10.734a11.667,11.667,0,0,0,4.462,3.924c.625.262,1.111.42,1.491.55a3.62,3.62,0,0,0,1.645.106,2.693,2.693,0,0,0,1.764-1.248,2.166,2.166,0,0,0,.157-1.247c-.065-.118-.236-.184-.5-.3m-4.765,6.513h-.014a8.753,8.753,0,0,1-4.423-1.207L5.8,17.636,2.52,18.49,3.4,15.3l-.209-.328A8.678,8.678,0,0,1,16.706,4.266a8.564,8.564,0,0,1,2.545,6.116,8.689,8.689,0,0,1-8.693,8.649m7.4-16.014A10.624,10.624,0,0,0,10.539,0,10.4,10.4,0,0,0,1.484,15.608L0,21l5.543-1.445a10.554,10.554,0,0,0,5,1.266h.005A10.447,10.447,0,0,0,21,10.412a10.32,10.32,0,0,0-3.058-7.36" fill="#fff"/>
</svg>
