<svg xmlns="http://www.w3.org/2000/svg" width="114" height="114" viewBox="0 0 114 114">
  <g id="Grupo_1055" data-name="Grupo 1055" transform="translate(-1386 -1335)">
    <rect id="Retângulo_59" data-name="Retângulo 59" width="114" height="114" transform="translate(1386 1335)" fill="#0055a3" opacity="0"/>
    <g id="Grupo_1048" data-name="Grupo 1048" transform="translate(1407 1358)">
      <path id="Caminho_65" data-name="Caminho 65" d="M345.294,123.467l-11.342,11.3a2.121,2.121,0,1,0,3,3l11.306-11.26C348.235,126.475,345.349,123.5,345.294,123.467Z" transform="translate(-333.331 -88.71)" fill="#2383c6"/>
      <path id="Caminho_66" data-name="Caminho 66" d="M363.456,135.2a41.507,41.507,0,0,1-3.832,2.167l13.812,13.886a2.121,2.121,0,0,0,3-3Z" transform="translate(-322.838 -84.027)" fill="#dfe6f2"/>
      <path id="Caminho_67" data-name="Caminho 67" d="M367.109,109.1l-3.235-3.235,5.087-2.544,3.11,2.981c.774-.669,3.313-2.654,3.326-2.674l-4.518-4.389a2.122,2.122,0,0,0-2.447-.4l-7.763,3.882a6.128,6.128,0,0,0-8.112.481l-.011.011a6.115,6.115,0,0,0-1.735,5.212,6.106,6.106,0,0,0-2.807,1.6h0a6.126,6.126,0,0,0-1.367,6.6,6.122,6.122,0,0,0-2.024,1.338l-.015.017a6.13,6.13,0,0,0-1.368,6.6,6.107,6.107,0,0,0-2.033,1.347l-.011.011a6.132,6.132,0,0,0,0,8.672l.206.2a13.391,13.391,0,0,0,3.521,2.478A5.883,5.883,0,0,0,351,135.753l.011-.011a6.081,6.081,0,0,0,1.771-3.888,6.08,6.08,0,0,0,3.9-1.78h0a6.088,6.088,0,0,0,1.78-3.9,6.1,6.1,0,0,0,3.894-1.774l.01-.01a6.109,6.109,0,0,0,1.773-3.892,6.091,6.091,0,0,0,3.9-1.777l.008-.01a5.649,5.649,0,0,0,1.54-6.083A19.27,19.27,0,0,0,367.109,109.1ZM348,132.752l-.008.008a1.891,1.891,0,0,1-2.671-.006l-1.139-1.139a1.894,1.894,0,0,1,0-2.678h0a1.891,1.891,0,0,1,2.676,0L348,130.074A1.892,1.892,0,0,1,348,132.752Zm5.679-5.679h0a1.891,1.891,0,0,1-2.678,0l-3.41-3.41a1.891,1.891,0,0,1-.01-2.668l.013-.011a1.891,1.891,0,0,1,2.676,0l3.41,3.41A1.891,1.891,0,0,1,353.683,127.073Zm5.68-5.68h0a1.9,1.9,0,0,1-2.678,0L351,115.714a1.891,1.891,0,0,1,0-2.676l0,0a1.9,1.9,0,0,1,2.675,0l5.684,5.684h0A1.9,1.9,0,0,1,359.364,121.393Zm5.679-5.679h0a1.892,1.892,0,0,1-2.678,0l-6.816-6.818a1.892,1.892,0,0,1-.006-2.672l.008-.007a1.889,1.889,0,0,1,2.676,0l6.818,6.816A1.892,1.892,0,0,1,365.043,115.714Z" transform="translate(-330.913 -98.624)" fill="#dfe6f2"/>
      <path id="Caminho_68" data-name="Caminho 68" d="M388.643,134.656l-10.889-10.918c-1,.993-2.092,1.9-3.184,2.815l11.074,11.1a2.121,2.121,0,1,0,3-3Z" transform="translate(-316.873 -88.602)" fill="#dfe6f2"/>
      <path id="Caminho_69" data-name="Caminho 69" d="M390.264,134.14a6.142,6.142,0,0,0,0-8.673l-.007-.008a6.117,6.117,0,0,0-2.034-1.349,6.135,6.135,0,0,0-1.37-6.6l-.017-.018a6.138,6.138,0,0,0-2.02-1.336,6.143,6.143,0,0,0-1.368-6.6l0,0a6.115,6.115,0,0,0-2.036-1.352,6.145,6.145,0,0,0-1.37-6.6h0a6.142,6.142,0,0,0-8.677,0l-.2.206-3,3-3.815,3.815a22.94,22.94,0,0,1,2.476,3.521l7.543-7.542a1.9,1.9,0,0,1,2.678,0l0,0a1.892,1.892,0,0,1,0,2.676l-5.06,5.061a2.121,2.121,0,1,0,3,3l2.8-2.8a1.892,1.892,0,0,1,2.668.007l0,0a1.892,1.892,0,0,1,0,2.676l-3.976,3.976a2.121,2.121,0,0,0,3,3l1.7-1.7a1.891,1.891,0,0,1,2.678,0l.011.011a1.892,1.892,0,0,1-.008,2.668l-3.976,3.976a2.121,2.121,0,0,0,3,3l1.711-1.711a1.892,1.892,0,0,1,2.671.007h0a1.9,1.9,0,0,1,0,2.678l-14.4,14.394a8.79,8.79,0,0,1-6.255,2.592h-4.544a2.116,2.116,0,0,0-1.5.621l-13.63,13.63a2.121,2.121,0,0,0,3,3l13.009-13.009h2.786a24.818,24.818,0,0,0,5.254-.746,11.639,11.639,0,0,0,4.881-3.088l11.19-11.19,3-3Z" transform="translate(-328.147 -98.149)" fill="#2383c6"/>
    </g>
  </g>
</svg>
