<svg xmlns="http://www.w3.org/2000/svg" width="114" height="114" viewBox="0 0 114 114">
  <g id="Grupo_1057" data-name="Grupo 1057" transform="translate(-1110 -1617)">
    <rect id="Retângulo_61" data-name="Retângulo 61" width="114" height="114" transform="translate(1110 1617)" fill="#0055a3" opacity="0"/>
    <g id="Grupo_1031" data-name="Grupo 1031" transform="translate(1131 1642)">
      <path id="Caminho_53" data-name="Caminho 53" d="M243.087,199.137h-2.008V183.11a2.093,2.093,0,0,0-2.093-2.093H180.773a2.093,2.093,0,0,0-2.093,2.093v5.934h-2.857a2.093,2.093,0,0,0-2.093,2.093V243.16a2.094,2.094,0,0,0,2.093,2.094h67.264a2.094,2.094,0,0,0,2.093-2.094V201.23A2.092,2.092,0,0,0,243.087,199.137ZM182.866,185.2h54.027v13.933H213.619a21.118,21.118,0,0,0-18.034-10.093H182.866Zm58.128,55.864H177.916V193.23h17.669a16.942,16.942,0,0,1,14.974,8.985,2.092,2.092,0,0,0,1.847,1.108h28.587Z" transform="translate(-173.73 -181.017)" fill="#dfe6f2"/>
      <path id="Caminho_54" data-name="Caminho 54" d="M199.8,207.847a8.418,8.418,0,1,0-13.312,0,11.847,11.847,0,0,0-7.277,10.917,2.093,2.093,0,0,0,2.093,2.093h23.678a2.093,2.093,0,0,0,2.093-2.093A11.847,11.847,0,0,0,199.8,207.847Zm-6.657-9.374a4.231,4.231,0,1,1-4.231,4.231A4.236,4.236,0,0,1,193.145,198.473Zm-9.454,18.2a7.656,7.656,0,0,1,7.351-5.55h4.206a7.659,7.659,0,0,1,7.352,5.55Z" transform="translate(-171.542 -175.721)" fill="#2383c6"/>
    </g>
  </g>
</svg>
