<svg xmlns="http://www.w3.org/2000/svg" width="114" height="114" viewBox="0 0 114 114">
  <g id="Grupo_1058" data-name="Grupo 1058" transform="translate(-1248 -1617)">
    <rect id="Retângulo_62" data-name="Retângulo 62" width="114" height="114" transform="translate(1248 1617)" fill="#0055a3" opacity="0"/>
    <g id="Grupo_1036" data-name="Grupo 1036" transform="translate(1273 1642)">
      <g id="Grupo_1033" data-name="Grupo 1033" transform="translate(11.397)">
        <g id="Grupo_1032" data-name="Grupo 1032">
          <path id="Caminho_55" data-name="Caminho 55" d="M312.18,181.017h-7.6a1.893,1.893,0,1,0,0,3.786h2.776c-7.369,9.449-19.747,15.208-33.168,15.208a1.9,1.9,0,0,0,0,3.8c14.543,0,28-6.259,36.091-16.565v3.268a1.9,1.9,0,1,0,3.8,0v-7.6A1.9,1.9,0,0,0,312.18,181.017Z" transform="translate(-272.292 -181.017)" fill="#2383c6"/>
        </g>
      </g>
      <g id="Grupo_1035" data-name="Grupo 1035">
        <g id="Grupo_1034" data-name="Grupo 1034">
          <path id="Caminho_56" data-name="Caminho 56" d="M327.081,242.053h-2.152V201.911a1.9,1.9,0,0,0-1.9-1.9h-11.4a1.9,1.9,0,0,0-1.9,1.9v40.142h-3.8V209.509a1.9,1.9,0,0,0-1.9-1.9h-11.4a1.9,1.9,0,0,0-1.9,1.9v32.544h-3.8V217.106a1.9,1.9,0,0,0-1.9-1.9h-11.4a1.9,1.9,0,0,0-1.9,1.9v24.947h-3.8V182.916a1.9,1.9,0,0,0-3.8,0v61.036a1.9,1.9,0,0,0,1.9,1.9h61.035a1.9,1.9,0,1,0,0-3.8Zm-43.941,0h-7.6V219.006h7.6Zm19,0h-7.6V211.408h7.6Zm18.994,0h-7.6V203.811h7.6Z" transform="translate(-264.146 -181.017)" fill="#dfe6f2"/>
        </g>
      </g>
    </g>
  </g>
</svg>
