<svg xmlns="http://www.w3.org/2000/svg" width="114" height="114" viewBox="0 0 114 114">
  <g id="Grupo_1059" data-name="Grupo 1059" transform="translate(-1386 -1617)">
    <rect id="Retângulo_63" data-name="Retângulo 63" width="114" height="114" transform="translate(1386 1617)" fill="#0055a3" opacity="0"/>
    <g id="Grupo_1042" data-name="Grupo 1042" transform="translate(1412 1643)">
      <g id="Grupo_1039" data-name="Grupo 1039">
        <g id="Grupo_1038" data-name="Grupo 1038">
          <g id="Grupo_1037" data-name="Grupo 1037">
            <path id="Caminho_57" data-name="Caminho 57" d="M368,183.1a30.856,30.856,0,1,0,30.855,30.855A30.839,30.839,0,0,0,368,183.1Zm0,57.6a26.742,26.742,0,1,1,26.742-26.742A26.771,26.771,0,0,1,368,240.7Z" transform="translate(-337.147 -183.105)" fill="#dfe6f2"/>
          </g>
        </g>
      </g>
      <g id="Grupo_1041" data-name="Grupo 1041" transform="translate(14.896 14.896)">
        <g id="Grupo_1040" data-name="Grupo 1040">
          <path id="Caminho_58" data-name="Caminho 58" d="M377.657,207.655H365.811V195.809a2.057,2.057,0,0,0-4.115,0v11.846H349.852a2.057,2.057,0,1,0,0,4.113H361.7v11.846a2.057,2.057,0,0,0,4.115,0V211.768h11.846a2.057,2.057,0,0,0,0-4.113Z" transform="translate(-347.794 -193.752)" fill="#2383c6"/>
        </g>
      </g>
    </g>
  </g>
</svg>
