<svg xmlns="http://www.w3.org/2000/svg" width="114" height="114" viewBox="0 0 114 114">
  <g id="Grupo_1066" data-name="Grupo 1066" transform="translate(-834 -4886)">
    <rect id="Retângulo_37" data-name="Retângulo 37" width="114" height="114" transform="translate(834 4886)" fill="#2383c6" opacity="0"/>
    <g id="Grupo_1061" data-name="Grupo 1061" transform="translate(863 4911)">
      <g id="Grupo_1060" data-name="Grupo 1060" transform="translate(0 0)">
        <path id="Caminho_80" data-name="Caminho 80" d="M319.145,261.443a6.832,6.832,0,0,0-6.822-6.827H269.894a6.833,6.833,0,0,0-6.823,6.827V303.9a6.833,6.833,0,0,0,6.823,6.827h8.21a23.465,23.465,0,0,0,2.487,2.483c4.214,3.616,9.112,4.926,10.514,4.926a21.1,21.1,0,0,0,13-7.409h8.241a6.821,6.821,0,0,0,6.823-6.83Zm-49.251-3.1h42.428a3.105,3.105,0,0,1,3.1,3.1l0,8.191H266.793v-8.193A3.105,3.105,0,0,1,269.894,258.34Zm21.211,56.05c-7.888-1.342-16.176-9.278-16.716-26.278,9.7-.434,14.743-4.167,16.936-6.43a29.98,29.98,0,0,0,16.5,6.411C307.285,305.162,298.923,313.06,291.106,314.39ZM312.347,307h-5.574c3.607-6.106,4.8-13.555,4.8-20.707a1.86,1.86,0,0,0-1.86-1.862c-6.931,0-13.82-3.227-17.279-6.719a1.837,1.837,0,0,0-2.923.351c-1.778,2.758-7.444,6.368-17.008,6.368a1.86,1.86,0,0,0-1.86,1.862c0,7.152,1.19,14.6,4.8,20.707h-5.543a3.105,3.105,0,0,1-3.1-3.1V273.36H315.43l.019,30.536A3.1,3.1,0,0,1,312.347,307Z" transform="translate(-263.071 -254.616)" fill="#d6442e"/>
        <path id="Caminho_81" data-name="Caminho 81" d="M305.359,263a1.861,1.861,0,1,0-1.86,1.861A1.86,1.86,0,0,0,305.359,263Z" transform="translate(-256.853 -253.565)" fill="#d6442e"/>
        <path id="Caminho_82" data-name="Caminho 82" d="M298.949,263a1.861,1.861,0,1,0-1.86,1.861A1.86,1.86,0,0,0,298.949,263Z" transform="translate(-257.886 -253.565)" fill="#d6442e"/>
        <path id="Caminho_83" data-name="Caminho 83" d="M292.54,263a1.861,1.861,0,1,0-1.861,1.861A1.861,1.861,0,0,0,292.54,263Z" transform="translate(-258.92 -253.565)" fill="#d6442e"/>
        <path id="Caminho_84" data-name="Caminho 84" d="M293.434,287.746l-7.073,7.078-3.077-3.078a1.861,1.861,0,0,0-2.631,2.633l4.393,4.4a1.86,1.86,0,0,0,2.631,0l8.389-8.395a1.861,1.861,0,0,0-2.631-2.634Z" transform="translate(-260.324 -249.362)" fill="#d6442e"/>
      </g>
    </g>
  </g>
</svg>
