<svg xmlns="http://www.w3.org/2000/svg" width="311.051" height="35.297" viewBox="0 0 311.051 35.297">
  <g id="Grupo_1499" data-name="Grupo 1499" transform="translate(-281.733 -239.353)">
    <path id="Caminho_7517" data-name="Caminho 7517" d="M.624,0h1.3L3.248-2.96h6.1L10.656,0h1.36l-5.1-11.28H5.728Zm3.12-4.1L6.3-9.808,8.848-4.1ZM15.824,0h3.888a5.607,5.607,0,0,0,5.952-5.6v-.032c0-3.152-2.432-5.568-5.952-5.568H15.824Zm3.888-10.032A4.36,4.36,0,0,1,24.352-5.6v.032a4.326,4.326,0,0,1-4.64,4.4H17.088v-8.864ZM35.136.192A5.675,5.675,0,0,0,40.864-5.6v-.032a5.621,5.621,0,0,0-5.7-5.76A5.675,5.675,0,0,0,29.44-5.6v.032A5.621,5.621,0,0,0,35.136.192Zm.032-1.168A4.453,4.453,0,0,1,30.752-5.6v-.032a4.4,4.4,0,0,1,4.384-4.592A4.453,4.453,0,0,1,39.552-5.6v.032A4.4,4.4,0,0,1,35.168-.976ZM45.136,0h4.976c2.448,0,4.064-1.136,4.064-3.056v-.032c0-1.52-1.072-2.32-2.4-2.7a2.7,2.7,0,0,0,1.776-2.592v-.032a2.5,2.5,0,0,0-.72-1.792A4.114,4.114,0,0,0,49.9-11.2H45.136Zm7.136-8.208c0,1.328-1.04,2-2.576,2H46.384v-3.856h3.408c1.6,0,2.48.72,2.48,1.824ZM52.9-3.136c0,1.264-1.04,2-2.752,2h-3.76V-5.088H49.92c1.968,0,2.976.7,2.976,1.92ZM58.288,0h8.176V-1.152H59.552v-3.92h6.112V-6.224H59.552v-3.824h6.832V-11.2h-8.1Zm18.72,0H80.9a5.607,5.607,0,0,0,5.952-5.6v-.032c0-3.152-2.432-5.568-5.952-5.568H77.008ZM80.9-10.032A4.36,4.36,0,0,1,85.536-5.6v.032a4.326,4.326,0,0,1-4.64,4.4H78.272v-8.864ZM96.32.192A5.675,5.675,0,0,0,102.048-5.6v-.032a5.621,5.621,0,0,0-5.7-5.76A5.675,5.675,0,0,0,90.624-5.6v.032A5.621,5.621,0,0,0,96.32.192Zm.032-1.168A4.453,4.453,0,0,1,91.936-5.6v-.032a4.4,4.4,0,0,1,4.384-4.592A4.453,4.453,0,0,1,100.736-5.6v.032A4.4,4.4,0,0,1,96.352-.976ZM111.44.192a5.832,5.832,0,0,0,4.48-1.968l-.832-.816a4.862,4.862,0,0,1-3.616,1.616A4.409,4.409,0,0,1,107.136-5.6v-.032a4.391,4.391,0,0,1,4.336-4.592,4.868,4.868,0,0,1,3.52,1.536l.864-.928a5.745,5.745,0,0,0-4.368-1.776A5.652,5.652,0,0,0,105.824-5.6v.032A5.586,5.586,0,0,0,111.44.192ZM124.272.176c2.8,0,4.672-1.68,4.672-4.96V-11.2H127.68v6.512c0,2.448-1.312,3.7-3.376,3.7-2.16,0-3.424-1.344-3.424-3.776V-11.2h-1.264v6.512C119.616-1.52,121.5.176,124.272.176ZM133.536,0h1.232V-9.056l4.08,5.984h.064l4.08-6V0h1.264V-11.2h-1.28L138.9-5.088l-4.08-6.112h-1.28Zm15.488,0H157.2V-1.152h-6.912v-3.92H156.4V-6.224h-6.112v-3.824h6.832V-11.2h-8.1Zm12.32,0h1.232V-9.184L169.808,0h1.008V-11.2h-1.232v8.976L162.528-11.2h-1.184ZM178.5,0h1.264V-10.032h3.776V-11.2H174.72v1.168H178.5ZM198.96.192a5.832,5.832,0,0,0,4.48-1.968l-.832-.816a4.862,4.862,0,0,1-3.616,1.616A4.409,4.409,0,0,1,194.656-5.6v-.032a4.391,4.391,0,0,1,4.336-4.592,4.868,4.868,0,0,1,3.52,1.536l.864-.928a5.745,5.745,0,0,0-4.368-1.776A5.652,5.652,0,0,0,193.344-5.6v.032A5.586,5.586,0,0,0,198.96.192ZM207.312,0h7.568V-1.168h-6.3V-11.2h-1.264ZM223.2.192A5.675,5.675,0,0,0,228.928-5.6v-.032a5.621,5.621,0,0,0-5.7-5.76A5.675,5.675,0,0,0,217.5-5.6v.032A5.621,5.621,0,0,0,223.2.192Zm.032-1.168A4.453,4.453,0,0,1,218.816-5.6v-.032a4.4,4.4,0,0,1,4.384-4.592A4.453,4.453,0,0,1,227.616-5.6v.032A4.4,4.4,0,0,1,223.232-.976ZM237.68.176c2.8,0,4.672-1.68,4.672-4.96V-11.2h-1.264v6.512c0,2.448-1.312,3.7-3.376,3.7-2.16,0-3.424-1.344-3.424-3.776V-11.2h-1.264v6.512C233.024-1.52,234.912.176,237.68.176ZM246.944,0h3.888a5.607,5.607,0,0,0,5.952-5.6v-.032c0-3.152-2.432-5.568-5.952-5.568h-3.888Zm3.888-10.032a4.36,4.36,0,0,1,4.64,4.432v.032a4.326,4.326,0,0,1-4.64,4.4h-2.624v-8.864Z" transform="translate(336 263)" fill="#fff"/>
    <g id="Grupo_1497" data-name="Grupo 1497" transform="translate(88.012 -76.19)">
      <g id="Layer_1" data-name="Layer 1" transform="translate(193.721 315.543)">
        <g id="Layer_2" data-name="Layer 2" transform="translate(0)">
          <g id="DC_EC_Logo_Surface" data-name="DC EC Logo Surface">
            <g id="Outline_no_shadow" data-name="Outline no shadow">
              <path id="Caminho_7357" data-name="Caminho 7357" d="M200.192,315.543h23.663a6.444,6.444,0,0,1,6.471,6.471v22.355a6.444,6.444,0,0,1-6.471,6.471H200.192a6.444,6.444,0,0,1-6.471-6.471V322.014A6.444,6.444,0,0,1,200.192,315.543Z" transform="translate(-193.721 -315.543)" fill="#fa0f00"/>
            </g>
          </g>
        </g>
      </g>
      <g id="Layer_2-2" data-name="Layer 2" transform="translate(200.872 322.08)">
        <g id="Layer_86" data-name="Layer 86" transform="translate(0 0)">
          <path id="_64" data-name=" 64" d="M246.25,357.067c-1.7-1.765-6.34-1.046-7.452-.915a19.77,19.77,0,0,1-3.138-4.118,19.01,19.01,0,0,0,1.046-5.426c0-1.634-.654-3.4-2.484-3.4a1.9,1.9,0,0,0-1.569.915c-.784,1.373-.458,4.118.784,6.929a47.233,47.233,0,0,1-3.2,7.452c-1.9.784-5.883,2.614-6.21,4.575a1.746,1.746,0,0,0,.523,1.634,2.511,2.511,0,0,0,1.634.588c2.418,0,4.772-3.334,6.406-6.144a43.43,43.43,0,0,1,5.687-1.5,9.041,9.041,0,0,0,5.948,2.549c1.569,0,2.157-.654,2.353-1.242A1.7,1.7,0,0,0,246.25,357.067Zm-1.634,1.111c-.065.458-.654.915-1.7.654a8.964,8.964,0,0,1-3.334-1.7,14.063,14.063,0,0,1,4.118-.065C244.224,357.2,244.747,357.525,244.616,358.179ZM233.7,344.713a.667.667,0,0,1,.523-.327c.588,0,.719.719.719,1.307a14.363,14.363,0,0,1-.784,4.053C233.177,347.132,233.373,345.3,233.7,344.713Zm-.131,12.681a36.461,36.461,0,0,0,1.5-3.66,16.649,16.649,0,0,0,2.092,2.68C237.165,356.479,235.138,356.871,233.57,357.394Zm-3.857,2.615c-1.5,2.484-3.072,4.053-3.922,4.053a.927.927,0,0,1-.392-.131.5.5,0,0,1-.2-.588C225.4,362.428,227.1,361.185,229.713,360.009Z" transform="translate(-223.986 -343.21)" fill="#fff"/>
        </g>
      </g>
    </g>
  </g>
</svg>
