<svg xmlns="http://www.w3.org/2000/svg" xmlns:xlink="http://www.w3.org/1999/xlink" width="72" height="72" viewBox="0 0 72 72">
  <defs>
    <clipPath id="clip-path">
      <rect id="Ret칙ngulo_103" data-name="Ret칙ngulo 103" width="72" height="72" transform="translate(1302 4230)" fill="#fff" stroke="#707070" stroke-width="1"/>
    </clipPath>
  </defs>
  <g id="Grupo_de_m치scara_13" data-name="Grupo de m치scara 13" transform="translate(-1302 -4230)" clip-path="url(#clip-path)">
    <g id="Grupo_1244" data-name="Grupo 1244" transform="translate(1313 4217.424)">
      <g id="Grupo_1243" data-name="Grupo 1243" transform="translate(0 26.576)">
        <g id="Grupo_1242" data-name="Grupo 1242" transform="translate(0 0)">
          <path id="Caminho_7224" data-name="Caminho 7224" d="M179.014,159.668a5.025,5.025,0,1,0,5.025,5.025A5.025,5.025,0,0,0,179.014,159.668Zm0,7.657a2.632,2.632,0,1,1,0-5.264h0a2.632,2.632,0,0,1,0,5.264Z" transform="translate(-154.068 -144.429)" fill="#0091d5"/>
          <path id="Caminho_7225" data-name="Caminho 7225" d="M44.985,30.329,12.324,26.62a4.486,4.486,0,0,0-3.529,1.017A4.546,4.546,0,0,0,7.06,30.748l-.6,4.905H4.608A4.807,4.807,0,0,0,0,40.618V65.084a4.546,4.546,0,0,0,4.425,4.665q.091,0,.181,0h32.84a4.91,4.91,0,0,0,5.025-4.666v-.957a5.981,5.981,0,0,0,2.273-.957,4.965,4.965,0,0,0,1.735-3.23l2.752-24.286A4.845,4.845,0,0,0,44.985,30.329ZM40.08,65.084a2.519,2.519,0,0,1-2.632,2.273H4.608a2.153,2.153,0,0,1-2.216-2.089q0-.092,0-.184V60.657l9.272-6.819a2.871,2.871,0,0,1,3.709.179L21.9,59.76a5.623,5.623,0,0,0,3.529,1.316A5.443,5.443,0,0,0,28.3,60.3L40.08,53.479v11.6Zm0-14.416-13.04,7.6a3.051,3.051,0,0,1-3.529-.3l-6.58-5.8a5.324,5.324,0,0,0-6.64-.239l-7.9,5.743V40.618a2.415,2.415,0,0,1,2.213-2.572h32.84a2.752,2.752,0,0,1,2.632,2.572V50.667ZM46.842,35.33c0,.008,0,.016,0,.024L44.028,59.64a2.034,2.034,0,0,1-.778,1.615c-.239.239-.778.359-.778.479V40.618a5.144,5.144,0,0,0-5.025-4.965H8.855l.538-4.666a2.752,2.752,0,0,1,.9-1.555,2.752,2.752,0,0,1,1.795-.479l32.6,3.769A2.393,2.393,0,0,1,46.842,35.33Z" transform="translate(0 -26.576)" fill="#0091d5"/>
        </g>
      </g>
    </g>
  </g>
</svg>
