<svg xmlns="http://www.w3.org/2000/svg" xmlns:xlink="http://www.w3.org/1999/xlink" width="72" height="72" viewBox="0 0 72 72">
  <defs>
    <clipPath id="clip-path">
      <rect id="Ret칙ngulo_102" data-name="Ret칙ngulo 102" width="72" height="72" transform="translate(1302 4088)" fill="#fff" stroke="#707070" stroke-width="1"/>
    </clipPath>
  </defs>
  <g id="Grupo_de_m치scara_12" data-name="Grupo de m치scara 12" transform="translate(-1302 -4088)" clip-path="url(#clip-path)">
    <g id="Grupo_1241" data-name="Grupo 1241" transform="translate(-388.357 4027.911)">
      <path id="Caminho_7217" data-name="Caminho 7217" d="M1752.246,75.7a1.112,1.112,0,0,0,1.111-1.111V71.2a1.112,1.112,0,0,0-1.111-1.111h-3.385a1.112,1.112,0,0,0-1.111,1.111v.582h-41.786V71.2a1.112,1.112,0,0,0-1.111-1.111h-3.385a1.112,1.112,0,0,0-1.111,1.111v3.385a1.112,1.112,0,0,0,1.111,1.111h.582v41.786h-.582a1.112,1.112,0,0,0-1.111,1.111v3.385a1.112,1.112,0,0,0,1.111,1.111h3.385a1.112,1.112,0,0,0,1.111-1.111V121.4h41.786v.582a1.112,1.112,0,0,0,1.111,1.111h3.385a1.112,1.112,0,0,0,1.111-1.111v-3.385a1.112,1.112,0,0,0-1.111-1.111h-.582V75.7Zm-47.393,41.786h-.582V75.7h.582a1.112,1.112,0,0,0,1.111-1.111V74h41.786v.582a1.112,1.112,0,0,0,1.111,1.111h.582v41.786h-.582a1.112,1.112,0,0,0-1.111,1.111v.582h-41.786v-.582A1.112,1.112,0,0,0,1704.853,117.482Zm-2.274-44.008V72.311h1.164v1.164Zm1.164,46.229v1.164h-1.164V119.7Zm46.229,1.164V119.7h1.164v1.164Zm1.164-48.557v1.164h-1.164V72.311Z" transform="translate(0)" fill="#0091d5"/>
      <path id="Caminho_7218" data-name="Caminho 7218" d="M1765.468,162.929h18.619a1.112,1.112,0,0,0,1.111-1.111V143.2a1.112,1.112,0,0,0-1.111-1.111h-18.619a1.112,1.112,0,0,0-1.111,1.111v18.619A1.112,1.112,0,0,0,1765.468,162.929Zm1.111-3.7V145.787l6.638,6.722Zm1.663-14.92h13.071l-6.535,6.617Zm13.071,16.4h-13.071l6.535-6.617Zm-4.975-8.2,6.638-6.722v13.444Z" transform="translate(-57.23 -64.383)" fill="#0091d5"/>
      <path id="Caminho_7219" data-name="Caminho 7219" d="M1989.468,368.643h13.541a1.111,1.111,0,1,0,0-2.222h-13.541a1.111,1.111,0,0,0,0,2.222Z" transform="translate(-257.533 -264.984)" fill="#0091d5"/>
      <path id="Caminho_7220" data-name="Caminho 7220" d="M1989.468,398.533h13.541a1.111,1.111,0,1,0,0-2.222h-13.541a1.111,1.111,0,0,0,0,2.222Z" transform="translate(-257.533 -291.712)" fill="#0091d5"/>
      <path id="Caminho_7221" data-name="Caminho 7221" d="M1989.468,428.421h13.541a1.111,1.111,0,1,0,0-2.222h-13.541a1.111,1.111,0,0,0,0,2.222Z" transform="translate(-257.533 -318.438)" fill="#0091d5"/>
      <path id="Caminho_7222" data-name="Caminho 7222" d="M1989.468,458.311h6.665a1.111,1.111,0,1,0,0-2.222h-6.665a1.111,1.111,0,0,0,0,2.222Z" transform="translate(-257.533 -345.166)" fill="#0091d5"/>
      <path id="Caminho_7223" data-name="Caminho 7223" d="M1989.468,164.622h13.541a1.112,1.112,0,0,0,1.111-1.111V143.2a1.112,1.112,0,0,0-1.111-1.111h-13.541a1.112,1.112,0,0,0-1.111,1.111v20.311A1.112,1.112,0,0,0,1989.468,164.622Zm1.111-2.222v-18.09H2001.9V162.4Z" transform="translate(-257.533 -64.383)" fill="#0091d5"/>
    </g>
  </g>
</svg>
