<svg width="66" height="51" viewBox="0 0 66 51" fill="none" xmlns="http://www.w3.org/2000/svg">
<path d="M0.3894 28.2427C0.657663 30.2755 1.66308 32.1422 3.21811 33.4946C4.77315 34.847 6.7716 35.5928 8.8407 35.5928C10.9098 35.5928 12.9083 34.847 14.4633 33.4946C16.0183 32.1422 17.0237 30.2755 17.292 28.2427H0.3894ZM46.4402 45.244C46.4408 45.4158 46.4071 45.5861 46.3412 45.7451C46.2752 45.904 46.1783 46.0486 46.056 46.1704C45.9336 46.2922 45.7882 46.389 45.6281 46.4551C45.468 46.5212 45.2963 46.5554 45.1229 46.5558H20.497C19.7736 46.5558 19.177 45.9672 19.177 45.244C19.1787 44.8985 19.3186 44.5677 19.5661 44.3243C19.8135 44.0808 20.1483 43.9445 20.497 43.9452H45.1216C45.8502 43.9452 46.4402 44.5259 46.4402 45.244ZM19.3208 47.2241H46.2977V51H19.3208V47.2241ZM48.708 28.2427C48.9744 30.2768 49.979 32.1454 51.534 33.4994C53.0891 34.8535 55.0884 35.6005 57.1586 35.6009C59.2286 35.6009 61.2277 34.854 62.7822 33.4998C64.3368 32.1455 65.3403 30.2767 65.6053 28.2427H48.708ZM65.1407 25.6151L58.2199 16.1695H61.9199C62.8201 16.1695 63.5448 15.4384 63.5448 14.5346C63.5448 13.6387 62.8188 12.9155 61.9199 12.9155H42.3205C41.7387 11.3276 40.7451 9.91952 39.4395 8.83305C38.134 7.74659 36.5626 7.02003 34.8836 6.7265V1.62964C34.8836 0.72327 34.1497 4.79291e-06 33.2402 4.79291e-06L33.0871 0.0170074L32.934 4.79291e-06C32.7181 -0.000515381 32.5041 0.0413102 32.3046 0.123071C32.105 0.204832 31.9237 0.324913 31.7712 0.476394C31.6187 0.627875 31.498 0.807761 31.4159 1.00569C31.3339 1.20362 31.2922 1.41567 31.2932 1.62964V6.72389C29.6145 7.01721 28.0434 7.74373 26.7382 8.83025C25.4331 9.91678 24.44 11.3249 23.859 12.9128H4.25568C3.36204 12.9128 2.6334 13.6361 2.6334 14.532C2.6334 15.4371 3.36204 16.1669 4.25568 16.1669H7.78668L0.8646 25.6125H0V27.3572H17.6854V25.6125H16.8168L9.89736 16.1695H25.9604C25.9604 15.8007 26.0014 15.4384 26.0568 15.0918C26.1136 14.9283 26.1518 14.7622 26.1518 14.5909C26.4494 13.3483 27.0866 12.2109 27.9935 11.3035C28.9005 10.3962 30.0421 9.75379 31.2932 9.44692V27.3611H31.2246C31.0834 34.0994 27.848 39.9758 23.0485 43.2782H43.131C38.3302 39.9758 35.0975 34.0994 34.9483 27.3611H34.885V9.44692C36.1359 9.75387 37.2773 10.3963 38.1841 11.3037C39.0908 12.2111 39.7277 13.3484 40.025 14.5909C40.0303 14.7622 40.066 14.9283 40.124 15.0918C40.1768 15.4397 40.2098 15.8007 40.2098 16.1695H56.1053L49.1832 25.6151H48.3199V27.3598H66V25.6151H65.1407ZM8.1378 25.6151H2.6136L8.1378 18.0751V25.6151ZM9.55152 25.6151V18.0751L15.0757 25.6151H9.55152ZM56.4538 25.6151H50.9269L56.4538 18.0751V25.6151ZM57.8609 25.6151V18.0751L63.3917 25.6151H57.8609ZM10.4821 10.6423C10.47 11.0653 10.2919 11.467 9.98564 11.762C9.67939 12.0569 9.26912 12.2219 8.84202 12.2219C8.41492 12.2219 8.00465 12.0569 7.6984 11.762C7.39214 11.467 7.21403 11.0653 7.20192 10.6423C7.20192 9.74512 7.93848 9.0127 8.84532 9.0127C9.7482 9.01139 10.4821 9.74512 10.4821 10.6423ZM58.7994 10.556C58.7994 11.4598 58.0655 12.1765 57.16 12.1765C56.9446 12.1779 56.7311 12.1369 56.5318 12.056C56.3326 11.9751 56.1515 11.8559 55.999 11.7052C55.8465 11.5545 55.7257 11.3753 55.6436 11.1781C55.5615 10.9808 55.5196 10.7694 55.5205 10.556C55.5117 10.3372 55.5475 10.1189 55.6259 9.91414C55.7043 9.7094 55.8236 9.52247 55.9767 9.36455C56.1298 9.20663 56.3136 9.08099 56.5169 8.99517C56.7202 8.90934 56.939 8.8651 57.16 8.8651C57.381 8.8651 57.5997 8.90934 57.803 8.99517C58.0064 9.08099 58.1901 9.20663 58.3432 9.36455C58.4963 9.52247 58.6156 9.7094 58.694 9.91414C58.7724 10.1189 58.8083 10.3372 58.7994 10.556Z" fill="#584CCC"/>
</svg>
