<svg xmlns="http://www.w3.org/2000/svg" width="114" height="114" viewBox="0 0 114 114">
  <g id="Grupo_1054" data-name="Grupo 1054" transform="translate(-1248 -1335)">
    <rect id="Retângulo_58" data-name="Retângulo 58" width="114" height="114" transform="translate(1248 1335)" fill="#0055a3" opacity="0"/>
    <g id="Grupo_1030" data-name="Grupo 1030" transform="translate(1266 1359)">
      <path id="Caminho_48" data-name="Caminho 48" d="M288.885,127.082q5.675,0,11.352,0c2.765,0,4.341,1.577,4.347,4.353q.015,5.5,0,11a3.948,3.948,0,0,1-4.276,4.284q-11.387.011-22.776,0a3.991,3.991,0,0,1-4.362-4.354q-.01-5.5.01-11a3.951,3.951,0,0,1,4.28-4.281Q283.172,127.075,288.885,127.082Zm11.752,3.99c-.273-.022-.477-.055-.681-.055q-11.11-.006-22.22-.02c-.564,0-.642.225-.639.709.017,3.481.008,6.962.011,10.444,0,.179.029.36.046.562h23.484Z" transform="translate(-249.599 -79.965)" fill="#dfe6f2"/>
      <path id="Caminho_49" data-name="Caminho 49" d="M288.886,93.407q5.71,0,11.422,0a3.939,3.939,0,0,1,4.274,4.211q.031,5.605.008,11.211a3.952,3.952,0,0,1-4.214,4.22q-11.492.023-22.984-.007a3.922,3.922,0,0,1-4.207-4.214q-.04-5.641,0-11.282a3.92,3.92,0,0,1,4.207-4.137Q283.14,93.4,288.886,93.407Zm-11.778,15.629h23.552v-.7c0-3.387-.018-6.776.015-10.164.007-.681-.192-.852-.86-.849-4.978.025-9.954.01-14.931.007-2.384,0-4.768.011-7.151-.008-.487,0-.655.145-.638.639.035.979.013,1.962.013,2.944Z" transform="translate(-249.599 -93.404)" fill="#dfe6f2"/>
      <path id="Caminho_50" data-name="Caminho 50" d="M288.881,110.245q5.675,0,11.351,0a3.97,3.97,0,0,1,4.353,4.348q.015,5.467,0,10.931a3.977,3.977,0,0,1-4.35,4.358q-11.387.015-22.773.007a3.955,3.955,0,0,1-4.278-4.22q-.027-5.536,0-11.071c.014-2.809,1.585-4.347,4.417-4.354C281.359,110.237,285.12,110.244,288.881,110.245ZM300.608,125.9a2.508,2.508,0,0,0,.046-.3c0-3.622-.007-7.244.017-10.867,0-.586-.318-.558-.712-.558q-11.077.006-22.154-.007c-.546,0-.715.15-.712.711.025,3.482.013,6.963.015,10.446,0,.179.029.36.05.578Z" transform="translate(-249.599 -86.685)" fill="#dfe6f2"/>
      <path id="Caminho_51" data-name="Caminho 51" d="M305.421,122.574q2.166,0,4.332,0c.817,0,1.635.022,2.451-.015a1.76,1.76,0,0,0,1.914-1.943c.035-1,.015-2.008.015-3.012q0-6.132,0-12.266c0-1.784-.61-2.384-2.413-2.385-3.668,0-7.337,0-11,0a2.013,2.013,0,0,1-2.227-1.6A1.923,1.923,0,0,1,300,99.092a4.555,4.555,0,0,1,.905-.076q5.467,0,10.934.006a6.324,6.324,0,0,1,4.544,1.679,5.659,5.659,0,0,1,1.669,4.315c.014,5.186.036,10.373-.008,15.558a5.577,5.577,0,0,1-4.057,5.651,8.124,8.124,0,0,1-2.212.271c-2.124.035-4.246.013-6.5.013a5.517,5.517,0,0,0,.367.488c.638.651,1.3,1.276,1.919,1.946a1.963,1.963,0,0,1,.074,2.882,1.931,1.931,0,0,1-2.83-.1q-2.888-2.81-5.7-5.7a1.968,1.968,0,0,1,.031-2.991q2.768-2.829,5.595-5.6a1.989,1.989,0,0,1,2.885-.182,1.954,1.954,0,0,1-.1,2.93c-.722.75-1.5,1.448-2.251,2.169Z" transform="translate(-239.514 -91.165)" fill="#2383c6"/>
      <path id="Caminho_52" data-name="Caminho 52" d="M269.2,143.349c-2.376,0-4.546.008-6.717,0a5.779,5.779,0,0,1-4.646-1.88,6.156,6.156,0,0,1-1.5-4.123c-.01-5.14-.041-10.282.008-15.422a5.7,5.7,0,0,1,6.009-6.054c3.786-.043,7.572,0,11.356,0a2.047,2.047,0,0,1,2.064,1.168,1.833,1.833,0,0,1-.235,1.981,2.22,2.22,0,0,1-1.931.785q-5.572-.01-11.145,0c-1.547,0-2.192.648-2.194,2.17q-.008,7.605,0,15.211c0,1.6.62,2.23,2.2,2.243,1.985.015,3.972.006,5.959,0,.2,0,.395-.035.841-.078-.88-.849-1.627-1.54-2.338-2.267a1.953,1.953,0,0,1-.372-2.709,1.891,1.891,0,0,1,2.548-.525,4.11,4.11,0,0,1,.707.568q2.634,2.621,5.252,5.255c1.2,1.21,1.195,2.237-.011,3.452q-2.642,2.661-5.3,5.305c-1.16,1.146-2.6,1.044-3.317-.2a1.971,1.971,0,0,1,.449-2.486c.56-.595,1.153-1.158,1.729-1.74C268.773,143.83,268.919,143.659,269.2,143.349Z" transform="translate(-256.322 -84.448)" fill="#2383c6"/>
    </g>
  </g>
</svg>
