<svg xmlns="http://www.w3.org/2000/svg" width="114" height="114" viewBox="0 0 114 114">
  <g id="Grupo_1065" data-name="Grupo 1065" transform="translate(-834 -4656)">
    <rect id="Retângulo_37" data-name="Retângulo 37" width="114" height="114" transform="translate(834 4656)" fill="#2383c6" opacity="0"/>
    <g id="Grupo_1063" data-name="Grupo 1063" transform="translate(860 4682)">
      <g id="Grupo_1062" data-name="Grupo 1062" transform="translate(0 0)">
        <path id="Caminho_86" data-name="Caminho 86" d="M233.438,257.5h-9.309v-5.511a1.837,1.837,0,0,0-1.837-1.837H185.551a1.837,1.837,0,0,0-1.837,1.837V257.5h-9.309a1.838,1.838,0,0,0-1.837,1.838v40.416a1.837,1.837,0,0,0,1.837,1.837h20.331v7.593h-5.511a1.837,1.837,0,1,0,0,3.674h29.393a1.837,1.837,0,1,0,0-3.674h-5.511v-7.593h20.331a1.837,1.837,0,0,0,1.837-1.837V259.337A1.838,1.838,0,0,0,233.438,257.5Zm-1.837,3.675v29.393h-7.471V261.174Zm-44.213-7.35h33.068v36.743H187.388Zm-3.674,7.35v29.393h-7.471V261.174Zm25.719,48.009H198.41v-7.593h11.022Zm-33.191-11.268v-3.674H231.6v3.674Z" transform="translate(-172.568 -250.15)" fill="#d6442e"/>
        <path id="Caminho_87" data-name="Caminho 87" d="M192.706,265.126a1.835,1.835,0,0,0,2.6,0l5.511-5.511a1.837,1.837,0,0,0-2.6-2.6l-4.212,4.212-2.376-2.375a1.837,1.837,0,1,0-2.6,2.6Z" transform="translate(-170 -249.13)" fill="#d6442e"/>
        <path id="Caminho_88" data-name="Caminho 88" d="M192.706,274.618a1.835,1.835,0,0,0,2.6,0l5.511-5.511a1.837,1.837,0,0,0-2.6-2.6l-4.212,4.212-2.376-2.375a1.837,1.837,0,1,0-2.6,2.6Z" transform="translate(-170 -247.599)" fill="#d6442e"/>
        <path id="Caminho_89" data-name="Caminho 89" d="M192.706,284.111a1.838,1.838,0,0,0,2.6,0l5.511-5.512a1.837,1.837,0,0,0-2.6-2.6l-4.212,4.213-2.376-2.376a1.837,1.837,0,1,0-2.6,2.6Z" transform="translate(-170 -246.069)" fill="#d6442e"/>
        <path id="Caminho_90" data-name="Caminho 90" d="M202.987,263.317h7.348a1.837,1.837,0,1,0,0-3.674h-7.348a1.837,1.837,0,1,0,0,3.674Z" transform="translate(-167.959 -248.619)" fill="#d6442e"/>
        <path id="Caminho_91" data-name="Caminho 91" d="M202.987,272.809h7.348a1.837,1.837,0,1,0,0-3.674h-7.348a1.837,1.837,0,1,0,0,3.674Z" transform="translate(-167.959 -247.089)" fill="#d6442e"/>
        <path id="Caminho_92" data-name="Caminho 92" d="M202.987,282.3h7.348a1.837,1.837,0,1,0,0-3.674h-7.348a1.837,1.837,0,1,0,0,3.674Z" transform="translate(-167.959 -245.558)" fill="#d6442e"/>
      </g>
    </g>
  </g>
</svg>
