<svg xmlns="http://www.w3.org/2000/svg" xmlns:xlink="http://www.w3.org/1999/xlink" width="257" height="276" viewBox="0 0 257 276">
  <defs>
    <clipPath id="clip-path">
      <rect width="257" height="276" fill="none"/>
    </clipPath>
  </defs>
  <g id="Repetição_de_grade_2" data-name="Repetição de grade 2" clip-path="url(#clip-path)">
    <g id="Grupo_1471" data-name="Grupo 1471" transform="translate(-412 -2954)">
      <g id="Retângulo_225" data-name="Retângulo 225" transform="translate(417 2959)" fill="none" stroke="#fff" stroke-width="2">
        <rect width="247" height="266" stroke="none"/>
        <rect x="1" y="1" width="245" height="264" fill="none"/>
      </g>
      <g id="Retângulo_217" data-name="Retângulo 217" transform="translate(412 2954)" fill="#0b1834" stroke="#fff" stroke-width="2">
        <rect width="13" height="13" stroke="none"/>
        <rect x="1" y="1" width="11" height="11" fill="none"/>
      </g>
      <g id="Retângulo_226" data-name="Retângulo 226" transform="translate(415 3090)" fill="#092449" stroke="#fff" stroke-width="2">
        <rect width="7" height="8" stroke="none"/>
        <rect x="1" y="1" width="5" height="6" fill="none"/>
      </g>
      <g id="Retângulo_227" data-name="Retângulo 227" transform="translate(659 3090)" fill="#0091d5" stroke="#fff" stroke-width="2">
        <rect width="8" height="8" stroke="none"/>
        <rect x="1" y="1" width="6" height="6" fill="none"/>
      </g>
      <g id="Retângulo_228" data-name="Retângulo 228" transform="translate(537 2957)" fill="#0b1732" stroke="#fff" stroke-width="2">
        <rect width="7" height="7" stroke="none"/>
        <rect x="1" y="1" width="5" height="5" fill="none"/>
      </g>
      <g id="Retângulo_229" data-name="Retângulo 229" transform="translate(537 3220)" fill="#0b1731" stroke="#fff" stroke-width="2">
        <rect width="7" height="7" stroke="none"/>
        <rect x="1" y="1" width="5" height="5" fill="none"/>
      </g>
      <g id="Retângulo_218" data-name="Retângulo 218" transform="translate(656 2954)" fill="#0091d5" stroke="#fff" stroke-width="2">
        <rect width="13" height="13" stroke="none"/>
        <rect x="1" y="1" width="11" height="11" fill="none"/>
      </g>
      <g id="Retângulo_219" data-name="Retângulo 219" transform="translate(656 3217)" fill="#0091d5" stroke="#fff" stroke-width="2">
        <rect width="13" height="13" stroke="none"/>
        <rect x="1" y="1" width="11" height="11" fill="none"/>
      </g>
      <g id="Retângulo_220" data-name="Retângulo 220" transform="translate(412 3217)" fill="#0b1937" stroke="#fff" stroke-width="2">
        <rect width="13" height="13" stroke="none"/>
        <rect x="1" y="1" width="11" height="11" fill="none"/>
      </g>
    </g>
  </g>
</svg>
