<svg xmlns="http://www.w3.org/2000/svg" xmlns:xlink="http://www.w3.org/1999/xlink" width="72" height="72" viewBox="0 0 72 72">
  <defs>
    <clipPath id="clip-path">
      <rect id="Ret칙ngulo_101" data-name="Ret칙ngulo 101" width="72" height="72" transform="translate(972 4088)" fill="#fff" stroke="#707070" stroke-width="1"/>
    </clipPath>
  </defs>
  <g id="Grupo_de_m치scara_9" data-name="Grupo de m치scara 9" transform="translate(-972 -4088)" clip-path="url(#clip-path)">
    <g id="Grupo_1218" data-name="Grupo 1218" transform="translate(484.209 3986.409)">
      <path id="Caminho_7196" data-name="Caminho 7196" d="M627.179,208.127q-6.286,0-12.573,0c-1.324,0-1.775-.521-1.615-1.845a6.2,6.2,0,0,1,5.872-5.29c2.135-.022,4.272-.027,6.407.005.621.009.792-.2.782-.8q-.049-2.841,0-5.683c.01-.568-.186-.739-.731-.827a14.593,14.593,0,0,1-12.115-11.542,14.274,14.274,0,1,1,16.187,11.511c-.956.155-.956.155-.956,1.1,0,1.814.022,3.628-.012,5.442-.011.6.163.809.782.8,2.075-.033,4.151-.021,6.226-.01a6.193,6.193,0,0,1,6.035,5.175c.225,1.4-.247,1.966-1.657,1.966Q633.5,208.129,627.179,208.127Zm11.95-28.535A11.889,11.889,0,1,0,627.1,191.448,11.711,11.711,0,0,0,639.129,179.592Zm-23.542,26.093H639a9.192,9.192,0,0,0-.647-1.105,3.527,3.527,0,0,0-2.958-1.231c-2.739.009-5.477.033-8.216.033-2.7,0-5.4-.025-8.095-.033a3.779,3.779,0,0,0-2.443.727A2.607,2.607,0,0,0,615.587,205.685Z" transform="translate(-103.884 -46.305)" fill="#0091d5"/>
      <path id="Caminho_7197" data-name="Caminho 7197" d="M889.957,134.447a26.291,26.291,0,0,0-7.492-18.249c-.07-.073-.142-.143-.208-.219a1.223,1.223,0,0,1-.014-1.736,1.145,1.145,0,0,1,1.718.09c.883.965,1.777,1.928,2.563,2.97a28.72,28.72,0,0,1,.631,33.434c-.928,1.334-2.015,2.561-3.069,3.8a1.187,1.187,0,0,1-1.844.224,1.259,1.259,0,0,1,.14-1.869,25.9,25.9,0,0,0,6.929-13.183C889.639,137.978,889.748,136.2,889.957,134.447Z" transform="translate(-340.3 -1.148)" fill="#0091d5"/>
      <path id="Caminho_7198" data-name="Caminho 7198" d="M504.008,112.591a4.929,4.929,0,0,1,.987.861,1.04,1.04,0,0,1-.167,1.288c-.4.455-.829.88-1.224,1.336a26.223,26.223,0,0,0,.7,35.2c.138.147.278.291.412.442a1.233,1.233,0,0,1,.05,1.781,1.144,1.144,0,0,1-1.757-.143,48.387,48.387,0,0,1-3.417-4.294,28.514,28.514,0,0,1,3.376-35.792A6.1,6.1,0,0,1,504.008,112.591Z" transform="translate(0)" fill="#0091d5"/>
      <path id="Caminho_7199" data-name="Caminho 7199" d="M847.769,171.527a21.083,21.083,0,0,1-6.125,14.2,1.237,1.237,0,0,1-1.617.365c-.7-.416-.736-1.248-.158-1.97a35.252,35.252,0,0,0,3.025-3.981,18.808,18.808,0,0,0-2.667-22.335c-.153-.16-.315-.314-.455-.485a1.181,1.181,0,0,1,.048-1.685,1.139,1.139,0,0,1,1.675.076,39.01,39.01,0,0,1,3.112,3.993A21.337,21.337,0,0,1,847.769,171.527Z" transform="translate(-302.986 -37.553)" fill="#0091d5"/>
      <path id="Caminho_7200" data-name="Caminho 7200" d="M553.877,170.817a20.935,20.935,0,0,1,6.116-13.916,1.243,1.243,0,0,1,1.669-.337,1.212,1.212,0,0,1,.056,1.973,19.778,19.778,0,0,0-3.348,4.567,18.911,18.911,0,0,0,3.082,21.758c.125.131.256.258.374.395a1.189,1.189,0,1,1-1.732,1.624,21,21,0,0,1-4.065-5.748A22.424,22.424,0,0,1,553.877,170.817Z" transform="translate(-51.943 -38.485)" fill="#0091d5"/>
      <path id="Caminho_7201" data-name="Caminho 7201" d="M689.36,229.062a1.2,1.2,0,0,1-.784,1.229,1.113,1.113,0,0,1-1.344-.4,3.718,3.718,0,0,1-.322-.58,4.794,4.794,0,0,0-8.412-.017c-.094.178-.172.366-.284.533a1.168,1.168,0,0,1-1.487.435,1.193,1.193,0,0,1-.633-1.419,1.89,1.89,0,0,1,.163-.389,7.178,7.178,0,0,1,12.868-.016A3.934,3.934,0,0,1,689.36,229.062Z" transform="translate(-159.344 -98.334)" fill="#0091d5"/>
      <path id="Caminho_7202" data-name="Caminho 7202" d="M682.471,299.232a7.217,7.217,0,0,1-6.318-4.159,1.178,1.178,0,0,1,.319-1.572,1.163,1.163,0,0,1,1.5.1,2.2,2.2,0,0,1,.367.547,4.72,4.72,0,0,0,5.731,2.51,4.289,4.289,0,0,0,2.644-2.064c.123-.208.219-.431.338-.641a1.191,1.191,0,0,1,1.594-.552,1.123,1.123,0,0,1,.513,1.592,11.615,11.615,0,0,1-1.709,2.311A7.014,7.014,0,0,1,682.471,299.232Z" transform="translate(-159.29 -158.837)" fill="#0091d5"/>
      <path id="Caminho_7203" data-name="Caminho 7203" d="M718.071,272.255a1.768,1.768,0,1,1,1.791-1.747A1.774,1.774,0,0,1,718.071,272.255Z" transform="translate(-194.72 -137.253)" fill="#0091d5"/>
    </g>
  </g>
</svg>
