<svg xmlns="http://www.w3.org/2000/svg" xmlns:xlink="http://www.w3.org/1999/xlink" width="98" height="97" viewBox="0 0 98 97">
  <defs>
    <clipPath id="clip-path">
      <rect id="Retângulo_279" data-name="Retângulo 279" width="62" height="62" transform="translate(108.395 2525)" fill="#fff" stroke="#707070" stroke-width="1"/>
    </clipPath>
  </defs>
  <g id="Grupo_1681" data-name="Grupo 1681" transform="translate(-118 -2562)">
    <rect id="Retângulo_294" data-name="Retângulo 294" width="98" height="97" transform="translate(118 2562)" fill="none"/>
    <g id="Grupo_de_máscara_129" data-name="Grupo de máscara 129" transform="translate(30.605 53)" opacity="0.4" clip-path="url(#clip-path)">
      <g id="document" transform="translate(108 2525.019)">
        <g id="Grupo_1636" data-name="Grupo 1636" transform="translate(0 0)">
          <g id="Grupo_1635" data-name="Grupo 1635">
            <path id="Caminho_8345" data-name="Caminho 8345" d="M19.869,17.211a.974.974,0,1,0,0,1.949h.974a.974.974,0,1,0,0-1.949Z" transform="translate(-8.177 -7.467)"/>
            <path id="Caminho_8346" data-name="Caminho 8346" d="M26.74,17.211a.974.974,0,1,0,0,1.949h.974a.974.974,0,1,0,0-1.949Z" transform="translate(-11.151 -7.467)"/>
            <path id="Caminho_8347" data-name="Caminho 8347" d="M13,19.159h.974a.974.974,0,1,0,0-1.949H13a.974.974,0,1,0,0,1.949Z" transform="translate(-5.204 -7.467)"/>
            <path id="Caminho_8348" data-name="Caminho 8348" d="M48.326,70.459h-.974a.974.974,0,1,0,0,1.949h.974a.974.974,0,1,0,0-1.949Z" transform="translate(-20.071 -30.512)"/>
            <path id="Caminho_8349" data-name="Caminho 8349" d="M41.456,72.408a.974.974,0,1,0,0-1.949h-.974a.974.974,0,0,0,0,1.949Z" transform="translate(-17.098 -30.512)"/>
            <path id="Caminho_8350" data-name="Caminho 8350" d="M49.593,31.407c-.974-.1-1.851-.195-2.728-.195h-.1V10.751a.885.885,0,0,0-.292-.682L36.732.326A.885.885,0,0,0,36.05.034H.974A.921.921,0,0,0,0,1.008V61.416a.976.976,0,0,0,.974.974H45.793a.358.358,0,0,0,.292-.1h.779a15.566,15.566,0,0,0,2.728-30.886ZM37.024,3.346l6.43,6.43h-6.43ZM1.949,60.441V1.982H35.075v8.769a.921.921,0,0,0,.974.974h8.769V31.309A15.4,15.4,0,0,0,31.568,44.073a15.6,15.6,0,0,0,7.7,16.368Zm58.167-11.3a13.479,13.479,0,0,1-13.251,11.3,18.92,18.92,0,0,1-2.338-.195A13.635,13.635,0,0,1,45.89,33.258h1.072a8.831,8.831,0,0,1,2.241.1A13.545,13.545,0,0,1,60.115,49.139Z" transform="translate(0 -0.034)"/>
            <path id="Caminho_8351" data-name="Caminho 8351" d="M31.51,96.225H13a.974.974,0,1,0,0,1.949H31.51a.974.974,0,1,0,0-1.949Z" transform="translate(-5.204 -41.663)"/>
            <path id="Caminho_8352" data-name="Caminho 8352" d="M13,12.289H25.664a.974.974,0,1,0,0-1.949H13a.974.974,0,1,0,0,1.949Z" transform="translate(-5.204 -4.494)"/>
            <path id="Caminho_8353" data-name="Caminho 8353" d="M13,31.183H44.176a.974.974,0,1,0,0-1.949H13a.974.974,0,1,0,0,1.949Z" transform="translate(-5.204 -12.671)"/>
            <path id="Caminho_8354" data-name="Caminho 8354" d="M13,38.054H44.176a.974.974,0,1,0,0-1.949H13a.974.974,0,0,0,0,1.949Z" transform="translate(-5.204 -15.645)"/>
            <path id="Caminho_8355" data-name="Caminho 8355" d="M13,44.925H44.176a.974.974,0,1,0,0-1.949H13a.974.974,0,0,0,0,1.949Z" transform="translate(-5.204 -18.618)"/>
            <path id="Caminho_8356" data-name="Caminho 8356" d="M13,51.8H44.176a.974.974,0,1,0,0-1.949H13A.974.974,0,1,0,13,51.8Z" transform="translate(-5.204 -21.592)"/>
            <path id="Caminho_8357" data-name="Caminho 8357" d="M13,58.666H40.279a.974.974,0,1,0,0-1.949H13a.974.974,0,1,0,0,1.949Z" transform="translate(-5.204 -24.565)"/>
            <path id="Caminho_8358" data-name="Caminho 8358" d="M37.356,64.563a.921.921,0,0,0-.974-.974H13a.974.974,0,0,0,0,1.949H36.382A.921.921,0,0,0,37.356,64.563Z" transform="translate(-5.204 -27.539)"/>
            <path id="Caminho_8359" data-name="Caminho 8359" d="M13,72.408H25.664a.974.974,0,1,0,0-1.949H13a.974.974,0,1,0,0,1.949Z" transform="translate(-5.204 -30.512)"/>
            <path id="Caminho_8360" data-name="Caminho 8360" d="M33.459,77.33H13a.974.974,0,1,0,0,1.949H33.459a.974.974,0,1,0,0-1.949Z" transform="translate(-5.204 -33.486)"/>
            <path id="Caminho_8361" data-name="Caminho 8361" d="M33.459,84.2H13a.974.974,0,1,0,0,1.949H33.459a.974.974,0,1,0,0-1.949Z" transform="translate(-5.204 -36.459)"/>
            <path id="Caminho_8362" data-name="Caminho 8362" d="M80.789,68.229H80.3V66.28a.974.974,0,0,0-1.949,0v1.949a.358.358,0,0,0,.1.292A3.432,3.432,0,0,0,76.7,74.757l4.969,3.118a1.389,1.389,0,0,1,.585,1.169v.877c0,.779-.682.974-1.461.974H78.645c-.779,0-1.267-.195-1.267-.974V78.654a.974.974,0,1,0-1.949,0v1.267a3.306,3.306,0,0,0,2.923,3.41v1.461a.974.974,0,1,0,1.949,0V82.844h.487c1.851,0,3.41-1.072,3.41-2.923v-.974a3.424,3.424,0,0,0-1.461-2.826L77.768,73a1.715,1.715,0,0,1-.585-1.267,1.588,1.588,0,0,1,1.461-1.559h2.143a1.684,1.684,0,0,1,1.461,1.656v.292a.974.974,0,0,0,1.949,0v-.292A3.627,3.627,0,0,0,80.789,68.229Z" transform="translate(-32.56 -28.282)"/>
          </g>
        </g>
      </g>
    </g>
  </g>
</svg>
