<svg xmlns="http://www.w3.org/2000/svg" width="114" height="114" viewBox="0 0 114 114">
  <g id="Grupo_1096" data-name="Grupo 1096" transform="translate(-144 -12161)" opacity="0.32">
    <rect id="Retângulo_39" data-name="Retângulo 39" width="114" height="114" transform="translate(144 12161)" fill="#f5f5f5" opacity="0"/>
    <path id="Caminho_103" data-name="Caminho 103" d="M252.739,419.031h-.479c.014-.014,3.073-3.061,3.085-3.077a5.843,5.843,0,0,0-8.29-8.233l-11.27,11.31H207.572A5.373,5.373,0,0,0,202.2,424.4V450.35a5.375,5.375,0,0,0,5.368,5.368h16.085l-.7,9.235h-3.122a1.84,1.84,0,0,0,0,3.68h20.636a1.84,1.84,0,1,0,0-3.68h-3.122l-.7-9.235h16.085a5.375,5.375,0,0,0,5.368-5.368V424.4a5.371,5.371,0,0,0-5.366-5.366Zm1.686,31.319a1.688,1.688,0,0,1-1.686,1.686H207.572a1.687,1.687,0,0,1-1.686-1.686V424.4a1.687,1.687,0,0,1,1.686-1.686h24.546l-4.236,4.251a9.21,9.21,0,0,0-7.543,2.656c-2.86,2.857-4.279,11.885-4.7,15.756a1.84,1.84,0,0,0,2.029,2.027c3.983-.433,12.911-1.848,15.756-4.7a9.215,9.215,0,0,0,2.656-7.541l12.49-12.448h4.172a1.687,1.687,0,0,1,1.686,1.686V450.35Zm-20.766,14.6H226.65l.7-9.235h5.611Zm15.987-54.616a2.162,2.162,0,0,1,3.057,3.057l-17.955,17.894a9.377,9.377,0,0,0-3-3c8.629-8.66.831-.835,17.894-17.955Zm-30.045,33.1c.364-2.429,1.625-9.5,3.341-11.219a5.57,5.57,0,0,1,7.876,7.878C229.1,441.822,222.012,443.077,219.6,443.438Z" transform="translate(-29.204 11780.938)"/>
  </g>
</svg>
