<svg xmlns="http://www.w3.org/2000/svg" xmlns:xlink="http://www.w3.org/1999/xlink" width="72" height="72" viewBox="0 0 72 72">
  <defs>
    <clipPath id="clip-path">
      <rect id="Ret칙ngulo_84" data-name="Ret칙ngulo 84" width="72" height="72" transform="translate(960 1698)" fill="#fff" stroke="#707070" stroke-width="1"/>
    </clipPath>
  </defs>
  <g id="Grupo_de_m치scara_2" data-name="Grupo de m치scara 2" transform="translate(-960 -1698)" clip-path="url(#clip-path)">
    <g id="Grupo_1189" data-name="Grupo 1189" transform="translate(942 1708)">
      <g id="Grupo_1182" data-name="Grupo 1182" transform="translate(31)">
        <g id="Grupo_1181" data-name="Grupo 1181">
          <path id="Caminho_7159" data-name="Caminho 7159" d="M75.849,9.279A1.547,1.547,0,0,0,77.4,7.733V1.547A1.547,1.547,0,0,0,75.849,0H69.663a1.547,1.547,0,0,0-1.547,1.547V3.093H58.837V1.547A1.547,1.547,0,0,0,57.291,0H51.1a1.547,1.547,0,0,0-1.547,1.547V3.093H40.279V1.547A1.547,1.547,0,0,0,38.733,0H32.547A1.547,1.547,0,0,0,31,1.547V7.733a1.547,1.547,0,0,0,1.547,1.547h1.547v34.23H32.547A1.547,1.547,0,0,0,31,45.055v6.186a1.547,1.547,0,0,0,1.547,1.547h6.186a1.547,1.547,0,0,0,1.547-1.547V49.695h9.279v1.547A1.547,1.547,0,0,0,51.1,52.788h6.186a1.547,1.547,0,0,0,1.547-1.547V49.695h9.279v1.547a1.547,1.547,0,0,0,1.547,1.547h6.186A1.547,1.547,0,0,0,77.4,51.241V45.055a1.547,1.547,0,0,0-1.547-1.547H74.3V9.279Zm-23.2-6.186h3.093V6.186H52.651Zm-18.558,0h3.093V6.186H34.093Zm3.093,46.6H34.093V46.6h3.093Zm18.558,0H52.651V46.6h3.093Zm12.372-4.64V46.6H58.837V45.055a1.547,1.547,0,0,0-1.547-1.547H51.1a1.547,1.547,0,0,0-1.547,1.547V46.6H40.279V45.055a1.547,1.547,0,0,0-1.547-1.547H37.186V9.279h1.547a1.547,1.547,0,0,0,1.547-1.547V6.186h9.279V7.733A1.547,1.547,0,0,0,51.1,9.279h6.186a1.547,1.547,0,0,0,1.547-1.547V6.186h9.279V7.733a1.547,1.547,0,0,0,1.547,1.547h1.547v34.23H69.663A1.547,1.547,0,0,0,68.116,45.055Zm6.186,4.64H71.209V46.6H74.3ZM71.209,6.186V3.093H74.3V6.186Z" transform="translate(-31)"/>
        </g>
      </g>
      <g id="Grupo_1184" data-name="Grupo 1184" transform="translate(40.279 12.475)">
        <g id="Grupo_1183" data-name="Grupo 1183">
          <path id="Caminho_7160" data-name="Caminho 7160" d="M148.834,122.509c0-.032,0-.065-.005-.1s0-.041-.007-.062A1.544,1.544,0,0,0,147.4,121c-.032,0-.064,0-.1,0H122.525c-.032,0-.063,0-.1,0a1.544,1.544,0,0,0-1.418,1.345c0,.021-.005.041-.007.062s0,.065,0,.1c0,.012,0,.024,0,.037,0,12.921,0,12.4.007,12.506a1.524,1.524,0,0,0,1.365,1.381l.032,0c.048,0,.1.008.144.008h24.742a1.529,1.529,0,0,0,1.546-1.49c0-.012,0-.024,0-.037V122.546C148.835,122.533,148.834,122.521,148.834,122.509Zm-8.1,1.583L134.917,127l-5.821-2.91Zm-16.647.956,7.368,3.684-7.368,3.684Zm5,8.323,5.821-2.91,5.821,2.91Zm16.647-.956-7.368-3.684,7.368-3.684Z" transform="translate(-120.998 -120.999)"/>
        </g>
      </g>
      <g id="Grupo_1186" data-name="Grupo 1186" transform="translate(40.279 31.033)">
        <g id="Grupo_1185" data-name="Grupo 1185">
          <path id="Caminho_7161" data-name="Caminho 7161" d="M147.291,301H122.547a1.547,1.547,0,0,0,0,3.093h24.744a1.547,1.547,0,0,0,0-3.093Z" transform="translate(-121 -301)"/>
        </g>
      </g>
      <g id="Grupo_1188" data-name="Grupo 1188" transform="translate(43.372 37.22)">
        <g id="Grupo_1187" data-name="Grupo 1187">
          <path id="Caminho_7162" data-name="Caminho 7162" d="M171.1,361H152.547a1.547,1.547,0,1,0,0,3.093H171.1a1.547,1.547,0,0,0,0-3.093Z" transform="translate(-151 -361)"/>
        </g>
      </g>
    </g>
  </g>
</svg>
