<svg xmlns="http://www.w3.org/2000/svg" xmlns:xlink="http://www.w3.org/1999/xlink" width="73" height="73" viewBox="0 0 73 73">
  <defs>
    <clipPath id="clip-path">
      <rect id="Ret칙ngulo_276" data-name="Ret칙ngulo 276" width="73" height="73" transform="translate(538 2521)" fill="#fff" stroke="#707070" stroke-width="1"/>
    </clipPath>
  </defs>
  <g id="Grupo_de_m치scara_126" data-name="Grupo de m치scara 126" transform="translate(-538 -2521)" opacity="0.4" clip-path="url(#clip-path)">
    <g id="people" transform="translate(538 2521)">
      <path id="Caminho_8324" data-name="Caminho 8324" d="M38.078,56.992l2.21,2.21a1.957,1.957,0,0,0,2.769,0l1.383-1.383c.222.1.449.2.679.281v1.956a1.96,1.96,0,0,0,1.958,1.958H50.2a1.96,1.96,0,0,0,1.958-1.958V58.1c.23-.086.457-.18.679-.281L54.223,59.2a1.961,1.961,0,0,0,2.769,0l2.21-2.21a1.96,1.96,0,0,0,0-2.769L57.818,52.84c.1-.222.2-.449.281-.679h1.956A1.96,1.96,0,0,0,62.014,50.2V47.077a1.96,1.96,0,0,0-1.958-1.958H58.1c-.085-.23-.18-.457-.281-.679L59.2,43.057a1.96,1.96,0,0,0,0-2.769l-2.21-2.21a1.96,1.96,0,0,0-2.769,0l-1.383,1.383c-.222-.1-.449-.2-.679-.281V37.224A1.96,1.96,0,0,0,50.2,35.266H47.077a1.96,1.96,0,0,0-1.958,1.958V39.18c-.23.086-.458.18-.679.281l-1.383-1.383a1.957,1.957,0,0,0-2.769,0l-2.21,2.21a1.96,1.96,0,0,0,0,2.769l1.383,1.383c-.1.222-.2.449-.281.679H37.223a1.96,1.96,0,0,0-1.958,1.958V50.2a1.96,1.96,0,0,0,1.958,1.958H39.18c.086.23.18.457.281.679L38.077,54.22a1.96,1.96,0,0,0,0,2.772Zm1.237-6.981h-1.9V47.269h1.9a1.957,1.957,0,0,0,1.842-1.3,7.9,7.9,0,0,1,.306-.738,1.958,1.958,0,0,0-.386-2.219l-1.343-1.343,1.939-1.939,1.343,1.343a1.958,1.958,0,0,0,2.22.385,7.946,7.946,0,0,1,.737-.305,1.957,1.957,0,0,0,1.3-1.842v-1.9h2.743v1.9a1.957,1.957,0,0,0,1.3,1.842,7.9,7.9,0,0,1,.738.306,1.958,1.958,0,0,0,2.219-.386l1.343-1.343,1.939,1.939L56.2,43.016a1.958,1.958,0,0,0-.385,2.219,7.942,7.942,0,0,1,.306.738,1.957,1.957,0,0,0,1.842,1.3h1.9v2.743h-1.9a1.957,1.957,0,0,0-1.841,1.3,7.935,7.935,0,0,1-.306.738,1.958,1.958,0,0,0,.386,2.219l1.343,1.343-1.939,1.939L54.264,56.2a1.958,1.958,0,0,0-2.219-.385,7.87,7.87,0,0,1-.737.3,1.957,1.957,0,0,0-1.3,1.842v1.9H47.269v-1.9a1.957,1.957,0,0,0-1.3-1.841,7.935,7.935,0,0,1-.738-.306,1.958,1.958,0,0,0-2.219.385l-1.343,1.343L39.73,55.6l1.344-1.344a1.958,1.958,0,0,0,.385-2.219,7.891,7.891,0,0,1-.306-.737A1.957,1.957,0,0,0,39.311,50Z" transform="translate(-11.956 -11.956)"/>
      <path id="Caminho_8325" data-name="Caminho 8325" d="M52.558,58.294a5.736,5.736,0,1,0-5.736-5.736,5.736,5.736,0,0,0,5.736,5.736Zm0-9.323a3.587,3.587,0,1,1-3.587,3.587,3.587,3.587,0,0,1,3.587-3.587Z" transform="translate(-15.874 -15.874)"/>
      <path id="Caminho_8326" data-name="Caminho 8326" d="M13.5,27A13.5,13.5,0,1,0,0,13.5,13.5,13.5,0,0,0,13.5,27Zm7.194-4.727a11.328,11.328,0,0,1-14.388,0A3.708,3.708,0,0,1,10.013,18.5H16.99a3.708,3.708,0,0,1,3.7,3.771ZM13.5,2.149a11.344,11.344,0,0,1,9.041,18.206,5.864,5.864,0,0,0-5.552-4H10.013a5.864,5.864,0,0,0-5.552,4A11.344,11.344,0,0,1,13.5,2.149Z"/>
      <path id="Caminho_8327" data-name="Caminho 8327" d="M83.649,70.147a13.5,13.5,0,1,0,13.5,13.5A13.5,13.5,0,0,0,83.649,70.147Zm7.194,22.275a11.326,11.326,0,0,1-14.388,0,3.708,3.708,0,0,1,3.705-3.771h6.977a3.707,3.707,0,0,1,3.705,3.772ZM92.689,90.5a5.864,5.864,0,0,0-5.552-4H80.16a5.864,5.864,0,0,0-5.552,4,11.352,11.352,0,1,1,18.081,0Z" transform="translate(-23.782 -23.782)"/>
      <path id="Caminho_8328" data-name="Caminho 8328" d="M21.446,15.123a5.251,5.251,0,0,0,0-7.43h0a5.254,5.254,0,1,0,0,7.43ZM15.535,9.212a3.108,3.108,0,0,1,4.391,0h0a3.1,3.1,0,1,1-4.391,0Z" transform="translate(-4.229 -2.086)"/>
      <path id="Caminho_8329" data-name="Caminho 8329" d="M14.017,85.272a5.254,5.254,0,0,0,7.43-7.431h0a5.254,5.254,0,1,0-7.43,7.431Zm1.52-5.911a3.1,3.1,0,1,1,0,4.391,3.1,3.1,0,0,1,0-4.391Z" transform="translate(-4.231 -25.87)"/>
      <path id="Caminho_8330" data-name="Caminho 8330" d="M84.165,7.694a5.254,5.254,0,1,0,7.431,0h0a5.26,5.26,0,0,0-7.431,0Zm5.91,5.906a3.1,3.1,0,1,1,0-4.391h0a3.1,3.1,0,0,1,0,4.391Z" transform="translate(-28.014 -2.088)"/>
      <path id="Caminho_8331" data-name="Caminho 8331" d="M91.6,77.841a5.254,5.254,0,1,0,0,7.431,5.254,5.254,0,0,0,0-7.431Zm-1.52,5.911a3.1,3.1,0,1,1,0-4.391,3.1,3.1,0,0,1,0,4.391Z" transform="translate(-28.014 -25.87)"/>
      <path id="Caminho_8332" data-name="Caminho 8332" d="M58.242,20.95a1.075,1.075,0,0,0,0-2.149H44.718a1.075,1.075,0,0,0,0,2.149Z" transform="translate(-14.796 -6.374)"/>
      <path id="Caminho_8333" data-name="Caminho 8333" d="M44.718,88.948a1.075,1.075,0,0,0,0,2.149H58.242a1.075,1.075,0,0,0,0-2.149Z" transform="translate(-14.797 -30.156)"/>
      <path id="Caminho_8334" data-name="Caminho 8334" d="M20.95,58.242V44.718a1.075,1.075,0,0,0-2.149,0V58.242a1.075,1.075,0,0,0,2.149,0Z" transform="translate(-6.374 -14.796)"/>
      <path id="Caminho_8335" data-name="Caminho 8335" d="M91.1,58.242V44.718a1.075,1.075,0,1,0-2.149,0V58.242a1.075,1.075,0,1,0,2.149,0Z" transform="translate(-30.156 -14.796)"/>
      <path id="Caminho_8336" data-name="Caminho 8336" d="M94.788,11.311A1.076,1.076,0,0,0,96.9,10.9a13.5,13.5,0,1,0-.05,5.447,1.075,1.075,0,0,0-2.1-.451,11.219,11.219,0,0,1-2.059,4.457,5.864,5.864,0,0,0-5.551-4H80.16a5.864,5.864,0,0,0-5.552,4,11.349,11.349,0,1,1,20.18-9.045ZM80.16,18.5h6.977a3.709,3.709,0,0,1,3.705,3.705v.053a11.306,11.306,0,0,1-14.388.013A3.708,3.708,0,0,1,80.16,18.5Z" transform="translate(-23.782)"/>
      <path id="Caminho_8337" data-name="Caminho 8337" d="M13.5,97.279a13.5,13.5,0,0,0,2.723-26.727,1.075,1.075,0,1,0-.432,2.106A11.345,11.345,0,0,1,22.54,90.633a5.864,5.864,0,0,0-5.552-4H10.013a5.864,5.864,0,0,0-5.552,4A11.345,11.345,0,0,1,11.21,72.658a1.075,1.075,0,1,0-.432-2.106A13.5,13.5,0,0,0,13.5,97.279Zm-3.488-8.5h6.977a3.708,3.708,0,0,1,3.7,3.771,11.327,11.327,0,0,1-14.388,0,3.708,3.708,0,0,1,3.707-3.768Z" transform="translate(0 -23.912)"/>
    </g>
  </g>
</svg>
