<svg xmlns="http://www.w3.org/2000/svg" width="114" height="114" viewBox="0 0 114 114">
  <g id="Grupo_1097" data-name="Grupo 1097" transform="translate(-144 -12462)" opacity="0.32">
    <rect id="Retângulo_42" data-name="Retângulo 42" width="114" height="114" transform="translate(144 12462)" fill="#f5f5f5" opacity="0"/>
    <g id="Grupo_1086" data-name="Grupo 1086" transform="translate(168 12488)">
      <path id="Caminho_107" data-name="Caminho 107" d="M402.864,458.721h-1.925V425.979a1.928,1.928,0,0,0-1.927-1.927h-5.778V410.568a1.927,1.927,0,0,0-1.925-1.925h-38.78a1.927,1.927,0,0,0-1.925,1.925v13.483h-5.778a1.926,1.926,0,0,0-1.925,1.927v32.742h-1.927a1.926,1.926,0,0,0-1.925,1.925V464.5a5.784,5.784,0,0,0,5.778,5.778h54.187a5.784,5.784,0,0,0,5.778-5.778v-3.853A1.925,1.925,0,0,0,402.864,458.721ZM397.086,427.9v30.817h-3.853V427.9ZM354.455,412.5H389.38v46.226H354.455ZM346.749,427.9H350.6v30.817h-3.853Zm54.189,36.6a1.93,1.93,0,0,1-1.927,1.927H344.824A1.929,1.929,0,0,1,342.9,464.5v-1.925h58.04Z" transform="translate(-339.046 -408.643)"/>
      <path id="Caminho_108" data-name="Caminho 108" d="M363.944,418.215a5.779,5.779,0,1,0-5.778,5.778A5.785,5.785,0,0,0,363.944,418.215Zm-5.778,1.925a1.926,1.926,0,1,1,1.925-1.925A1.929,1.929,0,0,1,358.166,420.14Z" transform="translate(-325.293 -404.732)"/>
      <path id="Caminho_109" data-name="Caminho 109" d="M352.415,429.683h15.537a1.926,1.926,0,0,0,1.927-1.925V423.9a5.661,5.661,0,0,0-1.789-4.117,5.944,5.944,0,0,0-4.119-1.661h-7.7a5.784,5.784,0,0,0-5.778,5.778v3.853A1.924,1.924,0,0,0,352.415,429.683Zm1.925-5.778a1.929,1.929,0,0,1,1.927-1.925h7.7a2.046,2.046,0,0,1,2.055,1.925v1.925H354.341Z" transform="translate(-327.248 -398.866)"/>
      <path id="Caminho_110" data-name="Caminho 110" d="M350.455,437.27h23.37a1.924,1.924,0,0,0,1.925-1.925v-7.705a1.926,1.926,0,0,0-1.925-1.925h-23.37a1.926,1.926,0,0,0-1.925,1.925v7.705A1.924,1.924,0,0,0,350.455,437.27Zm1.925-7.7H371.9v3.851H352.381Z" transform="translate(-329.269 -391.044)"/>
    </g>
  </g>
</svg>
