<svg xmlns="http://www.w3.org/2000/svg" width="174.856" height="35.635" viewBox="0 0 174.856 35.635">
  <g id="Grupo_1522" data-name="Grupo 1522" transform="translate(-280.864 -238.149)">
    <path id="Caminho_7518" data-name="Caminho 7518" d="M.624,0h1.3L3.248-2.96h6.1L10.656,0h1.36l-5.1-11.28H5.728Zm3.12-4.1L6.3-9.808,8.848-4.1ZM15.824,0h3.888a5.607,5.607,0,0,0,5.952-5.6v-.032c0-3.152-2.432-5.568-5.952-5.568H15.824Zm3.888-10.032A4.36,4.36,0,0,1,24.352-5.6v.032a4.326,4.326,0,0,1-4.64,4.4H17.088v-8.864ZM35.136.192A5.675,5.675,0,0,0,40.864-5.6v-.032a5.621,5.621,0,0,0-5.7-5.76A5.675,5.675,0,0,0,29.44-5.6v.032A5.621,5.621,0,0,0,35.136.192Zm.032-1.168A4.453,4.453,0,0,1,30.752-5.6v-.032a4.4,4.4,0,0,1,4.384-4.592A4.453,4.453,0,0,1,39.552-5.6v.032A4.4,4.4,0,0,1,35.168-.976ZM45.136,0h4.976c2.448,0,4.064-1.136,4.064-3.056v-.032c0-1.52-1.072-2.32-2.4-2.7a2.7,2.7,0,0,0,1.776-2.592v-.032a2.5,2.5,0,0,0-.72-1.792A4.114,4.114,0,0,0,49.9-11.2H45.136Zm7.136-8.208c0,1.328-1.04,2-2.576,2H46.384v-3.856h3.408c1.6,0,2.48.72,2.48,1.824ZM52.9-3.136c0,1.264-1.04,2-2.752,2h-3.76V-5.088H49.92c1.968,0,2.976.7,2.976,1.92ZM58.288,0h8.176V-1.152H59.552v-3.92h6.112V-6.224H59.552v-3.824h6.832V-11.2h-8.1Zm22.56.16c2.224,0,3.824-1.248,3.824-3.168V-3.04c0-1.712-1.152-2.608-3.648-3.168-2.48-.512-3.04-1.12-3.04-2.176v-.032c0-1.024.912-1.808,2.384-1.808A4.919,4.919,0,0,1,83.6-9.008l.736-.976A5.843,5.843,0,0,0,80.4-11.36c-2.128,0-3.68,1.312-3.68,3.056v.032c0,1.84,1.184,2.672,3.76,3.232,2.352.512,2.912,1.088,2.912,2.128v.032c0,1.1-.976,1.9-2.5,1.9a5.269,5.269,0,0,1-3.84-1.584l-.784.928A6.456,6.456,0,0,0,80.848.16ZM88.96,0h1.264V-11.2H88.96ZM100.3.192a6.675,6.675,0,0,0,4.5-1.712V-5.984h-4.624v1.136h3.408v2.784a5.274,5.274,0,0,1-3.232,1.12A4.328,4.328,0,0,1,95.92-5.6v-.032a4.375,4.375,0,0,1,4.256-4.592,4.765,4.765,0,0,1,3.408,1.28l.816-.96a5.9,5.9,0,0,0-4.176-1.488A5.62,5.62,0,0,0,94.608-5.6v.032A5.492,5.492,0,0,0,100.3.192ZM109.248,0h1.232V-9.184L117.712,0h1.008V-11.2h-1.232v8.976L110.432-11.2h-1.184Z" transform="translate(337 262)" fill="#fff"/>
    <g id="Grupo_1500" data-name="Grupo 1500" transform="translate(54 41.914)">
      <rect id="Retângulo_219" data-name="Retângulo 219" width="36.954" height="35.635" rx="6" transform="translate(226.864 196.235)" fill="#584ccc"/>
      <path id="Caminho_7358" data-name="Caminho 7358" d="M440.935,357.365c-.734-.792-2.138-1.188-4.173-1.188a22.033,22.033,0,0,0-3.371.292,16.708,16.708,0,0,1-1.941-2.266,20.644,20.644,0,0,1-1.216-1.888,21.058,21.058,0,0,0,1.3-5.445c0-1.667-.878-3.449-2.732-3.449a2.983,2.983,0,0,0-2.025,1.107c-.792,1.358,0,3.959,1.261,6.8-.44,1.308-.92,2.577-1.505,3.987a35.645,35.645,0,0,1-1.7,3.533c-1.891.761-5.909,2.607-6.292,4.648a1.727,1.727,0,0,0,.55,1.625,2.4,2.4,0,0,0,1.638.585c2.42,0,4.834-3.352,6.459-6.236.924-.314,1.866-.6,2.8-.847,1.029-.272,2.023-.5,2.961-.66a9.187,9.187,0,0,0,5.983,2.574c1.569,0,2.156-.68,2.369-1.254A1.917,1.917,0,0,0,440.935,357.365Zm-1.669,1.176c-.086.444-.545.732-1.174.732a2.221,2.221,0,0,1-.528-.066,8.641,8.641,0,0,1-3.362-1.7,16.712,16.712,0,0,1,2.487-.191,8.924,8.924,0,0,1,1.657.127C438.844,357.543,439.406,357.818,439.266,358.54Zm-11.024-13.623a.637.637,0,0,1,.535-.346c.587,0,1,.879,1,1.471a18.617,18.617,0,0,1-1.051,3.935C427.739,347.367,427.876,345.54,428.242,344.918Zm3.439,11.867c-.665.14-1.353.3-2.05.486-.5.132-1.009.278-1.518.432.27-.552.518-1.1.734-1.62.285-.688.552-1.375.8-2.045.216.338.44.668.668.984a19.621,19.621,0,0,0,1.421,1.75Zm-7.446,3.567c-1.549,2.495-3.074,4.07-3.965,4.07a.556.556,0,0,1-.4-.143.581.581,0,0,1-.2-.57C419.838,362.817,421.6,361.528,424.235,360.352Z" transform="translate(-184.347 -140.565)" fill="#fff"/>
    </g>
  </g>
</svg>
