<svg xmlns="http://www.w3.org/2000/svg" width="252" height="57.186" viewBox="0 0 252 57.186">
  <g id="Grupo_970" data-name="Grupo 970" transform="translate(-56.931 -182.071)">
    <g id="Grupo_966" data-name="Grupo 966" transform="translate(115.436 194.274)">
      <g id="Grupo_963" data-name="Grupo 963" transform="translate(0 0.173)">
        <path id="Caminho_1" data-name="Caminho 1" d="M284.81,234.552l4.57-7.917q3.975-6.882-4.012-6.885H254.456l-22.7,35.523h9.857l8.924-13.837h22.306A12.949,12.949,0,0,0,284.81,234.552Zm-30.77.827,5.526-9.571h18.587a4.49,4.49,0,0,1,2.443.419q.669.628-.379,2.445L278,232.512a5.594,5.594,0,0,1-2.445,2.446,7.838,7.838,0,0,1-2.928.421Z" transform="translate(-231.062 -219.367)" fill="#fff"/>
        <path id="Caminho_2" data-name="Caminho 2" d="M240.461,254.908H229.7l23.184-36.29H284c2.842,0,4.583.629,5.33,1.922s.419,3.1-.987,5.535l-4.573,7.917a13.36,13.36,0,0,1-12.291,7.076h-22.1Zm-9.37-.764h8.956l8.923-13.837h22.514a12.646,12.646,0,0,0,11.633-6.7l4.57-7.917c1.24-2.151,1.573-3.757.987-4.775s-2.159-1.537-4.669-1.537H253.3Zm40.172-19.133H252.015l5.965-10.333h18.809a4.585,4.585,0,0,1,2.682.5c.913.854.009,2.415-.289,2.93l-2.218,3.844a5.985,5.985,0,0,1-2.618,2.6A8.207,8.207,0,0,1,271.263,235.011Zm-17.927-.764h17.927a7.651,7.651,0,0,0,2.781-.387,5.265,5.265,0,0,0,2.26-2.285l2.22-3.84c.577-1,.737-1.706.446-1.979-.1-.081-.563-.316-2.181-.316H258.422Z" transform="translate(-229.698 -218.618)" fill="#fff"/>
      </g>
      <g id="Grupo_964" data-name="Grupo 964" transform="translate(35.101 0.009)">
        <path id="Caminho_3" data-name="Caminho 3" d="M424.857,241.12a12.955,12.955,0,0,0,11.964-6.885l4.57-7.917q3.975-6.882-4.011-6.885H406.95l-9.465,15.679h-12.51l1.254-15.84-8.487.074-41.367,35.727h11.651l29.752-26.96-.715,7h-3.689l-6.7,5.944h9.5l-1.433,14.016h8.663l1.1-14.016h8.965l-8.392,13.9h8.543l8.924-13.837h10.975l7,13.846h8.924l-7.8-13.846Zm-18.806-6.058,5.525-9.571h18.588a4.484,4.484,0,0,1,2.441.419q.673.628-.376,2.445l-2.22,3.839a5.586,5.586,0,0,1-2.443,2.446,7.848,7.848,0,0,1-2.926.421Z" transform="translate(-335.352 -218.886)" fill="#fff"/>
        <path id="Caminho_4" data-name="Caminho 4" d="M381.765,254.7h-9.438l1.431-14.012h-10.08l7.554-6.711h3.486l.579-5.665L346.171,254.7H333.353L375.6,218.212l9.042-.079-1.253,15.843h11.883l9.463-15.679h30.646c2.839,0,4.584.629,5.329,1.922s.419,3.1-.987,5.535l-4.572,7.917a13.364,13.364,0,0,1-12.293,7.076h-2.546L428.1,254.6h-9.812l-7-13.848H400.762l-8.926,13.839h-9.427l8.39-13.9h-7.935Zm-8.595-.762h7.89l1.1-14.015h9.992l-8.39,13.9h7.66l8.924-13.837h11.417l7,13.849H426.8l-7.793-13.849h3.851a12.644,12.644,0,0,0,11.633-6.7l4.571-7.917c1.243-2.151,1.575-3.757.989-4.775s-2.161-1.537-4.669-1.537H405.166L395.7,234.737H382.567l1.251-15.833-7.93.067L335.4,253.938h10.477l30.381-27.528-.852,8.327H371.52l-5.834,5.186H374.6Zm49.472-19.248H403.394l5.961-10.333h18.811a4.6,4.6,0,0,1,2.684.5c.908.852.006,2.415-.291,2.93l-2.22,3.844a5.992,5.992,0,0,1-2.616,2.6A8.2,8.2,0,0,1,422.642,234.69Zm-17.929-.764h17.929a7.661,7.661,0,0,0,2.779-.387,5.292,5.292,0,0,0,2.26-2.285l2.22-3.84c.577-1,.737-1.706.446-1.979-.1-.081-.566-.316-2.181-.316H409.8Z" transform="translate(-333.353 -218.133)" fill="#fff"/>
      </g>
      <g id="Grupo_965" data-name="Grupo 965" transform="translate(129.768)">
        <path id="Caminho_5" data-name="Caminho 5" d="M645.92,219.238a13.3,13.3,0,0,0-11.6,6.689s-5.575,9.093-5.837,9.731c-.976,2.371.151,3.351,1.826,3.865s6.661.435,6.661.435l.112,0h8.722l.009-.016,6.085.018a4.624,4.624,0,0,1,2.4.4c.449.4.217,1.325-.484,2.474L651.6,246.47a5.456,5.456,0,0,1-2.443,2.317,8.346,8.346,0,0,1-2.927.4H627.644v0s-4.094-.016-6.549.075a3.478,3.478,0,0,0-2.878,1.14c-.748.938-3.184,4.494-3.184,4.494l31.866.022A13,13,0,0,0,658.41,248.4s5.681-9.251,5.945-9.887c.971-2.373-.155-3.351-1.828-3.867s-6.661-.433-6.661-.433l-.11,0h-6s0,0,0-.005h-8.82a4.6,4.6,0,0,1-2.4-.4c-.444-.4-.32-1.17.378-2.317l2.218-3.642a5.469,5.469,0,0,1,2.445-2.316,8.313,8.313,0,0,1,2.925-.4h18.589l0,0s3.081.079,5.422-.059a6.249,6.249,0,0,0,2.43-.561,6.531,6.531,0,0,0,2.222-1.925c.634-.793,2.2-3.362,2.2-3.362Z" transform="translate(-614.312 -218.855)" fill="#fff"/>
        <path id="Caminho_6" data-name="Caminho 6" d="M645.492,254.546l-32.589-.027.408-.595c.1-.146,2.45-3.577,3.2-4.516a3.892,3.892,0,0,1,3.162-1.282c1.773-.065,4.381-.077,5.778-.077l1.4,0h17.967a7.962,7.962,0,0,0,2.785-.369,5.137,5.137,0,0,0,2.263-2.159l2.215-3.642c.681-1.113.769-1.8.557-1.992a4.3,4.3,0,0,0-2.148-.3l-6.03-.016-.063.014h-8.823s-.283,0-.734,0a28.949,28.949,0,0,1-6.053-.452,2.867,2.867,0,0,1-2.064-4.377c.263-.647,5.294-8.852,5.866-9.785a13.752,13.752,0,0,1,11.913-6.872H676.63l-.351.579c-.066.106-1.582,2.6-2.225,3.4a6.666,6.666,0,0,1-2.366,2.033,6.562,6.562,0,0,1-2.562.595c-.92.054-2.053.081-3.371.081h0c-1.188,0-2.081-.022-2.081-.022l-.083,0H645.1a7.939,7.939,0,0,0-2.786.372,5.1,5.1,0,0,0-2.258,2.158l-2.22,3.642c-.568.933-.728,1.586-.451,1.834a4.277,4.277,0,0,0,2.148.3h9.749l0,0h5.07l.11.381,0-.381s.286,0,.741,0a28.769,28.769,0,0,1,6.038.453,2.868,2.868,0,0,1,2.066,4.378c-.266.645-5.388,8.993-5.97,9.941a13.425,13.425,0,0,1-11.832,6.7Zm-31.142-.786,31.135.025a12.7,12.7,0,0,0,11.191-6.333c2.278-3.709,5.733-9.388,5.916-9.832a2.734,2.734,0,0,0,.182-2.15,2.674,2.674,0,0,0-1.767-1.21,29.463,29.463,0,0,0-5.814-.419c-.448,0-.73,0-.732,0l-6.678,0,0,0h-8.257a4.706,4.706,0,0,1-2.632-.478c-.929-.824-.014-2.325.284-2.816l2.22-3.642a5.86,5.86,0,0,1,2.618-2.469,8.6,8.6,0,0,1,3.076-.428h19.514l-.02.018c.329,0,.728.009,1.166.009h0c1.3,0,2.422-.027,3.326-.081a5.822,5.822,0,0,0,2.3-.532,6.006,6.006,0,0,0,2.074-1.812c.43-.536,1.316-1.943,1.814-2.745H644.512a12.852,12.852,0,0,0-11.27,6.508c-2.238,3.647-5.627,9.231-5.81,9.678a2.705,2.705,0,0,0-.185,2.15,2.673,2.673,0,0,0,1.766,1.208,29.586,29.586,0,0,0,5.828.42c.442,0,.717,0,.719,0h8.607l.018-.041.223.027,6.087.016a4.72,4.72,0,0,1,2.63.475c.435.383.7,1.195-.39,2.975l-2.218,3.642a5.859,5.859,0,0,1-2.621,2.47,8.6,8.6,0,0,1-3.076.426H625.615l0,0-.167,0c-1.393,0-3.988.011-5.749.079a3.153,3.153,0,0,0-2.6,1C616.558,250.572,615.073,252.708,614.35,253.76Z" transform="translate(-612.903 -218.106)" fill="#fff"/>
      </g>
    </g>
    <g id="Grupo_967" data-name="Grupo 967" transform="translate(115.481 194.31)">
      <path id="Caminho_7" data-name="Caminho 7" d="M283.137,233.377l4.57-7.917q3.976-6.886-4.011-6.887H252.97l-23.139,36.3,10.112-.775,8.926-13.837h22.306A12.95,12.95,0,0,0,283.137,233.377Zm-30.77.824,5.526-9.571H276.48a4.462,4.462,0,0,1,2.443.422q.669.628-.379,2.445l-2.217,3.84a5.6,5.6,0,0,1-2.443,2.445,7.884,7.884,0,0,1-2.93.419Z" transform="translate(-229.831 -218.451)" fill="#fff"/>
      <path id="Caminho_8" data-name="Caminho 8" d="M424.46,240.023a12.95,12.95,0,0,0,11.962-6.884l4.571-7.917q3.975-6.886-4.011-6.887H406.554l-9.467,15.678h-12.51l1.384-15.8h-8.338l-41.247,35.76h11.254l29.752-26.958-.716,7H373.23l-6.641,5.947h9.469l-1.638,14.013h8.593l1.1-14.013H393.5l-8.678,14.013h8.41l8.929-13.95H413.13l7,13.846h8.927l-7.8-13.846Zm-18.8-6.06,5.523-9.571h18.585a4.45,4.45,0,0,1,2.443.422q.669.628-.379,2.445l-2.218,3.84a5.6,5.6,0,0,1-2.443,2.445,7.859,7.859,0,0,1-2.927.419Z" transform="translate(-300.295 -218.213)" fill="#fff"/>
      <path id="Caminho_9" data-name="Caminho 9" d="M645.489,218.573a13.021,13.021,0,0,0-11.513,6.515s-5.575,9.1-5.836,9.733c-.976,2.371.151,3.349,1.825,3.863s6.659.437,6.659.437c.041,0,.075,0,.113,0h8.724a.13.13,0,0,1,.009-.014l6.082.018a4.659,4.659,0,0,1,2.4.4c.445.4.217,1.325-.484,2.474l-2.219,3.642a5.481,5.481,0,0,1-2.443,2.317,8.35,8.35,0,0,1-2.925.4h-18.59l0-.005s-3.621-.013-6.078.077a3.593,3.593,0,0,0-2.927,1.167c-.751.935-3.185,4.491-3.185,4.491h31.442a13.009,13.009,0,0,0,11.514-6.515s5.681-9.253,5.942-9.887c.973-2.373-.153-3.351-1.823-3.869s-6.664-.43-6.664-.43l-.111,0h-6s0,0,0,0h-8.825a4.6,4.6,0,0,1-2.4-.4q-.669-.6.377-2.317l2.22-3.642a5.466,5.466,0,0,1,2.443-2.317,8.294,8.294,0,0,1,2.93-.4h18.583s3.083.081,5.422-.059a6.181,6.181,0,0,0,2.429-.561,6.55,6.55,0,0,0,2.225-1.922c.633-.793,2.114-3.191,2.114-3.191Z" transform="translate(-484.637 -218.451)" fill="#fff"/>
    </g>
    <g id="Grupo_969" data-name="Grupo 969" transform="translate(56.931 182.071)">
      <g id="Grupo_968" data-name="Grupo 968" transform="translate(4.908 27.76)">
        <path id="Caminho_10" data-name="Caminho 10" d="M78.734,291.821l5.987-9.366c.077-.117.115-.243.183-.36.478-.814-1.744.194-4.02-1.062-2.026-1.115-2.186-3.365-2.587-2.625L71.973,288.3a3.311,3.311,0,0,0,1.377,4.814A4.223,4.223,0,0,0,78.734,291.821Z" transform="translate(-71.425 -273.447)" fill="#fff"/>
        <path id="Caminho_11" data-name="Caminho 11" d="M133.355,308.368c-2.028-1.118-2.188-3.363-2.59-2.623l-6.326,9.893a3.307,3.307,0,0,0,1.382,4.811,4.214,4.214,0,0,0,5.38-1.292l5.99-9.37c.077-.113.112-.239.183-.357C137.851,308.615,135.631,309.625,133.355,308.368Z" transform="translate(-106.124 -291.527)" fill="#fff"/>
        <path id="Caminho_12" data-name="Caminho 12" d="M111.247,267.883c.478-.818-1.744.189-4.021-1.066-2.026-1.116-2.181-3.364-2.587-2.625l-15.7,24A3.306,3.306,0,0,0,90.311,293a4.216,4.216,0,0,0,5.382-1.3l15.372-23.466C111.143,268.122,111.179,268,111.247,267.883Z" transform="translate(-82.642 -264.046)" fill="#fff"/>
      </g>
      <path id="Caminho_13" data-name="Caminho 13" d="M77.495,204.361a4.209,4.209,0,0,0-5.377,1.293L57.479,227.972a3.31,3.31,0,0,0,1.379,4.814,4.218,4.218,0,0,0,5.382-1.291l14.637-22.322A3.308,3.308,0,0,0,77.495,204.361Z" transform="translate(-56.931 -196.501)" fill="#fff"/>
      <path id="Caminho_14" data-name="Caminho 14" d="M180.564,263.867a4.207,4.207,0,0,0-5.377,1.292l-14.639,22.322a3.308,3.308,0,0,0,1.377,4.811A4.213,4.213,0,0,0,167.306,291l14.639-22.32A3.31,3.31,0,0,0,180.564,263.867Z" transform="translate(-125.096 -235.856)" fill="#fff"/>
      <path id="Caminho_15" data-name="Caminho 15" d="M118.432,196.754a4.206,4.206,0,0,0-5.38,1.292l-14.637,22.32a3.309,3.309,0,0,0,1.377,4.814,4.215,4.215,0,0,0,5.381-1.294l14.639-22.32A3.309,3.309,0,0,0,118.432,196.754Z" transform="translate(-84.003 -191.469)" fill="#fff"/>
      <path id="Caminho_16" data-name="Caminho 16" d="M157.648,251.224,172.287,228.9a3.31,3.31,0,0,0-1.379-4.811,4.212,4.212,0,0,0-5.382,1.289L150.89,247.7a3.3,3.3,0,0,0,1.377,4.808A4.212,4.212,0,0,0,157.648,251.224Z" transform="translate(-118.708 -209.548)" fill="#fff"/>
      <path id="Caminho_17" data-name="Caminho 17" d="M149.848,209.677l14.637-22.321a3.308,3.308,0,0,0-1.382-4.813,4.206,4.206,0,0,0-5.377,1.292l-14.639,22.319a3.311,3.311,0,0,0,1.379,4.814A4.22,4.22,0,0,0,149.848,209.677Z" transform="translate(-113.549 -182.071)" fill="#fff"/>
    </g>
  </g>
</svg>
