<svg xmlns="http://www.w3.org/2000/svg" xmlns:xlink="http://www.w3.org/1999/xlink" width="114" height="114" viewBox="0 0 114 114">
  <defs>
    <clipPath id="clip-path">
      <rect id="Ret칙ngulo_36" data-name="Ret칙ngulo 36" width="114" height="114" transform="translate(696 8201)" fill="#f5f5f5"/>
    </clipPath>
  </defs>
  <g id="Grupo_de_m치scara_17" data-name="Grupo de m치scara 17" transform="translate(-696 -8201)" clip-path="url(#clip-path)">
    <g id="Adobe_Photoshop_CC_icon" transform="translate(718 8224)">
      <path id="Caminho_7174" data-name="Caminho 7174" d="M57.79,68.47H12.436A12.425,12.425,0,0,1,0,56.034v-43.6A12.425,12.425,0,0,1,12.436,0H57.79A12.425,12.425,0,0,1,70.225,12.436v43.6A12.425,12.425,0,0,1,57.79,68.47Z" fill="#26c9ff"/>
      <path id="Caminho_7175" data-name="Caminho 7175" d="M63.752,72.618H20.622A10.646,10.646,0,0,1,10,61.967V20.651A10.646,10.646,0,0,1,20.622,10h43.1A10.621,10.621,0,0,1,74.344,20.622V61.967A10.6,10.6,0,0,1,63.752,72.618Z" transform="translate(-7.074 -7.074)" fill="#062026"/>
      <path id="Caminho_7176" data-name="Caminho 7176" d="M58,53.6c0-.2.41-.351.644-.351,1.873-.088,4.652-.146,7.549-.146,8.105,0,11.265,4.448,11.265,10.153,0,7.432-5.384,10.622-12,10.622-1.112,0-1.492-.059-2.282-.059V85.053c0,.234-.088.351-.351.351H58.351c-.234,0-.351-.088-.351-.351V53.6Zm5.208,15.537c.673.059,1.2.059,2.37.059,3.423,0,6.642-1.2,6.642-5.852,0-3.716-2.312-5.589-6.2-5.589-1.17,0-2.282.059-2.809.088V69.135Zm25.164-3.482c-2.312,0-3.1,1.17-3.1,2.136,0,1.053.527,1.785,3.628,3.394,4.594,2.224,6.028,4.36,6.028,7.491,0,4.682-3.57,7.2-8.4,7.2a12.729,12.729,0,0,1-6-1.258c-.2-.088-.234-.234-.234-.468v-4.3c0-.293.146-.38.351-.234a10.861,10.861,0,0,0,5.881,1.726c2.312,0,3.277-.966,3.277-2.282,0-1.053-.673-1.99-3.628-3.511-4.155-1.99-5.881-4.009-5.881-7.374,0-3.775,2.955-6.905,8.076-6.905a13.454,13.454,0,0,1,5.238.819.648.648,0,0,1,.293.585v4.009c0,.234-.146.38-.439.293a9.882,9.882,0,0,0-5.091-1.317Z" transform="translate(-41.029 -37.563)" fill="#d9f5ff"/>
    </g>
  </g>
</svg>
