<svg xmlns="http://www.w3.org/2000/svg" xmlns:xlink="http://www.w3.org/1999/xlink" width="114" height="114" viewBox="0 0 114 114">
  <defs>
    <clipPath id="clip-path">
      <rect id="Ret칙ngulo_171" data-name="Ret칙ngulo 171" width="114" height="114" transform="translate(2300 7526)" fill="#f5f5f5"/>
    </clipPath>
  </defs>
  <g id="Grupo_de_m치scara_68" data-name="Grupo de m치scara 68" transform="translate(-2300 -7526)" clip-path="url(#clip-path)">
    <g id="Grupo_1506" data-name="Grupo 1506" transform="translate(2322 7549)">
      <g id="Surfaces" transform="translate(0 0)">
        <g id="Video_Audio_Surface" data-name="Video Audio Surface">
          <g id="Outline_no_shadow" data-name="Outline no shadow">
            <path id="Caminho_7501" data-name="Caminho 7501" d="M20.459,4H65.9A12.449,12.449,0,0,1,78.36,16.459V60.141A12.449,12.449,0,0,1,65.9,72.6H20.459A12.449,12.449,0,0,1,8,60.141V16.459A12.449,12.449,0,0,1,20.459,4Z" transform="translate(-8 -4)" fill="#00005b"/>
          </g>
        </g>
      </g>
      <g id="Live_Text" data-name="Live Text" transform="translate(11.785 17.473)">
        <g id="Ru">
          <path id="Caminho_7502" data-name="Caminho 7502" d="M54.21,94.617H48.581c-.264,0-.381-.147-.381-.41V64.157c0-.293.088-.41.293-.41,1.114-.029,2.052-.059,2.844-.059l2.257-.059c.733-.029,1.466-.029,2.257-.029H58.4a17.633,17.633,0,0,1,6.655,1.114,8.972,8.972,0,0,1,4.134,3.225,8.777,8.777,0,0,1,1.437,5.16,8.182,8.182,0,0,1-.762,3.518,8.9,8.9,0,0,1-2.081,2.814,9.847,9.847,0,0,1-3.078,1.906c.322.41.762,1.026,1.319,1.876S67.226,84.972,67.9,86s1.349,2.052,2.023,3.108c.674,1.026,1.29,1.994,1.847,2.873s.967,1.583,1.261,2.081a.462.462,0,0,1,.117.381.165.165,0,0,1-.205.176h-6.86a1.73,1.73,0,0,1-.41-.059.79.79,0,0,1-.235-.205c-.352-.5-.792-1.173-1.29-1.994s-1.055-1.73-1.642-2.726-1.173-1.994-1.759-2.961-1.085-1.847-1.524-2.638a2.667,2.667,0,0,0-.528-.616,1.057,1.057,0,0,0-.586-.176H54.591V94.236A.354.354,0,0,1,54.21,94.617Zm.381-17h3.694a9.382,9.382,0,0,0,3.108-.44,3.856,3.856,0,0,0,1.994-1.407,3.7,3.7,0,0,0,.7-2.345,3.369,3.369,0,0,0-1.612-3.137,8.222,8.222,0,0,0-4.251-.967c-.762,0-1.466,0-2.111.029s-1.173.029-1.524.059Z" transform="translate(-48.2 -63.6)" fill="#99f"/>
          <path id="Caminho_7503" data-name="Caminho 7503" d="M160.323,89.712v17.883c0,.792,0,1.5.029,2.111s.059,1.143.088,1.612.088.85.117,1.143c.029.264-.088.381-.322.381h-5.072a.551.551,0,0,1-.557-.322c-.059-.235-.117-.469-.176-.733a3.1,3.1,0,0,1-.059-.733,8.343,8.343,0,0,1-3.313,1.818,12.262,12.262,0,0,1-3.254.44,9.843,9.843,0,0,1-3.2-.5,6.11,6.11,0,0,1-2.492-1.612,7.309,7.309,0,0,1-1.642-2.844,13.363,13.363,0,0,1-.586-4.163V89.77a.331.331,0,0,1,.293-.381h5.893a.331.331,0,0,1,.381.293v13.779a4.957,4.957,0,0,0,.85,3.049,3.383,3.383,0,0,0,2.844,1.114,5.831,5.831,0,0,0,1.994-.352,6.205,6.205,0,0,0,1.642-.967V89.712c0-.235.147-.322.41-.322H160a.275.275,0,0,1,.322.235Z" transform="translate(-113.006 -81.825)" fill="#99f"/>
        </g>
      </g>
    </g>
  </g>
</svg>
