<svg xmlns="http://www.w3.org/2000/svg" xmlns:xlink="http://www.w3.org/1999/xlink" width="114" height="114" viewBox="0 0 114 114">
  <defs>
    <clipPath id="clip-path">
      <rect id="Ret칙ngulo_195" data-name="Ret칙ngulo 195" width="114" height="114" transform="translate(3364 7526)" fill="#f5f5f5"/>
    </clipPath>
  </defs>
  <g id="Grupo_de_m치scara_71" data-name="Grupo de m치scara 71" transform="translate(-3364 -7526)" clip-path="url(#clip-path)">
    <g id="Layer_2" data-name="Layer 2" transform="translate(3386 7549)">
      <g id="Surfaces">
        <g id="Photo_Surface" data-name="Photo Surface">
          <g id="Outline_no_shadow" data-name="Outline no shadow">
            <path id="Caminho_7379" data-name="Caminho 7379" d="M12.459,0H57.9A12.449,12.449,0,0,1,70.36,12.459V56.141A12.449,12.449,0,0,1,57.9,68.6H12.459A12.449,12.449,0,0,1,0,56.141V12.459A12.449,12.449,0,0,1,12.459,0Z" fill="#001e36"/>
          </g>
        </g>
      </g>
      <g id="Outlined_Mnemonics_Logos" data-name="Outlined Mnemonics Logos" transform="translate(18.311 17.238)">
        <g id="Fr">
          <path id="Caminho_7380" data-name="Caminho 7380" d="M68.981,78.12V89.67a.331.331,0,0,1-.293.381H62.795a.3.3,0,0,1-.322-.41V59.474c0-.44.117-.674.322-.674H81.5a.58.58,0,0,1,.322.059,1.3,1.3,0,0,1,.147.645l.528,5.13a.281.281,0,0,1-.059.264.42.42,0,0,1-.293.117H68.981V72.2H80.766c.293,0,.41.117.41.322v5.189a.331.331,0,0,1-.293.381H80.8Z" transform="translate(-62.461 -58.8)" fill="#31a8ff"/>
          <path id="Caminho_7381" data-name="Caminho 7381" d="M139.78,84.26h5.13a.66.66,0,0,1,.616.469,1.85,1.85,0,0,1,.235.674c.059.293.117.616.147.909.029.322.059.674.059,1.055a10.911,10.911,0,0,1,3.137-2.521,8.752,8.752,0,0,1,4.368-1.055.365.365,0,0,1,.41.322v5.834c0,.235-.147.322-.469.322a11.949,11.949,0,0,0-5.541,1,4.916,4.916,0,0,0-1.583,1.085V107.3c0,.293-.117.41-.381.41h-5.687a.406.406,0,0,1-.469-.352V91c0-.7,0-1.437-.029-2.2s-.029-1.524-.059-2.287q-.044-.967-.176-1.935a.27.27,0,0,1,.205-.322c0-.029.059-.029.088,0Z" transform="translate(-116.901 -76.462)" fill="#31a8ff"/>
        </g>
      </g>
    </g>
  </g>
</svg>
