<svg xmlns="http://www.w3.org/2000/svg" xmlns:xlink="http://www.w3.org/1999/xlink" width="114" height="114" viewBox="0 0 114 114">
  <defs>
    <clipPath id="clip-path">
      <rect id="Ret칙ngulo_162" data-name="Ret칙ngulo 162" width="114" height="114" transform="translate(6742 7754)" fill="#f5f5f5"/>
    </clipPath>
  </defs>
  <g id="Grupo_de_m치scara_78" data-name="Grupo de m치scara 78" transform="translate(-6742 -7754)" clip-path="url(#clip-path)">
    <g id="Grupo_1502" data-name="Grupo 1502" transform="translate(6763 7777)">
      <path id="Caminho_7353" data-name="Caminho 7353" d="M0,371.442V328.1a10.653,10.653,0,0,1,.229-2.428,13.826,13.826,0,0,1,.733-2.337,16.83,16.83,0,0,1,1.145-2.2,12.983,12.983,0,0,1,1.558-1.924,12.453,12.453,0,0,1,1.924-1.558,10.042,10.042,0,0,1,2.2-1.145,15.268,15.268,0,0,1,2.337-.733,10.906,10.906,0,0,1,2.428-.229H58.465a10.656,10.656,0,0,1,2.428.229,12.635,12.635,0,0,1,2.337.733,16.822,16.822,0,0,1,2.2,1.145,12.981,12.981,0,0,1,1.924,1.558,12.454,12.454,0,0,1,1.558,1.924,10.043,10.043,0,0,1,1.145,2.2,15.263,15.263,0,0,1,.733,2.337,10.9,10.9,0,0,1,.229,2.428v43.345a10.653,10.653,0,0,1-.229,2.428,12.634,12.634,0,0,1-.733,2.337,14.348,14.348,0,0,1-1.145,2.2,12.984,12.984,0,0,1-1.558,1.924,12.449,12.449,0,0,1-1.924,1.558,10.037,10.037,0,0,1-2.2,1.146,15.26,15.26,0,0,1-2.337.733,10.9,10.9,0,0,1-2.428.229H12.6a10.652,10.652,0,0,1-2.428-.229,12.63,12.63,0,0,1-2.337-.733,14.347,14.347,0,0,1-2.2-1.146,12.981,12.981,0,0,1-1.924-1.558,12.454,12.454,0,0,1-1.558-1.924,10.041,10.041,0,0,1-1.145-2.2,15.266,15.266,0,0,1-.733-2.337A10.1,10.1,0,0,1,0,371.442Z" transform="translate(0 -315.543)" fill="#0c131f"/>
      <path id="Caminho_7354" data-name="Caminho 7354" d="M44.5,387.758a25.1,25.1,0,0,1-4.765-.458,16.046,16.046,0,0,1-3.62-1.146.774.774,0,0,1-.367-.779v-5.59a.327.327,0,0,1,.137-.275.221.221,0,0,1,.275.046,16.056,16.056,0,0,0,4.17,1.833,15.739,15.739,0,0,0,4.307.6,6.855,6.855,0,0,0,3.849-.825,2.426,2.426,0,0,0,1.145-2.062,2.844,2.844,0,0,0-.367-1.42,4.392,4.392,0,0,0-1.329-1.237,13.472,13.472,0,0,0-2.566-1.237L43.031,374.2a18.138,18.138,0,0,1-4.49-2.612,6.9,6.9,0,0,1-2.2-2.978,9.357,9.357,0,0,1-.641-3.436,8.583,8.583,0,0,1,1.237-4.582,8.49,8.49,0,0,1,3.757-3.253,14.669,14.669,0,0,1,6.231-1.191,31.031,31.031,0,0,1,4.215.275,11.122,11.122,0,0,1,3.116.871.622.622,0,0,1,.321.6V363.2a.246.246,0,0,1-.137.183.221.221,0,0,1-.275-.046,15.027,15.027,0,0,0-3.253-1.191,26.8,26.8,0,0,0-3.895-.321,8.408,8.408,0,0,0-2.291.229,6.09,6.09,0,0,0-1.512.6,2.631,2.631,0,0,0-.871.871,2.44,2.44,0,0,0-.275,1.1,2.183,2.183,0,0,0,.412,1.329,4.846,4.846,0,0,0,1.42,1.191,20.62,20.62,0,0,0,2.7,1.375l1.741.641a19.1,19.1,0,0,1,4.811,2.7,8.046,8.046,0,0,1,2.428,3.116,9.43,9.43,0,0,1,.687,3.62,8.336,8.336,0,0,1-1.466,4.857,9.544,9.544,0,0,1-4.078,3.207A16.114,16.114,0,0,1,44.5,387.758Z" transform="translate(-19.343 -337.54)" fill="#fff"/>
      <path id="Caminho_7355" data-name="Caminho 7355" d="M98.4,383.824v3.849c0,.321-.137.55-.367.6-.6.183-1.237.321-1.879.458a11.129,11.129,0,0,1-2.245.183,6.929,6.929,0,0,1-4.811-1.6c-1.145-1.054-1.741-2.795-1.741-5.132V370.582H84.567c-.275,0-.367-.137-.367-.412V365.5c0-.275.137-.367.412-.367h2.795c.046-.55.046-1.146.137-1.833.046-.687.092-1.42.183-2.108.046-.687.137-1.283.183-1.741.046-.092.046-.183.137-.275a1,1,0,0,1,.229-.183l5.59-.687a.2.2,0,0,1,.229,0,.387.387,0,0,1,.092.275c-.046.733-.092,1.7-.137,2.932s-.046,2.428-.092,3.62h4.353c.183,0,.275.137.275.367v4.765c0,.183-.046.275-.229.321H93.914v10.034a3.74,3.74,0,0,0,.55,2.291,2.38,2.38,0,0,0,1.97.687,4.191,4.191,0,0,0,.779-.046c.275,0,.5-.046.779-.046a.216.216,0,0,1,.275.046A.277.277,0,0,1,98.4,383.824Z" transform="translate(-45.62 -338.692)" fill="#fff"/>
    </g>
  </g>
</svg>
