<svg xmlns="http://www.w3.org/2000/svg" xmlns:xlink="http://www.w3.org/1999/xlink" width="114" height="114" viewBox="0 0 114 114">
  <defs>
    <clipPath id="clip-path">
      <rect id="Ret칙ngulo_162" data-name="Ret칙ngulo 162" width="114" height="114" transform="translate(740 7724)" fill="#f5f5f5"/>
    </clipPath>
  </defs>
  <g id="Grupo_de_m치scara_62" data-name="Grupo de m치scara 62" transform="translate(-740 -7724)" clip-path="url(#clip-path)">
    <g id="Layer_2" data-name="Layer 2" transform="translate(762 7747)">
      <g id="Surfaces">
        <g id="Video_Audio_Surface" data-name="Video Audio Surface">
          <g id="Outline_no_shadow" data-name="Outline no shadow">
            <path id="Caminho_7388" data-name="Caminho 7388" d="M12.459,0H57.9A12.449,12.449,0,0,1,70.36,12.459V56.141A12.449,12.449,0,0,1,57.9,68.6H12.459A12.449,12.449,0,0,1,0,56.141V12.459A12.449,12.449,0,0,1,12.459,0Z" fill="#00005b"/>
          </g>
        </g>
      </g>
      <g id="Outlined_Mnemonics_Logos" data-name="Outlined Mnemonics Logos" transform="translate(8.704 17.649)">
        <g id="Ae">
          <path id="Caminho_7389" data-name="Caminho 7389" d="M49.247,83.595H38.342l-2.228,6.919a.513.513,0,0,1-.557.41H30.045c-.322,0-.41-.176-.322-.528l9.44-27.059c.088-.293.176-.557.293-.909a10.24,10.24,0,0,0,.176-1.906.29.29,0,0,1,.235-.322h7.593c.205,0,.352.088.381.235l10.7,30.049c.088.322,0,.469-.293.469H52.12a.443.443,0,0,1-.469-.322Zm-9.205-5.834h7.446c-.176-.616-.41-1.349-.674-2.111-.264-.792-.528-1.642-.792-2.521-.293-.909-.557-1.788-.85-2.7s-.557-1.759-.792-2.609c-.235-.821-.44-1.583-.645-2.287h-.059a35.995,35.995,0,0,1-1,3.782c-.44,1.407-.879,2.873-1.349,4.339C40.951,75.151,40.482,76.529,40.042,77.761Z" transform="translate(-29.69 -60.2)" fill="#99f"/>
          <path id="Caminho_7390" data-name="Caminho 7390" d="M149.019,97.786h-9.293a6.46,6.46,0,0,0,.909,2.609,4.648,4.648,0,0,0,2.14,1.759,9.118,9.118,0,0,0,3.753.733,17.636,17.636,0,0,0,3.049-.322,11.01,11.01,0,0,0,2.609-.674c.147-.117.235-.059.235.235v4.485a1.472,1.472,0,0,1-.059.352.685.685,0,0,1-.205.205,12.542,12.542,0,0,1-2.932.88,19.8,19.8,0,0,1-4.163.352,13.893,13.893,0,0,1-5.629-1.026,9.871,9.871,0,0,1-3.694-2.785,10.758,10.758,0,0,1-2.023-3.84,15.188,15.188,0,0,1,.117-8.942,11.964,11.964,0,0,1,2.2-4.016A10.625,10.625,0,0,1,139.579,85a11.072,11.072,0,0,1,4.9-.909,10.591,10.591,0,0,1,4.544.909,8.074,8.074,0,0,1,3.078,2.345,10.732,10.732,0,0,1,1.759,3.342,11.532,11.532,0,0,1,.557,3.577c0,.7-.029,1.319-.059,1.876-.059.557-.088.967-.117,1.231a.438.438,0,0,1-.41.381c-.176,0-.5.029-.967.059a13.874,13.874,0,0,1-1.7.088C150.485,97.9,149.781,97.786,149.019,97.786Zm-9.293-4.28h6.186c.762,0,1.319,0,1.671-.029a1.433,1.433,0,0,0,.674-.235v-.293a3.364,3.364,0,0,0-.176-1.085,3.88,3.88,0,0,0-3.811-2.7,4.128,4.128,0,0,0-3.9,2.228A6.077,6.077,0,0,0,139.726,93.506Z" transform="translate(-102.784 -77.089)" fill="#99f"/>
        </g>
      </g>
    </g>
  </g>
</svg>
