<svg xmlns="http://www.w3.org/2000/svg" xmlns:xlink="http://www.w3.org/1999/xlink" width="114" height="114" viewBox="0 0 114 114">
  <defs>
    <clipPath id="clip-path">
      <rect id="Ret칙ngulo_163" data-name="Ret칙ngulo 163" width="114" height="114" transform="translate(740 8130)" fill="#f5f5f5"/>
    </clipPath>
  </defs>
  <g id="Grupo_de_m치scara_64" data-name="Grupo de m치scara 64" transform="translate(-740 -8130)" clip-path="url(#clip-path)">
    <g id="Grupo_1505" data-name="Grupo 1505" transform="translate(763 8154)">
      <path id="Caminho_7484" data-name="Caminho 7484" d="M-459.087-425.31h22.236a12.071,12.071,0,0,1,11.663,9.179,13.053,13.053,0,0,1,.357,2.96q.034,21.361.015,42.722a12.119,12.119,0,0,1-9.77,11.731,14.661,14.661,0,0,1-2.586.232q-21.914.021-43.829,0a11.863,11.863,0,0,1-11.018-6.591,11.428,11.428,0,0,1-1.346-5.585q0-21.236,0-42.472a12.1,12.1,0,0,1,10.053-12,10.349,10.349,0,0,1,1.843-.167Q-470.276-425.319-459.087-425.31Z" transform="translate(493.366 425.31)" fill="#000b1d"/>
      <path id="Caminho_7485" data-name="Caminho 7485" d="M-326.089-205.9c0,.868,0,1.737,0,2.605,0,.27-.1.395-.371.275a15.341,15.341,0,0,0-6.733-1.05,9.883,9.883,0,0,0-5.748,1.82,9.031,9.031,0,0,0-3.7,6.447,12,12,0,0,0,.527,5.8,8.877,8.877,0,0,0,6.686,5.706,16.306,16.306,0,0,0,4.818.315,14.045,14.045,0,0,0,3.68-.587c.629-.208.63-.2.63.469q0,2.248,0,4.5c0,.509-.094.641-.581.8a18.136,18.136,0,0,1-4.561.724,21.932,21.932,0,0,1-7.243-.649,13.965,13.965,0,0,1-9.084-7.129,15.831,15.831,0,0,1-1.707-6.529,16.656,16.656,0,0,1,2.67-10.817,14.821,14.821,0,0,1,8.459-5.861,23.135,23.135,0,0,1,6.992-.728,17.727,17.727,0,0,1,4.581.583c.648.191.687.247.687.919Q-326.089-207.094-326.089-205.9Z" transform="translate(359.8 225.205)" fill="#fdfdfd"/>
      <path id="Caminho_7486" data-name="Caminho 7486" d="M43.981-97.7a2.853,2.853,0,0,0-2.315-2.933,8.933,8.933,0,0,0-2.83-.237,15.788,15.788,0,0,0-5.44,1.141c-.406.164-.543.061-.543-.377,0-1.487.007-2.974-.005-4.461a.675.675,0,0,1,.46-.709,16.494,16.494,0,0,1,4.6-1.183,18.134,18.134,0,0,1,5.186.042,8.291,8.291,0,0,1,7.026,6.988,15.917,15.917,0,0,1,.212,2.481c.026,3.533.015,7.066.025,10.6,0,.546.04,1.092.069,1.638a.346.346,0,0,1-.251.4,28.1,28.1,0,0,1-6.448,1.85,17.622,17.622,0,0,1-7.831-.4,7.23,7.23,0,0,1-4.641-3.788,7.134,7.134,0,0,1,.548-7.565,8.2,8.2,0,0,1,4.611-2.916A15.96,15.96,0,0,1,40.6-97.7C41.721-97.71,42.837-97.7,43.981-97.7Zm.008,4.971a12.052,12.052,0,0,0-3.385-.141,8.522,8.522,0,0,0-1.942.4,2.44,2.44,0,0,0-1.586,3.03,2.668,2.668,0,0,0,2.068,1.864,8.91,8.91,0,0,0,4.545-.083c.243-.057.311-.163.307-.411-.017-.975-.007-1.951-.007-2.926Z" transform="translate(6.999 129.397)" fill="#fdfdfd"/>
    </g>
  </g>
</svg>
