<svg xmlns="http://www.w3.org/2000/svg" xmlns:xlink="http://www.w3.org/1999/xlink" width="114" height="114" viewBox="0 0 114 114">
  <defs>
    <clipPath id="clip-path">
      <rect id="Ret칙ngulo_161" data-name="Ret칙ngulo 161" width="114" height="114" transform="translate(326 7724)" fill="#f5f5f5"/>
    </clipPath>
  </defs>
  <g id="Grupo_de_m치scara_57" data-name="Grupo de m치scara 57" transform="translate(-326 -7724)" clip-path="url(#clip-path)">
    <g id="Layer_2" data-name="Layer 2" transform="translate(348 7747)">
      <g id="Surfaces">
        <g id="_3D_Surface" data-name=" 3D Surface">
          <g id="Outline_no_shadow" data-name="Outline no shadow">
            <path id="Caminho_7479" data-name="Caminho 7479" d="M12.459,0H57.9A12.449,12.449,0,0,1,70.36,12.459V56.141A12.449,12.449,0,0,1,57.9,68.6H12.459A12.449,12.449,0,0,1,0,56.141V12.459A12.449,12.449,0,0,1,12.459,0Z" fill="#013301"/>
          </g>
        </g>
      </g>
      <g id="Outlined_Mnemonics_Logos" data-name="Outlined Mnemonics Logos" transform="translate(10.257 17.473)">
        <g id="Dn">
          <path id="Caminho_7480" data-name="Caminho 7480" d="M34.991,90.148V60.128a.354.354,0,0,1,.322-.381h.029c.469-.029,1.173-.059,2.081-.059.909-.029,1.994-.029,3.2-.059,1.231-.029,2.521-.029,3.928-.029a20.152,20.152,0,0,1,9.381,1.935,13.214,13.214,0,0,1,5.6,5.306,15.948,15.948,0,0,1,1.876,7.769,17.45,17.45,0,0,1-.967,6.01A14.282,14.282,0,0,1,57.8,85.135a15.781,15.781,0,0,1-3.811,3.137,16.638,16.638,0,0,1-4.544,1.847,20.119,20.119,0,0,1-4.779.586H41.147c-1.231,0-2.4,0-3.459-.029s-1.876-.029-2.4-.059C35.079,90.617,34.991,90.441,34.991,90.148ZM41.5,65.4V84.959a9.123,9.123,0,0,1,.938.029c.293.029.586.029.879.059s.645.029,1.026.029a11.971,11.971,0,0,0,4.192-.674,8.4,8.4,0,0,0,3.225-1.994,8.849,8.849,0,0,0,2.081-3.254,12.484,12.484,0,0,0,.733-4.4,11.056,11.056,0,0,0-.7-4.134,7.493,7.493,0,0,0-2.052-2.961,8.171,8.171,0,0,0-3.2-1.759,13.678,13.678,0,0,0-4.075-.557c-.616,0-1.143,0-1.583.029A12.585,12.585,0,0,0,41.5,65.4Z" transform="translate(-34.987 -59.6)" fill="#3f6"/>
          <path id="Caminho_7481" data-name="Caminho 7481" d="M134.334,107.283V89.722c0-.528,0-1.143-.029-1.788-.029-.674-.029-1.29-.059-1.876s-.059-1.055-.088-1.407a.28.28,0,0,1,.059-.293.5.5,0,0,1,.293-.088h4.867a1.215,1.215,0,0,1,.469.088.454.454,0,0,1,.235.322c.059.176.147.41.205.645a4.676,4.676,0,0,1,.176.88,9.74,9.74,0,0,1,3.108-1.818,11.248,11.248,0,0,1,3.547-.586,8.745,8.745,0,0,1,2.756.44,7.049,7.049,0,0,1,4.456,4.339,13.176,13.176,0,0,1,.7,4.691v14.013c0,.293-.117.41-.381.41h-5.717a.406.406,0,0,1-.469-.352V93.826a6.11,6.11,0,0,0-.41-2.4,3.218,3.218,0,0,0-3.2-1.994,5.779,5.779,0,0,0-2.228.41,6.164,6.164,0,0,0-1.759,1.114v16.329c0,.293-.117.41-.381.41h-5.746a.365.365,0,0,1-.41-.322Z" transform="translate(-105.072 -76.705)" fill="#3f6"/>
        </g>
      </g>
    </g>
  </g>
</svg>
