<svg xmlns="http://www.w3.org/2000/svg" xmlns:xlink="http://www.w3.org/1999/xlink" width="114" height="114" viewBox="0 0 114 114">
  <defs>
    <clipPath id="clip-path">
      <rect id="Ret칙ngulo_197" data-name="Ret칙ngulo 197" width="114" height="114" transform="translate(5260 7526)" fill="#f5f5f5"/>
    </clipPath>
  </defs>
  <g id="Grupo_de_m치scara_74" data-name="Grupo de m치scara 74" transform="translate(-5260 -7526)" clip-path="url(#clip-path)">
    <g id="Layer_2" data-name="Layer 2" transform="translate(5282 7549)">
      <g id="Surfaces">
        <g id="UI_UX_Surface" data-name="UI UX Surface">
          <g id="Outline_no_shadow" data-name="Outline no shadow">
            <path id="Caminho_7489" data-name="Caminho 7489" d="M12.459,0H57.9A12.449,12.449,0,0,1,70.36,12.459V56.141A12.449,12.449,0,0,1,57.9,68.6H12.459A12.449,12.449,0,0,1,0,56.141V12.459A12.449,12.449,0,0,1,12.459,0Z" fill="#470137"/>
          </g>
        </g>
      </g>
      <g id="Outlined_Mnemonics_Logos" data-name="Outlined Mnemonics Logos" transform="translate(6.68 17.473)">
        <g id="Dw">
          <path id="Caminho_7490" data-name="Caminho 7490" d="M22.791,90.148V60.128a.353.353,0,0,1,.293-.381h.029c.44-.029,1.114-.059,1.964-.059.879-.029,1.876-.029,3.049-.059s2.4-.029,3.723-.029a18.4,18.4,0,0,1,8.912,1.935,12.856,12.856,0,0,1,5.306,5.306,16.582,16.582,0,0,1,1.759,7.769,18.126,18.126,0,0,1-.909,6.01A14.282,14.282,0,0,1,44.4,85.135a15.347,15.347,0,0,1-3.606,3.137,16.082,16.082,0,0,1-4.31,1.847,18,18,0,0,1-4.515.586H28.654c-1.173,0-2.287,0-3.283-.029-1.026-.029-1.788-.029-2.287-.059C22.879,90.617,22.791,90.441,22.791,90.148ZM28.977,65.4V84.959c.322,0,.616,0,.909.029.264.029.557.029.821.059.293.029.616.029.967.029a10.969,10.969,0,0,0,3.987-.674,7.869,7.869,0,0,0,3.078-1.994A9.053,9.053,0,0,0,40.7,79.154a13.947,13.947,0,0,0,.7-4.4,11.65,11.65,0,0,0-.674-4.134,7.645,7.645,0,0,0-5.013-4.749,12.367,12.367,0,0,0-3.87-.557c-.586,0-1.085,0-1.5.029-.41,0-.879.029-1.378.059Z" transform="translate(-22.787 -59.6)" fill="#ff61f6"/>
          <path id="Caminho_7491" data-name="Caminho 7491" d="M136.237,108.712h-5.482a.4.4,0,0,1-.352-.117.991.991,0,0,1-.176-.352c-.557-2.345-1.026-4.456-1.407-6.244-.381-1.818-.7-3.342-.938-4.6s-.44-2.316-.616-3.2c-.147-.879-.293-1.612-.381-2.228h-.029c-.293,1.29-.557,2.551-.821,3.753-.235,1.2-.528,2.433-.821,3.665s-.616,2.58-1,4.046c-.352,1.466-.762,3.078-1.2,4.808-.059.322-.205.469-.469.469h-5.482a.654.654,0,0,1-.41-.088,1.21,1.21,0,0,1-.205-.322L110.732,85.64c-.088-.264.029-.381.352-.381h5.541c.264,0,.41.088.44.293.586,2.58,1.085,4.808,1.466,6.684s.7,3.459.909,4.779.41,2.4.557,3.225.264,1.524.352,2.052h.088c.059-.469.117-.909.205-1.378q.176-.836.44-2.2c.176-.909.381-1.964.645-3.2s.557-2.638.909-4.28c.322-1.612.792-3.459,1.349-5.541a.955.955,0,0,1,.117-.381c.029-.059.147-.088.322-.088h5.746c.176,0,.264.117.293.322.5,2.14.909,4.016,1.261,5.629q.484,2.419.88,4.31c.235,1.231.44,2.316.557,3.2.117.909.264,1.642.381,2.257a13.086,13.086,0,0,1,.205,1.5h.088c.147-.586.264-1.29.381-2.081s.264-1.671.469-2.668c.176-1,.381-2.081.616-3.283.205-1.2.5-2.521.821-4.016.322-1.466.674-3.078,1.085-4.808.059-.264.176-.381.381-.381h5.13c.264,0,.352.147.293.41l-6.332,22.6a.7.7,0,0,1-.176.322C136.5,108.682,136.384,108.741,136.237,108.712Z" transform="translate(-84.93 -77.695)" fill="#ff61f6"/>
        </g>
      </g>
    </g>
  </g>
</svg>
