<svg xmlns="http://www.w3.org/2000/svg" xmlns:xlink="http://www.w3.org/1999/xlink" width="114" height="114" viewBox="0 0 114 114">
  <defs>
    <clipPath id="clip-path">
      <rect id="Ret칙ngulo_162" data-name="Ret칙ngulo 162" width="114" height="114" transform="translate(1110 5239)" fill="#f5f5f5"/>
    </clipPath>
  </defs>
  <g id="Grupo_de_m치scara_54" data-name="Grupo de m치scara 54" transform="translate(-1110 -5239)" clip-path="url(#clip-path)">
    <g id="Layer_2" data-name="Layer 2" transform="translate(1132 5262)">
      <g id="Surfaces">
        <g id="Photo_Surface" data-name="Photo Surface">
          <g id="Outline_no_shadow" data-name="Outline no shadow">
            <path id="Caminho_7475" data-name="Caminho 7475" d="M12.459,0H57.9A12.449,12.449,0,0,1,70.36,12.459V56.141A12.449,12.449,0,0,1,57.9,68.6H12.459A12.449,12.449,0,0,1,0,56.141V12.459A12.449,12.449,0,0,1,12.459,0Z" fill="#001e36"/>
          </g>
        </g>
      </g>
      <g id="Outlined_Mnemonics_Logos" data-name="Outlined Mnemonics Logos" transform="translate(7.534 17.59)">
        <g id="LrC">
          <path id="Caminho_7476" data-name="Caminho 7476" d="M42.85,90.9H26.11c-.293,0-.41-.176-.41-.528V60.41c0-.293.117-.41.381-.41H31.27c.205,0,.293.117.293.322V84.948h12.2c.264,0,.352.147.293.41l-.762,5.1a.5.5,0,0,1-.176.352A.473.473,0,0,1,42.85,90.9Z" transform="translate(-25.7 -60)" fill="#31a8ff"/>
          <path id="Caminho_7477" data-name="Caminho 7477" d="M97.793,84.265h4.632c.264,0,.44.147.557.469a2.573,2.573,0,0,1,.205.674c.059.293.088.616.117.909.029.322.029.674.029,1.055a10.062,10.062,0,0,1,2.814-2.521,7.39,7.39,0,0,1,3.928-1.055c.264,0,.381.147.381.41v5.717c0,.235-.147.322-.41.322a9.459,9.459,0,0,0-4.984,1,5.157,5.157,0,0,0-1.437,1.085v14.951c0,.293-.117.41-.352.41h-5.1c-.293,0-.41-.147-.41-.469V90.979c0-.7,0-1.437-.029-2.2,0-.762-.029-1.524-.059-2.287q-.044-.967-.176-1.935a.436.436,0,0,1,.059-.264A.331.331,0,0,1,97.793,84.265Z" transform="translate(-76.451 -76.819)" fill="#31a8ff"/>
          <path id="Caminho_7478" data-name="Caminho 7478" d="M166.791,68.974a7.437,7.437,0,0,0-1.964-.5,25.572,25.572,0,0,0-2.99-.176,14.784,14.784,0,0,0-7.476,1.818,12.622,12.622,0,0,0-4.867,5.13,16.23,16.23,0,0,0-1.7,7.622,19.3,19.3,0,0,0,.645,5.16,13.589,13.589,0,0,0,1.876,4.016,11.752,11.752,0,0,0,2.873,2.9,11.447,11.447,0,0,0,3.723,1.759,16.209,16.209,0,0,0,4.28.586,20.625,20.625,0,0,0,3.02-.205,9.39,9.39,0,0,0,2.375-.586.788.788,0,0,0,.44-.792V91.343a.51.51,0,0,0-.147-.44.353.353,0,0,0-.469.029,9.541,9.541,0,0,1-2.052.5,24.752,24.752,0,0,1-2.551.117,8.614,8.614,0,0,1-2.287-.322,8.768,8.768,0,0,1-2.228-.938,6.4,6.4,0,0,1-1.847-1.7,8.919,8.919,0,0,1-1.29-2.521,11.273,11.273,0,0,1-.469-3.43,10.773,10.773,0,0,1,.967-4.691,7.361,7.361,0,0,1,2.756-3.078,8.127,8.127,0,0,1,4.28-1.114,14.581,14.581,0,0,1,2.756.235,6.892,6.892,0,0,1,2.111.7.435.435,0,0,0,.381,0,.5.5,0,0,0,.176-.44V69.678A.72.72,0,0,0,166.791,68.974Z" transform="translate(-111.999 -65.867)" fill="#31a8ff"/>
        </g>
      </g>
    </g>
  </g>
</svg>
