<svg xmlns="http://www.w3.org/2000/svg" xmlns:xlink="http://www.w3.org/1999/xlink" width="114" height="114" viewBox="0 0 114 114">
  <defs>
    <clipPath id="clip-path">
      <rect id="Ret칙ngulo_176" data-name="Ret칙ngulo 176" width="114" height="114" transform="translate(1886 7526)" fill="#f5f5f5"/>
    </clipPath>
  </defs>
  <g id="Grupo_de_m치scara_65" data-name="Grupo de m치scara 65" transform="translate(-1886 -7526)" clip-path="url(#clip-path)">
    <g id="Layer_2" data-name="Layer 2" transform="translate(1908 7549)">
      <g id="Surfaces">
        <g id="Video_Audio_Surface" data-name="Video Audio Surface">
          <g id="Outline_no_shadow" data-name="Outline no shadow">
            <path id="Caminho_7366" data-name="Caminho 7366" d="M12.459,0H57.9A12.449,12.449,0,0,1,70.36,12.459V56.141A12.449,12.449,0,0,1,57.9,68.6H12.459A12.449,12.449,0,0,1,0,56.141V12.459A12.449,12.449,0,0,1,12.459,0Z" fill="#00005b"/>
          </g>
        </g>
      </g>
      <g id="Outlined_Mnemonics_Logos" data-name="Outlined Mnemonics Logos" transform="translate(16.71 17.443)">
        <g id="Pr">
          <path id="Caminho_7367" data-name="Caminho 7367" d="M57,90.165V60c0-.205.088-.322.293-.322.5,0,.967,0,1.642-.029.7-.029,1.437-.029,2.228-.059s1.642-.029,2.551-.059S65.5,59.5,66.381,59.5a17.238,17.238,0,0,1,6.039.909,10.469,10.469,0,0,1,3.928,2.4,9.335,9.335,0,0,1,2.14,3.342,11.221,11.221,0,0,1,.674,3.811A10.481,10.481,0,0,1,77.4,76.21a10.044,10.044,0,0,1-4.72,3.577,19,19,0,0,1-6.6,1c-.7,0-1.173,0-1.466-.029s-.7-.029-1.261-.029v9.411a.365.365,0,0,1-.322.41H57.352C57.117,90.546,57,90.429,57,90.165Zm6.391-24.831v9.85c.41.029.792.059,1.143.059h1.554a10.951,10.951,0,0,0,3.371-.528,5.042,5.042,0,0,0,2.4-1.554,4.53,4.53,0,0,0,.909-3.02,4.825,4.825,0,0,0-.674-2.609,4.251,4.251,0,0,0-2.052-1.671,8.6,8.6,0,0,0-3.459-.586c-.762,0-1.437,0-1.994.029a6.711,6.711,0,0,0-1.2.029Z" transform="translate(-57 -59.5)" fill="#99f"/>
          <path id="Caminho_7368" data-name="Caminho 7368" d="M145.88,83.989h5.13a.66.66,0,0,1,.616.469,2.977,2.977,0,0,1,.176.733c.059.293.117.616.147.909.029.322.059.674.059,1.055a10.911,10.911,0,0,1,3.137-2.521,9.086,9.086,0,0,1,4.456-1.143.365.365,0,0,1,.41.322v5.834c0,.235-.147.322-.469.322a12.747,12.747,0,0,0-3.166.293,12.064,12.064,0,0,0-2.463.792,4.558,4.558,0,0,0-1.5,1.085v14.951c0,.293-.117.41-.381.41h-5.775a.406.406,0,0,1-.469-.352V90.791c0-.7,0-1.437-.029-2.2s-.029-1.524-.059-2.287c0-.674-.059-1.319-.117-1.994a.27.27,0,0,1,.205-.322c0-.029.059-.029.088,0Z" transform="translate(-119.612 -76.455)" fill="#99f"/>
        </g>
      </g>
    </g>
  </g>
</svg>
