<svg xmlns="http://www.w3.org/2000/svg" width="252" height="57.34" viewBox="0 0 252 57.34">
  <g id="Grupo_1002" data-name="Grupo 1002" transform="translate(-56.931 -674.928)">
    <path id="Caminho_32" data-name="Caminho 32" d="M284.953,727.448l4.583-7.938q3.986-6.9-4.022-6.9h-31l-22.757,35.619h9.884l8.948-13.874h22.366A12.984,12.984,0,0,0,284.953,727.448Zm-30.853.83,5.541-9.6h18.638a4.5,4.5,0,0,1,2.45.42q.671.63-.38,2.452l-2.223,3.85a5.61,5.61,0,0,1-2.452,2.452,7.86,7.86,0,0,1-2.935.422Z" transform="translate(-115.467 -24.885)" fill="#fff"/>
    <path id="Caminho_33" data-name="Caminho 33" d="M425.1,734.037a12.99,12.99,0,0,0,12-6.9l4.583-7.938q3.986-6.9-4.022-6.9H407.14l-9.491,15.721H385.106l1.257-15.883-8.51.074-41.478,35.823h11.682l29.832-27.032-.716,7.018h-3.7l-6.714,5.96h9.527l-1.437,14.053h8.687l1.1-14.053h8.989l-8.415,13.938h8.566l8.948-13.874h11l7.021,13.883H429.7l-7.816-13.883Zm-18.857-6.074,5.54-9.6h18.638a4.5,4.5,0,0,1,2.447.42q.674.63-.377,2.452l-2.226,3.85a5.6,5.6,0,0,1-2.449,2.452,7.869,7.869,0,0,1-2.933.422Z" transform="translate(-184.559 -24.57)" fill="#fff"/>
    <path id="Caminho_34" data-name="Caminho 34" d="M646,712.095a13.333,13.333,0,0,0-11.628,6.707s-5.59,9.118-5.852,9.757c-.978,2.377.152,3.36,1.831,3.875s6.679.436,6.679.436l.113,0h8.745a.18.18,0,0,0,.009-.016l6.1.018a4.641,4.641,0,0,1,2.406.4c.45.4.217,1.329-.486,2.481L651.7,739.4a5.469,5.469,0,0,1-2.45,2.323,8.367,8.367,0,0,1-2.935.4H627.678v0s-4.106-.016-6.566.075a3.489,3.489,0,0,0-2.886,1.143c-.75.941-3.193,4.506-3.193,4.506l31.952.022a13.034,13.034,0,0,0,11.542-6.531s5.7-9.275,5.961-9.913c.974-2.379-.156-3.36-1.833-3.877s-6.679-.434-6.679-.434l-.111,0h-6.016s0,0,0-.005h-8.844a4.612,4.612,0,0,1-2.406-.4c-.445-.4-.321-1.173.38-2.323l2.223-3.651a5.487,5.487,0,0,1,2.452-2.323,8.344,8.344,0,0,1,2.933-.4h18.64l0,0s3.089.079,5.437-.058a6.273,6.273,0,0,0,2.436-.563,6.548,6.548,0,0,0,2.227-1.93c.636-.8,2.2-3.372,2.2-3.372Z" transform="translate(-368.599 -24.547)" fill="#fff"/>
    <path id="Caminho_35" data-name="Caminho 35" d="M78.753,784.715l6-9.392c.077-.117.115-.244.183-.361.479-.816-1.749.194-4.031-1.065-2.031-1.118-2.192-3.374-2.594-2.632l-6.341,9.919a3.32,3.32,0,0,0,1.38,4.827A4.234,4.234,0,0,0,78.753,784.715Z" transform="translate(-9.572 -63.529)" fill="#fff"/>
    <path id="Caminho_36" data-name="Caminho 36" d="M137.409,802.3c.479-.818-1.747.195-4.029-1.066-2.034-1.121-2.194-3.372-2.6-2.63l-6.343,9.92a3.316,3.316,0,0,0,1.385,4.824,4.225,4.225,0,0,0,5.394-1.3l6.006-9.395C137.3,802.542,137.339,802.416,137.409,802.3Z" transform="translate(-44.224 -81.583)" fill="#fff"/>
    <path id="Caminho_37" data-name="Caminho 37" d="M111.308,760.751c.479-.82-1.749.19-4.031-1.069-2.031-1.119-2.187-3.373-2.594-2.633L88.938,781.111a3.314,3.314,0,0,0,1.378,4.826,4.227,4.227,0,0,0,5.4-1.3l15.413-23.529C111.2,760.991,111.24,760.866,111.308,760.751Z" transform="translate(-20.774 -54.141)" fill="#fff"/>
    <path id="Caminho_38" data-name="Caminho 38" d="M64.259,724.426l14.676-22.382a3.317,3.317,0,0,0-1.385-4.824,4.22,4.22,0,0,0-5.392,1.3L57.48,720.894a3.318,3.318,0,0,0,1.383,4.826A4.228,4.228,0,0,0,64.259,724.426Z" transform="translate(0 -14.41)" fill="#fff"/>
    <path id="Caminho_39" data-name="Caminho 39" d="M180.619,756.726a4.217,4.217,0,0,0-5.391,1.295L160.549,780.4a3.317,3.317,0,0,0,1.381,4.824,4.224,4.224,0,0,0,5.4-1.3L182,761.551A3.319,3.319,0,0,0,180.619,756.726Z" transform="translate(-68.072 -53.711)" fill="#fff"/>
    <path id="Caminho_40" data-name="Caminho 40" d="M99.8,718.115a4.227,4.227,0,0,0,5.4-1.3l14.679-22.38a3.318,3.318,0,0,0-1.385-4.825,4.218,4.218,0,0,0-5.394,1.3l-14.676,22.38A3.317,3.317,0,0,0,99.8,718.115Z" transform="translate(-27.035 -9.385)" fill="#fff"/>
    <path id="Caminho_41" data-name="Caminho 41" d="M165.567,718.241l-14.676,22.385a3.311,3.311,0,0,0,1.381,4.821,4.224,4.224,0,0,0,5.4-1.292l14.679-22.382a3.319,3.319,0,0,0-1.383-4.824A4.223,4.223,0,0,0,165.567,718.241Z" transform="translate(-61.692 -27.439)" fill="#fff"/>
    <path id="Caminho_42" data-name="Caminho 42" d="M144.471,703.9a4.231,4.231,0,0,0,5.4-1.295l14.677-22.381a3.316,3.316,0,0,0-1.385-4.825,4.217,4.217,0,0,0-5.391,1.3l-14.679,22.379A3.319,3.319,0,0,0,144.471,703.9Z" transform="translate(-56.54)" fill="#fff"/>
  </g>
</svg>
