<svg xmlns="http://www.w3.org/2000/svg" width="204" height="219" viewBox="0 0 204 219">
  <g id="Grupo_1472" data-name="Grupo 1472" transform="translate(-412 -2954)">
    <g id="Retângulo_225" data-name="Retângulo 225" transform="translate(416 2958)" fill="none" stroke="#0091d5" stroke-width="2">
      <rect width="196" height="211" stroke="none"/>
      <rect x="1" y="1" width="194" height="209" fill="none"/>
    </g>
    <g id="Retângulo_217" data-name="Retângulo 217" transform="translate(412 2954)" fill="#092347" stroke="#0091d5" stroke-width="2">
      <rect width="10" height="10" stroke="none"/>
      <rect x="1" y="1" width="8" height="8" fill="none"/>
    </g>
    <g id="Retângulo_226" data-name="Retângulo 226" transform="translate(414 3062)" fill="#fff" stroke="#0091d5" stroke-width="2">
      <rect width="6" height="6" stroke="none"/>
      <rect x="1" y="1" width="4" height="4" fill="none"/>
    </g>
    <g id="Retângulo_227" data-name="Retângulo 227" transform="translate(608 3062)" fill="#fff" stroke="#0091d5" stroke-width="2">
      <rect width="6" height="6" stroke="none"/>
      <rect x="1" y="1" width="4" height="4" fill="none"/>
    </g>
    <g id="Retângulo_228" data-name="Retângulo 228" transform="translate(511 2956)" fill="#092449" stroke="#0091d5" stroke-width="2">
      <rect width="6" height="6" stroke="none"/>
      <rect x="1" y="1" width="4" height="4" fill="none"/>
    </g>
    <g id="Retângulo_229" data-name="Retângulo 229" transform="translate(511 3165)" fill="#fff" stroke="#0091d5" stroke-width="2">
      <rect width="6" height="6" stroke="none"/>
      <rect x="1" y="1" width="4" height="4" fill="none"/>
    </g>
    <g id="Retângulo_218" data-name="Retângulo 218" transform="translate(606 2954)" fill="#0b1a38" stroke="#0091d5" stroke-width="2">
      <rect width="10" height="10" stroke="none"/>
      <rect x="1" y="1" width="8" height="8" fill="none"/>
    </g>
    <g id="Retângulo_219" data-name="Retângulo 219" transform="translate(606 3163)" fill="#fff" stroke="#0091d5" stroke-width="2">
      <rect width="10" height="10" stroke="none"/>
      <rect x="1" y="1" width="8" height="8" fill="none"/>
    </g>
    <g id="Retângulo_220" data-name="Retângulo 220" transform="translate(412 3163)" fill="#fff" stroke="#0091d5" stroke-width="2">
      <rect width="10" height="10" stroke="none"/>
      <rect x="1" y="1" width="8" height="8" fill="none"/>
    </g>
  </g>
</svg>
