<svg xmlns="http://www.w3.org/2000/svg" width="96" height="97" viewBox="0 0 96 97">
  <g id="Grupo_1470" data-name="Grupo 1470" transform="translate(-412 -2954)">
    <g id="Retângulo_225" data-name="Retângulo 225" transform="translate(416 2958)" fill="none" stroke="#0c152e" stroke-width="2">
      <rect width="88" height="89" stroke="none"/>
      <rect x="1" y="1" width="86" height="87" fill="none"/>
    </g>
    <g id="Retângulo_217" data-name="Retângulo 217" transform="translate(412 2954)" fill="#0091d5" stroke="#0c152e" stroke-width="2">
      <rect width="10" height="10" stroke="none"/>
      <rect x="1" y="1" width="8" height="8" fill="none"/>
    </g>
    <g id="Retângulo_226" data-name="Retângulo 226" transform="translate(414 3000)" fill="#0091d5" stroke="#0c152e" stroke-width="2">
      <rect width="6" height="6" stroke="none"/>
      <rect x="1" y="1" width="4" height="4" fill="none"/>
    </g>
    <g id="Retângulo_227" data-name="Retângulo 227" transform="translate(500 3000)" fill="#0091d5" stroke="#0c152e" stroke-width="2">
      <rect width="6" height="6" stroke="none"/>
      <rect x="1" y="1" width="4" height="4" fill="none"/>
    </g>
    <g id="Retângulo_228" data-name="Retângulo 228" transform="translate(457 2956)" fill="#0091d5" stroke="#0c152e" stroke-width="2">
      <rect width="6" height="6" stroke="none"/>
      <rect x="1" y="1" width="4" height="4" fill="none"/>
    </g>
    <g id="Retângulo_229" data-name="Retângulo 229" transform="translate(457 3043)" fill="#fff" stroke="#0c152e" stroke-width="2">
      <rect width="6" height="6" stroke="none"/>
      <rect x="1" y="1" width="4" height="4" fill="none"/>
    </g>
    <g id="Retângulo_218" data-name="Retângulo 218" transform="translate(498 2954)" fill="#0091d5" stroke="#0c152e" stroke-width="2">
      <rect width="10" height="10" stroke="none"/>
      <rect x="1" y="1" width="8" height="8" fill="none"/>
    </g>
    <g id="Retângulo_219" data-name="Retângulo 219" transform="translate(498 3041)" fill="#fff" stroke="#0c152e" stroke-width="2">
      <rect width="10" height="10" stroke="none"/>
      <rect x="1" y="1" width="8" height="8" fill="none"/>
    </g>
    <g id="Retângulo_220" data-name="Retângulo 220" transform="translate(412 3041)" fill="#fff" stroke="#0c152e" stroke-width="2">
      <rect width="10" height="10" stroke="none"/>
      <rect x="1" y="1" width="8" height="8" fill="none"/>
    </g>
  </g>
</svg>
