<svg xmlns="http://www.w3.org/2000/svg" xmlns:xlink="http://www.w3.org/1999/xlink" width="72" height="72" viewBox="0 0 72 72">
  <defs>
    <clipPath id="clip-path">
      <rect id="Ret칙ngulo_99" data-name="Ret칙ngulo 99" width="72" height="72" transform="translate(972 4383)" fill="#fff" stroke="#707070" stroke-width="1"/>
    </clipPath>
  </defs>
  <g id="Grupo_de_m치scara_11" data-name="Grupo de m치scara 11" transform="translate(-972 -4383)" clip-path="url(#clip-path)">
    <g id="Grupo_1240" data-name="Grupo 1240" transform="translate(-98.917 4329.079)">
      <g id="Grupo_1221" data-name="Grupo 1221" transform="translate(1108.465 72.906)">
        <g id="Grupo_1220" data-name="Grupo 1220">
          <path id="Caminho_7207" data-name="Caminho 7207" d="M1361.255,163.921h-6.893a1.077,1.077,0,0,0-1.077,1.077v6.892a1.077,1.077,0,0,0,1.077,1.077h6.893a1.077,1.077,0,0,0,1.077-1.077V165A1.077,1.077,0,0,0,1361.255,163.921Zm-1.077,6.892h-4.739v-4.739h4.739Z" transform="translate(-1353.286 -163.921)" fill="#0091d5"/>
        </g>
      </g>
      <g id="Grupo_1223" data-name="Grupo 1223" transform="translate(1108.465 84.968)">
        <g id="Grupo_1222" data-name="Grupo 1222">
          <path id="Caminho_7208" data-name="Caminho 7208" d="M1361.255,275.921h-6.893a1.077,1.077,0,0,0-1.077,1.077v6.892a1.077,1.077,0,0,0,1.077,1.077h6.893a1.077,1.077,0,0,0,1.077-1.077V277A1.077,1.077,0,0,0,1361.255,275.921Zm-1.077,6.892h-4.739v-4.739h4.739Z" transform="translate(-1353.286 -275.921)" fill="#0091d5"/>
        </g>
      </g>
      <g id="Grupo_1225" data-name="Grupo 1225" transform="translate(1108.465 97.029)">
        <g id="Grupo_1224" data-name="Grupo 1224">
          <path id="Caminho_7209" data-name="Caminho 7209" d="M1357.809,387.921h-3.446a1.077,1.077,0,0,0-1.077,1.077v6.892a1.077,1.077,0,1,0,2.154,0v-5.815h2.369a1.077,1.077,0,1,0,0-2.154Z" transform="translate(-1353.286 -387.921)" fill="#0091d5"/>
        </g>
      </g>
      <g id="Grupo_1227" data-name="Grupo 1227" transform="translate(1096.399 72.906)">
        <g id="Grupo_1226" data-name="Grupo 1226">
          <path id="Caminho_7210" data-name="Caminho 7210" d="M1249.219,163.921a1.077,1.077,0,0,0-1.077,1.077v5.816h-5.815a1.077,1.077,0,0,0,0,2.154h6.892a1.077,1.077,0,0,0,1.077-1.077V165A1.077,1.077,0,0,0,1249.219,163.921Z" transform="translate(-1241.25 -163.921)" fill="#0091d5"/>
        </g>
      </g>
      <g id="Grupo_1229" data-name="Grupo 1229" transform="translate(1096.399 84.968)">
        <g id="Grupo_1228" data-name="Grupo 1228">
          <path id="Caminho_7211" data-name="Caminho 7211" d="M1249.219,275.921h-6.892A1.077,1.077,0,0,0,1241.25,277v6.892a1.077,1.077,0,0,0,1.077,1.077h6.892a1.077,1.077,0,0,0,1.077-1.077V277A1.077,1.077,0,0,0,1249.219,275.921Zm-1.077,6.892H1243.4v-4.739h4.738Z" transform="translate(-1241.25 -275.921)" fill="#0091d5"/>
        </g>
      </g>
      <g id="Grupo_1231" data-name="Grupo 1231" transform="translate(1096.399 97.029)">
        <g id="Grupo_1230" data-name="Grupo 1230">
          <path id="Caminho_7212" data-name="Caminho 7212" d="M1249.219,387.921h-6.892A1.077,1.077,0,0,0,1241.25,389v6.892a1.077,1.077,0,0,0,1.077,1.077h6.892a1.077,1.077,0,0,0,1.077-1.077V389A1.077,1.077,0,0,0,1249.219,387.921Zm-1.077,6.892H1243.4v-4.739h4.738Z" transform="translate(-1241.25 -387.921)" fill="#0091d5"/>
        </g>
      </g>
      <g id="Grupo_1233" data-name="Grupo 1233" transform="translate(1105.381 112.136)">
        <g id="Grupo_1232" data-name="Grupo 1232">
          <path id="Caminho_7213" data-name="Caminho 7213" d="M1326.484,528.507a1.077,1.077,0,1,0,.315.761A1.08,1.08,0,0,0,1326.484,528.507Z" transform="translate(-1324.646 -528.191)" fill="#0091d5"/>
        </g>
      </g>
      <g id="Grupo_1235" data-name="Grupo 1235" transform="translate(1078.917 61.921)">
        <g id="Grupo_1234" data-name="Grupo 1234">
          <path id="Caminho_7214" data-name="Caminho 7214" d="M1121.132,61.921h-29.292a3.234,3.234,0,0,0-3.231,3.231v.429h-6.462a3.235,3.235,0,0,0-3.231,3.231V78.72a3.235,3.235,0,0,0,3.231,3.231h9.908a3.234,3.234,0,0,0,3.231-3.231V69.89h27.406a1.077,1.077,0,0,0,0-2.154H1095.1a3.236,3.236,0,0,0-3.046-2.155h-1.292v-.429a1.078,1.078,0,0,1,1.077-1.077h29.292a1.078,1.078,0,0,1,1.077,1.077v29.4a1.077,1.077,0,0,0,2.154,0v-29.4A3.234,3.234,0,0,0,1121.132,61.921Zm-28,16.8a1.078,1.078,0,0,1-1.077,1.077h-9.908a1.078,1.078,0,0,1-1.077-1.077v-.391a1.088,1.088,0,0,0,.169-.138l3.412-3.412,2.389,2.389a1.077,1.077,0,0,0,1.523,0l4.569-4.569Zm-1.077-10.985a1.078,1.078,0,0,1,1.077,1.077v.74l-5.331,5.331-2.388-2.389a1.077,1.077,0,0,0-1.523,0l-2.819,2.819v-6.5a1.078,1.078,0,0,1,1.077-1.077Z" transform="translate(-1078.917 -61.921)" fill="#0091d5"/>
        </g>
      </g>
      <g id="Grupo_1237" data-name="Grupo 1237" transform="translate(1088.61 80.345)">
        <g id="Grupo_1236" data-name="Grupo 1236">
          <path id="Caminho_7215" data-name="Caminho 7215" d="M1211.138,246.884h-11.631a3.234,3.234,0,0,0-3.231,3.231v11.631a3.234,3.234,0,0,0,3.231,3.231h3.015v1.508a1.078,1.078,0,0,1-1.077,1.077h-29.292a1.078,1.078,0,0,1-1.077-1.077V263.9h22.76a1.077,1.077,0,0,0,0-2.154h-22.76V234.077a1.077,1.077,0,0,0-2.154,0v32.408a3.235,3.235,0,0,0,3.231,3.231h29.292a3.235,3.235,0,0,0,3.231-3.231v-1.508h6.462a3.235,3.235,0,0,0,3.231-3.231V250.115A3.235,3.235,0,0,0,1211.138,246.884Zm1.077,14.862a1.078,1.078,0,0,1-1.077,1.077h-11.631a1.078,1.078,0,0,1-1.077-1.077V250.115a1.078,1.078,0,0,1,1.077-1.077h11.631a1.078,1.078,0,0,1,1.077,1.077Z" transform="translate(-1168.923 -233)" fill="#0091d5"/>
        </g>
      </g>
      <g id="Grupo_1239" data-name="Grupo 1239" transform="translate(1121.077 98.751)">
        <g id="Grupo_1238" data-name="Grupo 1238">
          <path id="Caminho_7216" data-name="Caminho 7216" d="M1477.682,406.4l-3.781-2.181a2.341,2.341,0,0,0-3.511,2.028v4.36a2.336,2.336,0,0,0,3.511,2.029l3.781-2.179a2.341,2.341,0,0,0,0-4.057Zm-1.076,2.191-3.781,2.179a.187.187,0,0,1-.281-.162v-4.36a.177.177,0,0,1,.094-.162.177.177,0,0,1,.187,0l3.781,2.181a.187.187,0,0,1,0,.325Z" transform="translate(-1470.391 -403.903)" fill="#0091d5"/>
        </g>
      </g>
    </g>
  </g>
</svg>
