<svg xmlns="http://www.w3.org/2000/svg" xmlns:xlink="http://www.w3.org/1999/xlink" width="72" height="72" viewBox="0 0 72 72">
  <defs>
    <clipPath id="clip-path">
      <rect id="Ret칙ngulo_278" data-name="Ret칙ngulo 278" width="72" height="72" transform="translate(1407 2523)" fill="#fff" stroke="#707070" stroke-width="1"/>
    </clipPath>
  </defs>
  <g id="Grupo_de_m치scara_128" data-name="Grupo de m치scara 128" transform="translate(-1407 -2523)" opacity="0.4" clip-path="url(#clip-path)">
    <g id="law" transform="translate(1407 2523)">
      <path id="Caminho_8343" data-name="Caminho 8343" d="M43.383,41.414A7.391,7.391,0,0,0,50.766,48.8H64.617A7.391,7.391,0,0,0,72,41.414a1.056,1.056,0,0,0-.1-.455L59.185,14.39a3.164,3.164,0,0,0-1.494-5.952H47.5L41.221,2.162a7.383,7.383,0,0,0-10.441,0L24.5,8.437H14.3a3.164,3.164,0,0,0-1.494,5.952L.1,40.959a1.056,1.056,0,0,0-.1.455A7.391,7.391,0,0,0,7.383,48.8H21.234a7.391,7.391,0,0,0,7.383-7.383,1.056,1.056,0,0,0-.1-.455l-12.535-26.2H30.727V49.289H27.563a3.164,3.164,0,0,0-1.055,6.147v6.017H16.418a1.055,1.055,0,0,0-.746.309l-3.91,3.91H10.09a3.164,3.164,0,0,0,0,6.328H61.91a3.164,3.164,0,0,0,0-6.328H60.238l-3.91-3.91a1.055,1.055,0,0,0-.746-.309H45.492V55.436a3.164,3.164,0,0,0-1.055-6.147H41.273V14.766H56.018L43.486,40.959A1.054,1.054,0,0,0,43.383,41.414ZM58.746,18.359l10.525,22H58.746Zm-2.109,22H46.111l10.525-22Zm7.98,6.328H50.766A5.281,5.281,0,0,1,45.6,42.469H69.784a5.281,5.281,0,0,1-5.167,4.219ZM14.309,10.547H24.941a1.055,1.055,0,0,0,.746-.309l6.584-6.584a5.274,5.274,0,0,1,7.458,0l6.584,6.584a1.055,1.055,0,0,0,.746.309H57.691a1.055,1.055,0,0,1,0,2.109H14.309a1.055,1.055,0,1,1,0-2.109ZM2.729,40.359l10.525-22v22Zm12.635-22,10.525,22H15.363Zm5.871,28.328H7.383a5.281,5.281,0,0,1-5.166-4.219H26.4a5.281,5.281,0,0,1-5.166,4.22Zm41.73,22.148A1.056,1.056,0,0,1,61.91,69.89H10.09a1.055,1.055,0,0,1,0-2.109H61.91a1.056,1.056,0,0,1,1.055,1.055Zm-5.71-3.164H14.746l2.109-2.109h38.29ZM45.492,52.453a1.056,1.056,0,0,1-1.055,1.055H31.781a1.055,1.055,0,0,0,0,2.109h11.6v5.836H28.617v-6.89a1.055,1.055,0,0,0-1.055-1.055,1.055,1.055,0,1,1,0-2.109H44.438a1.056,1.056,0,0,1,1.054,1.054Zm-6.328-3.164H32.836V14.766h6.328Z"/>
      <path id="Caminho_8344" data-name="Caminho 8344" d="M51.962,12.6A3.164,3.164,0,1,0,48.8,9.434,3.164,3.164,0,0,0,51.962,12.6Zm0-4.219a1.055,1.055,0,1,1-1.055,1.055,1.055,1.055,0,0,1,1.055-1.055Z" transform="translate(-15.962 -2.051)"/>
    </g>
  </g>
</svg>
