<svg xmlns="http://www.w3.org/2000/svg" width="66.308" height="66.628" viewBox="0 0 66.308 66.628">
  <g id="Grupo_1599" data-name="Grupo 1599" transform="translate(-3679.028 -791.09)" opacity="0.74">
    <g id="Grupo_1587" data-name="Grupo 1587" transform="translate(3679.028 791.09)">
      <path id="Caminho_7790" data-name="Caminho 7790" d="M3730.074,801.182h-50.081a.965.965,0,0,1-.965-.965v-8.161a.966.966,0,0,1,.965-.965h50.081a.966.966,0,0,1,.965.965v8.161A.965.965,0,0,1,3730.074,801.182Zm-49.115-1.931h48.15v-6.23h-48.15Z" transform="translate(-3679.028 -791.09)" fill="#707070"/>
    </g>
    <g id="Grupo_1591" data-name="Grupo 1591" transform="translate(3682.222 794.782)">
      <g id="Grupo_1588" data-name="Grupo 1588" transform="translate(0 0)">
        <path id="Caminho_7791" data-name="Caminho 7791" d="M3684.957,798.758a.956.956,0,0,1-.683-.283.967.967,0,0,1-.263-.875.962.962,0,0,1,.052-.18,1.193,1.193,0,0,1,.09-.161.982.982,0,0,1,.122-.148.96.96,0,0,1,.87-.264,1.509,1.509,0,0,1,.18.051.972.972,0,0,1,.315.212.683.683,0,0,1,.116.148.8.8,0,0,1,.09.161.972.972,0,0,1,.058.18c.006.064.013.129.013.193a.96.96,0,0,1-.277.682A.977.977,0,0,1,3684.957,798.758Z" transform="translate(-3683.991 -796.828)" fill="#707070"/>
      </g>
      <g id="Grupo_1589" data-name="Grupo 1589" transform="translate(7.775)">
        <path id="Caminho_7792" data-name="Caminho 7792" d="M3696.071,797.792a.964.964,0,0,1,.966-.965h0a.964.964,0,0,1,.965.965h0a.964.964,0,0,1-.965.965h0A.964.964,0,0,1,3696.071,797.792Z" transform="translate(-3696.071 -796.827)" fill="#707070"/>
      </g>
      <g id="Grupo_1590" data-name="Grupo 1590" transform="translate(15.549 0)">
        <path id="Caminho_7793" data-name="Caminho 7793" d="M3709.116,798.758a.909.909,0,0,1-.186-.019.836.836,0,0,1-.181-.058.806.806,0,0,1-.167-.084,1.333,1.333,0,0,1-.148-.122.976.976,0,0,1-.283-.682.92.92,0,0,1,.019-.187.958.958,0,0,1,.058-.187.715.715,0,0,1,.091-.167.786.786,0,0,1,.116-.142,1.332,1.332,0,0,1,.148-.122,1.362,1.362,0,0,1,.167-.09,1.466,1.466,0,0,1,.181-.051.963.963,0,0,1,.869.264,1.249,1.249,0,0,1,.122.142c.032.058.065.109.09.167a.869.869,0,0,1,.052.187.92.92,0,0,1,.019.187.977.977,0,0,1-.283.682,1.461,1.461,0,0,1-.142.122,1.025,1.025,0,0,1-.167.084.913.913,0,0,1-.373.077Z" transform="translate(-3708.151 -796.828)" fill="#707070"/>
      </g>
    </g>
    <g id="Grupo_1592" data-name="Grupo 1592" transform="translate(3699.073 815.002)">
      <path id="Caminho_7794" data-name="Caminho 7794" d="M3715.259,841.837h-.044a.967.967,0,0,1-.855-.612l-4.119-10.5a.965.965,0,1,1,1.8-.7l3.33,8.483,4.9-9.732a.965.965,0,1,1,1.725.867l-5.87,11.663A.967.967,0,0,1,3715.259,841.837Z" transform="translate(-3710.174 -828.244)" fill="#707070"/>
    </g>
    <g id="Grupo_1593" data-name="Grupo 1593" transform="translate(3691.991 807.674)">
      <path id="Caminho_7795" data-name="Caminho 7795" d="M3712.2,844.184a.964.964,0,0,1-.966-.965h0a.964.964,0,0,1,.966-.965h0a.964.964,0,0,1,.966.965h0a.964.964,0,0,1-.966.965Zm6.681-2.813a.96.96,0,0,1,.212-1.345h0a.967.967,0,0,1,1.351.212h0a.974.974,0,0,1-.218,1.352h0a.956.956,0,0,1-.566.18h0A.95.95,0,0,1,3718.878,841.372Zm-14.706.193a.966.966,0,0,1-.206-1.352h0a.966.966,0,0,1,1.345-.212h0a.967.967,0,0,1,.212,1.352h0a.968.968,0,0,1-.778.393h0A.989.989,0,0,1,3704.172,841.565Zm19.809-6.172a.979.979,0,0,1-.617-1.223h0a.97.97,0,0,1,1.223-.611h0a.969.969,0,0,1,.618,1.216h0a.971.971,0,0,1-.92.663h0A.992.992,0,0,1,3723.981,835.393Zm-24.759-.669h0a.965.965,0,0,1,.618-1.21h0a.959.959,0,0,1,1.216.618h.007a.975.975,0,0,1-.618,1.216h0a1.015,1.015,0,0,1-.3.045h0A.969.969,0,0,1,3699.222,834.723Zm24.161-7.8h0a.97.97,0,0,1,.625-1.216h0a.971.971,0,0,1,1.216.624h0a.968.968,0,0,1-.625,1.216h0a.968.968,0,0,1-.3.045h0A.958.958,0,0,1,3723.383,826.923Zm-23.543.579a.967.967,0,0,1-.624-1.216h.006a.96.96,0,0,1,1.21-.618h0a.97.97,0,0,1,.624,1.216h0a.978.978,0,0,1-.92.669h0A.953.953,0,0,1,3699.84,827.5Zm19.295-6.455a.957.957,0,0,1-.206-1.345h0a.972.972,0,0,1,1.351-.212h0a.972.972,0,0,1,.207,1.352h0a.943.943,0,0,1-.779.393h0A.952.952,0,0,1,3719.135,821.047Zm-15.163-.232a.967.967,0,0,1,.212-1.352h0a.968.968,0,0,1,1.352.212h0a.968.968,0,0,1-.212,1.352h0a.985.985,0,0,1-.566.18h0A.964.964,0,0,1,3703.972,820.815Zm8.283-2.027h-.046a.965.965,0,0,1-.966-.965h0a.965.965,0,0,1,.966-.965h.052a.97.97,0,0,1,.966.972h0a.971.971,0,0,1-.966.959h-.006Z" transform="translate(-3699.17 -816.857)" fill="#707070"/>
    </g>
    <g id="Grupo_1597" data-name="Grupo 1597" transform="translate(3679.028 799.251)">
      <path id="Caminho_7799" data-name="Caminho 7799" d="M3717.461,851.148h-37.467a.965.965,0,0,1-.965-.965V804.735a.965.965,0,0,1,.965-.965h50.081a.966.966,0,0,1,.965.965v29.422a.965.965,0,0,1-.915.964,12.554,12.554,0,0,0-11.716,14.885.965.965,0,0,1-.949,1.142Zm-36.5-1.931h35.383a14.126,14.126,0,0,1-.084-1.519,14.512,14.512,0,0,1,.194-2.27h0a14.589,14.589,0,0,1,12.658-12.156V805.7h-48.151Z" transform="translate(-3679.028 -803.77)" fill="#707070"/>
    </g>
    <g id="Grupo_1598" data-name="Grupo 1598" transform="translate(3716.258 828.639)">
      <path id="Caminho_7800" data-name="Caminho 7800" d="M3751.414,878.511a14.532,14.532,0,0,1-.774-29.044l.182-.011c.2-.012.392-.024.592-.024a14.539,14.539,0,0,1,0,29.078Zm0-27.148c-.159,0-.317.011-.473.021l-.2.012a12.355,12.355,0,1,0,.671-.032Z" transform="translate(-3736.875 -849.433)" fill="#707070"/>
    </g>
    <path id="Caminho_8362" data-name="Caminho 8362" d="M80.789,68.229H80.3V66.28a.975.975,0,1,0-1.949,0v1.949a.358.358,0,0,0,.1.292A3.432,3.432,0,0,0,76.7,74.757l4.969,3.118a1.389,1.389,0,0,1,.585,1.169v.877c0,.779-.682.974-1.461.974H78.645c-.779,0-1.267-.195-1.267-.974V78.654a.975.975,0,0,0-1.949,0v1.267a3.306,3.306,0,0,0,2.923,3.41v1.461a.974.974,0,1,0,1.949,0V82.844h.487c1.851,0,3.41-1.072,3.41-2.923v-.974a3.424,3.424,0,0,0-1.461-2.826L77.768,73a1.715,1.715,0,0,1-.585-1.267,1.588,1.588,0,0,1,1.461-1.559h2.143a1.684,1.684,0,0,1,1.461,1.656v.292a.974.974,0,0,0,1.949,0V71.83a3.627,3.627,0,0,0-3.408-3.6Z" transform="translate(3651.323 767.643)" fill="#707070"/>
  </g>
</svg>
