<svg xmlns="http://www.w3.org/2000/svg" width="114" height="114" viewBox="0 0 114 114">
  <g id="Grupo_1103" data-name="Grupo 1103" transform="translate(-1248 -12462)" opacity="0.32">
    <rect id="Retângulo_44" data-name="Retângulo 44" width="114" height="114" transform="translate(1248 12462)" fill="#f5f5f5" opacity="0"/>
    <g id="Grupo_1094" data-name="Grupo 1094" transform="translate(1274 12488)">
      <g id="Grupo_1089" data-name="Grupo 1089" transform="translate(0 35.704)">
        <g id="Grupo_1088" data-name="Grupo 1088">
          <path id="Caminho_118" data-name="Caminho 118" d="M489.443,440.3a7.909,7.909,0,0,0,3.187-6.245c0-4.531-4.074-8.217-9.082-8.217s-9.2,3.674-9.2,8.217A7.835,7.835,0,0,0,477.6,440.3a12.966,12.966,0,0,0-3.252,2.149,12.719,12.719,0,0,0-3.19-2.151,7.909,7.909,0,0,0,3.187-6.245c0-4.531-4.074-8.217-9.082-8.217s-9.082,3.686-9.082,8.217a7.909,7.909,0,0,0,3.187,6.245,12.745,12.745,0,0,0-3.183,2.143A12.675,12.675,0,0,0,453,440.3a7.906,7.906,0,0,0,3.185-6.241c0-4.531-4.074-8.217-9.082-8.217s-9.084,3.686-9.084,8.217a7.9,7.9,0,0,0,3.167,6.227,11.442,11.442,0,0,0-6.92,10.207,1.737,1.737,0,0,0,1.816,1.645h58.366a1.739,1.739,0,0,0,1.818-1.645A11.432,11.432,0,0,0,489.443,440.3ZM447.1,429.128a4.955,4.955,0,1,1-5.45,4.929A5.214,5.214,0,0,1,447.1,429.128Zm5.578,19.72h-14.6c.855-3.745,4.574-6.574,9.019-6.574a9.492,9.492,0,0,1,6.9,2.88A10.652,10.652,0,0,0,452.678,448.848Zm12.586-19.72a4.955,4.955,0,1,1-5.45,4.929A5.217,5.217,0,0,1,465.264,429.128Zm-8.9,19.72a9.311,9.311,0,0,1,17.8,0Zm27.184-19.72a4.955,4.955,0,1,1,0,9.86c-3.019,0-5.571-2.258-5.571-4.931S480.53,429.128,483.548,429.128Zm-5.7,19.72a10.693,10.693,0,0,0-1.322-3.692,9.821,9.821,0,0,1,7.023-2.882,8.923,8.923,0,0,1,8.9,6.574Z" transform="translate(-434.264 -425.84)"/>
        </g>
      </g>
      <g id="Grupo_1091" data-name="Grupo 1091" transform="translate(26.295 8.327)">
        <g id="Grupo_1090" data-name="Grupo 1090">
          <path id="Caminho_119" data-name="Caminho 119" d="M458.314,415.747a1.643,1.643,0,0,0-2.323,0l-5.412,5.412-2.124-2.124a1.644,1.644,0,0,0-2.325,2.323l3.288,3.288a1.643,1.643,0,0,0,2.323,0l6.574-6.574A1.645,1.645,0,0,0,458.314,415.747Z" transform="translate(-445.647 -415.266)"/>
        </g>
      </g>
      <g id="Grupo_1093" data-name="Grupo 1093" transform="translate(19.832)">
        <g id="Grupo_1092" data-name="Grupo 1092">
          <path id="Caminho_120" data-name="Caminho 120" d="M455.558,411.166a13.258,13.258,0,1,0,13.258,13.258A13.217,13.217,0,0,0,455.558,411.166Zm0,23.228a9.97,9.97,0,0,1,0-19.94,9.97,9.97,0,1,1,0,19.94Z" transform="translate(-442.41 -411.166)"/>
        </g>
      </g>
    </g>
  </g>
</svg>
