<svg xmlns="http://www.w3.org/2000/svg" width="292.913" height="117.172" viewBox="0 0 292.913 117.172">
  <g id="Grupo_1494" data-name="Grupo 1494" transform="translate(-596.394 -708.503)">
    <path id="Caminho_7356" data-name="Caminho 7356" d="M-65.232.176a3.719,3.719,0,0,0,3.168-1.84V0h1.232V-11.68h-1.232v4.992a3.7,3.7,0,0,0-3.168-1.76,4.069,4.069,0,0,0-3.952,4.3v.032A4.035,4.035,0,0,0-65.232.176Zm.224-1.1a2.96,2.96,0,0,1-2.912-3.2V-4.16a2.919,2.919,0,0,1,2.912-3.184A3.074,3.074,0,0,1-62.016-4.16v.032A3.089,3.089,0,0,1-65.008-.928ZM-54.464.192A4.2,4.2,0,0,0-51.056-1.36l-.768-.688A3.423,3.423,0,0,1-54.432-.88a2.889,2.889,0,0,1-2.912-2.8h6.56a3.087,3.087,0,0,0,.016-.4c0-2.416-1.408-4.368-3.856-4.368a4.07,4.07,0,0,0-3.968,4.3v.032A4.121,4.121,0,0,0-54.464.192Zm-2.88-4.784a2.863,2.863,0,0,1,2.688-2.816c1.664,0,2.512,1.328,2.64,2.816ZM-41.04.144a2.926,2.926,0,0,0,1.488-.352V-1.264a2.546,2.546,0,0,1-1.2.288,1.217,1.217,0,0,1-1.392-1.376V-7.184h2.624V-8.272h-2.624v-2.5h-1.232v2.5h-1.152v1.088h1.152v4.992A2.1,2.1,0,0,0-41.04.144Zm3.7-.144h1.232V-3.3c0-2.5,1.472-3.792,3.28-3.792h.1V-8.416a3.565,3.565,0,0,0-3.376,2.3v-2.16h-1.232ZM-28.8.176a3.6,3.6,0,0,0,2.992-1.424V0h1.184V-5.056a3.29,3.29,0,0,0-.848-2.416,3.63,3.63,0,0,0-2.672-.912,6.568,6.568,0,0,0-3.008.688l.368,1.008A5.546,5.546,0,0,1-28.272-7.3c1.552,0,2.464.768,2.464,2.256v.288A8.783,8.783,0,0,0-28.352-5.1c-2.1,0-3.536.944-3.536,2.672V-2.4C-31.888-.688-30.336.176-28.8.176Zm.24-.976c-1.1,0-2.08-.608-2.08-1.648V-2.48c0-1.04.864-1.712,2.416-1.712a8.629,8.629,0,0,1,2.432.352v.8C-25.792-1.728-27.024-.8-28.56-.8ZM-22,0h1.232V-4.736a2.434,2.434,0,0,1,2.48-2.592A2.2,2.2,0,0,1-16-4.832V0h1.232V-5.136a3.03,3.03,0,0,0-3.168-3.312,3.151,3.151,0,0,0-2.832,1.616v-1.44H-22ZM-9.408.16c1.648,0,2.944-.912,2.944-2.48v-.032c0-1.488-1.376-1.984-2.656-2.368-1.1-.336-2.128-.64-2.128-1.424v-.032c0-.688.624-1.2,1.6-1.2a4.633,4.633,0,0,1,2.448.8l.56-.928a5.612,5.612,0,0,0-2.976-.912c-1.632,0-2.816.944-2.816,2.368v.032c0,1.536,1.456,1.952,2.736,2.336,1.088.3,2.064.64,2.064,1.456v.032c0,.816-.7,1.312-1.712,1.312a4.733,4.733,0,0,1-2.864-1.056l-.624.88A5.689,5.689,0,0,0-9.408.16Zm7.7.016A3.6,3.6,0,0,0,1.28-1.248V0H2.464V-5.056a3.29,3.29,0,0,0-.848-2.416,3.63,3.63,0,0,0-2.672-.912A6.568,6.568,0,0,0-4.064-7.7L-3.7-6.688A5.546,5.546,0,0,1-1.184-7.3C.368-7.3,1.28-6.528,1.28-5.04v.288A8.783,8.783,0,0,0-1.264-5.1C-3.36-5.1-4.8-4.16-4.8-2.432V-2.4C-4.8-.688-3.248.176-1.712.176Zm.24-.976c-1.1,0-2.08-.608-2.08-1.648V-2.48c0-1.04.864-1.712,2.416-1.712A8.629,8.629,0,0,1,1.3-3.84v.8C1.3-1.728.064-.8-1.472-.8ZM8,2.48,9.056.176a4.2,4.2,0,0,0,3.136-1.584l-.784-.736A3.386,3.386,0,0,1,8.88-.912,3.091,3.091,0,0,1,5.84-4.128V-4.16A3.043,3.043,0,0,1,8.8-7.36a3.313,3.313,0,0,1,2.512,1.248l.816-.864A4.239,4.239,0,0,0,8.816-8.448a4.244,4.244,0,0,0-4.24,4.32V-4.1A4.232,4.232,0,0,0,8.048.112L6.8,1.936ZM17.76.192A4.285,4.285,0,0,0,22.1-4.128V-4.16a4.241,4.241,0,0,0-4.3-4.288,4.262,4.262,0,0,0-4.32,4.32V-4.1A4.238,4.238,0,0,0,17.76.192Zm.032-1.1a3.1,3.1,0,0,1-3.056-3.216V-4.16a3.053,3.053,0,0,1,3.024-3.2,3.13,3.13,0,0,1,3.072,3.232V-4.1A3.062,3.062,0,0,1,17.792-.912ZM18.928-9.52c.768,0,1.2-.464,1.52-1.68l-.752-.208c-.24.576-.4.784-.832.784a2.621,2.621,0,0,1-.992-.32,2.983,2.983,0,0,0-1.152-.32c-.768,0-1.2.464-1.52,1.68l.752.208c.24-.576.4-.784.832-.784a3.266,3.266,0,0,1,.992.3A3.023,3.023,0,0,0,18.928-9.52ZM27.936.192A4.2,4.2,0,0,0,31.344-1.36l-.768-.688A3.423,3.423,0,0,1,27.968-.88a2.889,2.889,0,0,1-2.912-2.8h6.56a3.087,3.087,0,0,0,.016-.4c0-2.416-1.408-4.368-3.856-4.368a4.07,4.07,0,0,0-3.968,4.3v.032A4.121,4.121,0,0,0,27.936.192Zm-2.88-4.784a2.863,2.863,0,0,1,2.688-2.816c1.664,0,2.512,1.328,2.64,2.816ZM36.528.16c1.648,0,2.944-.912,2.944-2.48v-.032c0-1.488-1.376-1.984-2.656-2.368-1.1-.336-2.128-.64-2.128-1.424v-.032c0-.688.624-1.2,1.6-1.2a4.633,4.633,0,0,1,2.448.8L39.3-7.5a5.612,5.612,0,0,0-2.976-.912c-1.632,0-2.816.944-2.816,2.368v.032c0,1.536,1.456,1.952,2.736,2.336,1.088.3,2.064.64,2.064,1.456v.032c0,.816-.7,1.312-1.712,1.312a4.733,4.733,0,0,1-2.864-1.056l-.624.88A5.689,5.689,0,0,0,36.528.16Zm13.5.016A3.719,3.719,0,0,0,53.2-1.664V0h1.232V-11.68H53.2v4.992a3.7,3.7,0,0,0-3.168-1.76,4.069,4.069,0,0,0-3.952,4.3v.032A4.035,4.035,0,0,0,50.032.176Zm.224-1.1a2.96,2.96,0,0,1-2.912-3.2V-4.16a2.919,2.919,0,0,1,2.912-3.184A3.074,3.074,0,0,1,53.248-4.16v.032A3.089,3.089,0,0,1,50.256-.928ZM60.8.192A4.2,4.2,0,0,0,64.208-1.36l-.768-.688A3.423,3.423,0,0,1,60.832-.88a2.889,2.889,0,0,1-2.912-2.8h6.56a3.085,3.085,0,0,0,.016-.4c0-2.416-1.408-4.368-3.856-4.368a4.07,4.07,0,0,0-3.968,4.3v.032A4.121,4.121,0,0,0,60.8.192ZM57.92-4.592a2.863,2.863,0,0,1,2.688-2.816c1.664,0,2.512,1.328,2.64,2.816ZM-79.736,24H-78.5V19.28a2.4,2.4,0,0,1,2.3-2.608c1.328,0,2.128.912,2.128,2.464V24h1.216V19.232a2.325,2.325,0,0,1,2.288-2.56c1.344,0,2.144.9,2.144,2.5V24h1.232V18.88c0-2.064-1.152-3.328-3.072-3.328A3.3,3.3,0,0,0-73.176,17.2a2.786,2.786,0,0,0-2.656-1.648A3.011,3.011,0,0,0-78.5,17.12V15.728h-1.232Zm17.632.176a3.6,3.6,0,0,0,2.992-1.424V24h1.184V18.944a3.29,3.29,0,0,0-.848-2.416,3.63,3.63,0,0,0-2.672-.912,6.568,6.568,0,0,0-3.008.688l.368,1.008a5.546,5.546,0,0,1,2.512-.608c1.552,0,2.464.768,2.464,2.256v.288a8.783,8.783,0,0,0-2.544-.352c-2.1,0-3.536.944-3.536,2.672V21.6C-65.192,23.312-63.64,24.176-62.1,24.176Zm.24-.976c-1.1,0-2.08-.608-2.08-1.648V21.52c0-1.04.864-1.712,2.416-1.712a8.629,8.629,0,0,1,2.432.352v.8C-59.1,22.272-60.328,23.2-61.864,23.2Zm6.56.8h1.232V20.7c0-2.5,1.472-3.792,3.28-3.792h.1V15.584a3.565,3.565,0,0,0-3.376,2.3v-2.16H-55.3Zm6.48,0h1.232V21.84l1.68-1.7L-42.952,24h1.472l-3.584-4.72,3.472-3.552h-1.536l-4.464,4.656V12.32h-1.232Zm12.32.192A4.2,4.2,0,0,0-33.1,22.64l-.768-.688a3.423,3.423,0,0,1-2.608,1.168,2.889,2.889,0,0,1-2.912-2.8h6.56a3.087,3.087,0,0,0,.016-.4c0-2.416-1.408-4.368-3.856-4.368a4.07,4.07,0,0,0-3.968,4.3v.032A4.121,4.121,0,0,0-36.5,24.192Zm-2.88-4.784A2.863,2.863,0,0,1-36.7,16.592c1.664,0,2.512,1.328,2.64,2.816Zm11.5,4.736a2.926,2.926,0,0,0,1.488-.352V22.736a2.546,2.546,0,0,1-1.2.288,1.217,1.217,0,0,1-1.392-1.376V16.816h2.624V15.728h-2.624v-2.5h-1.232v2.5h-1.152v1.088h1.152v4.992A2.1,2.1,0,0,0-27.88,24.144Zm3.728-10.224h1.408V12.56h-1.408Zm.08,10.08h1.232V15.728h-1.232Zm4.1,0h1.232V19.264a2.434,2.434,0,0,1,2.48-2.592,2.2,2.2,0,0,1,2.288,2.5V24h1.232V18.864a3.03,3.03,0,0,0-3.168-3.312,3.151,3.151,0,0,0-2.832,1.616v-1.44h-1.232Zm13.52,2.592a4.283,4.283,0,0,0,3.152-1.1A3.946,3.946,0,0,0-2.248,22.56V15.728H-3.48v1.488a3.9,3.9,0,0,0-3.232-1.664,3.832,3.832,0,0,0-3.888,3.9v.032A3.835,3.835,0,0,0-6.712,23.36a3.922,3.922,0,0,0,3.248-1.744v.976a2.712,2.712,0,0,1-3.008,2.944A5.285,5.285,0,0,1-9.656,24.48l-.56.96A6.45,6.45,0,0,0-6.456,26.592Zm-.016-4.32a2.8,2.8,0,0,1-2.864-2.816v-.032A2.727,2.727,0,0,1-6.472,16.64a2.9,2.9,0,0,1,3.04,2.8v.032A2.919,2.919,0,0,1-6.472,22.272ZM5.3,24H6.536V19.264a2.434,2.434,0,0,1,2.48-2.592,2.2,2.2,0,0,1,2.288,2.5V24h1.232V18.864a3.03,3.03,0,0,0-3.168-3.312,3.151,3.151,0,0,0-2.832,1.616v-1.44H5.3Zm12.32.176a3.6,3.6,0,0,0,2.992-1.424V24H21.8V18.944a3.29,3.29,0,0,0-.848-2.416,3.63,3.63,0,0,0-2.672-.912,6.568,6.568,0,0,0-3.008.688l.368,1.008a5.546,5.546,0,0,1,2.512-.608c1.552,0,2.464.768,2.464,2.256v.288a8.783,8.783,0,0,0-2.544-.352c-2.1,0-3.536.944-3.536,2.672V21.6C14.536,23.312,16.088,24.176,17.624,24.176Zm.24-.976c-1.1,0-2.08-.608-2.08-1.648V21.52c0-1.04.864-1.712,2.416-1.712a8.629,8.629,0,0,1,2.432.352v.8C20.632,22.272,19.4,23.2,17.864,23.2Zm11.36.8h1.232V19.264a2.434,2.434,0,0,1,2.48-2.592,2.2,2.2,0,0,1,2.288,2.5V24h1.232V18.864a3.03,3.03,0,0,0-3.168-3.312,3.151,3.151,0,0,0-2.832,1.616v-1.44H29.224Zm12.9.176a3.151,3.151,0,0,0,2.832-1.616V24h1.216V15.728H44.952v4.736a2.443,2.443,0,0,1-2.48,2.592,2.2,2.2,0,0,1-2.288-2.5V15.728H38.952v5.136A3.03,3.03,0,0,0,42.12,24.176Zm9.584-.112h1.088l3.6-8.336H55.064l-2.8,6.864L49.48,15.728H48.12Zm9.76.128a4.2,4.2,0,0,0,3.408-1.552l-.768-.688A3.423,3.423,0,0,1,61.5,23.12a2.889,2.889,0,0,1-2.912-2.8h6.56a3.085,3.085,0,0,0,.016-.4c0-2.416-1.408-4.368-3.856-4.368a4.07,4.07,0,0,0-3.968,4.3v.032A4.121,4.121,0,0,0,61.464,24.192Zm-2.88-4.784a2.863,2.863,0,0,1,2.688-2.816c1.664,0,2.512,1.328,2.64,2.816ZM67.32,24h1.232V19.28a2.4,2.4,0,0,1,2.3-2.608c1.328,0,2.128.912,2.128,2.464V24H74.2V19.232a2.325,2.325,0,0,1,2.288-2.56c1.344,0,2.144.9,2.144,2.5V24h1.232V18.88c0-2.064-1.152-3.328-3.072-3.328A3.3,3.3,0,0,0,73.88,17.2a2.786,2.786,0,0,0-2.656-1.648,3.011,3.011,0,0,0-2.672,1.568V15.728H67.32Z" transform="translate(738.217 780.293)" fill="#fff"/>
    <path id="Caminho_7357" data-name="Caminho 7357" d="M-88.35-3.193h4.4v-5.58h5.611v-4.278h-5.611v-5.58h-4.4v5.58h-5.611v4.278h5.611ZM-63.891,0h4.557V-4.681h2.914V-8.556h-2.914v-13.3h-4.03l-11.9,13.8.775,3.379h10.6Zm-5.766-8.556,5.766-6.758v6.758ZM-43.586.372c5.8,0,9.672-4.929,9.672-11.222v-.062c0-6.324-3.875-11.16-9.61-11.16-5.8,0-9.672,4.929-9.672,11.222v.062C-53.2-4.464-49.414.372-43.586.372Zm.062-4.309c-2.883,0-4.774-2.945-4.774-6.913v-.062c0-3.968,1.86-6.851,4.712-6.851s4.774,2.976,4.774,6.913v.062C-38.812-6.82-40.641-3.937-43.524-3.937Zm28.3,4.216A6.947,6.947,0,0,0-11.5-.682V-4.464a4.632,4.632,0,0,1-2.325.589c-1.023,0-1.519-.527-1.519-1.612v-7.1h3.906v-4.03h-3.906v-4.247h-4.712v4.247h-1.984v4.03h1.984v7.874C-20.057-.868-18.073.279-15.221.279ZM-7.967,0h4.712V-6.138c0-4,1.922-5.859,5.053-5.859h.248v-4.929c-2.821-.124-4.34,1.4-5.3,3.658v-3.348H-7.967ZM5.084-18.445h4.96V-22.63H5.084ZM5.208,0H9.92V-16.616H5.208ZM14.57,0h4.712V-22.63H14.57Zm9.145,0h4.712V-9.269c0-2.232,1.116-3.379,2.945-3.379s2.852,1.147,2.852,3.379V0h4.712V-10.757c0-3.844-2.046-6.169-5.642-6.169a5.923,5.923,0,0,0-4.867,2.666v-8.37H23.715ZM51.181.372A8.721,8.721,0,0,0,60.2-8.277v-.062a8.636,8.636,0,0,0-8.959-8.587,8.721,8.721,0,0,0-9.021,8.649v.062A8.636,8.636,0,0,0,51.181.372Zm.062-4.061a4.415,4.415,0,0,1-4.371-4.588v-.062a4.24,4.24,0,0,1,4.309-4.526,4.415,4.415,0,0,1,4.371,4.588v.062A4.24,4.24,0,0,1,51.243-3.689Zm2.666-14.756c2.139,0,3.131-1.674,3.844-4.278L55.242-23.5c-.465.992-.806,1.519-1.767,1.519a5.772,5.772,0,0,1-1.829-.527,7,7,0,0,0-2.821-.682c-2.17,0-3.1,1.705-3.844,4.278l2.511.775c.465-.992.806-1.519,1.767-1.519a5.772,5.772,0,0,1,1.829.527A7,7,0,0,0,53.909-18.445ZM71.486.372a8.265,8.265,0,0,0,6.789-3.1l-2.7-2.387a5.493,5.493,0,0,1-4.03,1.705,3.854,3.854,0,0,1-4.061-3.255H79.05c.031-.465.062-.868.062-1.24,0-4.712-2.542-9.021-8.091-9.021-4.836,0-8.215,3.906-8.215,8.649v.062A8.311,8.311,0,0,0,71.486.372ZM67.425-9.61c.372-2.139,1.612-3.534,3.6-3.534s3.224,1.426,3.5,3.534ZM88.443.31c3.6,0,6.355-1.674,6.355-5.363v-.062c0-3.038-2.7-4.185-5.022-4.929-1.8-.558-3.379-1.116-3.379-1.984v-.062c0-.651.589-1.147,1.736-1.147a9.844,9.844,0,0,1,4.5,1.55l1.8-3.255a11.581,11.581,0,0,0-6.2-1.922c-3.348,0-6.076,1.891-6.076,5.27v.062c0,3.224,2.635,4.34,4.96,4.991,1.829.589,3.441.9,3.441,1.922v.062c0,.744-.62,1.24-1.984,1.24A9.169,9.169,0,0,1,83.328-5.3L81.313-2.2A11.639,11.639,0,0,0,88.443.31Z" transform="translate(741.492 752.058)" fill="#fff"/>
    <g id="Grupo_1012" data-name="Grupo 1012" transform="translate(596.394 708.503)">
      <path id="Caminho_43" data-name="Caminho 43" d="M90.935,696.142a41.454,41.454,0,0,1-8.493-2.355c-.164-.07-.325-.14-.486-.21a28,28,0,0,0-.684-5.926c-1.489-5.379-3.593-7.665-3.593-7.665s-1.516,1.709.572,9.074a18.448,18.448,0,0,0,1.7,3.589,42.714,42.714,0,0,1-3.834-2.11c-.121-.081-.239-.165-.359-.246a24.531,24.531,0,0,0-.624-6.687c-1.49-5.379-3.593-7.665-3.593-7.665s-1.516,1.709.572,9.074a19.322,19.322,0,0,0,2.073,4.177,63.294,63.294,0,0,1-5.453-4.425c.006,0,.014,0,.02,0,.436-.226.574-5.027.271-6.972-.868-5.574-2.693-8.183-2.693-8.183s-1.694,1.443-.459,9.083A19.988,19.988,0,0,0,67.9,684a61.355,61.355,0,0,1-5.429-5.814,24.016,24.016,0,0,0,1.11-6.611c-.052-5.671-1.474-8.624-1.474-8.624s-1.877,1.066-1.759,8.848a21.611,21.611,0,0,0,.975,4.937A60.082,60.082,0,0,1,57.3,670.8a22.1,22.1,0,0,0,2.087-6.329,22.541,22.541,0,0,0-.211-8.8s-2,.656-3,8.346a22.1,22.1,0,0,0,.3,5.342,59.43,59.43,0,0,1-3.279-6.9c.527-.1,2.555-4.035,3.086-5.862a22.464,22.464,0,0,0,1.059-8.713s-2.066.228-4.16,7.589a21.668,21.668,0,0,0-.443,5.793,59.479,59.479,0,0,1-2.361-8c.019.018.035.043.058.051.453.166,3.117-3.406,3.92-5.131a21.77,21.77,0,0,0,2.3-8.358s-2.067-.209-5.19,6.6a20.643,20.643,0,0,0-1.283,5.892,60.849,60.849,0,0,1-1.118-8.6l.006.006c.423.258,3.559-2.7,4.6-4.23a20.576,20.576,0,0,0,3.465-7.75s-2.006-.64-6.061,5.414A19.881,19.881,0,0,0,49,642.472a63.559,63.559,0,0,1,.244-8.441c.766-.033,3.844-2.043,4.992-3.233a19.034,19.034,0,0,0,4.527-6.906s-1.883-1.05-6.748,4.061a18.564,18.564,0,0,0-2.565,4.2,67.611,67.611,0,0,1,1.41-7.659,15.716,15.716,0,0,0,5.19-2.144A17.354,17.354,0,0,0,61.5,616.5s-1.7-1.429-7.23,2.585a16.364,16.364,0,0,0-2.816,3.135c.2-.716.409-1.432.634-2.149q.751-2.4,1.576-4.611a14.444,14.444,0,0,0,5.192-.99,15.156,15.156,0,0,0,5.992-4.483s-1.424-1.719-7.235.988a14.393,14.393,0,0,0-3.167,2.48,62.265,62.265,0,0,1,2.99-6.376c.588.421,3.953.536,5.373.214a13.629,13.629,0,0,0,6.407-3.07s-1.13-1.932-7.111-.523a13.286,13.286,0,0,0-3.992,2.173,43.6,43.6,0,0,1,4.067-5.881,13.042,13.042,0,0,0,5.071,1.253,12.42,12.42,0,0,0,6.583-1.639s-.814-2.086-6.756-1.955a12.122,12.122,0,0,0-3.85,1.122,35.473,35.473,0,0,1,5.023-4.648.3.3,0,0,0-.027.117c.023.5,3.262,2.08,4.681,2.361a11.448,11.448,0,0,0,6.4-.224s-.478-2.12-6.069-3.183a10.8,10.8,0,0,0-4.375.478,36.027,36.027,0,0,1,5.155-3.1c0,.005,0,.01,0,.015.011.45,2.887,1.957,4.154,2.25a10.248,10.248,0,0,0,5.746-.021s-.387-1.915-5.382-3.026a9.688,9.688,0,0,0-2.989.072c.994-.439,2.018-.848,3.082-1.221l.037-.1a10.911,10.911,0,0,0,5.534-.344c1.283-.377,4.117-2.163,4.088-2.657-.048-.826-3.6-1-4.733-.679-3.661,1.044-4.791,2.445-5.136,3.14a28.517,28.517,0,0,0-4.584,1.743,17.187,17.187,0,0,0,3.477-3.712c.934-1.311,2.5-5.049,2.214-5.464-.474-.693-3.7,1.866-4.53,3.013-3.155,4.367-2.964,6.5-2.838,7.04a32.72,32.72,0,0,0-4,2.655,22.385,22.385,0,0,0,2.209-3.639c.8-1.63,1.9-6.023,1.527-6.406-.621-.639-3.7,2.865-4.415,4.292-2.473,4.952-2.244,7.261-2.017,8.054A41.143,41.143,0,0,0,62.22,599a24.868,24.868,0,0,0,1.426-3.6c.554-1.772,1-6.329.583-6.629-.7-.5-3.233,3.6-3.73,5.152-1.74,5.449-1.155,7.666-.817,8.375q-1.259,1.794-2.381,3.727a27.394,27.394,0,0,0,.588-2.815c.291-1.862.079-6.444-.38-6.651-.765-.343-2.665,4.219-2.933,5.856-.861,5.308-.154,7.472.3,8.262-.665,1.43-1.274,2.9-1.833,4.392a27.618,27.618,0,0,0,.25-3.509c.018-1.894-.85-6.363-1.331-6.47-.8-.178-2.018,4.714-2.045,6.382-.09,5.8,1.075,7.66,1.6,8.2-.063.217-.129.432-.19.649-.415,1.476-.776,2.922-1.1,4.349a27.16,27.16,0,0,0-.257-3.925c-.255-1.869-1.752-6.088-2.243-6.092-.816-.007-1.309,5.065-1.1,6.713.732,5.619,2.106,7.255,2.719,7.716q-.471,2.763-.728,5.4a26.326,26.326,0,0,0-.85-4.046c-.519-1.787-2.6-5.629-3.084-5.529-.8.163-.56,5.262-.113,6.841,1.509,5.313,3.078,6.671,3.762,7.017-.061,1.717-.051,3.387.016,5.016a25.166,25.166,0,0,0-1.3-3.382c-.77-1.651-3.373-5-3.833-4.8-.77.33.205,5.3.872,6.76,2.158,4.712,3.846,5.833,4.619,6.093.171,1.448.395,2.851.658,4.224a24.023,24.023,0,0,0-1.391-2.315c-1-1.466-4.04-4.215-4.466-3.924-.709.487.966,5.176,1.833,6.476,2.652,3.962,4.427,4.847,5.287,5.011q.6,2.058,1.323,3.995a21.718,21.718,0,0,0-1.674-1.95c-1.19-1.235-4.585-3.3-4.962-2.928-.629.628,1.7,4.9,2.736,5.993,3.3,3.469,5.193,3.879,6.02,3.823q.97,1.993,2.045,3.836a19.562,19.562,0,0,0-2.1-1.735c-1.351-.966-4.991-2.293-5.309-1.843-.529.75,2.374,4.466,3.557,5.328,3.9,2.836,5.823,2.728,6.568,2.474.838,1.193,1.7,2.328,2.574,3.406a17.579,17.579,0,0,0-2.311-1.263c-1.469-.669-5.245-1.213-5.492-.7-.414.85,2.98,3.9,4.269,4.5,4.071,1.893,5.965,1.5,6.73,1.111,1.249,1.32,2.5,2.526,3.718,3.628a16.256,16.256,0,0,0-3.451-1.191c-1.544-.35-5.341-.095-5.511.459-.285.923,3.5,3.217,4.853,3.539,4.542,1.073,6.307.128,6.907-.414,1.641,1.327,3.177,2.442,4.525,3.353A16.259,16.259,0,0,0,72.2,690.15c-1.543-.351-5.34-.095-5.511.459-.285.923,3.5,3.217,4.853,3.539,6.066,1.432,7.179-.734,7.179-.734s-.128-.137-.385-.359c1.477.885,2.427,1.356,2.589,1.434,1.881.907,7.627,3.162,11.144,3.131C91.527,697.148,91.451,696.655,90.935,696.142Z" transform="translate(-42.939 -580.451)" fill="#d6442e" fill-rule="evenodd"/>
      <path id="Caminho_44" data-name="Caminho 44" d="M157.186,652.911c.867-1.3,2.542-5.988,1.832-6.476-.425-.291-3.47,2.458-4.465,3.924a23.839,23.839,0,0,0-1.391,2.315c.264-1.371.488-2.776.658-4.224.774-.259,2.462-1.381,4.62-6.093.667-1.461,1.642-6.43.872-6.76-.462-.2-3.064,3.148-3.833,4.8a25.168,25.168,0,0,0-1.3,3.382c.068-1.629.077-3.3.016-5.016.683-.347,2.253-1.7,3.762-7.017.447-1.578.692-6.677-.113-6.841-.483-.1-2.565,3.742-3.084,5.529a26.353,26.353,0,0,0-.85,4.046q-.256-2.634-.728-5.4c.612-.461,1.987-2.1,2.719-7.716.213-1.648-.28-6.72-1.1-6.713-.49,0-1.987,4.223-2.242,6.092a27.155,27.155,0,0,0-.257,3.925c-.324-1.426-.686-2.873-1.1-4.349-.061-.217-.126-.432-.19-.649.523-.542,1.688-2.4,1.6-8.2-.027-1.668-1.242-6.559-2.045-6.382-.481.107-1.349,4.576-1.331,6.47a27.452,27.452,0,0,0,.25,3.509c-.559-1.493-1.169-2.961-1.833-4.392.453-.79,1.161-2.954.3-8.262-.266-1.637-2.167-6.2-2.932-5.856-.459.207-.671,4.789-.38,6.651a27.158,27.158,0,0,0,.588,2.815q-1.122-1.929-2.381-3.727c.338-.709.923-2.927-.817-8.375-.5-1.555-3.026-5.651-3.73-5.152-.423.3.028,4.857.583,6.629a24.867,24.867,0,0,0,1.426,3.6,41.148,41.148,0,0,0-3.232-3.422c.228-.792.456-3.1-2.017-8.054-.714-1.428-3.793-4.931-4.415-4.292-.373.383.726,4.776,1.527,6.406a22.386,22.386,0,0,0,2.209,3.639,32.789,32.789,0,0,0-4-2.655c.126-.539.317-2.673-2.838-7.04-.829-1.147-4.056-3.706-4.531-3.013-.285.415,1.281,4.153,2.215,5.464a17.139,17.139,0,0,0,3.478,3.712A28.591,28.591,0,0,0,124.122,588c-.346-.7-1.477-2.1-5.136-3.14-1.132-.32-4.686-.147-4.733.679-.029.495,2.805,2.28,4.088,2.657a10.907,10.907,0,0,0,5.533.344l.038.1c1.063.373,2.087.781,3.082,1.221a9.688,9.688,0,0,0-2.989-.072c-4.995,1.111-5.382,3.026-5.382,3.026a10.248,10.248,0,0,0,5.746.021c1.267-.293,4.143-1.8,4.154-2.25,0-.005,0-.01,0-.015a36.077,36.077,0,0,1,5.155,3.1,10.8,10.8,0,0,0-4.375-.478c-5.591,1.063-6.069,3.183-6.069,3.183a11.448,11.448,0,0,0,6.4.224c1.419-.281,4.659-1.861,4.681-2.361a.283.283,0,0,0-.028-.117,35.444,35.444,0,0,1,4.957,4.573,11.989,11.989,0,0,0-3.69-1.047c-5.941-.131-6.755,1.955-6.755,1.955a12.416,12.416,0,0,0,6.583,1.639,13.591,13.591,0,0,0,5.014-1.208,43.729,43.729,0,0,1,4.03,5.836,13.286,13.286,0,0,0-3.992-2.173c-5.981-1.409-7.111.523-7.111.523a13.629,13.629,0,0,0,6.407,3.07c1.42.323,4.786.207,5.373-.214a62.263,62.263,0,0,1,2.99,6.376,14.394,14.394,0,0,0-3.167-2.48c-5.81-2.707-7.235-.988-7.235-.988a15.156,15.156,0,0,0,5.992,4.483,14.444,14.444,0,0,0,5.192.99q.826,2.217,1.576,4.611c.225.717.434,1.433.634,2.151a16.339,16.339,0,0,0-2.816-3.136c-5.527-4.014-7.23-2.585-7.23-2.585a17.353,17.353,0,0,0,5.452,5.852,15.716,15.716,0,0,0,5.19,2.144,67.613,67.613,0,0,1,1.41,7.659,18.564,18.564,0,0,0-2.565-4.2c-4.865-5.111-6.748-4.061-6.748-4.061A19.034,19.034,0,0,0,148.3,630.8c1.148,1.19,4.226,3.2,4.992,3.233a63.569,63.569,0,0,1,.244,8.442,19.889,19.889,0,0,0-2.068-5.313c-4.055-6.054-6.061-5.414-6.061-5.414a20.576,20.576,0,0,0,3.465,7.75c1.039,1.53,4.175,4.488,4.6,4.23l.006-.006a60.849,60.849,0,0,1-1.118,8.6,20.643,20.643,0,0,0-1.283-5.892c-3.122-6.811-5.19-6.6-5.19-6.6a21.77,21.77,0,0,0,2.3,8.358c.8,1.724,3.466,5.3,3.92,5.131.023-.009.039-.034.058-.05a59.512,59.512,0,0,1-2.361,8,21.705,21.705,0,0,0-.443-5.793c-2.094-7.362-4.161-7.589-4.161-7.589a22.478,22.478,0,0,0,1.059,8.713c.531,1.827,2.559,5.759,3.086,5.862a59.429,59.429,0,0,1-3.279,6.9,22.1,22.1,0,0,0,.3-5.342c-1-7.69-3-8.346-3-8.346a22.541,22.541,0,0,0-.211,8.8,22.067,22.067,0,0,0,2.087,6.329,60.088,60.088,0,0,1-4.024,5.937,21.612,21.612,0,0,0,.975-4.937c.117-7.782-1.759-8.848-1.759-8.848s-1.422,2.953-1.474,8.624a24.016,24.016,0,0,0,1.11,6.611A61.459,61.459,0,0,1,134.631,684a20.015,20.015,0,0,0,2.028-5.3c1.236-7.64-.459-9.083-.459-9.083s-1.825,2.609-2.693,8.183c-.3,1.945-.165,6.746.271,6.972.006,0,.014,0,.02,0a63.3,63.3,0,0,1-5.453,4.425,19.364,19.364,0,0,0,2.073-4.177c2.088-7.365.572-9.074.572-9.074s-2.1,2.286-3.593,7.665a24.571,24.571,0,0,0-.625,6.687c-.119.082-.238.166-.359.246a42.711,42.711,0,0,1-3.834,2.11,18.448,18.448,0,0,0,1.7-3.589c2.087-7.365.572-9.074.572-9.074s-2.1,2.286-3.593,7.665a28,28,0,0,0-.684,5.926c-.161.071-.322.141-.486.21a41.454,41.454,0,0,1-8.493,2.355c-.517.513-.592,1.006-1.133,1.48,3.517.031,9.262-2.225,11.144-3.131.162-.079,1.112-.549,2.589-1.434-.257.221-.385.359-.385.359s1.114,2.166,7.179.734c1.356-.323,5.136-2.616,4.852-3.539-.171-.554-3.968-.81-5.51-.459a16.26,16.26,0,0,0-3.448,1.189c1.348-.911,2.883-2.026,4.525-3.353.6.542,2.365,1.487,6.908.414,1.356-.323,5.136-2.616,4.852-3.539-.171-.554-3.968-.809-5.511-.459a16.238,16.238,0,0,0-3.451,1.191c1.22-1.1,2.468-2.308,3.718-3.628.765.392,2.659.783,6.73-1.111,1.29-.6,4.683-3.653,4.269-4.5-.247-.509-4.024.035-5.493.7a17.7,17.7,0,0,0-2.311,1.263c.875-1.078,1.737-2.213,2.575-3.406.745.254,2.669.362,6.567-2.474,1.184-.862,4.087-4.578,3.558-5.328-.318-.45-3.959.877-5.309,1.843a19.56,19.56,0,0,0-2.1,1.735q1.073-1.839,2.045-3.836c.826.057,2.721-.353,6.019-3.823,1.041-1.1,3.365-5.365,2.737-5.993-.378-.377-3.772,1.693-4.963,2.928a21.866,21.866,0,0,0-1.674,1.95q.723-1.934,1.323-3.995C152.759,657.759,154.535,656.873,157.186,652.911Z" transform="translate(133.319 -580.451)" fill="#d6442e" fill-rule="evenodd"/>
    </g>
  </g>
</svg>
