<svg xmlns="http://www.w3.org/2000/svg" width="722" height="388" viewBox="0 0 722 388">
  <g id="Grupo_1603" data-name="Grupo 1603" transform="translate(-948 -1376)">
    <rect id="Retângulo_254" data-name="Retângulo 254" width="25" height="1" transform="translate(1188 1416)" fill="#2383c6"/>
    <g id="Grupo_1602" data-name="Grupo 1602">
      <text id="Facilidade_de_integração_com_Microsoft_Salesforce.com_Workday_ServiceNow_e_outros" data-name="Facilidade de integração
com Microsoft, Salesforce.com, Workday,
ServiceNow e outros" transform="translate(1263 1376)" fill="#2383c6" font-size="20" font-family="Gotham-Bold, Gotham" font-weight="700"><tspan x="0" y="19">Facilidade de integração</tspan><tspan font-family="Gotham-Book, Gotham" font-weight="400"><tspan x="0" y="48">com Microsoft, Salesforce.com, </tspan><tspan x="0" y="77">Workday,</tspan></tspan></text>
      <text id="Otimização_de_horários_com_mailings_em_massa_para_obtenção_de_várias_assinaturas_em_um_único_clique" data-name="Otimização de horários
com mailings em massa para obtenção de várias assinaturas em um único clique" transform="translate(1263 1527)" fill="#2383c6" font-size="20" font-family="Gotham-Bold, Gotham" font-weight="700"><tspan x="0" y="19">Otimização de horários</tspan><tspan font-family="Gotham-Book, Gotham" font-weight="400"><tspan x="0" y="48">com mailings em massa para obtenção </tspan><tspan x="0" y="77">de várias assinaturas em um único clique</tspan></tspan></text>
      <text id="Controle_de_documentos_com_autenticação_e_permissões_avançadas_de_perfil" data-name="Controle de documentos
com autenticação e permissões avançadas de perfil" transform="translate(1263 1681)" fill="#2383c6" font-size="20" font-family="Gotham-Bold, Gotham" font-weight="700"><tspan x="0" y="19">Controle de documentos</tspan><tspan font-family="Gotham-Book, Gotham" font-weight="400"><tspan x="0" y="48">com autenticação e permissões </tspan><tspan x="0" y="77">avançadas de perfil</tspan></tspan></text>
      <g id="Grupo_1601" data-name="Grupo 1601" transform="translate(0 98.362)">
        <g id="Retângulo_252" data-name="Retângulo 252" transform="translate(948 1438)" fill="none" stroke="#2383c6" stroke-width="1">
          <rect width="182" height="66" rx="7" stroke="none"/>
          <rect x="0.5" y="0.5" width="181" height="65" rx="6.5" fill="none"/>
        </g>
        <g id="Subtração_1" data-name="Subtração 1" transform="translate(1477 1437)" fill="none">
          <path d="M-362.674,61H-513.326a6.745,6.745,0,0,0-1.957-4.771A6.592,6.592,0,0,0-520,54.25V13.75A6.72,6.72,0,0,0-513.326,7h150.652a6.745,6.745,0,0,0,1.957,4.771A6.591,6.591,0,0,0-356,13.75v40.5A6.72,6.72,0,0,0-362.674,61Z" stroke="none"/>
          <path d="M -363.6104431152344 59.99999618530273 C -363.1656188964844 56.52884674072266 -360.4366149902344 53.76993942260742 -357.0003051757812 53.3155403137207 L -357.0003051757812 14.68539810180664 C -358.6707458496094 14.46651172637939 -360.2157592773438 13.70051002502441 -361.4281616210938 12.47424507141113 C -362.6397094726562 11.24881362915039 -363.3959350585938 9.687546730041504 -363.6107482910156 8.000203132629395 L -512.3892211914062 8.000203132629395 C -512.8341064453125 11.47146987915039 -515.5634155273438 14.23024463653564 -519.0001831054688 14.68467617034912 L -519.0001831054688 53.31478881835938 C -517.32958984375 53.53366851806641 -515.7843017578125 54.29966354370117 -514.5717163085938 55.52591323852539 C -513.3600463867188 56.75139617919922 -512.6036987304688 58.31265640258789 -512.388916015625 59.99999618530273 L -363.6104431152344 59.99999618530273 M -362.6740417480469 60.99999618530273 L -513.3256225585938 60.99999618530273 C -513.3260498046875 59.1993293762207 -514.0208740234375 57.50532913208008 -515.2828369140625 56.2290153503418 C -516.544921875 54.95270156860352 -518.22021484375 54.24980926513672 -520.0001831054688 54.24980926513672 L -520.0001831054688 13.75039100646973 C -516.318603515625 13.74941158294678 -513.3256225585938 10.72174549102783 -513.3256225585938 7.000203132629395 L -362.6740417480469 7.000203132629395 C -362.6735534667969 8.800848960876465 -361.9788818359375 10.49487018585205 -360.717041015625 11.7711820602417 C -359.4551696777344 13.04749488830566 -357.7800598144531 13.75039100646973 -356.0003051757812 13.75039100646973 L -356.0003051757812 54.24980926513672 C -359.6810302734375 54.25078582763672 -362.6736755371094 57.27803802490234 -362.6740417480469 60.9990348815918 L -362.6740417480469 60.99999618530273 Z" stroke="none" fill="#2383c6"/>
        </g>
        <circle id="Elipse_5" data-name="Elipse 5" cx="3.5" cy="3.5" r="3.5" transform="translate(968 1468)" fill="#2297d4"/>
        <circle id="Elipse_6" data-name="Elipse 6" cx="3.5" cy="3.5" r="3.5" transform="translate(1103 1468)" fill="#2297d4"/>
        <text id="_1_USD" data-name="$1 USD" transform="translate(994 1481)" fill="#0c152e" font-size="26" font-family="Gotham-Book, Gotham"><tspan x="0" y="0">$1 USD</tspan></text>
      </g>
      <line id="Linha_11" data-name="Linha 11" x2="59" transform="translate(1129.5 1569.362)" fill="none" stroke="#2383c6" stroke-width="1"/>
      <line id="Linha_12" data-name="Linha 12" y2="306.362" transform="translate(1188.5 1416.5)" fill="none" stroke="#2383c6" stroke-width="1"/>
      <rect id="Retângulo_256" data-name="Retângulo 256" width="25" height="1" transform="translate(1188 1722)" fill="#2383c6"/>
      <rect id="Retângulo_255" data-name="Retângulo 255" width="25" height="1" transform="translate(1188 1568.862)" fill="#2383c6"/>
      <g id="Icon_feather-check-circle" data-name="Icon feather-check-circle" transform="translate(1210 1398.508)">
        <path id="Caminho_7801" data-name="Caminho 7801" d="M33,16.62V18A15,15,0,1,1,24.105,4.29" fill="none" stroke="#2383c6" stroke-linecap="round" stroke-linejoin="round" stroke-width="1"/>
        <path id="Caminho_7802" data-name="Caminho 7802" d="M33,6,18,21.015l-4.5-4.5" fill="none" stroke="#2383c6" stroke-linecap="round" stroke-linejoin="round" stroke-width="1"/>
      </g>
      <g id="Icon_feather-check-circle-2" data-name="Icon feather-check-circle" transform="translate(1210 1550.87)">
        <path id="Caminho_7801-2" data-name="Caminho 7801" d="M33,16.62V18A15,15,0,1,1,24.105,4.29" fill="none" stroke="#2383c6" stroke-linecap="round" stroke-linejoin="round" stroke-width="1"/>
        <path id="Caminho_7802-2" data-name="Caminho 7802" d="M33,6,18,21.015l-4.5-4.5" fill="none" stroke="#2383c6" stroke-linecap="round" stroke-linejoin="round" stroke-width="1"/>
      </g>
      <g id="Icon_feather-check-circle-3" data-name="Icon feather-check-circle" transform="translate(1210 1705.008)">
        <path id="Caminho_7801-3" data-name="Caminho 7801" d="M33,16.62V18A15,15,0,1,1,24.105,4.29" fill="none" stroke="#2383c6" stroke-linecap="round" stroke-linejoin="round" stroke-width="1"/>
        <path id="Caminho_7802-3" data-name="Caminho 7802" d="M33,6,18,21.015l-4.5-4.5" fill="none" stroke="#2383c6" stroke-linecap="round" stroke-linejoin="round" stroke-width="1"/>
      </g>
    </g>
  </g>
</svg>
