<svg xmlns="http://www.w3.org/2000/svg" xmlns:xlink="http://www.w3.org/1999/xlink" width="72" height="72" viewBox="0 0 72 72">
  <defs>
    <clipPath id="clip-path">
      <rect id="Ret칙ngulo_88" data-name="Ret칙ngulo 88" width="72" height="72" transform="translate(1248 1860)" fill="#fff" stroke="#707070" stroke-width="1"/>
    </clipPath>
  </defs>
  <g id="Grupo_de_m치scara_6" data-name="Grupo de m치scara 6" transform="translate(-1248 -1860)" clip-path="url(#clip-path)">
    <g id="Grupo_1193" data-name="Grupo 1193" transform="translate(1259 1829.851)">
      <path id="Caminho_7172" data-name="Caminho 7172" d="M46.858,54.869h-9.7l-2.114-7.65a1.458,1.458,0,0,0-1.406-1.07H16.148a1.458,1.458,0,0,0-1.405,1.069l-2.118,7.651H11.7V50.495a1.458,1.458,0,0,0-1.458-1.458H4.472a1.458,1.458,0,0,0-1.458,1.458v4.375h-.1A2.92,2.92,0,0,0,0,57.786V84.034a2.92,2.92,0,0,0,2.916,2.916H46.858a2.92,2.92,0,0,0,2.916-2.916V57.786A2.92,2.92,0,0,0,46.858,54.869Zm0,2.916V60.7h-8.09l-.806-2.916Zm-23.2,26.248a13.186,13.186,0,1,1,2.451,0Zm-6.4-34.968h15.27l2.6,9.427a16.067,16.067,0,0,0-20.483,0ZM5.93,51.953H8.785v2.916H5.93Zm5.886,5.833L11.009,60.7H2.916V57.786Zm-8.9,26.248V63.619H10.2c-.677,2.693-1.416,4.237-1.416,7.287a16.094,16.094,0,0,0,6.788,13.128Zm31.285,0a16.094,16.094,0,0,0,6.788-13.128c0-3.034-.743-4.608-1.415-7.287h7.284V84.034Z" transform="translate(0 0)"/>
      <path id="Caminho_7173" data-name="Caminho 7173" d="M161.116,195.708a10.217,10.217,0,1,0,10.217,10.217,10.229,10.229,0,0,0-10.217-10.217Zm0,17.518a7.3,7.3,0,1,1,7.3-7.3A7.309,7.309,0,0,1,161.116,213.226Z" transform="translate(-136.229 -135.02)"/>
    </g>
  </g>
</svg>
