<svg xmlns="http://www.w3.org/2000/svg" width="225.887" height="61.522" viewBox="0 0 225.887 61.522">
  <g id="Grupo_1468" data-name="Grupo 1468" transform="translate(383.871 -5791)">
    <path id="Caminho_7352" data-name="Caminho 7352" d="M.624,0h1.3L3.248-2.96h6.1L10.656,0h1.36l-5.1-11.28H5.728Zm3.12-4.1L6.3-9.808,8.848-4.1ZM15.824,0h3.888a5.607,5.607,0,0,0,5.952-5.6v-.032c0-3.152-2.432-5.568-5.952-5.568H15.824Zm3.888-10.032A4.36,4.36,0,0,1,24.352-5.6v.032a4.326,4.326,0,0,1-4.64,4.4H17.088v-8.864ZM35.136.192A5.675,5.675,0,0,0,40.864-5.6v-.032a5.621,5.621,0,0,0-5.7-5.76A5.675,5.675,0,0,0,29.44-5.6v.032A5.621,5.621,0,0,0,35.136.192Zm.032-1.168A4.453,4.453,0,0,1,30.752-5.6v-.032a4.4,4.4,0,0,1,4.384-4.592A4.453,4.453,0,0,1,39.552-5.6v.032A4.4,4.4,0,0,1,35.168-.976ZM45.136,0h4.976c2.448,0,4.064-1.136,4.064-3.056v-.032c0-1.52-1.072-2.32-2.4-2.7a2.7,2.7,0,0,0,1.776-2.592v-.032a2.5,2.5,0,0,0-.72-1.792A4.114,4.114,0,0,0,49.9-11.2H45.136Zm7.136-8.208c0,1.328-1.04,2-2.576,2H46.384v-3.856h3.408c1.6,0,2.48.72,2.48,1.824ZM52.9-3.136c0,1.264-1.04,2-2.752,2h-3.76V-5.088H49.92c1.968,0,2.976.7,2.976,1.92ZM58.288,0h8.176V-1.152H59.552v-3.92h6.112V-6.224H59.552v-3.824h6.832V-11.2h-8.1Zm22.56.16c2.224,0,3.824-1.248,3.824-3.168V-3.04c0-1.712-1.152-2.608-3.648-3.168-2.48-.512-3.04-1.12-3.04-2.176v-.032c0-1.024.912-1.808,2.384-1.808A4.919,4.919,0,0,1,83.6-9.008l.736-.976A5.843,5.843,0,0,0,80.4-11.36c-2.128,0-3.68,1.312-3.68,3.056v.032c0,1.84,1.184,2.672,3.76,3.232,2.352.512,2.912,1.088,2.912,2.128v.032c0,1.1-.976,1.9-2.5,1.9a5.269,5.269,0,0,1-3.84-1.584l-.784.928A6.456,6.456,0,0,0,80.848.16ZM91.584,0h1.264V-10.032h3.776V-11.2H87.808v1.168h3.776Zm13.424.192A5.675,5.675,0,0,0,110.736-5.6v-.032a5.621,5.621,0,0,0-5.7-5.76A5.675,5.675,0,0,0,99.312-5.6v.032A5.621,5.621,0,0,0,105.008.192Zm.032-1.168A4.453,4.453,0,0,1,100.624-5.6v-.032a4.4,4.4,0,0,1,4.384-4.592A4.453,4.453,0,0,1,109.424-5.6v.032A4.4,4.4,0,0,1,105.04-.976ZM120.128.192a5.832,5.832,0,0,0,4.48-1.968l-.832-.816A4.862,4.862,0,0,1,120.16-.976,4.409,4.409,0,0,1,115.824-5.6v-.032a4.391,4.391,0,0,1,4.336-4.592,4.868,4.868,0,0,1,3.52,1.536l.864-.928a5.745,5.745,0,0,0-4.368-1.776A5.652,5.652,0,0,0,114.512-5.6v.032A5.586,5.586,0,0,0,120.128.192ZM128.48,0h1.264V-3.008l2.384-2.416L136.432,0h1.584l-5.008-6.3,4.816-4.9h-1.648l-6.432,6.688V-11.2H128.48Z" transform="translate(-296 5827)" fill="#fff"/>
    <g id="Grupo_1467" data-name="Grupo 1467" transform="translate(-383.871 5791)">
      <g id="Grupo_1465" data-name="Grupo 1465" transform="translate(0.311 2.416)">
        <rect id="Retângulo_212" data-name="Retângulo 212" width="60" height="57" transform="translate(0.56 -0.416)" fill="#2e000a"/>
      </g>
      <g id="Grupo_1466" data-name="Grupo 1466">
        <path id="Caminho_7350" data-name="Caminho 7350" d="M0,0V61.522H63.1V0ZM2.629,2.629H60.471V58.893H2.629Z" fill="#ff4475" fill-rule="evenodd"/>
      </g>
      <path id="Caminho_7351" data-name="Caminho 7351" d="M60.26,79.386a.644.644,0,0,1-.26-.564V74.657a.206.206,0,0,1,.347-.13,11.316,11.316,0,0,0,6.4,1.952c3.167,0,4.468-1.648,4.468-3.514,0-1.648-.824-2.993-3.861-4.772L65.8,67.369c-4.468-2.516-5.769-5.075-5.769-8.329,0-4.425,3.08-7.982,8.893-7.982a12.089,12.089,0,0,1,5.544,1c.217.087.26.217.26.477v3.9a.209.209,0,0,1-.347.174,10.256,10.256,0,0,0-5.37-1.3c-3.34,0-4.425,1.909-4.425,3.427,0,1.648.824,2.863,3.818,4.511l1.388.738c4.945,2.733,6.2,5.379,6.2,8.633,0,4.815-3.514,8.156-9.24,8.156A13.579,13.579,0,0,1,60.26,79.386Zm30.106.39a.469.469,0,0,1-.3.477,8.74,8.74,0,0,1-3.21.52c-3.3,0-5.162-1.735-5.162-5.813V63.137H79.2c-.217,0-.266-.087-.266-.3v-3.49c0-.217.043-.347.3-.347h2.494a45.078,45.078,0,0,1,.39-4.989c0-.3.13-.39.3-.433l3.9-.52c.174-.043.3,0,.3.216-.087,1.258-.13,3.384-.174,5.726h3.8c.217,0,.3.087.3.3v3.577c0,.217-.13.26-.3.26H86.423V74.156c0,1.779.608,2.584,2.212,2.584a5.7,5.7,0,0,0,1.471-.174c.13-.044.26.043.26.26Z" transform="translate(-44.225 -37.634)" fill="#ff4475" fill-rule="evenodd"/>
    </g>
  </g>
</svg>
