<svg xmlns="http://www.w3.org/2000/svg" width="190.874" height="35.207" viewBox="0 0 190.874 35.207">
  <g id="Grupo_1524" data-name="Grupo 1524" transform="translate(-282.012 -297.546)">
    <g id="Grupo_1479" data-name="Grupo 1479" transform="translate(630.871 -5507)">
      <path id="Caminho_7520" data-name="Caminho 7520" d="M.624,0h1.3L3.248-2.96h6.1L10.656,0h1.36l-5.1-11.28H5.728Zm3.12-4.1L6.3-9.808,8.848-4.1ZM15.824,0h3.888a5.607,5.607,0,0,0,5.952-5.6v-.032c0-3.152-2.432-5.568-5.952-5.568H15.824Zm3.888-10.032A4.36,4.36,0,0,1,24.352-5.6v.032a4.326,4.326,0,0,1-4.64,4.4H17.088v-8.864ZM35.136.192A5.675,5.675,0,0,0,40.864-5.6v-.032a5.621,5.621,0,0,0-5.7-5.76A5.675,5.675,0,0,0,29.44-5.6v.032A5.621,5.621,0,0,0,35.136.192Zm.032-1.168A4.453,4.453,0,0,1,30.752-5.6v-.032a4.4,4.4,0,0,1,4.384-4.592A4.453,4.453,0,0,1,39.552-5.6v.032A4.4,4.4,0,0,1,35.168-.976ZM45.136,0h4.976c2.448,0,4.064-1.136,4.064-3.056v-.032c0-1.52-1.072-2.32-2.4-2.7a2.7,2.7,0,0,0,1.776-2.592v-.032a2.5,2.5,0,0,0-.72-1.792A4.114,4.114,0,0,0,49.9-11.2H45.136Zm7.136-8.208c0,1.328-1.04,2-2.576,2H46.384v-3.856h3.408c1.6,0,2.48.72,2.48,1.824ZM52.9-3.136c0,1.264-1.04,2-2.752,2h-3.76V-5.088H49.92c1.968,0,2.976.7,2.976,1.92ZM58.288,0h8.176V-1.152H59.552v-3.92h6.112V-6.224H59.552v-3.824h6.832V-11.2h-8.1Zm22.56.16c2.224,0,3.824-1.248,3.824-3.168V-3.04c0-1.712-1.152-2.608-3.648-3.168-2.48-.512-3.04-1.12-3.04-2.176v-.032c0-1.024.912-1.808,2.384-1.808A4.919,4.919,0,0,1,83.6-9.008l.736-.976A5.843,5.843,0,0,0,80.4-11.36c-2.128,0-3.68,1.312-3.68,3.056v.032c0,1.84,1.184,2.672,3.76,3.232,2.352.512,2.912,1.088,2.912,2.128v.032c0,1.1-.976,1.9-2.5,1.9a5.269,5.269,0,0,1-3.84-1.584l-.784.928A6.456,6.456,0,0,0,80.848.16ZM91.584,0h1.264V-10.032h3.776V-11.2H87.808v1.168h3.776Zm13.424.192A5.675,5.675,0,0,0,110.736-5.6v-.032a5.621,5.621,0,0,0-5.7-5.76A5.675,5.675,0,0,0,99.312-5.6v.032A5.621,5.621,0,0,0,105.008.192Zm.032-1.168A4.453,4.453,0,0,1,100.624-5.6v-.032a4.4,4.4,0,0,1,4.384-4.592A4.453,4.453,0,0,1,109.424-5.6v.032A4.4,4.4,0,0,1,105.04-.976ZM120.128.192a5.832,5.832,0,0,0,4.48-1.968l-.832-.816A4.862,4.862,0,0,1,120.16-.976,4.409,4.409,0,0,1,115.824-5.6v-.032a4.391,4.391,0,0,1,4.336-4.592,4.868,4.868,0,0,1,3.52,1.536l.864-.928a5.745,5.745,0,0,0-4.368-1.776A5.652,5.652,0,0,0,114.512-5.6v.032A5.586,5.586,0,0,0,120.128.192ZM128.48,0h1.264V-3.008l2.384-2.416L136.432,0h1.584l-5.008-6.3,4.816-4.9h-1.648l-6.432,6.688V-11.2H128.48Z" transform="translate(-296 5827)" fill="#fff"/>
    </g>
    <g id="Grupo_1494" data-name="Grupo 1494" transform="translate(282.012 -17.997)">
      <path id="Caminho_7353" data-name="Caminho 7353" d="M0,344.293V322a5.479,5.479,0,0,1,.118-1.249,7.112,7.112,0,0,1,.377-1.2,8.656,8.656,0,0,1,.589-1.131,6.675,6.675,0,0,1,.8-.99,6.4,6.4,0,0,1,.99-.8,5.166,5.166,0,0,1,1.131-.589,7.854,7.854,0,0,1,1.2-.377,5.607,5.607,0,0,1,1.249-.118H30.07a5.479,5.479,0,0,1,1.249.118,6.5,6.5,0,0,1,1.2.377,8.658,8.658,0,0,1,1.131.589,6.675,6.675,0,0,1,.99.8,6.4,6.4,0,0,1,.8.99,5.165,5.165,0,0,1,.589,1.131,7.852,7.852,0,0,1,.377,1.2A5.608,5.608,0,0,1,36.527,322v22.293a5.479,5.479,0,0,1-.118,1.249,6.5,6.5,0,0,1-.377,1.2,7.382,7.382,0,0,1-.589,1.131,6.677,6.677,0,0,1-.8.99,6.4,6.4,0,0,1-.99.8,5.164,5.164,0,0,1-1.131.589,7.85,7.85,0,0,1-1.2.377,5.607,5.607,0,0,1-1.249.118H6.481a5.479,5.479,0,0,1-1.249-.118,6.5,6.5,0,0,1-1.2-.377,7.38,7.38,0,0,1-1.131-.589,6.674,6.674,0,0,1-.99-.8,6.4,6.4,0,0,1-.8-.99,5.166,5.166,0,0,1-.589-1.131,7.852,7.852,0,0,1-.377-1.2A5.2,5.2,0,0,1,0,344.293Z" fill="#0c131f"/>
      <path id="Caminho_7354" data-name="Caminho 7354" d="M40.225,372.4a12.909,12.909,0,0,1-2.451-.236,8.253,8.253,0,0,1-1.862-.589.4.4,0,0,1-.189-.4V368.3a.168.168,0,0,1,.071-.141.114.114,0,0,1,.141.024,8.259,8.259,0,0,0,2.144.943,8.094,8.094,0,0,0,2.215.306,3.526,3.526,0,0,0,1.98-.424,1.248,1.248,0,0,0,.589-1.06,1.463,1.463,0,0,0-.189-.731,2.259,2.259,0,0,0-.683-.636,6.928,6.928,0,0,0-1.32-.636l-1.2-.518a9.329,9.329,0,0,1-2.309-1.343,3.55,3.55,0,0,1-1.131-1.532,4.812,4.812,0,0,1-.33-1.767,4.414,4.414,0,0,1,.636-2.357,4.367,4.367,0,0,1,1.932-1.673,7.544,7.544,0,0,1,3.2-.613,15.957,15.957,0,0,1,2.168.141,5.72,5.72,0,0,1,1.6.448.32.32,0,0,1,.165.306v2.734a.126.126,0,0,1-.071.094.114.114,0,0,1-.141-.024,7.729,7.729,0,0,0-1.673-.613,13.781,13.781,0,0,0-2-.165,4.325,4.325,0,0,0-1.178.118,3.134,3.134,0,0,0-.778.306,1.353,1.353,0,0,0-.448.448,1.255,1.255,0,0,0-.141.566,1.123,1.123,0,0,0,.212.683,2.492,2.492,0,0,0,.731.613,10.6,10.6,0,0,0,1.39.707l.9.33a9.822,9.822,0,0,1,2.474,1.39,4.138,4.138,0,0,1,1.249,1.6,4.85,4.85,0,0,1,.353,1.862,4.288,4.288,0,0,1-.754,2.5,4.909,4.909,0,0,1-2.1,1.65A8.288,8.288,0,0,1,40.225,372.4Z" transform="translate(-27.287 -31.032)" fill="#fff"/>
      <path id="Caminho_7355" data-name="Caminho 7355" d="M91.505,371.412v1.979c0,.165-.071.283-.189.306-.306.094-.636.165-.966.236a5.726,5.726,0,0,1-1.155.094,3.564,3.564,0,0,1-2.474-.825,3.465,3.465,0,0,1-.9-2.639V364.6H84.389c-.141,0-.189-.071-.189-.212v-2.4c0-.141.071-.189.212-.189H85.85c.024-.283.024-.589.071-.943.024-.353.047-.731.094-1.084.024-.353.071-.66.094-.9.024-.047.024-.094.071-.141a.514.514,0,0,1,.118-.094l2.875-.353a.105.105,0,0,1,.118,0,.2.2,0,0,1,.047.141c-.024.377-.047.872-.071,1.508s-.024,1.249-.047,1.862h2.239c.094,0,.141.071.141.189v2.451c0,.094-.024.141-.118.165H89.2v5.161a1.923,1.923,0,0,0,.283,1.178,1.224,1.224,0,0,0,1.013.353,2.154,2.154,0,0,0,.4-.024c.141,0,.259-.024.4-.024a.111.111,0,0,1,.141.024A.143.143,0,0,1,91.505,371.412Z" transform="translate(-64.358 -32.657)" fill="#fff"/>
    </g>
  </g>
</svg>
