<svg xmlns="http://www.w3.org/2000/svg" xmlns:xlink="http://www.w3.org/1999/xlink" width="72" height="72" viewBox="0 0 72 72">
  <defs>
    <clipPath id="clip-path">
      <rect id="Ret칙ngulo_100" data-name="Ret칙ngulo 100" width="72" height="72" transform="translate(972 4230)" fill="#fff" stroke="#707070" stroke-width="1"/>
    </clipPath>
  </defs>
  <g id="Grupo_de_m치scara_10" data-name="Grupo de m치scara 10" transform="translate(-972 -4230)" clip-path="url(#clip-path)">
    <g id="Grupo_1219" data-name="Grupo 1219" transform="translate(991.762 4175.411)">
      <path id="Caminho_7204" data-name="Caminho 7204" d="M38.185,83.558a1.153,1.153,0,0,0,1.152-1.152v-8.4a3.022,3.022,0,0,0-3.018-3.018H32.8V66.541a3.956,3.956,0,0,0-3.952-3.952H2.722a3.956,3.956,0,0,0-3.952,3.952v4.447H-4.744a3.022,3.022,0,0,0-3.018,3.018v8.4A1.153,1.153,0,0,0-6.61,83.558a1.153,1.153,0,0,0,1.152-1.152v-8.4a.715.715,0,0,1,.714-.714h3.514v33.159H-4.744a.715.715,0,0,1-.714-.714v-8.4A1.153,1.153,0,0,0-6.61,96.185a1.153,1.153,0,0,0-1.152,1.152v8.4a3.022,3.022,0,0,0,3.018,3.018h3.514v6.314a3.956,3.956,0,0,0,3.952,3.952H28.853a3.956,3.956,0,0,0,3.952-3.952v-6.314h3.514a3.022,3.022,0,0,0,3.018-3.018v-8.4a1.152,1.152,0,0,0-2.3,0v8.4a.715.715,0,0,1-.714.714H32.8V73.292h3.514a.715.715,0,0,1,.714.714v8.4A1.153,1.153,0,0,0,38.185,83.558ZM4.807,107.6a1.153,1.153,0,0,0-1.152-1.152H1.075V73.292H3.656a1.152,1.152,0,0,0,0-2.3H1.075V66.541a1.65,1.65,0,0,1,1.648-1.648H28.853A1.65,1.65,0,0,1,30.5,66.541v4.447H27.92a1.152,1.152,0,1,0,0,2.3H30.5v33.159H27.92a1.152,1.152,0,1,0,0,2.3H30.5v6.03a1.65,1.65,0,0,1-1.648,1.648H2.722a1.65,1.65,0,0,1-1.648-1.648v-6.03H3.656A1.153,1.153,0,0,0,4.807,107.6Z" transform="translate(0 0)" fill="#0091d5"/>
      <path id="Caminho_7205" data-name="Caminho 7205" d="M90.674,209.315l1.009-.672v11.846a2.088,2.088,0,0,0,2.085,2.085h11.2a2.088,2.088,0,0,0,2.085-2.085V208.643l1.008.672a1.153,1.153,0,0,0,1.561-.267l2.8-3.733a1.154,1.154,0,0,0,.037-1.332l-3.152-4.718a5.9,5.9,0,0,0-1.92-1.812l-3.572-1.717a1.154,1.154,0,0,0-.745-.086,19.432,19.432,0,0,1-7.4,0,1.157,1.157,0,0,0-.749.086l-3.634,1.75-.018.01a5.887,5.887,0,0,0-1.842,1.765l-3.155,4.723a1.153,1.153,0,0,0,.042,1.331l2.8,3.733A1.152,1.152,0,0,0,90.674,209.315Zm2.7-3.841a1.15,1.15,0,0,0-1.183.057L90.3,206.793l-1.656-2.209,2.7-4.046v0a3.51,3.51,0,0,1,1.025-1.022l3.191-1.534a22.4,22.4,0,0,0,7.6,0l3.118,1.494a3.561,3.561,0,0,1,1.1,1.068l2.7,4.043-1.656,2.209-1.894-1.262a1.152,1.152,0,0,0-1.787.959v13.78H93.987V206.49A1.15,1.15,0,0,0,93.378,205.474Z" transform="translate(-83.58 -118.485)" fill="#0091d5"/>
      <path id="Caminho_7206" data-name="Caminho 7206" d="M175.39,292.359a3.952,3.952,0,1,0-3.952-3.952A3.956,3.956,0,0,0,175.39,292.359Zm-1.648-3.952a1.648,1.648,0,1,1,1.648,1.648A1.65,1.65,0,0,1,173.742,288.408Z" transform="translate(-159.602 -197.603)" fill="#0091d5"/>
    </g>
  </g>
</svg>
