<svg width="1440" height="101" viewBox="0 0 1440 101" fill="none" xmlns="http://www.w3.org/2000/svg">
<path fill-rule="evenodd" clip-rule="evenodd" d="M5.07053e-06 43L60 58.0001C120 72.0001 240 101 360 101C480 101 600 72.0001 720 58.0001C840 43.0001 960 43.0001 1080 43.0001C1200 43.0002 1320 43.0002 1380 43.0002L1440 43.0002L1440 0.000118259L1380 0.000113014C1320 0.000107769 1200 9.72779e-05 1080 8.67872e-05C960 7.62965e-05 840 6.58057e-05 720 5.5315e-05C600 4.48243e-05 480 3.43335e-05 360 2.38428e-05C240 1.33521e-05 120 2.86134e-06 60 -2.38403e-06L8.82971e-06 -7.62939e-06L5.07053e-06 43Z" fill="#584CCC"/>
</svg>
