<svg width="18" height="18" viewBox="0 0 18 18" fill="none" xmlns="http://www.w3.org/2000/svg">
<circle r="9" transform="matrix(-1 0 0 1 9 9)" fill="#DF4D33"/>
<path d="M4.2749 4.94995H13.7249C13.9039 4.94995 14.0756 5.02107 14.2022 5.14765C14.3288 5.27424 14.3999 5.44593 14.3999 5.62495V12.375C14.3999 12.554 14.3288 12.7257 14.2022 12.8522C14.0756 12.9788 13.9039 13.05 13.7249 13.05H4.2749C4.09588 13.05 3.92419 12.9788 3.7976 12.8522C3.67102 12.7257 3.5999 12.554 3.5999 12.375V5.62495C3.5999 5.44593 3.67102 5.27424 3.7976 5.14765C3.92419 5.02107 4.09588 4.94995 4.2749 4.94995ZM4.79465 12.375H13.1647L10.8022 9.93145L11.2882 9.46233L13.7249 11.9835V6.13795L9.52978 10.3128C9.40331 10.4385 9.23223 10.5091 9.0539 10.5091C8.87558 10.5091 8.7045 10.4385 8.57803 10.3128L4.2749 6.03333V11.9396L6.7589 9.45558L7.23478 9.93145L4.79465 12.375ZM13.2828 5.62495H4.82165L9.0539 9.83358L13.2828 5.62495Z" fill="#FFFDFD"/>
</svg>
