<svg width="38" height="38" viewBox="0 0 38 38" fill="none" xmlns="http://www.w3.org/2000/svg">
<path d="M30.1625 7.77422C28.7109 6.30794 26.9819 5.14536 25.0762 4.3543C23.1706 3.56324 21.1266 3.15953 19.0633 3.16672C10.4183 3.16672 3.37249 10.2126 3.37249 18.8576C3.37249 21.6284 4.10082 24.3201 5.46249 26.6951L3.24582 34.8334L11.5583 32.6484C13.8542 33.8992 16.435 34.5642 19.0633 34.5642C27.7083 34.5642 34.7542 27.5184 34.7542 18.8734C34.7542 14.6776 33.1233 10.7351 30.1625 7.77422ZM19.0633 31.9042C16.72 31.9042 14.4242 31.2709 12.4133 30.0834L11.9383 29.7984L6.99832 31.0967L8.31249 26.2834L7.99582 25.7926C6.69392 23.7136 6.00262 21.3105 6.00082 18.8576C6.00082 11.6692 11.8592 5.81089 19.0475 5.81089C22.5308 5.81089 25.8083 7.17255 28.2625 9.64255C29.4777 10.8522 30.4407 12.2909 31.0957 13.8755C31.7507 15.46 32.0847 17.1588 32.0783 18.8734C32.11 26.0617 26.2517 31.9042 19.0633 31.9042ZM26.22 22.1509C25.8242 21.9609 23.8925 21.0109 23.5442 20.8684C23.18 20.7417 22.9267 20.6784 22.6575 21.0584C22.3883 21.4542 21.6442 22.3409 21.4225 22.5942C21.2008 22.8634 20.9633 22.8951 20.5675 22.6892C20.1717 22.4992 18.905 22.0717 17.4167 20.7417C16.245 19.6967 15.4692 18.4142 15.2317 18.0184C15.01 17.6226 15.2 17.4167 15.4058 17.2109C15.58 17.0367 15.8017 16.7517 15.9917 16.5301C16.1817 16.3084 16.2608 16.1342 16.3875 15.8809C16.5142 15.6117 16.4508 15.3901 16.3558 15.2001C16.2608 15.0101 15.4692 13.0784 15.1525 12.2867C14.8358 11.5267 14.5033 11.6217 14.2658 11.6059H13.5058C13.2367 11.6059 12.825 11.7009 12.4608 12.0967C12.1125 12.4926 11.0992 13.4426 11.0992 15.3742C11.0992 17.3059 12.5083 19.1742 12.6983 19.4276C12.8883 19.6967 15.4692 23.6551 19.3958 25.3492C20.33 25.7609 21.0583 25.9984 21.6283 26.1726C22.5625 26.4734 23.4175 26.4259 24.0983 26.3309C24.8583 26.2201 26.4258 25.3809 26.7425 24.4626C27.075 23.5442 27.075 22.7684 26.9642 22.5942C26.8533 22.4201 26.6158 22.3409 26.22 22.1509Z" fill="white"/>
</svg>
