<svg width="67" height="51" viewBox="0 0 67 51" fill="none" xmlns="http://www.w3.org/2000/svg">
<path d="M59.375 0.83667C58.6587 0.372521 57.8395 0.0917206 56.9895 0.0189516C56.1394 -0.0538174 55.2846 0.0836734 54.5 0.419338L28.7917 10.5605C28.183 10.8086 27.5321 10.9362 26.875 10.9361H10.4167C9.03533 10.9361 7.71057 11.4857 6.73382 12.464C5.75707 13.4423 5.20833 14.7692 5.20833 16.1528V16.5701H0V29.0901H5.20833V29.6326C5.24097 30.9943 5.80408 32.2893 6.77732 33.2407C7.75055 34.192 9.05672 34.7244 10.4167 34.724L16.6667 47.9952C17.0899 48.8889 17.7562 49.6449 18.589 50.1764C19.4219 50.7079 20.3875 50.9934 21.375 51H24C25.3741 50.989 26.6882 50.4345 27.6559 49.4574C28.6237 48.4803 29.1667 47.1597 29.1667 45.7833V35.2248L54.5 45.366C55.1231 45.6144 55.7877 45.7418 56.4583 45.7416C57.4988 45.7248 58.512 45.4059 59.375 44.8235C60.0603 44.36 60.6256 43.7398 61.0241 43.0141C61.4226 42.2884 61.6429 41.4781 61.6667 40.6502V5.13519C61.6628 4.28599 61.4521 3.45055 61.0527 2.70145C60.6534 1.95235 60.0774 1.31222 59.375 0.83667ZM23.9583 16.1528V29.6326H10.4167V16.1528H23.9583ZM23.9583 45.7833H21.3333L16.2083 34.724H23.9583V45.7833ZM30.7083 30.2586C30.2136 30.0054 29.6978 29.7959 29.1667 29.6326V15.8606C29.6927 15.7519 30.2085 15.5983 30.7083 15.4016L56.4583 5.13519V40.525L30.7083 30.2586ZM61.7917 17.6134V28.0467C63.173 28.0467 64.4978 27.4971 65.4745 26.5188C66.4513 25.5405 67 24.2136 67 22.8301C67 21.4465 66.4513 20.1197 65.4745 19.1413C64.4978 18.163 63.173 17.6134 61.7917 17.6134Z" fill="#584CCC"/>
</svg>
