<svg width="63" height="51" viewBox="0 0 63 51" fill="none" xmlns="http://www.w3.org/2000/svg">
<path d="M2.54545 0.000107537C1.87036 0.000107537 1.22291 0.268767 0.745546 0.746984C0.268181 1.2252 0 1.8738 0 2.5501C0 3.2264 0.268181 3.875 0.745546 4.35322C1.22291 4.83144 1.87036 5.1001 2.54545 5.1001H8.19636L14.8756 31.875C15.4433 34.1445 17.472 35.7 19.8062 35.7H51.548C53.8465 35.7 55.7989 34.17 56.4022 31.9515L63 7.65009H57.6698L51.5455 30.6H19.8036L13.1269 3.8251C12.8511 2.72664 12.2153 1.75266 11.3214 1.05916C10.4274 0.365648 9.327 -0.00727497 8.19636 0.000107537H2.54545ZM48.3636 35.7C44.1764 35.7 40.7273 39.1553 40.7273 43.35C40.7273 47.5448 44.1764 51 48.3636 51C52.5509 51 56 47.5448 56 43.35C56 39.1553 52.5509 35.7 48.3636 35.7ZM25.4545 35.7C21.2673 35.7 17.8182 39.1553 17.8182 43.35C17.8182 47.5448 21.2673 51 25.4545 51C29.6418 51 33.0909 47.5448 33.0909 43.35C33.0909 39.1553 29.6418 35.7 25.4545 35.7ZM33.0909 0.000107537V12.7501H25.4545L35.6364 22.9501L45.8182 12.7501H38.1818V0.000107537H33.0909ZM25.4545 40.8C26.8902 40.8 28 41.9118 28 43.35C28 44.7882 26.8902 45.9 25.4545 45.9C24.0189 45.9 22.9091 44.7882 22.9091 43.35C22.9091 41.9118 24.0189 40.8 25.4545 40.8ZM48.3636 40.8C49.7993 40.8 50.9091 41.9118 50.9091 43.35C50.9091 44.7882 49.7993 45.9 48.3636 45.9C46.928 45.9 45.8182 44.7882 45.8182 43.35C45.8182 41.9118 46.928 40.8 48.3636 40.8Z" fill="#584CCC"/>
</svg>
