<svg width="48" height="51" viewBox="0 0 48 51" fill="none" xmlns="http://www.w3.org/2000/svg">
<path fill-rule="evenodd" clip-rule="evenodd" d="M30.3796 26.4455C29.9888 25.3405 29.2651 24.3839 28.3081 23.7072C27.3511 23.0306 26.2078 22.6672 25.0358 22.6672V21.2505H22.2024V22.6672C20.6995 22.6672 19.2581 23.2642 18.1954 24.327C17.1326 25.3897 16.5356 26.8311 16.5356 28.334C16.5356 29.8369 17.1326 31.2783 18.1954 32.341C19.2581 33.4038 20.6995 34.0008 22.2024 34.0008V39.6676C20.9699 39.6676 19.9201 38.8813 19.5291 37.7791C19.4711 37.5988 19.3775 37.432 19.2539 37.2884C19.1302 37.1449 18.9791 37.0276 18.8093 36.9435C18.6396 36.8595 18.4547 36.8103 18.2656 36.7989C18.0765 36.7875 17.8871 36.8141 17.7085 36.8772C17.5299 36.9403 17.3657 37.0386 17.2258 37.1663C17.0858 37.2939 16.9729 37.4483 16.8936 37.6204C16.8144 37.7924 16.7705 37.9786 16.7645 38.168C16.7584 38.3573 16.7904 38.5459 16.8586 38.7227C17.2494 39.8277 17.9731 40.7843 18.9301 41.461C19.8871 42.1376 21.0303 42.501 22.2024 42.501V43.9177H25.0358V42.501C26.5387 42.501 27.9801 41.904 29.0428 40.8412C30.1056 39.7785 30.7026 38.3371 30.7026 36.8342C30.7026 35.3313 30.1056 33.8899 29.0428 32.8272C27.9801 31.7644 26.5387 31.1674 25.0358 31.1674V25.5006C25.6218 25.5004 26.1934 25.682 26.6719 26.0202C27.1504 26.3584 27.5123 26.8366 27.7077 27.3891C27.8328 27.7434 28.0936 28.0335 28.4326 28.1955C28.6004 28.2758 28.7825 28.3222 28.9682 28.3321C29.154 28.342 29.34 28.3152 29.5154 28.2532C29.6908 28.1913 29.8524 28.0954 29.9907 27.971C30.1291 27.8466 30.2416 27.6962 30.3219 27.5284C30.4021 27.3605 30.4485 27.1785 30.4584 26.9927C30.4683 26.8069 30.4415 26.621 30.3796 26.4455ZM22.2024 25.5006C21.4509 25.5006 20.7302 25.7991 20.1989 26.3305C19.6675 26.8618 19.369 27.5825 19.369 28.334C19.369 29.0855 19.6675 29.8061 20.1989 30.3375C20.7302 30.8689 21.4509 31.1674 22.2024 31.1674V25.5006ZM25.0358 39.6676C25.7873 39.6676 26.5079 39.3691 27.0393 38.8377C27.5707 38.3064 27.8692 37.5857 27.8692 36.8342C27.8692 36.0827 27.5707 35.3621 27.0393 34.8307C26.5079 34.2993 25.7873 34.0008 25.0358 34.0008V39.6676Z" fill="#584CCC"/>
<path fill-rule="evenodd" clip-rule="evenodd" d="M8.25208 3.71317C11.7287 2.01172 17.4323 0 23.6743 0C29.7859 0 35.3394 1.92813 38.7976 3.60692L38.9931 3.70184C40.0358 4.21752 40.8773 4.70487 41.4695 5.10013L36.2362 12.7503C48.3008 25.0841 57.6199 50.997 23.6743 50.997C-10.2713 50.997 -1.20298 25.5545 10.9665 12.7503L5.76719 5.10013C6.16811 4.83804 6.67671 4.53344 7.28306 4.21044C7.5834 4.04893 7.90641 3.88318 8.25208 3.71459V3.71317ZM32.8729 12.6483L37.0621 6.52391C33.1662 6.80442 28.5307 7.71961 24.0681 9.01164C20.8806 9.93249 17.3388 9.79224 14.0591 9.18731C13.2327 9.03409 12.4119 8.85169 11.5983 8.64046L14.3184 12.6455C20.1481 14.7209 27.0418 14.7209 32.8729 12.6483ZM12.6821 15.0595C19.5035 17.6946 27.702 17.6946 34.5234 15.0567C37.3708 18.0583 39.7527 21.4692 41.5899 25.1762C43.5053 29.0835 44.548 32.9893 44.378 36.3554C44.2136 39.6039 42.9358 42.3792 40.0174 44.4419C36.9757 46.5911 31.86 48.1636 23.6729 48.1636C15.4773 48.1636 10.3375 46.618 7.26747 44.4929C4.32782 42.4557 3.0372 39.7186 2.85445 36.5141C2.66319 33.1848 3.68322 29.2988 5.59152 25.3646C7.41198 21.6132 9.95212 18.002 12.6821 15.0595ZM11.0529 5.5478C12.1863 5.88498 13.3706 6.17823 14.572 6.40066C17.6179 6.96167 20.6723 7.04384 23.279 6.28874C26.3167 5.40379 29.4063 4.7078 32.5301 4.20477C29.9234 3.41992 26.8746 2.8334 23.6729 2.8334C18.7923 2.8334 14.2405 4.19485 11.0529 5.5478Z" fill="#584CCC"/>
</svg>
