<svg width="56" height="51" viewBox="0 0 56 51" fill="none" xmlns="http://www.w3.org/2000/svg">
<path d="M30.3133 27.8157C32.1697 27.8157 33.9501 28.5483 35.2628 29.8524C36.5755 31.1565 37.313 32.9253 37.313 34.7696L37.3083 38.2396C37.7889 46.7535 31.1882 51 18.9458 51C6.74536 51 0 46.8091 0 38.3601V34.7696C0 32.9253 0.737465 31.1565 2.05016 29.8524C3.36285 28.5483 5.14325 27.8157 6.99968 27.8157H30.3133ZM48.9791 27.8157C50.8355 27.8157 52.6159 28.5483 53.9286 29.8524C55.2413 31.1565 55.9788 32.9253 55.9788 34.7696V37.2104C56.3988 44.8481 50.5657 48.6774 39.9052 48.6774C38.4586 48.6774 37.0983 48.6079 35.8267 48.4688C37.1725 47.2492 38.2046 45.7271 38.8366 44.0299L39.9052 44.0415C48.2325 44.0415 51.5597 41.8556 51.3147 37.3379V34.7696C51.3147 34.1548 51.0688 33.5652 50.6313 33.1305C50.1937 32.6958 49.6002 32.4516 48.9814 32.4516H39.3522C38.8841 30.6558 37.8843 29.0409 36.4823 27.8157H48.9814H48.9791ZM30.3133 32.4516H6.99968C6.38087 32.4516 5.78741 32.6958 5.34984 33.1305C4.91228 33.5652 4.66645 34.1548 4.66645 34.7696V38.3624C4.66645 43.6729 8.99692 46.3641 18.9458 46.3641C28.8574 46.3641 32.9452 43.7332 32.6465 38.3671V34.7696C32.6465 34.1548 32.4007 33.5652 31.9631 33.1305C31.5256 32.6958 30.9321 32.4516 30.3133 32.4516ZM18.6658 0C21.7605 0 24.7284 1.22131 26.9167 3.39527C29.1049 5.56922 30.3343 8.51774 30.3343 11.5922C30.3343 14.6666 29.1049 17.6151 26.9167 19.7891C24.7284 21.963 21.7605 23.1843 18.6658 23.1843C15.5711 23.1843 12.6032 21.963 10.415 19.7891C8.2267 17.6151 6.99735 14.6666 6.99735 11.5922C6.99735 8.51774 8.2267 5.56922 10.415 3.39527C12.6032 1.22131 15.5711 0 18.6658 0ZM41.9981 4.63594C44.4733 4.63594 46.8472 5.6128 48.5975 7.35161C50.3477 9.09043 51.331 11.4488 51.331 13.9078C51.331 16.3669 50.3477 18.7252 48.5975 20.464C46.8472 22.2029 44.4733 23.1797 41.9981 23.1797C39.5228 23.1797 37.149 22.2029 35.3987 20.464C33.6485 18.7252 32.6652 16.3669 32.6652 13.9078C32.6652 11.4488 33.6485 9.09043 35.3987 7.35161C37.149 5.6128 39.5228 4.63594 41.9981 4.63594ZM18.6658 4.63594C17.7463 4.63594 16.8358 4.81587 15.9863 5.16545C15.1367 5.51504 14.3648 6.02743 13.7146 6.67337C13.0644 7.31932 12.5487 8.08617 12.1968 8.93014C11.8449 9.77411 11.6638 10.6787 11.6638 11.5922C11.6638 12.5057 11.8449 13.4102 12.1968 14.2542C12.5487 15.0982 13.0644 15.865 13.7146 16.511C14.3648 17.1569 15.1367 17.6693 15.9863 18.0189C16.8358 18.3685 17.7463 18.5484 18.6658 18.5484C20.5229 18.5484 22.3039 17.8155 23.617 16.511C24.9301 15.2064 25.6678 13.4371 25.6678 11.5922C25.6678 9.74727 24.9301 7.97792 23.617 6.67337C22.3039 5.36883 20.5229 4.63594 18.6658 4.63594ZM41.9981 9.27188C40.7605 9.27188 39.5735 9.76031 38.6984 10.6297C37.8233 11.4991 37.3316 12.6783 37.3316 13.9078C37.3316 15.1374 37.8233 16.3165 38.6984 17.1859C39.5735 18.0553 40.7605 18.5438 41.9981 18.5438C43.2357 18.5438 44.4226 18.0553 45.2978 17.1859C46.1729 16.3165 46.6645 15.1374 46.6645 13.9078C46.6645 12.6783 46.1729 11.4991 45.2978 10.6297C44.4226 9.76031 43.2357 9.27188 41.9981 9.27188Z" fill="#584CCC"/>
</svg>
