<svg xmlns="http://www.w3.org/2000/svg" xmlns:xlink="http://www.w3.org/1999/xlink" width="114" height="114" viewBox="0 0 114 114">
  <defs>
    <clipPath id="clip-path">
      <rect id="Retângulo_162" data-name="Retângulo 162" width="114" height="114" transform="translate(326 8328)" fill="#f5f5f5"/>
    </clipPath>
  </defs>
  <g id="Grupo_de_máscara_60" data-name="Grupo de máscara 60" transform="translate(-326 -8328)" clip-path="url(#clip-path)">
    <g id="Layer_2" data-name="Layer 2" transform="translate(346.51 8350.71)">
      <g id="Surfaces" transform="translate(0 0)">
        <g id="Utility_Surface" data-name="Utility Surface">
          <g id="Outline_no_shadow" data-name="Outline no shadow">
            <rect id="Retângulo_221" data-name="Retângulo 221" width="72" height="68" rx="11" transform="translate(0.49 0.29)" fill="#000b1d"/>
          </g>
        </g>
      </g>
      <g id="Outlined_Mnemonics_Logos" data-name="Outlined Mnemonics Logos" transform="translate(17.203 16.332)">
        <g id="Br">
          <path id="Caminho_7487" data-name="Caminho 7487" d="M13.015,44.6V13.685c0-.286.1-.445.286-.476q.809-.048,2.476-.072l3.619-.048q1.952-.023,3.571-.023a18.29,18.29,0,0,1,6.214.857,9.2,9.2,0,0,1,3.548,2.166,5.646,5.646,0,0,1,1.667,2.3,18.967,18.967,0,0,1,.429,3.866,7.6,7.6,0,0,1-.476,2.786,7.463,7.463,0,0,1-1.143,2.023,5.412,5.412,0,0,1-1.286,1.19,9.5,9.5,0,0,1,1.88,1.31,7.753,7.753,0,0,1,1.786,2.356,8.088,8.088,0,0,1,.535,3.667,8.183,8.183,0,0,1-1.369,5.048A10.057,10.057,0,0,1,30.181,43.9a18.823,18.823,0,0,1-7.12,1.215H19.9q-1.5,0-2.762-.024t-2.19-.048c-.619-.015-1.151-.024-1.595-.023C13.126,44.993,13.015,44.851,13.015,44.6ZM19.4,19.5v6.619l3.278.04c.857,0,1.722-.088,2.548-.055a8.812,8.812,0,0,1,1.762.19,3.831,3.831,0,0,0,1-1.183,4.042,4.042,0,0,0,.4-1.9,3.358,3.358,0,0,0-.619-2.1A3.7,3.7,0,0,0,25.991,19.9a9.207,9.207,0,0,0-2.976-.405H21.634q-.62,0-1.12.024C20.181,19.535,19.785,19.5,19.4,19.5Zm-.134,12.49v7.978c.539.032,1.252.067,1.793.082s1.189.024,1.952.024a12.647,12.647,0,0,0,3.452-.429,4.912,4.912,0,0,0,2.263-1.678,3.7,3.7,0,0,0,1.118-2.238,4.343,4.343,0,0,0-.976-2.238c-.413-.634-1.175-.883-2.286-1.169a11.6,11.6,0,0,0-1.31-.238,13.752,13.752,0,0,0-1.737-.1Z" transform="translate(-13.015 -13.054)" fill="#fff"/>
          <path id="Caminho_7488" data-name="Caminho 7488" d="M35.159,19.72h4.952a.648.648,0,0,1,.619.476,2.319,2.319,0,0,1,.238.667,7.787,7.787,0,0,1,.143.929c.031.333.048.69.048,1.071a11.108,11.108,0,0,1,3.166-2.547,8.913,8.913,0,0,1,4.405-1.072.379.379,0,0,1,.429.322.372.372,0,0,1,0,.107v5.762c0,.223-.16.333-.476.333a12.022,12.022,0,0,0-5.6,1,5.677,5.677,0,0,0-1.705,1.1l0,15.093c0,.286-.126.429-.381.429H35.583a.421.421,0,0,1-.476-.358.366.366,0,0,1,0-.118l0-16.378q0-1.046-.023-2.214t-.071-2.31a15.283,15.283,0,0,0-.192-1.952.274.274,0,0,1,.335-.333Z" transform="translate(-6.758 -11.279)" fill="#fff"/>
        </g>
      </g>
    </g>
  </g>
</svg>
