<svg width="17" height="18" viewBox="0 0 17 18" fill="none" xmlns="http://www.w3.org/2000/svg">
<path fill-rule="evenodd" clip-rule="evenodd" d="M16.6084 0.0842428C16.6899 0.134637 16.7571 0.205007 16.8038 0.288682C16.8505 0.372356 16.875 0.466563 16.875 0.562368V17.4374C16.875 17.5866 16.8158 17.7296 16.7103 17.8351C16.6048 17.9406 16.4617 17.9999 16.3125 17.9999H12.9375C12.7883 17.9999 12.6453 17.9406 12.5398 17.8351C12.4343 17.7296 12.375 17.5866 12.375 17.4374V15.7499H11.25V17.4374C11.25 17.5866 11.1907 17.7296 11.0853 17.8351C10.9798 17.9406 10.8367 17.9999 10.6875 17.9999H0.5625C0.413316 17.9999 0.270242 17.9406 0.164753 17.8351C0.0592633 17.7296 0 17.5866 0 17.4374V11.2499C8.96027e-05 11.1319 0.0372916 11.0169 0.106341 10.9212C0.17539 10.8255 0.272788 10.7539 0.38475 10.7166L6.75 8.59487V5.06237C6.75001 4.958 6.77905 4.85568 6.83389 4.76687C6.88873 4.67806 6.96719 4.60626 7.06051 4.5595L16.0605 0.0594928C16.1464 0.0165243 16.2418 -0.00375908 16.3377 0.000573165C16.4336 0.00490541 16.5268 0.0337091 16.6084 0.0842428ZM6.75 9.78063L1.125 11.6549V16.8749H6.75V9.78063ZM7.87501 16.8749H10.125V15.1874C10.125 15.0382 10.1843 14.8951 10.2898 14.7896C10.3952 14.6841 10.5383 14.6249 10.6875 14.6249H12.9375C13.0867 14.6249 13.2298 14.6841 13.3353 14.7896C13.4407 14.8951 13.5 15.0382 13.5 15.1874V16.8749H15.75V1.47249L7.87501 5.41V16.8749Z" fill="#4E4E4E"/>
<path d="M2.25 12.3749H3.375V13.4999H2.25V12.3749ZM4.5 12.3749H5.625V13.4999H4.5V12.3749ZM2.25 14.6249H3.375V15.7499H2.25V14.6249ZM4.5 14.6249H5.625V15.7499H4.5V14.6249ZM9.00001 10.1249H10.125V11.2499H9.00001V10.1249ZM11.25 10.1249H12.375V11.2499H11.25V10.1249ZM9.00001 12.3749H10.125V13.4999H9.00001V12.3749ZM11.25 12.3749H12.375V13.4999H11.25V12.3749ZM13.5 10.1249H14.625V11.2499H13.5V10.1249ZM13.5 12.3749H14.625V13.4999H13.5V12.3749ZM9.00001 7.87488H10.125V8.99988H9.00001V7.87488ZM11.25 7.87488H12.375V8.99988H11.25V7.87488ZM13.5 7.87488H14.625V8.99988H13.5V7.87488ZM9.00001 5.62488H10.125V6.74988H9.00001V5.62488ZM11.25 5.62488H12.375V6.74988H11.25V5.62488ZM13.5 5.62488H14.625V6.74988H13.5V5.62488ZM13.5 3.37488H14.625V4.49988H13.5V3.37488Z" fill="#4E4E4E"/>
</svg>
