<svg width="18" height="18" viewBox="0 0 18 18" fill="none" xmlns="http://www.w3.org/2000/svg">
<path d="M9 4C8.40666 4 7.82664 4.17595 7.33329 4.50559C6.83994 4.83524 6.45543 5.30377 6.22836 5.85195C6.0013 6.40013 5.94189 7.00333 6.05765 7.58527C6.1734 8.16721 6.45912 8.70176 6.87868 9.12132C7.29824 9.54088 7.83279 9.8266 8.41473 9.94235C8.99667 10.0581 9.59987 9.9987 10.1481 9.77164C10.6962 9.54457 11.1648 9.16006 11.4944 8.66671C11.8241 8.17336 12 7.59334 12 7C12 6.20435 11.6839 5.44129 11.1213 4.87868C10.5587 4.31607 9.79565 4 9 4ZM9 8.95288C8.61376 8.95288 8.23619 8.83834 7.91504 8.62376C7.59389 8.40917 7.34358 8.10418 7.19578 7.74733C7.04797 7.39049 7.00929 6.99783 7.08465 6.61901C7.16 6.24019 7.34599 5.89222 7.61911 5.61911C7.89222 5.34599 8.24019 5.16 8.61901 5.08464C8.99783 5.00929 9.39049 5.04797 9.74734 5.19577C10.1042 5.34358 10.4092 5.59389 10.6238 5.91504C10.8383 6.23619 10.9529 6.61376 10.9529 7C10.9515 7.51703 10.7451 8.01241 10.379 8.37751C10.013 8.74261 9.51703 8.94764 9 8.94764V8.95288Z" fill="#4E4E4E"/>
<path d="M8.99745 1C7.41164 1.00128 5.89079 1.60801 4.76706 2.68769C3.64334 3.76736 3.00807 5.23223 3 6.76236C3 9.05649 4.3339 10.9773 5.31141 12.3773L5.48961 12.6328C6.46217 13.9929 7.50551 15.3046 8.61561 16.5628L9.00255 17L9.38948 16.5628C10.4994 15.3044 11.5428 13.9928 12.5155 12.6328L12.6937 12.3724C13.6661 10.9724 15 9.05649 15 6.76236C14.9919 5.23138 14.356 3.76577 13.2311 2.68595C12.1063 1.60614 10.5841 0.99998 8.99745 1ZM11.8434 11.8075L11.6602 12.0679C10.7845 13.3353 9.62367 14.755 8.99745 15.4575C8.39669 14.755 7.21044 13.3353 6.33475 12.0679L6.15655 11.8075C5.25541 10.5106 4.01824 8.73718 4.01824 6.74271C4.01824 6.11178 4.14703 5.48703 4.39726 4.90414C4.64749 4.32124 5.01426 3.7916 5.47662 3.34547C5.93898 2.89934 6.48789 2.54545 7.09199 2.304C7.6961 2.06256 8.34358 1.93829 8.99745 1.93829C9.65133 1.93829 10.2988 2.06256 10.9029 2.304C11.507 2.54545 12.0559 2.89934 12.5183 3.34547C12.9806 3.7916 13.3474 4.32124 13.5976 4.90414C13.8479 5.48703 13.9767 6.11178 13.9767 6.74271C13.9767 8.75683 12.7446 10.5302 11.8434 11.8075Z" fill="#4E4E4E"/>
</svg>
