<svg xmlns="http://www.w3.org/2000/svg" width="432.554" height="52.42" viewBox="0 0 432.554 52.42">
  <g id="Grupo_1159" data-name="Grupo 1159" transform="translate(-348 -115.765)">
    <g id="Grupo_1157" data-name="Grupo 1157">
      <g id="Grupo_966" data-name="Grupo 966" transform="translate(401.63 126.951)">
        <g id="Grupo_963" data-name="Grupo 963" transform="translate(0 0.159)">
          <path id="Caminho_1" data-name="Caminho 1" d="M280.389,233.318l4.189-7.257q3.644-6.308-3.677-6.311H252.565l-20.8,32.563H240.8l8.181-12.684h20.447A11.87,11.87,0,0,0,280.389,233.318Zm-28.206.758,5.065-8.773h17.039a4.116,4.116,0,0,1,2.239.384q.613.576-.347,2.241l-2.033,3.52a5.128,5.128,0,0,1-2.242,2.242,7.185,7.185,0,0,1-2.684.386Z" transform="translate(-231.121 -219.399)" fill="#fff"/>
          <path id="Caminho_2" data-name="Caminho 2" d="M239.564,251.884H229.7l21.252-33.266h28.529c2.605,0,4.2.577,4.886,1.762s.384,2.839-.9,5.074l-4.192,7.257A12.247,12.247,0,0,1,268,239.2H247.747Zm-8.59-.7h8.21l8.18-12.684H268a11.592,11.592,0,0,0,10.663-6.137l4.189-7.258c1.136-1.972,1.442-3.443.9-4.377s-1.979-1.409-4.28-1.409H251.335ZM267.8,233.645H250.155l5.468-9.471h17.241a4.2,4.2,0,0,1,2.458.463c.837.783.008,2.214-.264,2.686l-2.033,3.524a5.487,5.487,0,0,1-2.4,2.384A7.523,7.523,0,0,1,267.8,233.645Zm-16.433-.7H267.8a7.014,7.014,0,0,0,2.549-.355,4.826,4.826,0,0,0,2.072-2.095l2.035-3.52c.529-.919.675-1.564.409-1.814-.1-.074-.516-.289-2-.289H256.029Z" transform="translate(-229.698 -218.618)" fill="#fff"/>
        </g>
        <g id="Grupo_964" data-name="Grupo 964" transform="translate(32.176 0.008)">
          <path id="Caminho_3" data-name="Caminho 3" d="M417.484,239.3a11.875,11.875,0,0,0,10.967-6.311l4.189-7.257q3.644-6.308-3.677-6.311H401.069l-8.677,14.372H380.925l1.149-14.52-7.78.068-37.919,32.749h10.68l27.273-24.713-.655,6.417h-3.382l-6.138,5.449h8.709l-1.314,12.848h7.941l1.01-12.848h8.218l-7.693,12.742h7.831l8.18-12.684H407.1l6.419,12.692h8.18L414.55,239.3Zm-17.239-5.553,5.065-8.773h17.039a4.111,4.111,0,0,1,2.237.384q.616.576-.345,2.241l-2.035,3.52a5.121,5.121,0,0,1-2.239,2.242,7.194,7.194,0,0,1-2.682.386Z" transform="translate(-335.437 -218.918)" fill="#fff"/>
          <path id="Caminho_4" data-name="Caminho 4" d="M377.73,251.652h-8.652l1.312-12.845h-9.24l6.925-6.152h3.2l.531-5.193-26.7,24.19h-11.75l38.727-33.447,8.288-.072-1.149,14.523h10.893l8.674-14.372h28.093c2.6,0,4.2.577,4.885,1.762s.384,2.839-.9,5.074l-4.191,7.257a12.25,12.25,0,0,1-11.269,6.486h-2.334l7.143,12.694h-8.994L404.8,238.863h-9.654l-8.182,12.686h-8.641l7.691-12.742h-7.274Zm-7.879-.7h7.232l1.008-12.847h9.16l-7.691,12.742h7.022l8.18-12.684h10.465l6.416,12.695h7.369l-7.144-12.695h3.53a11.59,11.59,0,0,0,10.663-6.137l4.19-7.258c1.14-1.972,1.444-3.443.907-4.377s-1.981-1.409-4.28-1.409h-27.7l-8.676,14.369h-12.04l1.146-14.514-7.269.062-37.112,32.053h9.6l27.849-25.234-.781,7.633h-3.564l-5.348,4.754h8.174ZM415.2,233.31H397.558l5.464-9.471h17.243a4.218,4.218,0,0,1,2.461.463c.832.781.006,2.214-.267,2.686l-2.035,3.524a5.493,5.493,0,0,1-2.4,2.384A7.518,7.518,0,0,1,415.2,233.31Zm-16.435-.7H415.2a7.023,7.023,0,0,0,2.547-.355,4.851,4.851,0,0,0,2.072-2.095l2.035-3.52c.529-.919.676-1.564.409-1.814-.095-.074-.518-.289-2-.289H403.429Z" transform="translate(-333.353 -218.133)" fill="#fff"/>
        </g>
        <g id="Grupo_965" data-name="Grupo 965" transform="translate(118.954)">
          <path id="Caminho_5" data-name="Caminho 5" d="M643.347,219.238a12.188,12.188,0,0,0-10.631,6.131s-5.111,8.335-5.35,8.92c-.894,2.173.139,3.072,1.673,3.543a32.7,32.7,0,0,0,6.106.4l.1,0h7.995l.008-.014,5.578.016a4.238,4.238,0,0,1,2.2.363c.411.366.2,1.215-.444,2.268l-2.033,3.339a5,5,0,0,1-2.239,2.124,7.651,7.651,0,0,1-2.684.363H626.593v0s-3.753-.015-6,.068a3.188,3.188,0,0,0-2.638,1.045c-.686.86-2.919,4.12-2.919,4.12l29.21.02a11.916,11.916,0,0,0,10.552-5.97s5.208-8.48,5.45-9.063c.89-2.175-.142-3.072-1.676-3.544a32.654,32.654,0,0,0-6.106-.4l-.1,0h-5.5s0,0,0,0h-8.085a4.215,4.215,0,0,1-2.2-.363c-.407-.364-.293-1.072.347-2.124l2.033-3.338a5.014,5.014,0,0,1,2.242-2.123,7.621,7.621,0,0,1,2.681-.364h17.04l0,0s2.824.073,4.97-.054a5.727,5.727,0,0,0,2.227-.514,5.986,5.986,0,0,0,2.036-1.764c.581-.727,2.014-3.082,2.014-3.082Z" transform="translate(-614.372 -218.887)" fill="#fff"/>
          <path id="Caminho_6" data-name="Caminho 6" d="M642.776,251.51l-29.873-.025.374-.545c.091-.134,2.246-3.279,2.933-4.14a3.568,3.568,0,0,1,2.9-1.175c1.626-.06,4.016-.07,5.3-.07l1.285,0h16.47a7.3,7.3,0,0,0,2.553-.339,4.709,4.709,0,0,0,2.074-1.979l2.03-3.339c.624-1.021.7-1.652.511-1.826a3.945,3.945,0,0,0-1.969-.274l-5.528-.015-.058.012h-8.088s-.26,0-.673,0a26.538,26.538,0,0,1-5.549-.415,2.628,2.628,0,0,1-1.892-4.012c.241-.593,4.852-8.115,5.377-8.97a12.606,12.606,0,0,1,10.92-6.3h29.45l-.322.531c-.061.1-1.451,2.384-2.039,3.121a6.111,6.111,0,0,1-2.169,1.863,6.016,6.016,0,0,1-2.349.545c-.843.05-1.882.074-3.09.074h0c-1.089,0-1.907-.02-1.907-.02l-.076,0H642.413a7.277,7.277,0,0,0-2.553.341,4.678,4.678,0,0,0-2.07,1.979l-2.035,3.339c-.521.855-.667,1.454-.413,1.682a3.921,3.921,0,0,0,1.969.274h8.937l0,0h4.648l.1.349,0-.349s.262,0,.679,0a26.371,26.371,0,0,1,5.534.415,2.629,2.629,0,0,1,1.894,4.013c-.244.592-4.939,8.243-5.472,9.113a12.306,12.306,0,0,1-10.846,6.137Zm-28.547-.721,28.541.023a11.646,11.646,0,0,0,10.259-5.805c2.089-3.4,5.255-8.606,5.423-9.013a2.506,2.506,0,0,0,.167-1.971,2.452,2.452,0,0,0-1.62-1.109,27.008,27.008,0,0,0-5.33-.384c-.411,0-.669,0-.671,0l-6.121,0,0,0H637.31a4.313,4.313,0,0,1-2.413-.438c-.851-.756-.012-2.132.26-2.582l2.035-3.339a5.372,5.372,0,0,1,2.4-2.264,7.879,7.879,0,0,1,2.82-.392H660.3l-.019.016c.3,0,.667.008,1.068.008h0c1.2,0,2.22-.025,3.049-.075a5.338,5.338,0,0,0,2.111-.488,5.507,5.507,0,0,0,1.9-1.661c.394-.492,1.206-1.781,1.663-2.516h-28.2a11.781,11.781,0,0,0-10.331,5.966c-2.051,3.343-5.158,8.462-5.326,8.871a2.479,2.479,0,0,0-.169,1.971,2.45,2.45,0,0,0,1.619,1.107,27.121,27.121,0,0,0,5.342.385c.4,0,.657,0,.659,0h7.89l.016-.037.2.025,5.58.015a4.327,4.327,0,0,1,2.411.436c.4.351.638,1.1-.358,2.727l-2.033,3.338a5.371,5.371,0,0,1-2.4,2.264,7.88,7.88,0,0,1-2.82.391h-17.6l0,0-.153,0c-1.276,0-3.656.01-5.27.072a2.89,2.89,0,0,0-2.38.913C616.254,247.866,614.892,249.825,614.229,250.789Z" transform="translate(-612.903 -218.106)" fill="#fff"/>
        </g>
      </g>
      <g id="Grupo_969" data-name="Grupo 969" transform="translate(348 115.765)">
        <g id="Grupo_968" data-name="Grupo 968" transform="translate(4.499 25.447)">
          <path id="Caminho_10" data-name="Caminho 10" d="M78.124,290.691l5.489-8.586c.07-.107.106-.223.167-.33.438-.746-1.6.178-3.685-.973-1.857-1.023-2-3.084-2.371-2.406l-5.8,9.069a3.035,3.035,0,0,0,1.262,4.413A3.871,3.871,0,0,0,78.124,290.691Z" transform="translate(-71.425 -273.849)" fill="#fff"/>
          <path id="Caminho_11" data-name="Caminho 11" d="M132.566,308.137c-1.859-1.025-2.006-3.082-2.374-2.4l-5.8,9.069a3.032,3.032,0,0,0,1.267,4.41,3.863,3.863,0,0,0,4.931-1.184l5.491-8.589c.07-.1.1-.219.167-.327C136.688,308.364,134.653,309.29,132.566,308.137Z" transform="translate(-107.605 -292.699)" fill="#fff"/>
          <path id="Caminho_12" data-name="Caminho 12" d="M109.342,267.564c.438-.75-1.6.173-3.686-.977-1.857-1.023-2-3.084-2.371-2.406l-14.394,22a3.03,3.03,0,0,0,1.26,4.412,3.864,3.864,0,0,0,4.933-1.187l14.091-21.511C109.247,267.783,109.28,267.669,109.342,267.564Z" transform="translate(-83.12 -264.046)" fill="#fff"/>
        </g>
        <path id="Caminho_13" data-name="Caminho 13" d="M75.781,204.322a3.858,3.858,0,0,0-4.929,1.185L57.433,225.965a3.034,3.034,0,0,0,1.264,4.413,3.866,3.866,0,0,0,4.933-1.184l13.417-20.462A3.032,3.032,0,0,0,75.781,204.322Z" transform="translate(-56.931 -197.116)" fill="#fff"/>
        <path id="Caminho_14" data-name="Caminho 14" d="M178.85,263.828a3.856,3.856,0,0,0-4.929,1.184L160.5,285.473a3.032,3.032,0,0,0,1.262,4.41A3.862,3.862,0,0,0,166.7,288.7l13.419-20.46A3.034,3.034,0,0,0,178.85,263.828Z" transform="translate(-128.005 -238.151)" fill="#fff"/>
        <path id="Caminho_15" data-name="Caminho 15" d="M116.718,196.715a3.856,3.856,0,0,0-4.931,1.184l-13.417,20.46a3.033,3.033,0,0,0,1.262,4.413,3.864,3.864,0,0,0,4.933-1.186l13.419-20.46A3.033,3.033,0,0,0,116.718,196.715Z" transform="translate(-85.158 -191.87)" fill="#fff"/>
        <path id="Caminho_16" data-name="Caminho 16" d="M157.039,248.923l13.419-20.462a3.034,3.034,0,0,0-1.264-4.41,3.861,3.861,0,0,0-4.933,1.181L150.844,245.7a3.027,3.027,0,0,0,1.262,4.408A3.861,3.861,0,0,0,157.039,248.923Z" transform="translate(-121.344 -210.72)" fill="#fff"/>
        <path id="Caminho_17" data-name="Caminho 17" d="M149.238,207.376l13.417-20.461a3.032,3.032,0,0,0-1.266-4.412,3.856,3.856,0,0,0-4.929,1.185l-13.419,20.459a3.035,3.035,0,0,0,1.264,4.413A3.869,3.869,0,0,0,149.238,207.376Z" transform="translate(-115.965 -182.071)" fill="#fff"/>
      </g>
    </g>
    <g id="Grupo_1158" data-name="Grupo 1158" transform="translate(1597.101 115.411)">
      <path id="Caminho_130" data-name="Caminho 130" d="M-350.948,44.815-367.41,5.394h16.532V44.8Z" transform="translate(-573.047 -0.005)" fill="#fff"/>
      <path id="Caminho_131" data-name="Caminho 131" d="M-968.6,44.77V5.389h16.426c.006.011.015.024.021.038s.018.032.014.042q-8.195,19.653-16.391,39.305Z" fill="#fff"/>
      <path id="Caminho_132" data-name="Caminho 132" d="M1570.574,165.809h4.7c.017.227.047.438.048.649q.005,2.992,0,5.983v.565c.235-.041.426-.073.617-.109a10.026,10.026,0,0,1,5.079.211,7.263,7.263,0,0,1,5.026,5.271,9.34,9.34,0,0,1-1.094,7.633,8.99,8.99,0,0,1-5.022,3.755,12.047,12.047,0,0,1-3.769.586,17.938,17.938,0,0,1-4.895-.626c-.732-.2-.732-.207-.732-.948q0-9.722,0-19.444c0-1,0-1.994,0-2.991C1570.535,166.177,1570.558,166.011,1570.574,165.809Zm4.764,20.424c.125.03.228.06.332.078a5.237,5.237,0,0,0,1.768,0,4.4,4.4,0,0,0,3.785-3.11,6.213,6.213,0,0,0,.041-3.729,3.6,3.6,0,0,0-1.9-2.312,4.514,4.514,0,0,0-2.085-.432,5.458,5.458,0,0,0-1.939.289Z" transform="translate(-2420.267 -152.91)" fill="#fff"/>
      <path id="Caminho_133" data-name="Caminho 133" d="M767.367,172.046v-6.8a3.21,3.21,0,0,1,1.182-.085c.4-.017.811,0,1.216,0h2.369v.613q0,9.632.005,19.264c0,.949.071,1.9.116,2.847.018.368.031.374-.318.52a16.671,16.671,0,0,1-4.778,1.225,14.057,14.057,0,0,1-4.144-.107,7.813,7.813,0,0,1-5.477-3.626,8.781,8.781,0,0,1-1.186-4.087,9.1,9.1,0,0,1,.978-4.932,8.709,8.709,0,0,1,5.518-4.371,11.078,11.078,0,0,1,4.068-.412c.108.009.218.01.326.008C767.269,172.1,767.3,172.078,767.367,172.046Zm-.014,4.162c-.1-.032-.166-.062-.24-.078a5.185,5.185,0,0,0-2.179.022,4.242,4.242,0,0,0-3.4,2.862,5.884,5.884,0,0,0,.152,4.2,3.657,3.657,0,0,0,2.449,2.2,5.639,5.639,0,0,0,2.17.212,2.457,2.457,0,0,0,1.048-.213Z" transform="translate(-1644.18 -152.282)" fill="#fff"/>
      <path id="Caminho_134" data-name="Caminho 134" d="M319.984,226.649a3.688,3.688,0,0,1-.484.071q-2.034.007-4.069,0c-.411,0-.466-.041-.6-.438q-.76-2.208-1.514-4.418c-.05-.145-.1-.289-.159-.446h-7.876l-1.315,4.05c-.1.3-.2.591-.289.889a.45.45,0,0,1-.473.366c-1.278,0-2.557,0-3.835,0-.342,0-.424-.137-.3-.494.328-.973.67-1.942,1.006-2.913q2.888-8.339,5.779-16.676a7.86,7.86,0,0,0,.327-1.88c.04-.423.054-.441.48-.442q2.5,0,5,0c.412,0,.415,0,.557.4q2.134,6.007,4.266,12.014,1.662,4.687,3.319,9.376C319.858,226.266,319.909,226.426,319.984,226.649Zm-13.426-9.567h5.316l-2.672-8.624Z" transform="translate(-1208.27 -189.611)" fill="#fff"/>
      <path id="Caminho_135" data-name="Caminho 135" d="M1159.4,330.151a10.351,10.351,0,0,1-3.261-.6,7.286,7.286,0,0,1-4.3-4.114,9.87,9.87,0,0,1,.158-8.546,7.742,7.742,0,0,1,6.494-4.415,9.118,9.118,0,0,1,4.01.414,7.3,7.3,0,0,1,4.527,4.247,10.1,10.1,0,0,1-.253,8.68,7.427,7.427,0,0,1-5.3,4.059C1160.794,330.023,1160.089,330.061,1159.4,330.151Zm-3.589-8.856c.021.267.032.641.081,1.011a5.4,5.4,0,0,0,.882,2.432,3.228,3.228,0,0,0,5.49-.314,5.937,5.937,0,0,0,.669-2.267,7.156,7.156,0,0,0-.5-3.706,3.183,3.183,0,0,0-2.931-2.042,3.091,3.091,0,0,0-3.046,1.842A6.682,6.682,0,0,0,1155.808,321.295Z" transform="translate(-2020.321 -292.649)" fill="#fff"/>
      <path id="Caminho_136" data-name="Caminho 136" d="M1951.959,322.585a3.531,3.531,0,0,0,2.249,3.082,6.094,6.094,0,0,0,2.187.443,10.523,10.523,0,0,0,4.442-.706c.1-.04.2-.067.347-.114a3.516,3.516,0,0,1,.044.38c0,1-.014,2,.011,2.992a.586.586,0,0,1-.429.624,10.225,10.225,0,0,1-3.343.818,13.462,13.462,0,0,1-4.506-.256,7.238,7.238,0,0,1-5.408-5.172,10.33,10.33,0,0,1,.462-7.524,7.527,7.527,0,0,1,6.524-4.619,8.319,8.319,0,0,1,3.193.281,6.475,6.475,0,0,1,4.422,4.394,9.524,9.524,0,0,1,.3,4.753c-.075.441-.131.5-.57.519-.855.044-1.712.1-2.568.1-2.261.014-4.522,0-6.783,0Zm.017-3.324c2.049-.036,4.066.059,6.084-.061a2.047,2.047,0,0,0,.03-.241,2.753,2.753,0,0,0-2.335-2.643,4.619,4.619,0,0,0-1.118,0A3.135,3.135,0,0,0,1951.976,319.261Z" transform="translate(-2779.165 -292.723)" fill="#fff"/>
      <path id="Caminho_137" data-name="Caminho 137" d="M-646.386,333.047l7.247-17.077L-628.589,341h-6.931l-3.154-7.956Z" transform="translate(-307.131 -296.042)" fill="#fff"/>
    </g>
  </g>
</svg>
