<svg xmlns="http://www.w3.org/2000/svg" width="74.711" height="94.03" viewBox="0 0 74.711 94.03">
  <g id="Grupo_1534" data-name="Grupo 1534" transform="translate(-619.862 -456.923)">
    <path id="Caminho_7507" data-name="Caminho 7507" d="M692.515,456.923H642.742A22.905,22.905,0,0,0,619.862,479.8v51.305c0,.023,0,.046,0,.07s0,.046,0,.069a2.064,2.064,0,0,0,.032.261v0a2.066,2.066,0,0,0,.071.256c.007.021.015.042.023.063a2.066,2.066,0,0,0,.1.233l.006.013a2.042,2.042,0,0,0,.142.226l.041.055a2.05,2.05,0,0,0,.179.207l17.787,17.786c.049.049.1.094.152.137.033.027.069.052.1.077.02.014.039.03.059.043.04.026.081.05.122.073.017.01.033.021.051.03.041.022.084.04.126.059.019.009.037.018.056.026.039.016.08.029.121.043.023.008.046.017.069.024s.076.019.114.029.054.015.081.02.076.012.113.017.057.01.086.013c.06.006.12.008.18.009h32.262a22.651,22.651,0,0,0,22.625-22.625h0V458.982A2.059,2.059,0,0,0,692.515,456.923Zm-38.884,68.755a18.348,18.348,0,0,1,1.094-4.117,18.541,18.541,0,0,1,16.3-11.72c.3-.015.61-.023.918-.023.084,0,.167.005.252.006a18.518,18.518,0,1,1-18.568,15.854Zm36.825-10.341a22.611,22.611,0,0,0-18.509-9.636c-.308,0-.613.011-.918.023H634.007a2.059,2.059,0,0,0,0,4.117h24.918a22.714,22.714,0,0,0-8.569,11.72H634.007a2.059,2.059,0,0,0,0,4.117h15.475a22.53,22.53,0,0,0,9.476,21.157H641.766V531.108a2.059,2.059,0,0,0-2.059-2.059H623.979V479.8a18.784,18.784,0,0,1,18.762-18.762h47.715Zm-52.807,28.587-5.379-5.379-5.379-5.379h10.758Z" transform="translate(0)" fill="#584ccc"/>
    <path id="Caminho_7508" data-name="Caminho 7508" d="M1010.6,749.954h24.511a2.059,2.059,0,0,0,0-4.117H1010.6a2.059,2.059,0,1,0,0,4.117Z" transform="translate(-365.639 -271.787)" fill="#584ccc"/>
    <path id="Caminho_7509" data-name="Caminho 7509" d="M823.737,1015.044a2.059,2.059,0,0,0,2.059,2.059h46.422a2.059,2.059,0,0,0,0-4.117H825.8A2.059,2.059,0,0,0,823.737,1015.044Z" transform="translate(-191.789 -523.098)" fill="#584ccc"/>
    <path id="Caminho_7510" data-name="Caminho 7510" d="M1292.339,1478.585a2.058,2.058,0,0,0,2.911,0l8.741-8.741,8.741,8.741a2.058,2.058,0,1,0,2.911-2.911l-8.741-8.741,2.649-2.649,3.88-3.88,2.213-2.213a2.058,2.058,0,1,0-2.911-2.911l-4.887,4.887-3.855,3.855-3.855-3.855-4.887-4.887a2.058,2.058,0,1,0-2.911,2.911l1.975,1.975,4.117,4.117,2.649,2.649-8.741,8.741A2.058,2.058,0,0,0,1292.339,1478.585Z" transform="translate(-632.044 -938.606)" fill="#584ccc"/>
  </g>
</svg>
