<svg xmlns="http://www.w3.org/2000/svg" width="70.253" height="105.978" viewBox="0 0 70.253 105.978">
  <g id="Grupo_1559" data-name="Grupo 1559" transform="translate(-3256.942 -155.842)">
    <path id="Caminho_7548" data-name="Caminho 7548" d="M3321.614,312.606h-59.091a5.586,5.586,0,0,1-5.58-5.581V227.3a5.587,5.587,0,0,1,5.58-5.58h11.867a1.706,1.706,0,0,1,1.707,1.706V229.4a2.17,2.17,0,0,0,2.168,2.168h27.608a2.171,2.171,0,0,0,2.169-2.168V223.43a1.706,1.706,0,0,1,1.706-1.706h11.866a5.587,5.587,0,0,1,5.581,5.58v79.721A5.587,5.587,0,0,1,3321.614,312.606Zm-59.091-87.469a2.17,2.17,0,0,0-2.168,2.168v79.721a2.17,2.17,0,0,0,2.168,2.169h59.091a2.171,2.171,0,0,0,2.168-2.169V227.3a2.17,2.17,0,0,0-2.168-2.168h-10.16V229.4a5.587,5.587,0,0,1-5.581,5.581h-27.608a5.586,5.586,0,0,1-5.581-5.581v-4.267Z" transform="translate(0 -50.786)" fill="#584ccc"/>
    <path id="Caminho_7549" data-name="Caminho 7549" d="M3342.252,326.56h-52.661a1.706,1.706,0,0,1-1.706-1.706V253.492a1.706,1.706,0,0,1,1.706-1.706h8.651a1.706,1.706,0,1,1,0,3.412H3291.3v67.949h49.248V255.2H3333.6a1.706,1.706,0,1,1,0-3.412h8.651a1.707,1.707,0,0,1,1.707,1.706v71.361A1.706,1.706,0,0,1,3342.252,326.56Z" transform="translate(-23.853 -73.96)" fill="#584ccc"/>
    <path id="Caminho_7550" data-name="Caminho 7550" d="M3358.831,184.2h-27.608a5.587,5.587,0,0,1-5.581-5.581v-8.88a5.587,5.587,0,0,1,5.581-5.581h3.928a10.022,10.022,0,0,1,19.751,0h3.928a5.587,5.587,0,0,1,5.581,5.581v8.88A5.587,5.587,0,0,1,3358.831,184.2Zm-27.608-16.629a2.171,2.171,0,0,0-2.168,2.169v8.88a2.171,2.171,0,0,0,2.168,2.168h27.608a2.171,2.171,0,0,0,2.169-2.168v-8.88a2.172,2.172,0,0,0-2.169-2.169h-5.49a1.706,1.706,0,0,1-1.706-1.706,6.608,6.608,0,1,0-13.217,0,1.706,1.706,0,0,1-1.707,1.706Z" transform="translate(-52.959)" fill="#584ccc"/>
    <path id="Caminho_7551" data-name="Caminho 7551" d="M3383.508,229.128h-17.76a1.706,1.706,0,1,1,0-3.412h17.76a1.706,1.706,0,0,1,0,3.412Z" transform="translate(-82.559 -53.863)" fill="#584ccc"/>
    <path id="Caminho_7552" data-name="Caminho 7552" d="M3328.586,322.534a11.572,11.572,0,1,1,11.572-11.572A11.584,11.584,0,0,1,3328.586,322.534Zm0-19.73a8.159,8.159,0,1,0,8.16,8.159A8.168,8.168,0,0,0,3328.586,302.8Z" transform="translate(-46.308 -110.657)" fill="#584ccc"/>
    <path id="Caminho_7553" data-name="Caminho 7553" d="M3351.257,345.858h-8.9a1.706,1.706,0,1,1,0-3.412h8.9a1.706,1.706,0,0,1,0,3.412Z" transform="translate(-64.53 -143.847)" fill="#584ccc"/>
    <path id="Caminho_7554" data-name="Caminho 7554" d="M3361.773,335.341a1.706,1.706,0,0,1-1.706-1.706v-8.9a1.706,1.706,0,1,1,3.412,0v8.9A1.706,1.706,0,0,1,3361.773,335.341Z" transform="translate(-79.496 -128.88)" fill="#584ccc"/>
    <path id="Caminho_7555" data-name="Caminho 7555" d="M3446.5,345.858h-12.7a1.706,1.706,0,1,1,0-3.412h12.7a1.706,1.706,0,0,1,0,3.412Z" transform="translate(-135.02 -143.847)" fill="#584ccc"/>
    <path id="Caminho_7556" data-name="Caminho 7556" d="M3438.537,378.27h-15.069a1.706,1.706,0,0,1,0-3.413h15.069a1.706,1.706,0,1,1,0,3.413Z" transform="translate(-127.054 -168.831)" fill="#584ccc"/>
    <path id="Caminho_7557" data-name="Caminho 7557" d="M3357.791,421.957h-39.07a1.706,1.706,0,1,1,0-3.412h39.07a1.706,1.706,0,0,1,0,3.412Z" transform="translate(-46.308 -202.509)" fill="#584ccc"/>
    <path id="Caminho_7558" data-name="Caminho 7558" d="M3357.791,454.37h-39.07a1.706,1.706,0,1,1,0-3.413h39.07a1.706,1.706,0,0,1,0,3.413Z" transform="translate(-46.308 -227.494)" fill="#584ccc"/>
    <path id="Caminho_7559" data-name="Caminho 7559" d="M3357.791,486.781h-39.07a1.706,1.706,0,1,1,0-3.412h39.07a1.706,1.706,0,0,1,0,3.412Z" transform="translate(-46.308 -252.479)" fill="#584ccc"/>
    <path id="Caminho_7560" data-name="Caminho 7560" d="M3357.791,519.193h-39.07a1.707,1.707,0,0,1,0-3.413h39.07a1.707,1.707,0,0,1,0,3.413Z" transform="translate(-46.308 -277.464)" fill="#584ccc"/>
  </g>
</svg>
