<svg xmlns="http://www.w3.org/2000/svg" width="80" height="80" viewBox="0 0 80 80">
  <g id="Grupo_1503" data-name="Grupo 1503" transform="translate(-834 -4426)">
    <rect id="Retângulo_37" data-name="Retângulo 37" width="80" height="80" transform="translate(834 4426)" fill="#2383c6" opacity="0"/>
    <g id="Grupo_1085" data-name="Grupo 1085" transform="translate(849.612 4442.608)">
      <g id="Grupo_1082" data-name="Grupo 1082" transform="translate(22.105 38.561)">
        <g id="Grupo_1081" data-name="Grupo 1081">
          <path id="Caminho_105" data-name="Caminho 105" d="M328.477,433.455H312.029a4.117,4.117,0,0,0-4.112,4.112v2.741a1.371,1.371,0,0,0,1.371,1.371h21.93a1.372,1.372,0,0,0,1.371-1.371v-2.741A4.117,4.117,0,0,0,328.477,433.455Zm1.371,5.483H310.658v-1.371a1.372,1.372,0,0,1,1.371-1.371h16.448a1.372,1.372,0,0,1,1.371,1.371v1.371Z" transform="translate(-307.917 -433.455)" fill="#584ccc"/>
        </g>
      </g>
      <g id="Grupo_1084" data-name="Grupo 1084">
        <g id="Grupo_1083" data-name="Grupo 1083">
          <path id="Caminho_106" data-name="Caminho 106" d="M334.629,426.292l-1.144-.754-1.9-3.281,1.188-.685a4.112,4.112,0,0,0-4.112-7.122l-1.188.685-1.894-3.28-.082-1.368a4.112,4.112,0,0,0-6.161-3.315l-8.935,5.158a4.113,4.113,0,0,0-.21,6.993l1.144.756,1.9,3.28-12.865,7.427-4.549.931a4.109,4.109,0,0,0-2.736,6.085l1.678,2.908a4.111,4.111,0,0,0,6.638.672l3.08-3.474,12.865-7.426,1.894,3.28.082,1.368a4.112,4.112,0,0,0,6.161,3.315l8.935-5.158A4.112,4.112,0,0,0,334.629,426.292Zm-4.592-9.468a1.37,1.37,0,0,1,1.371,2.373l-1.188.685-1.371-2.373Zm-17.622.678-.707-.467a1.371,1.371,0,0,1,.069-2.332l8.935-5.158a1.371,1.371,0,0,1,2.055,1.1l.05.845C322.36,411.76,312.871,417.238,312.415,417.5Zm-13.063,22.06a1.369,1.369,0,0,1-2.213-.224l-1.68-2.908a1.37,1.37,0,0,1,.912-2.029l3.8-.777,1.753,3.037Zm4.754-4.6-1.371-2.373,2.375-1.371,1.371,2.373Zm4.748-2.741-1.371-2.374,7.122-4.112,1.371,2.375Zm5.383-12.6,9.5-5.483L330.587,426l-9.5,5.483C320.286,430.086,315.046,421.011,314.238,419.614Zm18.81,11.3-8.935,5.158a1.37,1.37,0,0,1-2.053-1.1l-.052-.845,10.4-6.007.707.467A1.371,1.371,0,0,1,333.048,430.911Z" transform="translate(-292.531 -406.616)" fill="#584ccc"/>
        </g>
      </g>
    </g>
  </g>
</svg>
