<svg xmlns="http://www.w3.org/2000/svg" width="101.459" height="106.751" viewBox="0 0 101.459 106.751">
  <g id="Grupo_1551" data-name="Grupo 1551" transform="translate(-1965.684 -752.041)">
    <path id="Caminho_7532" data-name="Caminho 7532" d="M2075.578,948.37h-79.726a5.7,5.7,0,0,1-5.7-5.7v-56.34a5.7,5.7,0,0,1,5.7-5.7h14.375a1.676,1.676,0,0,1,0,3.351h-14.375a2.348,2.348,0,0,0-2.346,2.345v56.34a2.348,2.348,0,0,0,2.346,2.346h79.726a2.348,2.348,0,0,0,2.346-2.346v-56.34a2.348,2.348,0,0,0-2.346-2.345h-14.622a1.676,1.676,0,0,1,0-3.351h14.622a5.7,5.7,0,0,1,5.7,5.7v56.34A5.7,5.7,0,0,1,2075.578,948.37Z" transform="translate(-18.966 -99.666)" fill="#584ccc"/>
    <path id="Caminho_7533" data-name="Caminho 7533" d="M2099.789,969.372h-67.638a2.961,2.961,0,0,1-2.957-2.958V920.7a2.961,2.961,0,0,1,2.957-2.958h5.641a1.675,1.675,0,1,1,0,3.351h-5.248v44.927H2099.4V921.095h-5.09a1.675,1.675,0,1,1,0-3.351h5.482a2.962,2.962,0,0,1,2.958,2.958v45.713A2.962,2.962,0,0,1,2099.789,969.372Z" transform="translate(-49.222 -128.424)" fill="#584ccc"/>
    <path id="Caminho_7534" data-name="Caminho 7534" d="M2091.252,830.481a20.031,20.031,0,0,1-6.158-.952,1.675,1.675,0,0,1-.526-2.857,7.769,7.769,0,0,0,1.519-1.952,15.96,15.96,0,0,0,2.174-8.194v-4.57c.327-7.521,2.958-10.877,5.859-13.929a1.675,1.675,0,1,1,2.428,2.308c-2.628,2.766-4.662,5.383-4.937,11.693v4.5a19.3,19.3,0,0,1-2.648,9.912q-.154.258-.31.5c2.92.447,7.877.455,11.627-3.414a1.675,1.675,0,1,1,2.405,2.332A15.479,15.479,0,0,1,2091.252,830.481Z" transform="translate(-91.68 -35.237)" fill="#584ccc"/>
    <path id="Caminho_7535" data-name="Caminho 7535" d="M2241.325,1059.187a1.675,1.675,0,0,1-1.675-1.675V1049.5a1.675,1.675,0,0,1,3.351,0v8.016A1.675,1.675,0,0,1,2241.325,1059.187Z" transform="translate(-212.33 -229.236)" fill="#584ccc"/>
    <path id="Caminho_7536" data-name="Caminho 7536" d="M2129.478,1059.187a1.675,1.675,0,0,1-1.675-1.675V1049.5a1.675,1.675,0,0,1,3.351,0v8.016A1.675,1.675,0,0,1,2129.478,1059.187Z" transform="translate(-125.646 -229.236)" fill="#584ccc"/>
    <path id="Caminho_7537" data-name="Caminho 7537" d="M2153.444,865.569a10.664,10.664,0,0,1-9.528-5.754c-.3-.571-.6-1.188-.893-1.855a1.7,1.7,0,0,1-.138-.441,27.227,27.227,0,0,1-.448-6.843,1.675,1.675,0,0,1,1.453-1.495,9.2,9.2,0,0,0,5.9-4.13,1.658,1.658,0,0,1,1.519-.756,1.676,1.676,0,0,1,1.4.957s1.806,2.957,9.864,2.681a1.645,1.645,0,0,1,1.727,1.586,46.17,46.17,0,0,1-.418,7.958,6.821,6.821,0,0,1-.217.789,10.546,10.546,0,0,1-9.27,7.264Q2153.917,865.569,2153.444,865.569Zm-7.289-8.81q.354.8.721,1.485a7.392,7.392,0,0,0,7.241,3.946,7.258,7.258,0,0,0,6.369-4.986c.042-.128.072-.227.091-.291a45.88,45.88,0,0,0,.4-5.62c-5.217-.1-8.117-1.495-9.672-2.732a12.793,12.793,0,0,1-5.586,3.606A29.783,29.783,0,0,0,2146.156,856.759Z" transform="translate(-136.934 -71.495)" fill="#584ccc"/>
    <path id="Caminho_7538" data-name="Caminho 7538" d="M2123.906,959.105h-50.3a1.675,1.675,0,0,1-1.675-1.675V940.244a12.517,12.517,0,0,1,10.986-12.412l5.052-.618c1.663-.2,3.725-1.476,4.025-2.978l.7-4.153a1.676,1.676,0,0,1,2.479-1.179,7.625,7.625,0,0,0,7.245.109,1.676,1.676,0,0,1,2.431,1.207l.682,4.067c.292,1.451,2.354,2.724,4.016,2.927l5.052.618a12.517,12.517,0,0,1,10.987,12.412V957.43A1.675,1.675,0,0,1,2123.906,959.105Zm-48.63-3.351h46.954V940.244a9.164,9.164,0,0,0-8.043-9.086l-5.052-.618c-2.868-.351-6.263-2.449-6.9-5.646l-.35-2.083a11.1,11.1,0,0,1-6.242-.076l-.356,2.109c-.648,3.248-4.044,5.346-6.913,5.7l-5.052.618a9.164,9.164,0,0,0-8.043,9.086Z" transform="translate(-82.34 -129.154)" fill="#584ccc"/>
    <path id="Caminho_7539" data-name="Caminho 7539" d="M2124.682,768.858a2.642,2.642,0,0,1-2.545-1.919l-2.29-7.984a3.609,3.609,0,0,1,1.986-4.311,37.2,37.2,0,0,1,27.342,0,3.608,3.608,0,0,1,1.986,4.31l-2.29,7.984a2.644,2.644,0,0,1-3.4,1.777c-3.706-1.276-9.927-1.387-9.989-1.388-.011,0-6.232.112-9.938,1.388A2.65,2.65,0,0,1,2124.682,768.858Zm10.8-4.881a46.4,46.4,0,0,1,10.371,1.344l2.091-7.291a.276.276,0,0,0-.15-.336,33.921,33.921,0,0,0-24.573,0,.277.277,0,0,0-.15.336l2.091,7.291A46.37,46.37,0,0,1,2135.479,763.977Z" transform="translate(-119.368)" fill="#584ccc"/>
    <path id="Caminho_7540" data-name="Caminho 7540" d="M2224.01,830.477a15.575,15.575,0,0,1-10.968-4.156,1.675,1.675,0,1,1,2.3-2.433c3.645,3.45,8.4,3.442,11.244,3.027-.1-.155-.2-.314-.3-.479a19.306,19.306,0,0,1-2.648-9.912v-4.57c-.274-6.238-2.307-8.855-4.937-11.621a1.675,1.675,0,0,1,2.428-2.308c2.9,3.051,5.532,6.407,5.858,13.856v4.643a15.949,15.949,0,0,0,2.175,8.193,7.774,7.774,0,0,0,1.518,1.953,1.676,1.676,0,0,1-.526,2.857A20.013,20.013,0,0,1,2224.01,830.477Z" transform="translate(-191.302 -35.235)" fill="#584ccc"/>
    <path id="Caminho_7541" data-name="Caminho 7541" d="M2185.4,777.119a1.675,1.675,0,0,1-1.676-1.675v-4.307a1.675,1.675,0,0,1,3.351,0v4.307A1.675,1.675,0,0,1,2185.4,777.119Z" transform="translate(-168.988 -13.502)" fill="#584ccc"/>
    <path id="Caminho_7542" data-name="Caminho 7542" d="M2180.137,782.384h-4.307a1.675,1.675,0,0,1,0-3.351h4.307a1.675,1.675,0,1,1,0,3.351Z" transform="translate(-161.57 -20.92)" fill="#584ccc"/>
    <path id="Caminho_7543" data-name="Caminho 7543" d="M2115.22,996.331h-.373a1.675,1.675,0,1,1,0-3.351h.373l.049-3.119a3.119,3.119,0,0,0-6.238,0v3.072l.421.047a1.675,1.675,0,1,1,0,3.351h-.374a3.4,3.4,0,0,1-3.4-3.4v-3.072a6.469,6.469,0,0,1,12.939,0v3.072A3.4,3.4,0,0,1,2115.22,996.331Z" transform="translate(-108.5 -179.303)" fill="#584ccc"/>
    <path id="Caminho_7544" data-name="Caminho 7544" d="M2128.662,966.769a1.675,1.675,0,0,1-1.675-1.675v-5.8a1.675,1.675,0,0,1,3.351,0v5.8A1.675,1.675,0,0,1,2128.662,966.769Z" transform="translate(-125.014 -159.329)" fill="#584ccc"/>
    <path id="Caminho_7545" data-name="Caminho 7545" d="M2241.325,967.164a1.675,1.675,0,0,1-1.675-1.675V959.3a1.675,1.675,0,0,1,3.351,0v6.194A1.675,1.675,0,0,1,2241.325,967.164Z" transform="translate(-212.33 -159.329)" fill="#584ccc"/>
    <path id="Caminho_7546" data-name="Caminho 7546" d="M2229.56,995.329a5.09,5.09,0,1,1,5.09-5.09A5.1,5.1,0,0,1,2229.56,995.329Zm0-6.83a1.74,1.74,0,1,0,1.74,1.74A1.741,1.741,0,0,0,2229.56,988.5Z" transform="translate(-200.565 -180.664)" fill="#584ccc"/>
    <path id="Caminho_7547" data-name="Caminho 7547" d="M2057.034,1180.246h-81.242a10.12,10.12,0,0,1-10.109-10.109,3.333,3.333,0,0,1,3.329-3.329h94.8a3.333,3.333,0,0,1,3.329,3.329A10.12,10.12,0,0,1,2057.034,1180.246Zm-88.021-10.087a6.794,6.794,0,0,0,6.779,6.737h81.242a6.766,6.766,0,0,0,6.758-6.737Z" transform="translate(0 -321.454)" fill="#584ccc"/>
  </g>
</svg>
