<svg xmlns="http://www.w3.org/2000/svg" width="105.333" height="92.786" viewBox="0 0 105.333 92.786">
  <g id="Grupo_1561" data-name="Grupo 1561" transform="translate(-4393.172 -202.338)">
    <path id="Caminho_7570" data-name="Caminho 7570" d="M4530.3,562.812h-75.07a1.663,1.663,0,0,1-1.584-2.161,19.649,19.649,0,0,1,18.808-13.783h40.624a19.649,19.649,0,0,1,18.807,13.783,1.663,1.663,0,0,1-1.584,2.161Zm-72.635-3.321h70.2a16.329,16.329,0,0,0-14.786-9.3h-40.624A16.332,16.332,0,0,0,4457.667,559.491Z" transform="translate(-46.928 -267.688)" fill="#584ccc"/>
    <path id="Caminho_7571" data-name="Caminho 7571" d="M4574.754,508.532h-39.275a1.662,1.662,0,0,1-1.574-2.191l4.025-11.958a1.661,1.661,0,0,1,1.574-1.131h31.224a1.659,1.659,0,0,1,1.574,1.131l4.027,11.958a1.66,1.66,0,0,1-1.574,2.191Zm-36.964-3.322h34.652l-2.908-8.636H4540.7Z" transform="translate(-109.278 -226.031)" fill="#584ccc"/>
    <path id="Caminho_7572" data-name="Caminho 7572" d="M4491.53,270.543h-91.382a6.984,6.984,0,0,1-6.976-6.975V209.314a6.984,6.984,0,0,1,6.976-6.976h91.382a6.984,6.984,0,0,1,6.975,6.976v54.254A6.983,6.983,0,0,1,4491.53,270.543Zm-91.382-64.883a3.658,3.658,0,0,0-3.654,3.654v54.254a3.658,3.658,0,0,0,3.654,3.654h91.382a3.658,3.658,0,0,0,3.654-3.654V209.314a3.658,3.658,0,0,0-3.654-3.654Z" fill="#584ccc"/>
    <path id="Caminho_7573" data-name="Caminho 7573" d="M4522.691,294.744h-81.2a1.661,1.661,0,0,1-1.661-1.661v-45.4a1.661,1.661,0,0,1,1.661-1.661h81.2a1.661,1.661,0,0,1,1.661,1.661v45.4A1.661,1.661,0,0,1,4522.691,294.744Zm-79.535-3.322h77.875V249.348h-77.875Z" transform="translate(-36.255 -33.944)" fill="#584ccc"/>
    <path id="Caminho_7574" data-name="Caminho 7574" d="M4504.231,348.42a6.145,6.145,0,1,1,6.145-6.145A6.153,6.153,0,0,1,4504.231,348.42Zm0-8.969a2.824,2.824,0,1,0,2.823,2.823A2.826,2.826,0,0,0,4504.231,339.452Z" transform="translate(-81.515 -103.952)" fill="#584ccc"/>
    <path id="Caminho_7575" data-name="Caminho 7575" d="M4582.054,319.969a1.688,1.688,0,0,1-1.519-.986l-7.826-17.614-8.032,15.1a1.6,1.6,0,0,1-1.511.879,1.661,1.661,0,0,1-1.461-.961l-5.167-11.128-4.032,6.64a1.661,1.661,0,0,1-1.419.8h-11.127a1.661,1.661,0,1,1,0-3.322h10.193l5.162-8.5a1.626,1.626,0,0,1,1.512-.8,1.661,1.661,0,0,1,1.415.959l5.071,10.924,8.066-15.158a1.661,1.661,0,0,1,2.984.106l7.855,17.68,3.457-6.24a1.663,1.663,0,0,1,1.454-.856h12.068a1.661,1.661,0,0,1,0,3.322h-11.089l-4.6,8.3A1.662,1.662,0,0,1,4582.054,319.969Z" transform="translate(-112.758 -72.711)" fill="#584ccc"/>
    <path id="Caminho_7576" data-name="Caminho 7576" d="M4498.95,606.784H4398.636a1.661,1.661,0,1,1,0-3.321H4498.95a1.661,1.661,0,1,1,0,3.321Z" transform="translate(-2.955 -311.661)" fill="#584ccc"/>
  </g>
</svg>
