<svg xmlns="http://www.w3.org/2000/svg" width="102.039" height="105.977" viewBox="0 0 102.039 105.977">
  <g id="Grupo_1560" data-name="Grupo 1560" transform="translate(-1359.779 -1984.765)">
    <path id="Caminho_7561" data-name="Caminho 7561" d="M1657.837,2322.715H1631.66a1.712,1.712,0,0,1,0-3.425H1656.1a17.755,17.755,0,0,0-31.664-10.13,51.612,51.612,0,0,0-4.626,7.3,1.713,1.713,0,1,1-3.078-1.5,54.283,54.283,0,0,1,5-7.9,21.18,21.18,0,0,1,37.81,13.114V2321A1.712,1.712,0,0,1,1657.837,2322.715Z" transform="translate(-197.731 -241.962)" fill="#584ccc"/>
    <path id="Caminho_7562" data-name="Caminho 7562" d="M1534.8,2373.02h-35a1.712,1.712,0,0,1-1.713-1.712v-.752a19.214,19.214,0,0,1,38.428,0v.752A1.712,1.712,0,0,1,1534.8,2373.02Zm-33.262-3.425h31.521a15.79,15.79,0,0,0-31.521,0Z" transform="translate(-106.504 -282.277)" fill="#584ccc"/>
    <path id="Caminho_7563" data-name="Caminho 7563" d="M1548.1,2273.092a10.016,10.016,0,1,1,10.016-10.016A10.027,10.027,0,0,1,1548.1,2273.092Zm0-16.606a6.591,6.591,0,1,0,6.591,6.591A6.6,6.6,0,0,0,1548.1,2256.486Z" transform="translate(-137.301 -206.597)" fill="#584ccc"/>
    <path id="Caminho_7564" data-name="Caminho 7564" d="M1674.74,2211.564a10.948,10.948,0,1,1,10.949-10.948A10.96,10.96,0,0,1,1674.74,2211.564Zm0-18.472a7.523,7.523,0,1,0,7.523,7.524A7.532,7.532,0,0,0,1674.74,2193.093Z" transform="translate(-234.101 -157.783)" fill="#584ccc"/>
    <path id="Caminho_7565" data-name="Caminho 7565" d="M1387.669,2322.715h-26.177a1.712,1.712,0,0,1-1.713-1.712v-.836a21.18,21.18,0,0,1,37.8-13.133,54.357,54.357,0,0,1,5.018,7.922,1.713,1.713,0,1,1-3.078,1.5,51.532,51.532,0,0,0-4.64-7.317,17.756,17.756,0,0,0-31.65,10.149h24.444a1.712,1.712,0,1,1,0,3.425Z" transform="translate(0 -241.962)" fill="#584ccc"/>
    <path id="Caminho_7566" data-name="Caminho 7566" d="M1415.218,2211.564a10.948,10.948,0,1,1,10.948-10.948A10.96,10.96,0,0,1,1415.218,2211.564Zm0-18.472a7.523,7.523,0,1,0,7.523,7.524A7.532,7.532,0,0,0,1415.218,2193.093Z" transform="translate(-34.26 -157.783)" fill="#584ccc"/>
    <path id="Caminho_7567" data-name="Caminho 7567" d="M1492.654,2037.914a26.574,26.574,0,1,1,26.575-26.575A26.6,26.6,0,0,1,1492.654,2037.914Zm0-49.724a23.15,23.15,0,1,0,23.15,23.149A23.176,23.176,0,0,0,1492.654,1988.19Z" transform="translate(-81.855)" fill="#584ccc"/>
    <path id="Caminho_7568" data-name="Caminho 7568" d="M1513.994,2052.882a20.2,20.2,0,1,1,20.2-20.2A20.225,20.225,0,0,1,1513.994,2052.882Zm0-36.979a16.777,16.777,0,1,0,16.777,16.776A16.8,16.8,0,0,0,1513.994,2015.9Z" transform="translate(-103.195 -21.34)" fill="#584ccc"/>
    <path id="Caminho_7569" data-name="Caminho 7569" d="M1544.541,2071.5h-7.992a1.713,1.713,0,0,1-1.712-1.713v-4.852h-4.852a1.713,1.713,0,0,1-1.712-1.713v-7.991a1.712,1.712,0,0,1,1.712-1.713h4.852v-4.852a1.712,1.712,0,0,1,1.712-1.712h7.992a1.712,1.712,0,0,1,1.713,1.712v4.852h4.852a1.712,1.712,0,0,1,1.712,1.713v7.991a1.713,1.713,0,0,1-1.712,1.713h-4.852v4.852A1.713,1.713,0,0,1,1544.541,2071.5Zm-6.279-3.425h4.567v-4.853a1.713,1.713,0,0,1,1.712-1.712h4.852v-4.567h-4.852a1.712,1.712,0,0,1-1.712-1.712v-4.852h-4.567v4.852a1.712,1.712,0,0,1-1.713,1.712H1531.7v4.567h4.851a1.713,1.713,0,0,1,1.713,1.712Z" transform="translate(-129.746 -47.891)" fill="#584ccc"/>
  </g>
</svg>
