<svg xmlns="http://www.w3.org/2000/svg" width="97" height="93.363" viewBox="0 0 97 93.363">
  <g id="Grupo_1562" data-name="Grupo 1562" transform="translate(-3197.187 -816.405)">
    <path id="Caminho_7577" data-name="Caminho 7577" d="M3283.618,1176.193a1.7,1.7,0,0,1-1.7-1.7V1163.05a1.7,1.7,0,1,1,3.39,0V1174.5A1.7,1.7,0,0,1,3283.618,1176.193Z" transform="translate(-65.446 -266.425)" fill="#584ccc"/>
    <path id="Caminho_7578" data-name="Caminho 7578" d="M3478.231,1176.193a1.7,1.7,0,0,1-1.7-1.7V1163.05a1.7,1.7,0,1,1,3.39,0V1174.5A1.7,1.7,0,0,1,3478.231,1176.193Z" transform="translate(-215.757 -266.425)" fill="#584ccc"/>
    <path id="Caminho_7579" data-name="Caminho 7579" d="M3321.594,964.608c-.137,0-.275,0-.414-.006-6.1.2-11.435-3.6-15.306-10.915a35.774,35.774,0,0,1-3.936-16.69V936.4a12.345,12.345,0,0,1,.134-1.778,1.7,1.7,0,0,1,1.678-1.453h34.839a1.7,1.7,0,0,1,1.66,1.357,12.282,12.282,0,0,1,.268,2.469,35.759,35.759,0,0,1-4,16.813C3332.739,960.883,3327.585,964.608,3321.594,964.608Zm-.414-3.4c4.978.146,9.082-2.891,12.346-9a32.365,32.365,0,0,0,3.6-15.216c0-.143,0-.287-.013-.435h-31.785V937a32.378,32.378,0,0,0,3.542,15.105C3312.144,958.287,3316.317,961.378,3321.181,961.213Z" transform="translate(-80.906 -90.185)" fill="#584ccc"/>
    <path id="Caminho_7580" data-name="Caminho 7580" d="M3337.4,867.3h-32.534a3.055,3.055,0,0,1-3.051-3.052V848.923a5.434,5.434,0,0,1,5.428-5.427h27.781a5.434,5.434,0,0,1,5.427,5.427v15.326A3.056,3.056,0,0,1,3337.4,867.3Zm-32.2-3.391h31.856V848.923a2.04,2.04,0,0,0-2.037-2.037H3307.24a2.04,2.04,0,0,0-2.038,2.037Z" transform="translate(-80.808 -20.924)" fill="#584ccc"/>
    <path id="Caminho_7581" data-name="Caminho 7581" d="M3455.189,946.922a5.607,5.607,0,0,1-1.279-.149,1.694,1.694,0,0,1-1.265-2.025,35.156,35.156,0,0,0,.849-7.751,9.009,9.009,0,0,0-.195-1.77,1.7,1.7,0,0,1,1.56-2.025,1.532,1.532,0,0,1,.33-.031c3.4,0,6.162,3.085,6.162,6.876S3458.587,946.922,3455.189,946.922Zm1.694-9.632a39.14,39.14,0,0,1-.485,5.892,3.649,3.649,0,0,0,1.563-3.135A3.852,3.852,0,0,0,3456.883,937.29Z" transform="translate(-197.272 -90.185)" fill="#584ccc"/>
    <path id="Caminho_7582" data-name="Caminho 7582" d="M3288.479,946.922c-3.4,0-6.161-3.085-6.161-6.875s2.764-6.876,6.161-6.876a3.619,3.619,0,0,1,.406.038,1.612,1.612,0,0,1,1.2.654,1.666,1.666,0,0,1,.281,1.364,9.026,9.026,0,0,0-.2,1.77,35.055,35.055,0,0,0,.85,7.75,1.7,1.7,0,0,1-1.267,2.027A5.642,5.642,0,0,1,3288.479,946.922Zm-1.694-9.631a3.856,3.856,0,0,0-1.077,2.756,3.649,3.649,0,0,0,1.563,3.136A39.125,39.125,0,0,1,3286.786,937.291Z" transform="translate(-65.752 -90.185)" fill="#584ccc"/>
    <path id="Caminho_7583" data-name="Caminho 7583" d="M3293.34,1089.489h-73.2a1.7,1.7,0,0,1-1.695-1.7V1069.75a11.2,11.2,0,0,1,11.188-11.188h15.449a3.486,3.486,0,0,0,3.482-3.482v-4.288a1.695,1.695,0,0,1,2.544-1.468,10.225,10.225,0,0,0,5.587,1.425,10.411,10.411,0,0,0,5.635-1.4,1.695,1.695,0,0,1,2.538,1.471v4.257a3.486,3.486,0,0,0,3.481,3.482h15.5a11.2,11.2,0,0,1,11.188,11.188v18.044A1.7,1.7,0,0,1,3293.34,1089.489Zm-71.51-3.39h69.815V1069.75a7.807,7.807,0,0,0-7.8-7.8h-15.5a6.88,6.88,0,0,1-6.872-6.872v-1.643a13.58,13.58,0,0,1-4.781.7,13.219,13.219,0,0,1-4.741-.719v1.66a6.88,6.88,0,0,1-6.873,6.872h-15.449a7.807,7.807,0,0,0-7.8,7.8Z" transform="translate(-16.415 -179.721)" fill="#584ccc"/>
    <path id="Caminho_7584" data-name="Caminho 7584" d="M3380.923,880.129a1.7,1.7,0,0,1-1.7-1.7v-9.693a1.7,1.7,0,0,1,3.39,0v9.693A1.7,1.7,0,0,1,3380.923,880.129Z" transform="translate(-140.601 -39.113)" fill="#584ccc"/>
    <path id="Caminho_7585" data-name="Caminho 7585" d="M3369.326,891.725h-9.693a1.7,1.7,0,1,1,0-3.39h9.693a1.7,1.7,0,1,1,0,3.39Z" transform="translate(-124.157 -55.556)" fill="#584ccc"/>
    <path id="Caminho_7586" data-name="Caminho 7586" d="M3491.142,843.623a1.694,1.694,0,0,1-1.584-2.3l2.178-5.714a10.289,10.289,0,0,1-3.222-7.3c0-6.562,6.883-11.9,15.342-11.9s15.341,5.339,15.341,11.9-6.882,11.9-15.341,11.9a19.762,19.762,0,0,1-3.163-.253l-8.925,3.547A1.689,1.689,0,0,1,3491.142,843.623Zm12.714-23.828c-6.59,0-11.951,3.818-11.951,8.511a7.275,7.275,0,0,0,2.91,5.523,1.7,1.7,0,0,1,.5,1.909l-1.216,3.189,5.786-2.3a1.674,1.674,0,0,1,.941-.09,16.3,16.3,0,0,0,3.028.281c6.59,0,11.95-3.819,11.95-8.513S3510.445,819.8,3503.855,819.8Z" transform="translate(-225.009)" fill="#584ccc"/>
    <path id="Caminho_7587" data-name="Caminho 7587" d="M3292.492,1215.035h-93.61a1.7,1.7,0,1,1,0-3.39h93.61a1.7,1.7,0,0,1,0,3.39Z" transform="translate(0 -305.267)" fill="#584ccc"/>
  </g>
</svg>
