<svg xmlns="http://www.w3.org/2000/svg" width="73.312" height="88.854" viewBox="0 0 73.312 88.854">
  <g id="Grupo_1543" data-name="Grupo 1543" transform="translate(-717.932 -649.656)">
    <g id="Grupo_1535" data-name="Grupo 1535" transform="translate(741.11 649.656)">
      <path id="Caminho_7511" data-name="Caminho 7511" d="M947.1,738.51a2.243,2.243,0,0,1-1.475-.552l-23.268-20.233a2.248,2.248,0,0,1,1.475-3.945h13.939a2.248,2.248,0,1,1,0,4.5h-7.927l17.227,14.98,16.562-14.98h-9.136a2.248,2.248,0,0,1-2.248-2.248V654.152H936.814a2.248,2.248,0,0,1,0-4.5h17.68a2.248,2.248,0,0,1,2.248,2.248V713.78h12.724a2.248,2.248,0,0,1,1.508,3.915l-22.369,20.233A2.243,2.243,0,0,1,947.1,738.51Z" transform="translate(-921.582 -649.656)" fill="#584ccc"/>
    </g>
    <g id="Grupo_1542" data-name="Grupo 1542" transform="translate(717.932 659.015)">
      <g id="Grupo_1536" data-name="Grupo 1536" transform="translate(17.077 4.856)">
        <path id="Caminho_7512" data-name="Caminho 7512" d="M882.282,780.394a.913.913,0,0,0-.479-.76,4.685,4.685,0,0,0-1.314-.555,16.909,16.909,0,0,0-1.962-.41q-1.128-.175-2.4-.335-.9-.1-1.607-.195t-1.205-.2c-.149-.032-.281-.066-.4-.1.074-.023.154-.045.242-.065a11.874,11.874,0,0,1,2.5-.2q1.576,0,2.8.1t2.117.21l.773-.99v-.943q-.68-.09-1.854-.185t-2.658-.135v-1.08h-3.214v1.12a13.693,13.693,0,0,0-3.894.625q-1.268.485-1.267,1.175a3.985,3.985,0,0,0,0,.959.84.84,0,0,0,.462.693,4.564,4.564,0,0,0,1.221.495,14.87,14.87,0,0,0,1.7.345q.942.14,1.9.25,1.02.12,1.87.23t1.468.24a4.99,4.99,0,0,1,.768.216q-.129.045-.289.085a14.139,14.139,0,0,1-2.951.2q-1.793,0-3.2-.13t-2.4-.29l-1.051.95v.943q.68.12,2.055.265t3.6.195v1.22h3.214V783.1a14.966,14.966,0,0,0,4.172-.62q1.267-.48,1.267-1.14c0-.006,0-.013,0-.019A5.192,5.192,0,0,0,882.282,780.394Z" transform="translate(-867.973 -774.556)" fill="#584ccc"/>
      </g>
      <g id="Grupo_1541" data-name="Grupo 1541" transform="translate(0 0)">
        <g id="Grupo_1537" data-name="Grupo 1537">
          <path id="Caminho_7513" data-name="Caminho 7513" d="M721.267,747a16.314,16.314,0,0,0,2.449,1.349c.679.308,1.433.605,2.272.891q.217.074.44.146a39.981,39.981,0,0,0,5.044,1.252,64.38,64.38,0,0,0,22.023,0,39.984,39.984,0,0,0,5.044-1.252q.223-.072.44-.146c.838-.286,1.593-.584,2.272-.891A16.313,16.313,0,0,0,763.7,747a7.18,7.18,0,0,0,3.149-3.912,4.983,4.983,0,0,0,.185-1.349c0-2.17-1.4-5.233-8.055-7.5a59.158,59.158,0,0,0-32.99,0c-6.657,2.268-8.055,5.331-8.055,7.5a4.984,4.984,0,0,0,.185,1.349A7.18,7.18,0,0,0,721.267,747Zm6.171-8.506a54.812,54.812,0,0,1,30.089,0c4.089,1.394,5.009,2.846,5.009,3.245,0,.21-.256.715-1.1,1.349a12.381,12.381,0,0,1-2.9,1.526q-.469.186-1.011.37a33.467,33.467,0,0,1-4.033,1.075,51.99,51.99,0,0,1-7.625.94c-1.109.06-2.24.09-3.387.09s-2.278-.03-3.387-.09a51.988,51.988,0,0,1-7.625-.94,33.467,33.467,0,0,1-4.033-1.075q-.542-.185-1.011-.37a12.383,12.383,0,0,1-2.9-1.526c-.843-.634-1.1-1.138-1.1-1.349C722.428,741.338,723.348,739.885,727.437,738.491Z" transform="translate(-717.932 -731.89)" fill="#584ccc"/>
        </g>
        <g id="Grupo_1538" data-name="Grupo 1538" transform="translate(0 16.456)">
          <path id="Caminho_7514" data-name="Caminho 7514" d="M763.7,877.829a16.044,16.044,0,0,1-2.221,1.245c.811.62,1.059,1.111,1.059,1.318s-.256.715-1.1,1.349a12.382,12.382,0,0,1-2.9,1.526q-.469.186-1.011.37a33.455,33.455,0,0,1-4.033,1.076,51.982,51.982,0,0,1-7.625.94c-1.109-.06-2.24-.09-3.387-.09s-2.278.03-3.387.09a51.98,51.98,0,0,1-7.625-.94,33.455,33.455,0,0,1-4.033-1.076q-.542-.185-1.011-.37a12.383,12.383,0,0,1-2.9-1.526c-.843-.634-1.1-1.138-1.1-1.349s.248-.7,1.059-1.318a16.045,16.045,0,0,1-2.221-1.245,10.074,10.074,0,0,1-1.621-1.349,5.559,5.559,0,0,0-1.714,3.912,4.984,4.984,0,0,0,.185,1.349,7.18,7.18,0,0,0,3.149,3.912A16.292,16.292,0,0,0,723.715,887c.679.307,1.433.605,2.272.891q.217.074.44.146a39.981,39.981,0,0,0,5.044,1.252,64.376,64.376,0,0,0,22.023,0,39.984,39.984,0,0,0,5.044-1.252q.223-.072.44-.146c.838-.286,1.593-.584,2.272-.891a16.292,16.292,0,0,0,2.449-1.349,7.18,7.18,0,0,0,3.149-3.912,4.984,4.984,0,0,0,.185-1.349,5.559,5.559,0,0,0-1.714-3.912A10.073,10.073,0,0,1,763.7,877.829Z" transform="translate(-717.932 -876.48)" fill="#584ccc"/>
        </g>
        <g id="Grupo_1539" data-name="Grupo 1539" transform="translate(0 26.978)">
          <path id="Caminho_7515" data-name="Caminho 7515" d="M763.7,970.271a16.044,16.044,0,0,1-2.221,1.245c.811.62,1.059,1.111,1.059,1.318s-.256.715-1.1,1.349a12.377,12.377,0,0,1-2.9,1.526q-.469.186-1.011.371a44.494,44.494,0,0,1-11.658,2.015c-1.109.06-2.24.09-3.387.09s-2.278-.03-3.387-.09a44.493,44.493,0,0,1-11.658-2.015q-.542-.185-1.011-.371a12.379,12.379,0,0,1-2.9-1.526c-.843-.634-1.1-1.138-1.1-1.349s.248-.7,1.059-1.318a16.045,16.045,0,0,1-2.221-1.245,10.077,10.077,0,0,1-1.621-1.349,5.559,5.559,0,0,0-1.714,3.912,4.985,4.985,0,0,0,.185,1.349,7.18,7.18,0,0,0,3.149,3.912,19.666,19.666,0,0,0,4.72,2.24q.217.074.44.146a59.673,59.673,0,0,0,32.111,0q.223-.071.44-.146a19.665,19.665,0,0,0,4.72-2.24,7.18,7.18,0,0,0,3.149-3.912,4.984,4.984,0,0,0,.185-1.349,5.559,5.559,0,0,0-1.714-3.912A10.077,10.077,0,0,1,763.7,970.271Z" transform="translate(-717.932 -968.922)" fill="#584ccc"/>
        </g>
        <g id="Grupo_1540" data-name="Grupo 1540" transform="translate(0 37.499)">
          <path id="Caminho_7516" data-name="Caminho 7516" d="M761.476,1063.958c.811.62,1.059,1.11,1.059,1.318,0,.4-.92,1.851-5.009,3.245a54.812,54.812,0,0,1-30.089,0c-4.089-1.394-5.009-2.846-5.009-3.245,0-.208.248-.7,1.059-1.318a12.661,12.661,0,0,1-3.842-2.594,5.56,5.56,0,0,0-1.714,3.912c0,2.17,1.4,5.233,8.055,7.5a59.158,59.158,0,0,0,32.99,0c6.657-2.268,8.055-5.331,8.055-7.5a5.559,5.559,0,0,0-1.714-3.912A12.661,12.661,0,0,1,761.476,1063.958Z" transform="translate(-717.932 -1061.364)" fill="#584ccc"/>
        </g>
      </g>
    </g>
  </g>
</svg>
