<svg xmlns="http://www.w3.org/2000/svg" width="94.208" height="88.03" viewBox="0 0 94.208 88.03">
  <g id="Grupo_1550" data-name="Grupo 1550" transform="translate(-734.123 -174.379)">
    <path id="Caminho_7517" data-name="Caminho 7517" d="M775.765,281.344a41.142,41.142,0,1,1,9.962-81.069,1.461,1.461,0,0,1-.706,2.836A38.225,38.225,0,1,0,813.985,240.2a1.461,1.461,0,0,1,2.923,0A41.189,41.189,0,0,1,775.765,281.344Z" transform="translate(0 -19.435)" fill="#584ccc" stroke="#584ccc" stroke-width="1"/>
    <path id="Caminho_7518" data-name="Caminho 7518" d="M938.285,277.879a1.461,1.461,0,0,1-1.461-1.461v-7.312a1.461,1.461,0,0,1,2.923,0v7.312A1.461,1.461,0,0,1,938.285,277.879Z" transform="translate(-162.52 -74.561)" fill="#584ccc" stroke="#584ccc" stroke-width="1"/>
    <path id="Caminho_7519" data-name="Caminho 7519" d="M1041.955,404.184h-7.312a1.461,1.461,0,0,1,0-2.923h7.312a1.461,1.461,0,0,1,0,2.923Z" transform="translate(-239.968 -181.956)" fill="#584ccc" stroke="#584ccc" stroke-width="1"/>
    <path id="Caminho_7520" data-name="Caminho 7520" d="M1018.749,484.646a1.458,1.458,0,0,1-1.033-.428l-3.423-3.422a1.461,1.461,0,0,1,2.067-2.067l3.423,3.422a1.461,1.461,0,0,1-1.034,2.494Z" transform="translate(-224.442 -243.878)" fill="#584ccc" stroke="#584ccc" stroke-width="1"/>
    <path id="Caminho_7521" data-name="Caminho 7521" d="M938.285,507.853a1.461,1.461,0,0,1-1.461-1.461V499.08a1.461,1.461,0,1,1,2.923,0v7.311A1.461,1.461,0,0,1,938.285,507.853Z" transform="translate(-162.52 -259.404)" fill="#584ccc" stroke="#584ccc" stroke-width="1"/>
    <path id="Caminho_7522" data-name="Caminho 7522" d="M843.807,484.646a1.461,1.461,0,0,1-1.033-2.494l3.422-3.422a1.461,1.461,0,1,1,2.066,2.067l-3.422,3.422A1.457,1.457,0,0,1,843.807,484.646Z" transform="translate(-86.582 -243.878)" fill="#584ccc" stroke="#584ccc" stroke-width="1"/>
    <path id="Caminho_7523" data-name="Caminho 7523" d="M811.984,404.184h-7.311a1.461,1.461,0,0,1,0-2.923h7.311a1.461,1.461,0,1,1,0,2.923Z" transform="translate(-55.128 -181.956)" fill="#584ccc" stroke="#584ccc" stroke-width="1"/>
    <path id="Caminho_7524" data-name="Caminho 7524" d="M847.229,313.125a1.457,1.457,0,0,1-1.033-.428l-3.422-3.423a1.461,1.461,0,0,1,2.066-2.066l3.422,3.423a1.461,1.461,0,0,1-1.033,2.494Z" transform="translate(-86.582 -106.016)" fill="#584ccc" stroke="#584ccc" stroke-width="1"/>
    <path id="Caminho_7525" data-name="Caminho 7525" d="M804.955,303.33a34.026,34.026,0,1,1,6.73-67.379,1.462,1.462,0,0,1-.575,2.866,31.112,31.112,0,1,0,24.932,31.678,1.461,1.461,0,1,1,2.921.111,34.005,34.005,0,0,1-34.008,32.724Z" transform="translate(-29.19 -48.547)" fill="#584ccc" stroke="#584ccc" stroke-width="1"/>
    <path id="Caminho_7526" data-name="Caminho 7526" d="M920.178,390.508a5.885,5.885,0,1,1,4.159-1.724A5.84,5.84,0,0,1,920.178,390.508Zm0-8.841a2.959,2.959,0,0,0-2.093,5.051,3.032,3.032,0,0,0,4.186,0,2.958,2.958,0,0,0-2.093-5.051Z" transform="translate(-144.413 -163.859)" fill="#584ccc" stroke="#584ccc" stroke-width="1"/>
    <path id="Caminho_7527" data-name="Caminho 7527" d="M938.285,356.057a1.461,1.461,0,0,1-1.461-1.461v-6.25a1.461,1.461,0,0,1,2.923,0v6.25A1.461,1.461,0,0,1,938.285,356.057Z" transform="translate(-162.52 -138.25)" fill="#584ccc" stroke="#584ccc" stroke-width="1"/>
    <path id="Caminho_7528" data-name="Caminho 7528" d="M969.675,404.184h-8.856a1.461,1.461,0,0,1,0-2.923h8.856a1.461,1.461,0,0,1,0,2.923Z" transform="translate(-180.632 -181.956)" fill="#584ccc" stroke="#584ccc" stroke-width="1"/>
    <path id="Caminho_7529" data-name="Caminho 7529" d="M1017.468,216.683a20.9,20.9,0,1,1,20.9-20.9A20.925,20.925,0,0,1,1017.468,216.683Zm0-38.881a17.979,17.979,0,1,0,17.979,17.979A18,18,0,0,0,1017.468,177.8Z" transform="translate(-210.539)" fill="#584ccc" stroke="#584ccc" stroke-width="1"/>
    <path id="Caminho_7530" data-name="Caminho 7530" d="M1039.414,233.271a15.544,15.544,0,1,1,13.789-22.725,1.461,1.461,0,0,1-2.592,1.351,12.625,12.625,0,1,0,1.424,5.83,1.461,1.461,0,0,1,2.923,0A15.562,15.562,0,0,1,1039.414,233.271Z" transform="translate(-232.485 -21.947)" fill="#584ccc" stroke="#584ccc" stroke-width="1"/>
    <path id="Caminho_7531" data-name="Caminho 7531" d="M1062.209,250.5a4.11,4.11,0,0,1-4.105-4.106V244.63h-1.767a4.106,4.106,0,0,1,0-8.211h1.767v-1.767a4.106,4.106,0,0,1,8.212,0v1.767h1.766a4.106,4.106,0,1,1,0,8.211h-1.766V246.4A4.111,4.111,0,0,1,1062.209,250.5Zm-5.872-11.161a1.183,1.183,0,0,0,0,2.366h3.228a1.461,1.461,0,0,1,1.461,1.461V246.4a1.183,1.183,0,1,0,2.366,0v-3.228a1.461,1.461,0,0,1,1.461-1.461h3.228a1.183,1.183,0,1,0,0-2.366h-3.228a1.461,1.461,0,0,1-1.461-1.461v-3.228a1.183,1.183,0,0,0-2.366,0v3.228a1.461,1.461,0,0,1-1.461,1.461Z" transform="translate(-255.28 -44.743)" fill="#584ccc" stroke="#584ccc" stroke-width="1"/>
  </g>
</svg>
