<svg xmlns="http://www.w3.org/2000/svg" width="110.963" height="107" viewBox="0 0 110.963 107">
  <g id="Grupo_1510" data-name="Grupo 1510" transform="translate(-226.864 -196.235)">
    <rect id="Retângulo_219" data-name="Retângulo 219" width="110.963" height="107" rx="18" transform="translate(226.864 196.235)" fill="#584ccc"/>
    <path id="Caminho_7358" data-name="Caminho 7358" d="M485.855,385.291c-2.2-2.378-6.42-3.567-12.531-3.567a66.157,66.157,0,0,0-10.123.878,50.175,50.175,0,0,1-5.829-6.8,61.979,61.979,0,0,1-3.65-5.669c2.152-6.775,3.9-12.275,3.9-16.351,0-5.005-2.638-10.358-8.2-10.358a8.958,8.958,0,0,0-6.079,3.325c-2.377,4.078,0,11.889,3.787,20.427-1.32,3.927-2.764,7.738-4.52,11.971a107.038,107.038,0,0,1-5.108,10.608c-5.677,2.285-17.744,7.829-18.893,13.956a5.185,5.185,0,0,0,1.651,4.878,7.192,7.192,0,0,0,4.918,1.756c7.267,0,14.514-10.064,19.394-18.725,2.774-.943,5.6-1.8,8.419-2.544,3.089-.818,6.075-1.489,8.891-1.982,7.7,6.716,14.538,7.728,17.964,7.728,4.711,0,6.473-2.043,7.115-3.765A5.755,5.755,0,0,0,485.855,385.291Zm-5.011,3.531c-.26,1.334-1.637,2.2-3.525,2.2a6.67,6.67,0,0,1-1.585-.2,25.946,25.946,0,0,1-10.094-5.109,50.183,50.183,0,0,1,7.468-.574,26.8,26.8,0,0,1,4.975.382C479.576,385.828,481.264,386.654,480.844,388.822Zm-33.1-40.905a1.913,1.913,0,0,1,1.607-1.039c1.762,0,2.992,2.64,2.992,4.417.016,2.831-1.688,6.824-3.154,11.816C446.231,355.272,446.643,349.787,447.743,347.917Zm10.327,35.634c-2,.42-4.062.906-6.156,1.458-1.5.4-3.03.834-4.558,1.3.811-1.659,1.556-3.3,2.205-4.865.855-2.065,1.659-4.129,2.4-6.142.648,1.016,1.32,2.005,2.005,2.956a58.922,58.922,0,0,0,4.266,5.255Zm-22.359,10.712c-4.652,7.49-9.23,12.222-11.907,12.222a1.67,1.67,0,0,1-1.189-.428,1.746,1.746,0,0,1-.612-1.71C422.507,401.664,427.807,397.794,435.712,394.263Z" transform="translate(-169.741 -127.309)" fill="#fff"/>
  </g>
</svg>
