<svg xmlns="http://www.w3.org/2000/svg" width="80" height="80" viewBox="0 0 80 80">
  <g id="Grupo_1504" data-name="Grupo 1504" transform="translate(-834 -4426)">
    <rect id="Retângulo_37" data-name="Retângulo 37" width="80" height="80" transform="translate(834 4426)" fill="#2383c6" opacity="0"/>
    <g id="Grupo_1080" data-name="Grupo 1080" transform="translate(852.645 4442.646)">
      <g id="Grupo_1079" data-name="Grupo 1079">
        <g id="Grupo_1078" data-name="Grupo 1078">
          <path id="Caminho_104" data-name="Caminho 104" d="M286.75,416.02l2.286-4.922a3.754,3.754,0,1,0-6.805-3.17l-3.68,7.924H250.432a3.757,3.757,0,0,0-3.753,3.753v25.11a3.758,3.758,0,0,0,3.753,3.753h35.2a3.758,3.758,0,0,0,3.753-3.753V419.6A3.761,3.761,0,0,0,286.75,416.02Zm-2.25-7.038a1.252,1.252,0,1,1,2.268,1.06l-.658,1.417-2.269-1.058Zm-1.713,3.689,2.268,1.056L277.777,429.4l-2.267-1.058Zm-10.374,25.274a1.252,1.252,0,0,0,1.438-.273l5.44-5.748.007-.007a1.245,1.245,0,0,0,.219-.324h0l1.5-3.229h.862v12.6H254.222V428.347H272.74a1.472,1.472,0,0,0-.135.451v.008l-.9,7.863A1.251,1.251,0,0,0,272.414,437.946Zm2.2-4.72.277-2.409,1.389.648ZM249.182,419.6a1.253,1.253,0,0,1,1.251-1.252h26.957l-1.162,2.5H249.182Zm37.7,25.108a1.253,1.253,0,0,1-1.251,1.252h-35.2a1.253,1.253,0,0,1-1.251-1.252V423.358h25.883l-1.162,2.5H252.972a1.251,1.251,0,0,0-1.252,1.252v15.1a1.251,1.251,0,0,0,1.252,1.251h30.161a1.251,1.251,0,0,0,1.251-1.251v-15.1a1.251,1.251,0,0,0-1.251-1.252h-.952l1.161-2.5h3.544Zm0-23.857H284.5l1.162-2.5a1.25,1.25,0,0,1,1.219,1.249Z" transform="translate(-246.679 -405.758)" fill="#584ccc"/>
        </g>
      </g>
    </g>
  </g>
</svg>
