<svg xmlns="http://www.w3.org/2000/svg" width="80" height="80" viewBox="0 0 80 80">
  <g id="Grupo_1502" data-name="Grupo 1502" transform="translate(-834 -4426)">
    <rect id="Retângulo_37" data-name="Retângulo 37" width="80" height="80" transform="translate(834 4426)" fill="#2383c6" opacity="0"/>
    <path id="Caminho_85" data-name="Caminho 85" d="M118.912,266.157H117.6V257a3.927,3.927,0,0,0-3.923-3.923H84.738A3.927,3.927,0,0,0,80.815,257v19.615H79.507a1.308,1.308,0,0,0-1.308,1.308,6.546,6.546,0,0,0,6.539,6.539h6.625v3.923a3.928,3.928,0,0,0,3.923,3.923h23.626a3.928,3.928,0,0,0,3.923-3.923V270.08A3.927,3.927,0,0,0,118.912,266.157ZM83.43,257a1.309,1.309,0,0,1,1.308-1.308h28.943A1.309,1.309,0,0,1,114.989,257v9.154h-19.7a3.927,3.927,0,0,0-3.923,3.923v6.538H83.43Zm1.308,24.846a3.93,3.93,0,0,1-3.7-2.615H91.363v2.615Zm9.241,6.539V270.08a1.309,1.309,0,0,1,1.307-1.308h1.308V289.7H95.286A1.31,1.31,0,0,1,93.979,288.387Zm26.241,0a1.31,1.31,0,0,1-1.308,1.308h-19.7V268.772h19.7a1.309,1.309,0,0,1,1.308,1.308Z" transform="translate(773.345 4193.271)" fill="#584ccc"/>
  </g>
</svg>
