<svg xmlns="http://www.w3.org/2000/svg" width="80" height="80" viewBox="0 0 80 80">
  <g id="Grupo_1064" data-name="Grupo 1064" transform="translate(-834 -4426)">
    <rect id="Retângulo_37" data-name="Retângulo 37" width="80" height="80" transform="translate(834 4426)" fill="#2383c6" opacity="0"/>
    <g id="Grupo_1051" data-name="Grupo 1051" transform="translate(855.553 4437.265)">
      <g id="Grupo_1050" data-name="Grupo 1050" transform="translate(0 0)">
        <g id="Grupo_1049" data-name="Grupo 1049">
          <path id="Caminho_70" data-name="Caminho 70" d="M95.613,167.006a1.41,1.41,0,0,0-.161-2.816h0A16.973,16.973,0,0,0,82.4,190.684l.316.463.39-.4a6.141,6.141,0,0,1,.879-.759c.173-.156.353-.305.534-.452l.323-.262-.229-.347a14.156,14.156,0,0,1,11-21.92Z" transform="translate(-79.458 -164.187)" fill="#584ccc"/>
          <path id="Caminho_71" data-name="Caminho 71" d="M112.6,172.386l-.251-.375-.636.417c-.247.15-.5.29-.757.431-.205.112-.409.224-.611.343l-.424.247.277.406a14.165,14.165,0,0,1-5.9,20.876l-.6.267.46.472a3.776,3.776,0,0,1,.357.4,3.919,3.919,0,0,1,.528,1.049l.168.478.459-.215a16.953,16.953,0,0,0,6.936-24.8Z" transform="translate(-81.495 -164.845)" fill="#584ccc"/>
          <path id="Caminho_72" data-name="Caminho 72" d="M107.24,181.772a10.184,10.184,0,1,0-14.028,9.394l.661.273-.029-.714c-.015-.361-.015-.721,0-1.123a4.266,4.266,0,0,1,.036-.859l.051-.323-.29-.153a7.348,7.348,0,1,1,10.78-6.494,7.416,7.416,0,0,1-4.079,6.576l-.278.139.027.31a12.4,12.4,0,0,1,.007,2l-.056.723.677-.26A10.236,10.236,0,0,0,107.24,181.772Z" transform="translate(-80.083 -164.81)" fill="#584ccc"/>
          <path id="Caminho_73" data-name="Caminho 73" d="M100.963,185.657a4.812,4.812,0,1,0-8.219-3.394,4.808,4.808,0,0,0,1.3,3.264l.371.4.331-.437a6.612,6.612,0,0,1,1.224-1.292l.382-.292-.311-.367a1.964,1.964,0,0,1-.474-1.278,2,2,0,1,1,3.464,1.342l-.274.3.267.307a1.646,1.646,0,0,1,.182.26l.259.359.268.359a3.308,3.308,0,0,0,.422.42c.054.033.108.066.163.1l.449.149Z" transform="translate(-80.575 -165.301)" fill="#584ccc"/>
        </g>
      </g>
      <path id="Caminho_74" data-name="Caminho 74" d="M111.033,199.274a3.978,3.978,0,0,0-5.306-1.769,3.977,3.977,0,0,0-4.848-1.959v-8.124A4.04,4.04,0,0,0,97,183.39a3.982,3.982,0,0,0-4.1,3.978V207.8l-1.559-1.632a4.034,4.034,0,0,0-5.583-.245,3.975,3.975,0,0,0-.215,5.7l8.955,9.553a6.656,6.656,0,0,0,4.838,2.1h10.8a6.639,6.639,0,0,0,6.632-6.632v-13.8A3.982,3.982,0,0,0,111.033,199.274Zm3.085,17.364a3.984,3.984,0,0,1-3.979,3.98h-10.8a3.992,3.992,0,0,1-2.9-1.259L87.467,209.8a1.326,1.326,0,0,1,.071-1.9,1.364,1.364,0,0,1,1.885.109l3.844,4.026a1.328,1.328,0,0,0,2.286-.916V187.368a1.331,1.331,0,0,1,1.374-1.326,1.369,1.369,0,0,1,1.3,1.381c0,14.6-.025,7.98-.025,15.863a1.339,1.339,0,0,0,2.678,0v-4.232a1.326,1.326,0,0,1,2.628.253v3.979a1.326,1.326,0,1,0,2.653,0v-2.211a1.326,1.326,0,1,1,2.653,0v2.211a1.327,1.327,0,0,0,2.654,0v-.442a1.326,1.326,0,1,1,2.653,0Z" transform="translate(-79.877 -165.801)" fill="#584ccc"/>
      <path id="Caminho_75" data-name="Caminho 75" d="M109.3,168.017a1.885,1.885,0,1,1-1.886,1.886,1.888,1.888,0,0,1,1.886-1.886m0-1.832a3.717,3.717,0,1,0,3.717,3.718,3.718,3.718,0,0,0-3.717-3.718Z" transform="translate(-81.654 -164.355)" fill="#584ccc"/>
      <path id="Caminho_76" data-name="Caminho 76" d="M86.288,193.154A1.885,1.885,0,1,1,84.4,195.04a1.888,1.888,0,0,1,1.886-1.886m0-1.832A3.717,3.717,0,1,0,90,195.04a3.718,3.718,0,0,0-3.717-3.718Z" transform="translate(-79.72 -166.468)" fill="#584ccc"/>
    </g>
  </g>
</svg>
