<svg xmlns="http://www.w3.org/2000/svg" width="80" height="80" viewBox="0 0 80 80">
  <g id="Grupo_1501" data-name="Grupo 1501" transform="translate(-834 -4426)">
    <rect id="Retângulo_37" data-name="Retângulo 37" width="80" height="80" transform="translate(834 4426)" fill="#2383c6" opacity="0"/>
    <g id="Grupo_1030" data-name="Grupo 1030" transform="translate(848.111 4443.998)">
      <path id="Caminho_48" data-name="Caminho 48" d="M283.527,127.082q3.74,0,7.482,0a2.609,2.609,0,0,1,2.865,2.869q.01,3.625,0,7.252a2.6,2.6,0,0,1-2.818,2.824q-7.505.007-15.012,0a2.63,2.63,0,0,1-2.875-2.87q-.007-3.625.006-7.252A2.6,2.6,0,0,1,276,127.084Q279.762,127.077,283.527,127.082Zm7.746,2.63c-.18-.015-.314-.036-.449-.036q-7.323,0-14.646-.013c-.372,0-.423.148-.421.468.011,2.294.006,4.589.007,6.884,0,.118.019.237.03.371h15.478Z" transform="translate(-257.633 -96.026)" fill="#584ccc"/>
      <path id="Caminho_49" data-name="Caminho 49" d="M283.527,93.406q3.764,0,7.528,0a2.6,2.6,0,0,1,2.817,2.776q.021,3.695.005,7.389a2.6,2.6,0,0,1-2.778,2.781q-7.575.015-15.149,0a2.585,2.585,0,0,1-2.773-2.778q-.026-3.718,0-7.436a2.584,2.584,0,0,1,2.773-2.727Q279.74,93.4,283.527,93.406Zm-7.763,10.3h15.523v-.459c0-2.233-.012-4.466.01-6.7,0-.449-.126-.562-.567-.56-3.281.017-6.561.006-9.841,0-1.571,0-3.143.007-4.713-.006-.321,0-.432.1-.421.421.023.646.008,1.293.008,1.94Z" transform="translate(-257.633 -93.404)" fill="#584ccc"/>
      <path id="Caminho_50" data-name="Caminho 50" d="M283.525,110.244q3.74,0,7.481,0a2.617,2.617,0,0,1,2.869,2.866q.01,3.6,0,7.2a2.621,2.621,0,0,1-2.867,2.872q-7.505.01-15.01,0a2.607,2.607,0,0,1-2.82-2.781q-.018-3.649,0-7.3a2.618,2.618,0,0,1,2.911-2.87C278.567,110.238,281.046,110.243,283.525,110.244Zm7.729,10.316a1.657,1.657,0,0,0,.03-.2c0-2.387,0-4.775.011-7.162,0-.386-.209-.368-.469-.368q-7.3,0-14.6,0c-.36,0-.471.1-.469.468.017,2.3.008,4.59.01,6.885,0,.118.019.237.033.381Z" transform="translate(-257.633 -94.715)" fill="#584ccc"/>
      <path id="Caminho_51" data-name="Caminho 51" d="M303.04,114.543q1.427,0,2.855,0c.539,0,1.078.015,1.616-.01a1.16,1.16,0,0,0,1.262-1.281c.023-.661.01-1.323.01-1.985q0-4.042,0-8.085c0-1.176-.4-1.571-1.591-1.572-2.418,0-4.836,0-7.253,0a1.327,1.327,0,0,1-1.468-1.056,1.268,1.268,0,0,1,1-1.485,3,3,0,0,1,.6-.05q3.6,0,7.207,0a4.169,4.169,0,0,1,3,1.107,3.73,3.73,0,0,1,1.1,2.844c.009,3.418.024,6.837-.006,10.254a3.676,3.676,0,0,1-2.674,3.725,5.354,5.354,0,0,1-1.458.179c-1.4.023-2.8.008-4.282.008a3.639,3.639,0,0,0,.242.322c.42.429.859.841,1.265,1.283a1.294,1.294,0,0,1,.049,1.9,1.273,1.273,0,0,1-1.866-.068q-1.9-1.852-3.754-3.758a1.3,1.3,0,0,1,.02-1.972q1.825-1.865,3.688-3.692a1.311,1.311,0,0,1,1.9-.12,1.288,1.288,0,0,1-.065,1.931c-.476.494-.988.954-1.484,1.429Z" transform="translate(-259.6 -93.841)" fill="#584ccc"/>
      <path id="Caminho_52" data-name="Caminho 52" d="M264.812,133.974c-1.566,0-3,.006-4.427,0a3.809,3.809,0,0,1-3.062-1.239,4.058,4.058,0,0,1-.989-2.718c-.006-3.388-.027-6.777.006-10.165a3.754,3.754,0,0,1,3.961-3.99c2.5-.029,4.991,0,7.485,0a1.349,1.349,0,0,1,1.36.77,1.208,1.208,0,0,1-.155,1.306,1.463,1.463,0,0,1-1.273.517q-3.672-.007-7.346,0c-1.02,0-1.445.427-1.446,1.43q-.005,5.013,0,10.026c0,1.054.409,1.47,1.448,1.478,1.309.01,2.618,0,3.927,0,.13,0,.26-.023.554-.052-.58-.56-1.073-1.015-1.541-1.494a1.287,1.287,0,0,1-.245-1.785,1.247,1.247,0,0,1,1.679-.346,2.708,2.708,0,0,1,.466.374q1.736,1.728,3.462,3.464a1.385,1.385,0,0,1-.007,2.275q-1.741,1.754-3.494,3.5a1.3,1.3,0,1,1-1.89-1.773c.369-.392.76-.764,1.14-1.147C264.528,134.291,264.625,134.178,264.812,133.974Z" transform="translate(-256.322 -95.152)" fill="#584ccc"/>
    </g>
  </g>
</svg>
