<svg xmlns="http://www.w3.org/2000/svg" width="36" height="36" viewBox="0 0 36 36">
  <path id="Caminho_7150" data-name="Caminho 7150" d="M786.412,34.5a18,18,0,1,1-18.023,18.1A18.043,18.043,0,0,1,786.412,34.5Zm11.113,28.367a2.531,2.531,0,0,0,.043-.3c-.013-3.066-.007-6.133-.052-9.2a7.316,7.316,0,0,0-.783-3.3,3.945,3.945,0,0,0-2.083-1.9,6.7,6.7,0,0,0-2.947-.432,4.838,4.838,0,0,0-3.689,1.81c-.091.115-.195.221-.364.413l-.071-1.827H783.2V62.869h4.591v-.623c0-2.162-.013-4.326,0-6.487a11.183,11.183,0,0,1,.159-1.876,2.452,2.452,0,0,1,3.036-2.057,1.939,1.939,0,0,1,1.666,1.389,2.778,2.778,0,0,1,.168.684c.053.567.1,1.136.1,1.7.014,2.2.011,4.4.014,6.606,0,.209,0,.418,0,.661ZM775.7,48.122V62.9c1.548-.014,3.045.038,4.557-.032V48.122Zm2.263-7.4a2.678,2.678,0,1,0,.026,5.356,2.678,2.678,0,0,0-.026-5.356Z" transform="translate(-768.389 -34.504)" fill="#fff"/>
</svg>
