<svg xmlns="http://www.w3.org/2000/svg" xmlns:xlink="http://www.w3.org/1999/xlink" width="114" height="114" viewBox="0 0 114 114">
  <defs>
    <clipPath id="clip-path">
      <rect id="Ret칙ngulo_161" data-name="Ret칙ngulo 161" width="114" height="114" transform="translate(326 7922)" fill="#f5f5f5"/>
    </clipPath>
  </defs>
  <g id="Grupo_de_m치scara_58" data-name="Grupo de m치scara 58" transform="translate(-326 -7922)" clip-path="url(#clip-path)">
    <g id="Grupo_1504" data-name="Grupo 1504" transform="translate(349 7945)">
      <g id="Sign-icon-60x60" transform="translate(0 0)">
        <g id="Group_161827" data-name="Group 161827">
          <path id="Path_102981" data-name="Path 102981" d="M15,0h38.56a15,15,0,0,1,15,15v38.56a15,15,0,0,1-15,15H15a15,15,0,0,1-15-15V15A15,15,0,0,1,15,0Z" fill="#000b1d"/>
          <g id="Layer_3" data-name="Layer 3" transform="translate(12.769 13.359)">
            <g id="Layer_86" data-name="Layer 86">
              <path id="_64" data-name=" 64" d="M53.3,37.886c-3.209-3.412-12.084-2.023-14.167-1.676A36.063,36.063,0,0,1,33.208,28.4a34.809,34.809,0,0,0,2.023-10.235c0-3.121-1.244-6.476-4.713-6.476A3.52,3.52,0,0,0,27.6,13.4c-1.474,2.544-.9,7.807,1.474,13.126a88.8,88.8,0,0,1-6.013,14.108c-3.553,1.417-11.1,4.885-11.822,8.73a3.249,3.249,0,0,0,1.04,3.064,4.4,4.4,0,0,0,3.064,1.1c4.54,0,9.078-6.3,12.144-11.709A77.078,77.078,0,0,1,38.3,38.984c4.8,4.192,9.078,4.828,11.247,4.828,2.948,0,4.048-1.273,4.456-2.342A3.614,3.614,0,0,0,53.3,37.886Zm-3.121,2.2c-.145.837-1.214,1.676-3.209,1.243a16.06,16.06,0,0,1-6.3-3.18,26.175,26.175,0,0,1,7.777-.114C49.371,38.2,50.441,38.725,50.18,40.085ZM29.479,14.5a1.164,1.164,0,0,1,1.013-.636c1.1,0,1.33,1.33,1.33,2.429a33.679,33.679,0,0,1-1.445,7.72C28.524,19.094,28.787,15.684,29.479,14.5Zm-.26,24.025a72.931,72.931,0,0,0,2.863-6.88,36.443,36.443,0,0,0,3.931,5.141,64.691,64.691,0,0,0-6.793,1.738ZM21.961,43.5c-2.92,4.684-5.781,7.632-7.458,7.632a1.191,1.191,0,0,1-.752-.261,1.077,1.077,0,0,1-.376-1.069c.32-1.677,3.645-4.106,8.587-6.3Z" transform="translate(-11.177 -11.693)" fill="#fff"/>
            </g>
          </g>
        </g>
      </g>
    </g>
  </g>
</svg>
