<svg width="8" height="13" viewBox="0 0 8 13" fill="none" xmlns="http://www.w3.org/2000/svg">
<path d="M7.96698 0H0V3.94007L2.27599 6.19098L0 8.44188V12.382H7.96698V8.44188L5.69099 6.19098L7.96698 3.94007V0ZM7.39798 3.70668L5.28799 5.79341L4.88799 6.189L5.28799 6.58459L7.39798 8.67133V11.8153H0.568999V8.67528L2.67899 6.58855L3.07899 6.19296L2.67899 5.79737L0.568999 3.71063V0.562726H7.39798V3.70668Z" fill="white"/>
<path d="M6.82898 3.37553V2.2511H1.138V3.37553L3.98299 6.18909L6.82898 3.37553Z" fill="white"/>
<path d="M1.138 11.2555H6.82898V10.6928L3.98399 9.56738L1.13899 10.6928L1.138 11.2555Z" fill="white"/>
</svg>
