<svg width="13" height="11" viewBox="0 0 13 11" fill="none" xmlns="http://www.w3.org/2000/svg">
<path d="M6.5 0C5.21442 0 3.95772 0.311211 2.8888 0.894279C1.81988 1.47735 0.986755 2.30608 0.494786 3.27569C0.00281642 4.24529 -0.125905 5.31222 0.124899 6.34155C0.375702 7.37088 0.994767 8.31638 1.90381 9.05848C2.81285 9.80058 3.97104 10.306 5.23191 10.5107C6.49279 10.7155 7.79972 10.6104 8.98744 10.2087C10.1752 9.80713 11.1903 9.127 11.9046 8.25438C12.6188 7.38175 13 6.35583 13 5.30633C12.9993 3.89917 12.3143 2.5498 11.0955 1.55478C9.87662 0.55977 8.22371 0.000538524 6.5 0ZM1.3005 5.30633C1.3005 4.18058 1.8483 3.10093 2.8234 2.30491C3.79849 1.50888 5.12101 1.06167 6.5 1.06167C7.6549 1.05997 8.77681 1.376 9.68466 1.95876L2.39815 7.90718C1.68448 7.16564 1.29778 6.24937 1.3005 5.30633ZM6.5 9.54998C5.34511 9.55168 4.2232 9.23565 3.31534 8.65289L10.6019 2.70447C11.3153 3.44642 11.7016 4.36307 11.6983 5.30633C11.6979 6.43174 11.1502 7.51097 10.1754 8.30675C9.20057 9.10253 7.87856 9.54971 6.5 9.54998Z" fill="white"/>
</svg>
