<svg xmlns="http://www.w3.org/2000/svg" xmlns:xlink="http://www.w3.org/1999/xlink" width="98" height="97" viewBox="0 0 98 97">
  <defs>
    <clipPath id="clip-path">
      <rect id="Retângulo_277" data-name="Retângulo 277" width="69" height="69" transform="translate(971 2525)" fill="#fff" stroke="#707070" stroke-width="1"/>
    </clipPath>
  </defs>
  <g id="Grupo_1683" data-name="Grupo 1683" transform="translate(-981 -2562)">
    <rect id="Retângulo_296" data-name="Retângulo 296" width="98" height="97" transform="translate(981 2562)" fill="none"/>
    <g id="Grupo_de_máscara_127" data-name="Grupo de máscara 127" transform="translate(24 47)" opacity="0.4" clip-path="url(#clip-path)">
      <g id="discount" transform="translate(979.687 2525)">
        <g id="Grupo_1626" data-name="Grupo 1626" transform="translate(0)">
          <path id="Caminho_8338" data-name="Caminho 8338" d="M64.127,15.179h-8.3v-3.34A11.907,11.907,0,0,0,39.662.786,11.907,11.907,0,0,0,23.5,11.839v3.34H15.2a1.348,1.348,0,0,0-1.348,1.348V62.609A6.4,6.4,0,0,0,20.25,69H59.1a6.383,6.383,0,0,0,6.375-6.376v-46.1a1.348,1.348,0,0,0-1.348-1.348ZM43.926,2.7a9.183,9.183,0,0,1,9.2,9.144v3.34H47.295v-3.34A11.8,11.8,0,0,0,43,2.741q.456-.045.924-.046ZM39.662,3.738a9.146,9.146,0,0,1,4.938,8.1v3.34H34.725v-3.34a9.146,9.146,0,0,1,4.937-8.1ZM35.4,2.7q.468,0,.924.046a11.8,11.8,0,0,0-4.292,9.1v3.34H26.2v-3.34A9.183,9.183,0,0,1,35.4,2.7ZM16.545,62.609V17.875h5.609V66.3h-1.9A3.7,3.7,0,0,1,16.545,62.609Zm46.235.016A3.684,3.684,0,0,1,59.1,66.3H24.849V17.875h7.181v6.912a1.348,1.348,0,0,0,2.7,0V17.875h18.4v6.912a1.348,1.348,0,0,0,2.7,0V17.875h6.956Z" transform="translate(-13.849)"/>
        </g>
        <g id="Grupo_1634" data-name="Grupo 1634" transform="translate(21.168 35.656)">
          <g id="Grupo_1633" data-name="Grupo 1633">
            <g id="Grupo_1630" data-name="Grupo 1630" transform="translate(4.822 0.736)">
              <path id="Caminho_8340" data-name="Caminho 8340" d="M56.629,76.51a1.349,1.349,0,0,1-1.242-1.87l6.63-15.8A1.348,1.348,0,1,1,64.5,59.885l-6.63,15.8A1.348,1.348,0,0,1,56.629,76.51Z" transform="translate(-55.282 -58.016)"/>
            </g>
            <g id="Grupo_1631" data-name="Grupo 1631">
              <path id="Caminho_8341" data-name="Caminho 8341" d="M51.872,66.346a4.778,4.778,0,1,1,4.277-4.752A4.538,4.538,0,0,1,51.872,66.346Zm0-6.809a2.128,2.128,0,0,0,0,4.113,2.128,2.128,0,0,0,0-4.113Z" transform="translate(-47.595 -56.843)"/>
            </g>
            <g id="Grupo_1632" data-name="Grupo 1632" transform="translate(10.201 10.801)">
              <path id="Caminho_8342" data-name="Caminho 8342" d="M68.135,83.566a4.778,4.778,0,1,1,4.277-4.752A4.538,4.538,0,0,1,68.135,83.566Zm0-6.808a2.128,2.128,0,1,0,1.582,2.057A1.893,1.893,0,0,0,68.135,76.757Z" transform="translate(-63.857 -74.062)"/>
            </g>
          </g>
        </g>
      </g>
    </g>
  </g>
</svg>
