<svg xmlns="http://www.w3.org/2000/svg" width="114" height="114" viewBox="0 0 114 114">
  <g id="Grupo_1095" data-name="Grupo 1095" transform="translate(-144 -11830)" opacity="0.32">
    <rect id="Retângulo_36" data-name="Retângulo 36" width="114" height="114" transform="translate(144 11830)" fill="#f5f5f5" opacity="0"/>
    <g id="Grupo_1069" data-name="Grupo 1069" transform="translate(171 11857)">
      <g id="Grupo_1068" data-name="Grupo 1068">
        <g id="Grupo_1067" data-name="Grupo 1067">
          <path id="Caminho_95" data-name="Caminho 95" d="M120.233,425.072a30.538,30.538,0,1,0,2.4,11.859A30.365,30.365,0,0,0,120.233,425.072ZM92.166,463.455a26.524,26.524,0,1,1,26.524-26.524A26.525,26.525,0,0,1,92.166,463.455Z" transform="translate(-61.702 -406.467)"/>
          <path id="Caminho_96" data-name="Caminho 96" d="M86.825,411.648A19.963,19.963,0,0,0,66.883,431.59a1.97,1.97,0,1,0,3.94,0,16,16,0,1,1,17.192,15.957l1.3-1.3a1.97,1.97,0,0,0-2.786-2.784L81.686,448.3a1.971,1.971,0,0,0,0,2.786l4.842,4.842a1.97,1.97,0,1,0,2.786-2.786l-1.635-1.635a19.941,19.941,0,0,0-.855-39.863Z" transform="translate(-56.361 -401.126)"/>
          <path id="Caminho_97" data-name="Caminho 97" d="M77.7,415.518a1.969,1.969,0,0,0-1.97,1.97V427.6a1.969,1.969,0,0,0,1.97,1.97h7.049a1.97,1.97,0,0,0,0-3.94H79.672v-8.142A1.971,1.971,0,0,0,77.7,415.518Z" transform="translate(-47.238 -397.136)"/>
        </g>
      </g>
    </g>
  </g>
</svg>
