<svg xmlns="http://www.w3.org/2000/svg" width="114" height="114" viewBox="0 0 114 114">
  <g id="Grupo_1101" data-name="Grupo 1101" transform="translate(-1248 -11830)" opacity="0.32">
    <rect id="Retângulo_38" data-name="Retângulo 38" width="114" height="114" transform="translate(1248 11830)" fill="#f5f5f5" opacity="0"/>
    <g id="Grupo_1077" data-name="Grupo 1077" transform="translate(1273 11857)">
      <g id="Grupo_1072" data-name="Grupo 1072" transform="translate(0)">
        <g id="Grupo_1071" data-name="Grupo 1071">
          <path id="Caminho_100" data-name="Caminho 100" d="M203.919,454.763a5.884,5.884,0,0,0-5.567,4h-34.69a6.126,6.126,0,1,1,0-12.253h12a9.876,9.876,0,0,0,0-19.753H165.228a5.9,5.9,0,0,0-3.692-3.692v-4.559h10.128a1.876,1.876,0,0,0,1.875-1.877v-8a1.876,1.876,0,0,0-1.875-1.877h-12a1.877,1.877,0,0,0-1.877,1.877v14.436a5.876,5.876,0,1,0,7.443,7.443h10.437a6.125,6.125,0,1,1,0,12.25h-12a9.877,9.877,0,0,0,0,19.755h34.69a5.875,5.875,0,1,0,5.567-7.752Zm-42.383-44.258h8.252v4.251h-8.252Zm-1.875,20.254a2.125,2.125,0,1,1,2.124-2.126A2.13,2.13,0,0,1,159.661,430.759Zm44.258,32.005a2.125,2.125,0,1,1,2.126-2.124A2.126,2.126,0,0,1,203.919,462.765Z" transform="translate(-153.786 -406.754)"/>
        </g>
      </g>
      <g id="Grupo_1074" data-name="Grupo 1074" transform="translate(44.258 12.003)">
        <g id="Grupo_1073" data-name="Grupo 1073">
          <path id="Caminho_101" data-name="Caminho 101" d="M181.453,412.664a5.876,5.876,0,1,0,5.875,5.875A5.883,5.883,0,0,0,181.453,412.664Zm0,8a2.125,2.125,0,1,1,2.126-2.126A2.128,2.128,0,0,1,181.453,420.666Z" transform="translate(-175.578 -412.664)"/>
        </g>
      </g>
      <g id="Grupo_1076" data-name="Grupo 1076" transform="translate(36.256 4.001)">
        <g id="Grupo_1075" data-name="Grupo 1075">
          <path id="Caminho_102" data-name="Caminho 102" d="M185.515,408.724a13.879,13.879,0,0,0-8.924,24.507l7.252,14.227a1.877,1.877,0,0,0,3.343,0l7.252-14.227a13.879,13.879,0,0,0-8.924-24.507Zm6.269,21.83a1.88,1.88,0,0,0-.508.621l-5.762,11.3-5.762-11.3a1.88,1.88,0,0,0-.508-.621,10.126,10.126,0,1,1,12.539,0Z" transform="translate(-171.638 -408.724)"/>
        </g>
      </g>
    </g>
  </g>
</svg>
