<svg xmlns="http://www.w3.org/2000/svg" width="114" height="114" viewBox="0 0 114 114">
  <g id="Grupo_1155" data-name="Grupo 1155" transform="translate(-696 -12462)">
    <rect id="Retângulo_43" data-name="Retângulo 43" width="114" height="114" transform="translate(696 12462)" fill="#f5f5f5" opacity="0"/>
    <path id="shopping-cart" d="M50.493,30.125H9.322L8.71,23.307a2.163,2.163,0,0,0-2.154-1.969H2.162a2.162,2.162,0,1,0,0,4.325H4.579C5.9,40.376,2.487,2.348,7.066,53.373a8.319,8.319,0,0,0,3.115,5.637,6.554,6.554,0,1,0,11.327,1.8H33.344a6.556,6.556,0,1,0,6.165-4.325H15.358a4.016,4.016,0,0,1-3.692-2.435l34.56-2.031A2.163,2.163,0,0,0,48.2,50.387l4.394-17.575a2.163,2.163,0,0,0-2.1-2.687ZM15.343,65.275a2.231,2.231,0,1,1,2.231-2.231A2.234,2.234,0,0,1,15.343,65.275Zm24.165,0a2.231,2.231,0,1,1,2.231-2.231A2.234,2.234,0,0,1,39.509,65.275ZM44.386,47.8l-33.3,1.957L9.71,34.45H47.723Z" transform="translate(726.672 12473.531)" fill="#b5cad4"/>
  </g>
</svg>
