<svg xmlns="http://www.w3.org/2000/svg" width="177.533" height="39.034" viewBox="0 0 177.533 39.034">
  <g id="Grupo_1152" data-name="Grupo 1152" transform="translate(-348 -317.768)">
    <text id="Adobe_SIgn" data-name="Adobe SIgn" transform="translate(404.533 342.785)" fill="#584ccc" font-size="16" font-family="Gotham-Book, Gotham" letter-spacing="0.1em"><tspan x="0" y="0">ADOBE SIGN</tspan></text>
    <g id="Grupo_1522" data-name="Grupo 1522" transform="translate(-208.813 -51.76)">
      <g id="Grupo_1500" data-name="Grupo 1500" transform="translate(556.813 369.528)">
        <rect id="Retângulo_219" data-name="Retângulo 219" width="40.479" height="39.034" rx="7" fill="#584ccc"/>
        <path id="Caminho_7358" data-name="Caminho 7358" d="M596.227,398.273c-.8-.867-2.342-1.3-4.571-1.3a24.168,24.168,0,0,0-3.692.32,18.315,18.315,0,0,1-2.126-2.482,22.584,22.584,0,0,1-1.332-2.068,23.075,23.075,0,0,0,1.423-5.965c0-1.826-.962-3.778-2.992-3.778a3.266,3.266,0,0,0-2.218,1.212c-.867,1.488,0,4.337,1.381,7.448-.482,1.433-1.008,2.823-1.649,4.367a39.038,39.038,0,0,1-1.862,3.87c-2.072.833-6.473,2.856-6.892,5.091a1.891,1.891,0,0,0,.6,1.78,2.63,2.63,0,0,0,1.794.641c2.65,0,5.295-3.672,7.075-6.831,1.012-.344,2.044-.657,3.067-.928,1.127-.3,2.216-.548,3.243-.723a10.062,10.062,0,0,0,6.554,2.82c1.719,0,2.362-.745,2.6-1.373A2.1,2.1,0,0,0,596.227,398.273Zm-1.828,1.288c-.094.486-.6.8-1.286.8a2.411,2.411,0,0,1-.578-.072,9.466,9.466,0,0,1-3.682-1.862,18.385,18.385,0,0,1,2.724-.209,9.807,9.807,0,0,1,1.815.139c.545.109,1.161.411,1.008,1.2Zm-12.075-14.922a.7.7,0,0,1,.586-.379c.643,0,1.1.963,1.1,1.611a20.392,20.392,0,0,1-1.152,4.31C581.772,387.321,581.922,385.32,582.323,384.639Zm3.767,13c-.728.153-1.482.329-2.246.532-.548.145-1.105.3-1.663.473.3-.6.567-1.2.8-1.775.312-.754.6-1.506.876-2.24.237.37.482.732.732,1.078a21.5,21.5,0,0,0,1.557,1.917Zm-8.156,3.908c-1.7,2.733-3.367,4.458-4.343,4.458a.608.608,0,0,1-.438-.157.635.635,0,0,1-.219-.624C573.117,404.245,575.047,402.833,577.934,401.545Z" transform="translate(-563.667 -375.746)" fill="#fff"/>
      </g>
    </g>
  </g>
</svg>
