<svg xmlns="http://www.w3.org/2000/svg" width="114" height="114" viewBox="0 0 114 114">
  <g id="Grupo_1056" data-name="Grupo 1056" transform="translate(-972 -1617)">
    <rect id="Retângulo_60" data-name="Retângulo 60" width="114" height="114" transform="translate(972 1617)" fill="#0055a3" opacity="0"/>
    <g id="Grupo_1051" data-name="Grupo 1051" transform="translate(1002.438 1633.798)">
      <g id="Grupo_1050" data-name="Grupo 1050" transform="translate(0 0)">
        <g id="Grupo_1049" data-name="Grupo 1049">
          <path id="Caminho_70" data-name="Caminho 70" d="M102.324,168.178a2,2,0,0,0-.228-3.985h0a24.025,24.025,0,0,0-18.474,37.5l.447.655.552-.567a8.692,8.692,0,0,1,1.245-1.075c.245-.22.5-.432.756-.639l.458-.371-.324-.491a20.037,20.037,0,0,1,15.571-31.026Z" transform="translate(-79.458 -164.187)" fill="#b5cad4"/>
          <path id="Caminho_71" data-name="Caminho 71" d="M116.3,172.541l-.355-.53-.9.59c-.35.213-.712.411-1.072.611-.29.158-.58.318-.865.485l-.6.35.392.574a20.05,20.05,0,0,1-8.355,29.548l-.852.379.651.668a5.345,5.345,0,0,1,.506.572,5.546,5.546,0,0,1,.747,1.484l.237.677.65-.3a24,24,0,0,0,9.817-35.1Z" transform="translate(-72.272 -161.867)" fill="#b5cad4"/>
          <path id="Caminho_72" data-name="Caminho 72" d="M115.692,186a14.415,14.415,0,1,0-19.856,13.3l.936.386-.041-1.011c-.021-.511-.021-1.02,0-1.59a6.036,6.036,0,0,1,.051-1.216l.073-.458-.411-.217A10.4,10.4,0,1,1,111.7,186a10.5,10.5,0,0,1-5.773,9.308l-.394.2.038.438a17.546,17.546,0,0,1,.01,2.837L105.5,199.8l.958-.368A14.489,14.489,0,0,0,115.692,186Z" transform="translate(-77.252 -161.989)" fill="#b5cad4"/>
          <path id="Caminho_73" data-name="Caminho 73" d="M104.377,189.068a6.811,6.811,0,1,0-11.633-4.8,6.806,6.806,0,0,0,1.835,4.621l.525.569.468-.618a9.36,9.36,0,0,1,1.732-1.829l.541-.414-.44-.52a2.779,2.779,0,0,1-.67-1.809,2.828,2.828,0,1,1,4.9,1.9l-.388.427.379.434a2.33,2.33,0,0,1,.258.368l.367.508.38.508a4.682,4.682,0,0,0,.6.6c.076.047.153.093.231.135l.635.211Z" transform="translate(-75.519 -160.256)" fill="#b5cad4"/>
        </g>
      </g>
      <path id="Caminho_74" data-name="Caminho 74" d="M122.079,205.874a5.631,5.631,0,0,0-7.511-2.5,5.629,5.629,0,0,0-6.862-2.773V189.1a5.718,5.718,0,0,0-5.491-5.708,5.637,5.637,0,0,0-5.8,5.631v28.925l-2.207-2.31a5.71,5.71,0,0,0-7.9-.346,5.627,5.627,0,0,0-.3,8.063l12.676,13.521a9.422,9.422,0,0,0,6.848,2.966h15.289a9.4,9.4,0,0,0,9.387-9.388V210.925A5.637,5.637,0,0,0,122.079,205.874Zm4.367,24.578a5.639,5.639,0,0,1-5.632,5.633H105.524a5.651,5.651,0,0,1-4.109-1.781L88.722,220.766a1.877,1.877,0,0,1,.1-2.692,1.931,1.931,0,0,1,2.668.154l5.441,5.7a1.88,1.88,0,0,0,3.236-1.3V189.021a1.884,1.884,0,0,1,1.945-1.877,1.938,1.938,0,0,1,1.837,1.955c0,20.66-.035,11.295-.035,22.453a1.9,1.9,0,0,0,3.791,0v-5.99a1.877,1.877,0,0,1,3.72.358v5.632a1.877,1.877,0,1,0,3.755,0v-3.13a1.877,1.877,0,1,1,3.755,0v3.13a1.878,1.878,0,0,0,3.756,0v-.626a1.877,1.877,0,1,1,3.755,0Z" transform="translate(-77.979 -158.494)" fill="#b5cad4"/>
      <g id="Caminho_75" data-name="Caminho 75" transform="translate(-66.201 -158.999)" fill="none" stroke-linecap="round">
        <path d="M107.167,166.964a.8.8,0,1,1-.8.8.8.8,0,0,1,.8-.8m0-.779a1.581,1.581,0,1,0,1.581,1.581,1.581,1.581,0,0,0-1.581-1.581Z" stroke="none"/>
        <path d="M 107.1669769287109 166.1849365234375 C 106.2937164306641 166.1849365234375 105.5859909057617 166.8927001953125 105.5859909057617 167.7659606933594 C 105.5859909057617 168.6388854980469 106.2937164306641 169.3465881347656 107.1669769287109 169.3465881347656 C 108.0398712158203 169.3465881347656 108.7476043701172 168.6388854980469 108.7476043701172 167.7659606933594 C 108.7476043701172 166.8927001953125 108.0398712158203 166.1849365234375 107.1669769287109 166.1849365234375 M 107.1669769287109 168.5675659179688 C 106.7249069213867 168.5675659179688 106.3650054931641 168.2080383300781 106.3650054931641 167.7659606933594 C 106.3650054931641 167.3238525390625 106.7249069213867 166.9639587402344 107.1669769287109 166.9639587402344 C 107.6090774536133 166.9639587402344 107.9685821533203 167.3238525390625 107.9685821533203 167.7659606933594 C 107.9685821533203 168.2080383300781 107.6090774536133 168.5675659179688 107.1669769287109 168.5675659179688 M 107.1669769287109 163.1849365234375 C 109.692741394043 163.1849365234375 111.7476043701172 165.2399749755859 111.7476043701172 167.7659606933594 C 111.7476043701172 170.2917327880859 109.692741394043 172.3465881347656 107.1669769287109 172.3465881347656 C 104.6410140991211 172.3465881347656 102.5859909057617 170.2917327880859 102.5859909057617 167.7659606933594 C 102.5859909057617 165.2399749755859 104.6410140991211 163.1849365234375 107.1669769287109 163.1849365234375 Z" stroke="none" fill="#b5cad4"/>
      </g>
      <g id="Caminho_128" data-name="Caminho 128" transform="translate(-100.041 -128.818)" fill="none" stroke-linecap="round">
        <path d="M107.167,166.964a.8.8,0,1,1-.8.8.8.8,0,0,1,.8-.8m0-.779a1.581,1.581,0,1,0,1.581,1.581,1.581,1.581,0,0,0-1.581-1.581Z" stroke="none"/>
        <path d="M 107.1669769287109 166.1849365234375 C 106.2937164306641 166.1849365234375 105.5859909057617 166.8927001953125 105.5859909057617 167.7659606933594 C 105.5859909057617 168.6388854980469 106.2937164306641 169.3465881347656 107.1669769287109 169.3465881347656 C 108.0398712158203 169.3465881347656 108.7476043701172 168.6388854980469 108.7476043701172 167.7659606933594 C 108.7476043701172 166.8927001953125 108.0398712158203 166.1849365234375 107.1669769287109 166.1849365234375 M 107.1669769287109 168.5675659179688 C 106.7249069213867 168.5675659179688 106.3650054931641 168.2080383300781 106.3650054931641 167.7659606933594 C 106.3650054931641 167.3238525390625 106.7249069213867 166.9639587402344 107.1669769287109 166.9639587402344 C 107.6090774536133 166.9639587402344 107.9685821533203 167.3238525390625 107.9685821533203 167.7659606933594 C 107.9685821533203 168.2080383300781 107.6090774536133 168.5675659179688 107.1669769287109 168.5675659179688 M 107.1669769287109 163.1849365234375 C 109.692741394043 163.1849365234375 111.7476043701172 165.2399749755859 111.7476043701172 167.7659606933594 C 111.7476043701172 170.2917327880859 109.692741394043 172.3465881347656 107.1669769287109 172.3465881347656 C 104.6410140991211 172.3465881347656 102.5859909057617 170.2917327880859 102.5859909057617 167.7659606933594 C 102.5859909057617 165.2399749755859 104.6410140991211 163.1849365234375 107.1669769287109 163.1849365234375 Z" stroke="none" fill="#b5cad4"/>
      </g>
    </g>
  </g>
</svg>
