<svg xmlns="http://www.w3.org/2000/svg" width="114" height="114" viewBox="0 0 114 114">
  <g id="Grupo_1102" data-name="Grupo 1102" transform="translate(-1248 -12161)">
    <rect id="Retângulo_41" data-name="Retângulo 41" width="114" height="114" transform="translate(1248 12161)" fill="#f5f5f5" opacity="0"/>
    <g id="Grupo_1085" data-name="Grupo 1085" transform="translate(1272 12185)">
      <g id="Grupo_1082" data-name="Grupo 1082" transform="translate(31.247 54.508)">
        <g id="Grupo_1081" data-name="Grupo 1081">
          <path id="Caminho_105" data-name="Caminho 105" d="M336.979,433.455h-23.25a5.819,5.819,0,0,0-5.812,5.812v3.875a1.938,1.938,0,0,0,1.937,1.937h31a1.94,1.94,0,0,0,1.938-1.937v-3.875A5.819,5.819,0,0,0,336.979,433.455Zm1.938,7.75H311.792v-1.938a1.94,1.94,0,0,1,1.937-1.937h23.25a1.94,1.94,0,0,1,1.938,1.937V441.2Z" transform="translate(-307.917 -433.455)" fill="#b5cad4"/>
        </g>
      </g>
      <g id="Grupo_1084" data-name="Grupo 1084">
        <g id="Grupo_1083" data-name="Grupo 1083">
          <path id="Caminho_106" data-name="Caminho 106" d="M352.039,434.429l-1.617-1.066-2.679-4.639,1.68-.969a5.812,5.812,0,0,0-5.812-10.067l-1.68.969-2.677-4.637-.116-1.933a5.812,5.812,0,0,0-8.709-4.685l-12.63,7.291a5.814,5.814,0,0,0-.3,9.885l1.617,1.068,2.679,4.637-18.185,10.5-6.43,1.316a5.808,5.808,0,0,0-3.867,8.6l2.372,4.111a5.811,5.811,0,0,0,9.383.95l4.354-4.911,18.185-10.5,2.677,4.637.116,1.933a5.812,5.812,0,0,0,8.709,4.685l12.63-7.291A5.813,5.813,0,0,0,352.039,434.429Zm-6.491-13.384a1.937,1.937,0,1,1,1.938,3.355l-1.68.969-1.938-3.355ZM320.638,422l-1-.66a1.939,1.939,0,0,1,.1-3.3l12.63-7.291a1.938,1.938,0,0,1,2.9,1.562l.071,1.194C334.7,413.887,321.282,421.631,320.638,422Zm-18.465,31.183a1.935,1.935,0,0,1-3.128-.317l-2.374-4.111a1.937,1.937,0,0,1,1.29-2.868l5.37-1.1,2.478,4.293Zm6.72-6.507-1.938-3.355,3.357-1.937,1.937,3.355Zm6.712-3.875-1.938-3.355,10.067-5.813,1.937,3.357Zm7.61-17.815,13.422-7.75,9.688,16.777c-.589.341-12.833,7.411-13.422,7.75C331.764,439.793,324.357,426.964,323.216,424.99ZM349.8,440.959l-12.63,7.291a1.936,1.936,0,0,1-2.9-1.562l-.073-1.194L348.9,437l1,.66A1.939,1.939,0,0,1,349.8,440.959Z" transform="translate(-292.531 -406.616)" fill="#b5cad4"/>
        </g>
      </g>
    </g>
  </g>
</svg>
