<svg xmlns="http://www.w3.org/2000/svg" xmlns:xlink="http://www.w3.org/1999/xlink" width="72" height="72" viewBox="0 0 72 72">
  <defs>
    <clipPath id="clip-path">
      <rect id="Ret칙ngulo_87" data-name="Ret칙ngulo 87" width="72" height="72" transform="translate(972 1860)" fill="#fff" stroke="#707070" stroke-width="1"/>
    </clipPath>
  </defs>
  <g id="Grupo_de_m치scara_5" data-name="Grupo de m치scara 5" transform="translate(-972 -1860)" clip-path="url(#clip-path)">
    <g id="Grupo_1192" data-name="Grupo 1192" transform="translate(982 1843.023)">
      <path id="Caminho_7171" data-name="Caminho 7171" d="M46.878,31a4.524,4.524,0,0,0-4.258,3.011H30.215V32.506A1.506,1.506,0,0,0,28.709,31H22.686a1.506,1.506,0,0,0-1.506,1.506v1.506H8.775a4.517,4.517,0,1,0,0,3.011H21.181v1.506a1.506,1.506,0,0,0,1.506,1.506h.575l-7.945,15.89a1.505,1.505,0,0,0,.094,1.509l5.77,8.655v8.579a1.506,1.506,0,0,0,1.506,1.506h6.023a1.506,1.506,0,0,0,1.506-1.506V66.088l5.77-8.655a1.506,1.506,0,0,0,.094-1.509l-7.945-15.89h.575a1.506,1.506,0,0,0,1.506-1.506V37.023H42.62A4.517,4.517,0,1,0,46.878,31ZM4.517,37.023a1.506,1.506,0,1,1,1.506-1.506A1.507,1.507,0,0,1,4.517,37.023Zm19.675-3.011H27.2v3.011H24.192ZM27.2,73.16H24.192V67.137H27.2Zm.7-9.034H23.492L18.4,56.489l5.791-11.582v8.679a1.506,1.506,0,1,0,3.011,0V44.907l5.791,11.582Zm18.975-27.1a1.506,1.506,0,1,1,1.506-1.506A1.507,1.507,0,0,1,46.878,37.023Z"/>
    </g>
  </g>
</svg>
