<svg xmlns="http://www.w3.org/2000/svg" width="114" height="114" viewBox="0 0 114 114">
  <g id="Grupo_1064" data-name="Grupo 1064" transform="translate(-834 -4426)">
    <rect id="Retângulo_37" data-name="Retângulo 37" width="114" height="114" transform="translate(834 4426)" fill="#2383c6" opacity="0"/>
    <path id="Caminho_85" data-name="Caminho 85" d="M136.215,271.714h-1.864V258.67a5.6,5.6,0,0,0-5.59-5.59H87.517a5.6,5.6,0,0,0-5.59,5.59v27.951H80.063a1.864,1.864,0,0,0-1.864,1.864,9.328,9.328,0,0,0,9.318,9.318h9.441v5.59a5.6,5.6,0,0,0,5.59,5.59h33.667a5.6,5.6,0,0,0,5.59-5.59V277.3A5.6,5.6,0,0,0,136.215,271.714ZM85.653,258.67a1.866,1.866,0,0,1,1.864-1.864h41.244a1.866,1.866,0,0,1,1.864,1.864v13.044H102.548a5.6,5.6,0,0,0-5.59,5.59v9.317h-11.3Zm1.864,35.405a5.6,5.6,0,0,1-5.272-3.726H96.958v3.726Zm13.168,9.318V277.3a1.866,1.866,0,0,1,1.863-1.864h1.864v29.816h-1.864A1.866,1.866,0,0,1,100.685,303.393Zm37.393,0a1.867,1.867,0,0,1-1.864,1.864H108.138V275.441h28.076a1.866,1.866,0,0,1,1.864,1.864Z" transform="translate(780.801 4201.92)" fill="#b5cad4"/>
  </g>
</svg>
