<svg xmlns="http://www.w3.org/2000/svg" xmlns:xlink="http://www.w3.org/1999/xlink" width="72" height="72" viewBox="0 0 72 72">
  <defs>
    <clipPath id="clip-path">
      <rect id="Ret칙ngulo_104" data-name="Ret칙ngulo 104" width="72" height="72" transform="translate(1302 4379)" fill="#fff" stroke="#707070" stroke-width="1"/>
    </clipPath>
  </defs>
  <g id="Grupo_de_m치scara_14" data-name="Grupo de m치scara 14" transform="translate(-1302 -4379)" clip-path="url(#clip-path)">
    <g id="Grupo_1245" data-name="Grupo 1245" transform="translate(1315.242 4341.493)">
      <path id="Caminho_7226" data-name="Caminho 7226" d="M49.137,62.259h0c0-2.821-2.9-5.363-8.154-7.159l-.013,0A62.551,62.551,0,0,0,22.818,52.52,58.345,58.345,0,0,0,4.636,55.106C-.611,56.9-3.5,59.442-3.5,62.26V85.642c0,3.4,4.2,6.367,11.518,8.135a1.131,1.131,0,0,0,.953-.208,1.11,1.11,0,0,0,.426-.877V79.48c1.133-.241,3.476-.662,5.89-.95a69.906,69.906,0,0,1,7.511-.4,63.306,63.306,0,0,1,13.4,1.345V92.691a1.117,1.117,0,0,0,1.378,1.085C44.934,92,49.154,89.034,49.154,85.641ZM46.922,85.642c0,2.008-3.241,4.14-8.492,5.607l0-21.064a22.051,22.051,0,0,0,8.475-3.845ZM9.4,73.739l2.191-.451a1.112,1.112,0,0,0,.687-.45l4.062-5.76L21.425,72.6a1.114,1.114,0,0,0,1.486.139L28.065,68.9l5.274,5.276a1.115,1.115,0,0,0,.56.3l2.3.483V77.2A66.283,66.283,0,0,0,22.8,75.9a72.048,72.048,0,0,0-7.819.416c-2.55.288-4.549.664-5.582.878Zm26.8-4.425v3.371l-1.518-.318-5.72-5.722a1.123,1.123,0,0,0-1.455-.107l-5.121,3.808-5.345-5.8a1.116,1.116,0,0,0-1.732.114l-4.6,6.528L9.4,71.46V69.3a1.113,1.113,0,0,0-.853-1.085c-5.96-1.443-9.811-3.782-9.811-5.96,0-1.737,2.477-3.622,6.627-5.042a56.093,56.093,0,0,1,17.459-2.466A68.617,68.617,0,0,1,40.5,57.3c4.008,1.408,6.4,3.263,6.4,4.963,0,2.184-3.866,4.527-9.849,5.97A1.113,1.113,0,0,0,36.2,69.314Zm-29.037.86V91.248c-5.214-1.46-8.432-3.591-8.432-5.606v-19.3A22.014,22.014,0,0,0,7.164,70.174Z" transform="translate(0 0)" fill="#0091d5"/>
      <path id="Caminho_7227" data-name="Caminho 7227" d="M220.632,96.567a3.973,3.973,0,1,0,3.972,3.973A3.977,3.977,0,0,0,220.632,96.567Zm1.74,3.973a1.74,1.74,0,1,1-1.74-1.741A1.742,1.742,0,0,1,222.372,100.54Z" transform="translate(-197.824 -39.578)" fill="#0091d5"/>
    </g>
  </g>
</svg>
