<svg xmlns="http://www.w3.org/2000/svg" width="114" height="114" viewBox="0 0 114 114">
  <g id="Grupo_1100" data-name="Grupo 1100" transform="translate(-696 -12462)">
    <rect id="Retângulo_43" data-name="Retângulo 43" width="114" height="114" transform="translate(696 12462)" fill="#f5f5f5" opacity="0"/>
    <g id="Grupo_1087" data-name="Grupo 1087" transform="translate(721 12491)">
      <path id="Caminho_111" data-name="Caminho 111" d="M417.807,455.484q-12.962,0-25.927,0A5.758,5.758,0,0,1,387,453.2a5.5,5.5,0,0,1-1.129-3.414q-.012-10.446,0-20.892a5.289,5.289,0,0,1,1.154-3.4.533.533,0,0,0-.018-.79,4.608,4.608,0,0,1-1.082-2.78c-.039-2.039-.093-4.086.065-6.115a5.421,5.421,0,0,1,4.783-4.673c.548-.053,1.1-.085,1.653-.085q25.757-.012,51.514-.016a5.8,5.8,0,0,1,4.921,2.313,5.534,5.534,0,0,1,1.113,3.363c.02,1.525.014,3.052,0,4.58a5.38,5.38,0,0,1-1.145,3.4.535.535,0,0,0-.006.792,5.37,5.37,0,0,1,1.154,3.459c.006,6.925.02,13.851,0,20.776a5.635,5.635,0,0,1-6.007,5.745q-13.078.012-26.158,0Zm.055-3.749v-.018q13.048,0,26.1,0c1.57,0,2.254-.7,2.256-2.283V429.287c0-1.647-.68-2.323-2.334-2.321q-6.87,0-13.735.006-19.116,0-38.23.008c-1.584,0-2.283.693-2.283,2.256q0,2.663,0,5.323,0,7.525,0,15.051a1.924,1.924,0,0,0,2.13,2.124c.268,0,.534,0,.8,0Zm.073-28.52v-.01h17.513c2.921,0,5.839,0,8.757-.012a1.818,1.818,0,0,0,1.994-1.826q.049-2.373,0-4.75a1.833,1.833,0,0,0-1.791-1.805c-.227-.012-.457-.006-.686-.006q-18.717,0-37.432,0-7.269,0-14.539,0a1.885,1.885,0,0,0-2.114,1.9q-.033,2.318,0,4.637a1.819,1.819,0,0,0,1.848,1.858c.189.01.38.008.571.008Z" transform="translate(-385.867 -411.035)" fill="#b5cad4"/>
      <path id="Caminho_112" data-name="Caminho 112" d="M404.022,439.229q-6.982,0-13.963,0a1.872,1.872,0,0,1-2.043-1.844,1.9,1.9,0,0,1,1.994-1.913c1.107-.022,2.214-.01,3.319-.01h24.036a8.127,8.127,0,0,1,.971.032,1.875,1.875,0,0,1,1.7,1.956,1.836,1.836,0,0,1-1.883,1.771c-2.88.016-5.76.006-8.642.008h-5.494Z" transform="translate(-383.652 -385.86)" fill="#b5cad4"/>
      <path id="Caminho_113" data-name="Caminho 113" d="M410.212,438.293c.987-1.007,1.867-1.9,2.746-2.8.187-.191.37-.384.565-.567a1.886,1.886,0,0,1,2.717-.067,1.857,1.857,0,0,1-.055,2.709c-1.237,1.267-2.5,2.51-3.755,3.763-.3.3-.583.6-.9.883a1.8,1.8,0,0,1-2.575,0q-1.334-1.252-2.591-2.581a1.835,1.835,0,0,1,.049-2.663,1.854,1.854,0,0,1,2.626.041C409.43,437.383,409.763,437.8,410.212,438.293Z" transform="translate(-365.298 -387.033)" fill="#b5cad4"/>
      <path id="Caminho_114" data-name="Caminho 114" d="M413.3,422.991h20.659a5.834,5.834,0,0,1,.8.029,1.845,1.845,0,0,1,1.588,1.757,1.794,1.794,0,0,1-1.4,1.9,3.447,3.447,0,0,1-.792.077q-20.831,0-41.662,0a3.911,3.911,0,0,1-.739-.049,1.867,1.867,0,0,1,.2-3.692c.684-.045,1.373-.026,2.059-.026q9.642,0,19.286,0Z" transform="translate(-381.355 -398.719)" fill="#b5cad4"/>
      <path id="Caminho_115" data-name="Caminho 115" d="M406.26,425.938q6.751,0,13.5,0a7.524,7.524,0,0,1,.857.033,1.807,1.807,0,0,1,1.631,1.769,1.841,1.841,0,0,1-1.55,1.9,8.119,8.119,0,0,1-1.2.053q-13.532,0-27.064-.006c-1.407,0-2.248-.77-2.193-1.98a1.8,1.8,0,0,1,1.6-1.738,7.072,7.072,0,0,1,.857-.035Q399.481,425.937,406.26,425.938Z" transform="translate(-381.355 -395.671)" fill="#b5cad4"/>
      <path id="Caminho_116" data-name="Caminho 116" d="M397.737,420.041c1.812,0,3.621,0,5.431,0a1.877,1.877,0,0,1,2.082,1.86,1.906,1.906,0,0,1-2.063,1.9q-5.487.012-10.977,0a1.908,1.908,0,0,1-2.053-1.909,1.885,1.885,0,0,1,2.094-1.848C394.08,420.037,395.908,420.041,397.737,420.041Z" transform="translate(-381.445 -401.752)" fill="#b5cad4"/>
      <path id="Caminho_117" data-name="Caminho 117" d="M401.794,414.048c3.221,0,6.442-.008,9.665,0a1.863,1.863,0,0,1,1.917,2.518,1.894,1.894,0,0,1-1.826,1.225c-1.087.02-2.173.012-3.26.012q-7.863,0-15.725-.006a6.959,6.959,0,0,1-.743-.026,1.862,1.862,0,0,1-1.667-1.868,1.794,1.794,0,0,1,1.747-1.832c1.523-.045,3.048-.022,4.574-.024Q399.135,414.044,401.794,414.048Z" transform="translate(-381.446 -407.931)" fill="#b5cad4"/>
    </g>
  </g>
</svg>
