<svg xmlns="http://www.w3.org/2000/svg" width="184" height="41.88" viewBox="0 0 184 41.88">
  <g id="Grupo_1002" data-name="Grupo 1002" transform="translate(823.611 -308.639)">
    <path id="Caminho_32" data-name="Caminho 32" d="M-725.417,332.279l3.346-5.8q2.91-5.038-2.937-5.038h-22.636l-16.617,26.009h7.217l6.534-10.131h16.331A9.481,9.481,0,0,0-725.417,332.279Zm-22.529.606,4.046-7.01h13.609a3.288,3.288,0,0,1,1.789.307q.49.46-.277,1.79l-1.623,2.811a4.1,4.1,0,0,1-1.79,1.79,5.733,5.733,0,0,1-2.143.308Z" transform="translate(-16.014 -3.455)" fill="#fff"/>
    <path id="Caminho_33" data-name="Caminho 33" d="M-663.948,337.277a9.485,9.485,0,0,0,8.762-5.038l3.346-5.8q2.91-5.038-2.937-5.038h-22.286l-6.93,11.479h-9.159l.918-11.6-6.214.054L-728.734,347.5h8.53l21.783-19.739-.523,5.124h-2.7l-4.9,4.352h6.956l-1.049,10.261h6.343l.8-10.261h6.564l-6.145,10.177h6.255l6.534-10.131h8.032l5.127,10.137h6.539l-5.707-10.137Zm-13.769-4.435,4.045-7.01h13.609a3.294,3.294,0,0,1,1.787.307q.492.46-.275,1.79l-1.625,2.811a4.09,4.09,0,0,1-1.788,1.79,5.741,5.741,0,0,1-2.142.308Z" transform="translate(-25.599 -3.412)" fill="#fff"/>
    <path id="Caminho_34" data-name="Caminho 34" d="M-611.5,321.265a9.735,9.735,0,0,0-8.491,4.9s-4.082,6.658-4.273,7.124c-.714,1.736.111,2.453,1.337,2.829a26.027,26.027,0,0,0,4.877.318h6.468l.007-.012,4.453.013a3.4,3.4,0,0,1,1.757.292c.329.292.158.97-.355,1.812l-1.618,2.663a3.993,3.993,0,0,1-1.789,1.7,6.1,6.1,0,0,1-2.143.292h-13.609s-3-.012-4.794.055a2.549,2.549,0,0,0-2.107.835c-.548.687-2.331,3.29-2.331,3.29l23.331.016a9.516,9.516,0,0,0,8.428-4.769s4.162-6.772,4.353-7.238c.711-1.737-.114-2.453-1.338-2.831a25.854,25.854,0,0,0-4.877-.317h-4.474v0h-6.458a3.366,3.366,0,0,1-1.757-.292c-.325-.292-.234-.857.277-1.7l1.623-2.666a4,4,0,0,1,1.79-1.7,6.1,6.1,0,0,1,2.142-.292h13.611s2.256.058,3.97-.042a4.582,4.582,0,0,0,1.779-.411,4.785,4.785,0,0,0,1.626-1.409c.464-.584,1.607-2.462,1.607-2.462Z" transform="translate(-51.128 -3.405)" fill="#fff"/>
    <path id="Caminho_35" data-name="Caminho 35" d="M-813.345,351.236l4.381-6.858c.056-.085.084-.178.134-.264.35-.6-1.277.142-2.943-.778-1.483-.816-1.6-2.464-1.894-1.922l-4.63,7.243a2.425,2.425,0,0,0,.7,3.356,2.421,2.421,0,0,0,.305.169A3.091,3.091,0,0,0-813.345,351.236Z" transform="translate(-1.327 -8.814)" fill="#fff"/>
    <path id="Caminho_36" data-name="Caminho 36" d="M-791.011,353.4c.35-.6-1.276.142-2.942-.778-1.485-.819-1.6-2.462-1.9-1.92l-4.632,7.243a2.421,2.421,0,0,0,.7,3.352,2.358,2.358,0,0,0,.309.171,3.084,3.084,0,0,0,3.939-.949l4.385-6.86C-791.09,353.576-791.062,353.484-791.011,353.4Z" transform="translate(-6.134 -11.319)" fill="#fff"/>
    <path id="Caminho_37" data-name="Caminho 37" d="M-796.2,339.291c.35-.6-1.277.139-2.943-.781-1.483-.817-1.6-2.463-1.894-1.923l-11.5,17.57a2.419,2.419,0,0,0,.694,3.351,2.316,2.316,0,0,0,.312.173,3.087,3.087,0,0,0,3.943-.949l11.254-17.181C-796.277,339.466-796.248,339.375-796.2,339.291Z" transform="translate(-2.882 -7.512)" fill="#fff"/>
    <path id="Caminho_38" data-name="Caminho 38" d="M-818.266,336.266l10.716-16.343a2.423,2.423,0,0,0-.7-3.352,2.626,2.626,0,0,0-.307-.17,3.082,3.082,0,0,0-3.937.949l-10.718,16.337a2.423,2.423,0,0,0,.7,3.354,2.326,2.326,0,0,0,.307.17A3.087,3.087,0,0,0-818.266,336.266Z" transform="translate(0 -2)" fill="#fff"/>
    <path id="Caminho_39" data-name="Caminho 39" d="M-773.564,336.6a3.079,3.079,0,0,0-3.936.946l-10.719,16.341a2.422,2.422,0,0,0,.7,3.353,2.4,2.4,0,0,0,.307.169,3.084,3.084,0,0,0,3.943-.949l10.712-16.337a2.423,2.423,0,0,0-.7-3.354A2.42,2.42,0,0,0-773.564,336.6Z" transform="translate(-9.443 -7.451)" fill="#fff"/>
    <path id="Caminho_40" data-name="Caminho 40" d="M-808.3,334.629a3.087,3.087,0,0,0,3.943-.949l10.719-16.342a2.424,2.424,0,0,0-.7-3.353,2.45,2.45,0,0,0-.307-.17,3.08,3.08,0,0,0-3.939.949l-10.716,16.342a2.421,2.421,0,0,0,.7,3.353A2.36,2.36,0,0,0-808.3,334.629Z" transform="translate(-3.752 -1.302)" fill="#fff"/>
    <path id="Caminho_41" data-name="Caminho 41" d="M-780.781,324.042-791.5,340.387a2.417,2.417,0,0,0,.7,3.348,2.391,2.391,0,0,0,.312.172,3.084,3.084,0,0,0,3.943-.943l10.719-16.343a2.424,2.424,0,0,0-.706-3.354,2.414,2.414,0,0,0-.3-.169A3.084,3.084,0,0,0-780.781,324.042Z" transform="translate(-8.558 -3.806)" fill="#fff"/>
    <path id="Caminho_42" data-name="Caminho 42" d="M-793.136,329.8a3.089,3.089,0,0,0,3.943-.946l10.717-16.342a2.421,2.421,0,0,0-.7-3.352,2.57,2.57,0,0,0-.31-.172,3.079,3.079,0,0,0-3.936.949l-10.719,16.341a2.424,2.424,0,0,0,.705,3.354A2.414,2.414,0,0,0-793.136,329.8Z" transform="translate(-7.845 0)" fill="#fff"/>
  </g>
</svg>
