<svg xmlns="http://www.w3.org/2000/svg" xmlns:xlink="http://www.w3.org/1999/xlink" width="114" height="114" viewBox="0 0 114 114">
  <defs>
    <clipPath id="clip-path">
      <rect id="Retângulo_174" data-name="Retângulo 174" width="114" height="114" transform="translate(2300 7922)" fill="#f5f5f5"/>
    </clipPath>
  </defs>
  <g id="Grupo_de_máscara_70" data-name="Grupo de máscara 70" transform="translate(-2300 -7922)" clip-path="url(#clip-path)">
    <g id="Grupo_1508" data-name="Grupo 1508" transform="translate(2321.517 7944.855)">
      <g id="Surfaces" transform="translate(0 0)">
        <g id="Video_Audio_Surface" data-name="Video Audio Surface" transform="translate(0)">
          <g id="Outline_no_shadow" data-name="Outline no shadow">
            <rect id="Retângulo_223" data-name="Retângulo 223" width="71" height="69" rx="13" transform="translate(0.483 0.145)" fill="#00005b"/>
          </g>
        </g>
      </g>
      <g id="Outlined_Mnemonics_Logos" data-name="Outlined Mnemonics Logos" transform="translate(8.515 17.947)">
        <g id="Me">
          <path id="Caminho_7507" data-name="Caminho 7507" d="M52.8,34.895H43.538a7.185,7.185,0,0,0,.956,2.7,4.834,4.834,0,0,0,2.141,1.763,9.219,9.219,0,0,0,3.815.81,12.907,12.907,0,0,0,2.628-.206,12.685,12.685,0,0,0,2.752-.824c.156-.125.235-.047.235.235v4.469a.693.693,0,0,1-.071.353.669.669,0,0,1-.211.211,13.159,13.159,0,0,1-3.057,1.012,18.909,18.909,0,0,1-3.81.149,13.416,13.416,0,0,1-5.6-1.035,9.973,9.973,0,0,1-3.669-2.775,10.892,10.892,0,0,1-2.023-3.833,15.128,15.128,0,0,1-.611-4.258,14.813,14.813,0,0,1,.73-4.633,12.072,12.072,0,0,1,2.187-4,10.51,10.51,0,0,1,3.528-2.775,11.039,11.039,0,0,1,4.892-1.012,11.771,11.771,0,0,1,4.783.945,8.211,8.211,0,0,1,3.082,2.422,10.677,10.677,0,0,1,1.739,3.317A11.807,11.807,0,0,1,58.52,31.5q0,1.034-.071,1.882a8.089,8.089,0,0,1-.181,1,.426.426,0,0,1-.423.376q-.282,0-.964.07c-.455.047-1.264.029-1.937.044S53.556,34.9,52.8,34.895Zm-9.293-3.736h6.162q1.129,0,1.669-.024a3.336,3.336,0,0,0,.683-.07v-.282a7.936,7.936,0,0,0-.1-1.683,3.843,3.843,0,0,0-3.81-2.681,4.091,4.091,0,0,0-3.881,2.211A9.9,9.9,0,0,0,43.511,31.158Z" transform="translate(-3.977 -14.669)" fill="#99f"/>
          <path id="Caminho_7508" data-name="Caminho 7508" d="M12.648,16.357a.317.317,0,0,1,.345-.283h8.237a.448.448,0,0,1,.491.329c.208.816.461,1.4.76,2.55s.618,2.407.96,3.786.693,2.792,1.05,4.233.708,2.846,1.05,4.211.633,2.618.872,3.763.431,2.094.581,2.845h.044q.177-.988.625-2.634t1.027-3.692q.582-2.046,1.185-4.211t1.184-4.28q.582-2.117,1.095-3.927c.343-1.208.618-1.828.828-2.644a.39.39,0,0,1,.4-.329h8a.356.356,0,0,1,.4.3l0,.025,1.073,29.465a.312.312,0,0,1-.066.305.386.386,0,0,1-.291.118h-5.81a.35.35,0,0,1-.222-.071.31.31,0,0,1-.089-.259c0-1.6-.009-3.073-.023-4.83s-.038-3.519-.067-5.291-.031-3.473,0-5.1.044-3.135.044-4.516.008-2.579.023-3.6.022-1.78.023-2.282h-.046q-.269,1.177-.714,3.082T34.566,27.7q-.6,2.376-1.3,4.915t-1.34,5.033q-.648,2.494-1.251,4.657c-.4,1.443-.737,2.51-1.006,3.608a.5.5,0,0,1-.492.376h-5.05a.48.48,0,0,1-.535-.376c-.268-1.1-.575-2.165-.917-3.608s-.693-2.947-1.05-4.516-.737-3.174-1.14-4.821-.782-3.238-1.139-4.775-.678-2.979-.96-4.327-.545-2.539-.782-3.575h-.09V24.01q0,2.164-.067,4.775t-.133,5.456q-.067,2.845-.156,5.88c-.06,2.023-.135,3.818-.224,5.795,0,.25-.12.376-.357.376H11.4a.541.541,0,0,1-.291-.071c-.075-.047-.1-.164-.067-.352Z" transform="translate(-11.027 -16.071)" fill="#99f"/>
        </g>
      </g>
    </g>
  </g>
</svg>
