<svg xmlns="http://www.w3.org/2000/svg" xmlns:xlink="http://www.w3.org/1999/xlink" width="114" height="114" viewBox="0 0 114 114">
  <defs>
    <clipPath id="clip-path">
      <rect id="Ret칙ngulo_160" data-name="Ret칙ngulo 160" width="114" height="114" transform="translate(1110 5011)" fill="#f5f5f5"/>
    </clipPath>
  </defs>
  <g id="Grupo_de_m치scara_55" data-name="Grupo de m치scara 55" transform="translate(-1110 -5011)" clip-path="url(#clip-path)">
    <g id="Layer_2" data-name="Layer 2" transform="translate(1132 5034)">
      <g id="Surfaces">
        <g id="Photo_Surface" data-name="Photo Surface">
          <g id="Outline_no_shadow" data-name="Outline no shadow">
            <path id="Caminho_7369" data-name="Caminho 7369" d="M12.459,0H57.9A12.449,12.449,0,0,1,70.36,12.459V56.141A12.449,12.449,0,0,1,57.9,68.6H12.459A12.449,12.449,0,0,1,0,56.141V12.459A12.449,12.449,0,0,1,12.459,0Z" fill="#001e36"/>
          </g>
        </g>
      </g>
      <g id="Outlined_Mnemonics_Logos" data-name="Outlined Mnemonics Logos" transform="translate(6.186 17.619)">
        <g id="PsX">
          <path id="Caminho_7370" data-name="Caminho 7370" d="M38.661,63.413a9.529,9.529,0,0,0-3.547-2.4A14.658,14.658,0,0,0,29.69,60.1c-.792,0-1.583,0-2.4.029s-1.583.029-2.287.059c-.733.029-1.407.029-2.023.059s-1.173.029-1.612.029c-.176,0-.264.117-.264.322V90.589c0,.264.088.381.293.381h5.189c.264,0,.381-.147.381-.41V81.413c.5,0,.879,0,1.143.029s.7.029,1.319.029a15.431,15.431,0,0,0,5.951-1.114,9.14,9.14,0,0,0,4.251-3.547A11.309,11.309,0,0,0,41.211,70.6a12.925,12.925,0,0,0-.586-3.811A9.718,9.718,0,0,0,38.661,63.413ZM34.586,73.7a4.593,4.593,0,0,1-2.169,1.554,8.852,8.852,0,0,1-3.049.469H27.96c-.322,0-.645-.029-1.026-.059V65.934c.352-.029.733-.059,1.085-.059.528-.029,1.114-.029,1.818-.029a7.608,7.608,0,0,1,3.108.586A4.238,4.238,0,0,1,34.791,68.1a5.046,5.046,0,0,1,.616,2.609A4.828,4.828,0,0,1,34.586,73.7Z" transform="translate(-21.1 -60.1)" fill="#31a8ff"/>
          <path id="Caminho_7371" data-name="Caminho 7371" d="M105.831,95.263a17.831,17.831,0,0,0-4.046-2.14c-.645-.293-1.261-.616-1.876-.967a2.849,2.849,0,0,1-.879-.792,1.692,1.692,0,0,1-.264-.762,1.452,1.452,0,0,1,.205-.792,1.486,1.486,0,0,1,.821-.586,4.9,4.9,0,0,1,1.583-.205,11.242,11.242,0,0,1,2.961.381,7.713,7.713,0,0,1,2.375,1,.266.266,0,0,0,.293,0,.279.279,0,0,0,.117-.293V85.354a1.427,1.427,0,0,0-.029-.352.467.467,0,0,0-.264-.264,5.832,5.832,0,0,0-2.052-.674,20.388,20.388,0,0,0-3.283-.264,9.622,9.622,0,0,0-4.661,1.026,6.782,6.782,0,0,0-2.756,2.7,7.154,7.154,0,0,0-.88,3.547,7.481,7.481,0,0,0,.616,2.99A6.8,6.8,0,0,0,95.8,96.523a14.359,14.359,0,0,0,3.753,2.111,9.593,9.593,0,0,1,2.58,1.378,1.593,1.593,0,0,1,.645,1.173,1.378,1.378,0,0,1-.7,1.231,4.3,4.3,0,0,1-2.2.41,13.937,13.937,0,0,1-3.108-.44,9.551,9.551,0,0,1-3.02-1.437.221.221,0,0,0-.235-.029.286.286,0,0,0-.117.264v5.1a.6.6,0,0,0,.293.557,8.211,8.211,0,0,0,2.433.938,16.3,16.3,0,0,0,3.577.381,11.014,11.014,0,0,0,4.779-.938,6.73,6.73,0,0,0,2.961-2.609,7.263,7.263,0,0,0,1.026-3.9,7.143,7.143,0,0,0-.616-3.02A5.993,5.993,0,0,0,105.831,95.263Z" transform="translate(-72.058 -76.852)" fill="#31a8ff"/>
          <path id="Caminho_7372" data-name="Caminho 7372" d="M164.671,97.723l-7.505-13.515,7.007-12.723a.4.4,0,0,0,.059-.469.4.4,0,0,0-.44-.235h-4.984a.629.629,0,0,0-.44.117.7.7,0,0,0-.205.352c-.5,1.114-1.055,2.081-1.583,3.2-.557,1.114-1.085,2.228-1.583,3.313-.469.967-.938,1.994-1.378,3.02-.44-1-.909-1.994-1.407-2.961-.586-1.114-1.143-2.228-1.7-3.342s-1.055-2.111-1.524-3.283a.756.756,0,0,0-.733-.381h-5.365a.473.473,0,0,0-.381.176.4.4,0,0,0,.029.469l7.095,13.192-7.27,13.1a.509.509,0,0,0-.088.41.364.364,0,0,0,.381.352h5.189a.7.7,0,0,0,.7-.5c.557-1.114,1.114-2.052,1.642-3.166s1.055-2.228,1.612-3.342c.469-1,.967-2.023,1.407-3.02.5,1.026,1,2.052,1.524,3.078.557,1.114,1.114,2.228,1.612,3.313s1.026,2.023,1.524,3.108a1.045,1.045,0,0,0,.967.528h5.424a.414.414,0,0,0,.41-.322A.524.524,0,0,0,164.671,97.723Z" transform="translate(-106.742 -67.645)" fill="#31a8ff"/>
        </g>
      </g>
    </g>
  </g>
</svg>
