<svg xmlns="http://www.w3.org/2000/svg" xmlns:xlink="http://www.w3.org/1999/xlink" width="114" height="114" viewBox="0 0 114 114">
  <defs>
    <clipPath id="clip-path">
      <rect id="Ret칙ngulo_36" data-name="Ret칙ngulo 36" width="114" height="114" transform="translate(696 5011)" fill="#f5f5f5"/>
    </clipPath>
  </defs>
  <g id="Grupo_de_m치scara_52" data-name="Grupo de m치scara 52" transform="translate(-696 -5011)" clip-path="url(#clip-path)">
    <g id="Layer_2" data-name="Layer 2" transform="translate(718 5034)">
      <g id="Surfaces">
        <g id="Photo_Surface" data-name="Photo Surface">
          <g id="Outline_no_shadow" data-name="Outline no shadow">
            <path id="Caminho_7363" data-name="Caminho 7363" d="M12.459,0H57.9A12.449,12.449,0,0,1,70.36,12.459V56.141A12.449,12.449,0,0,1,57.9,68.6H12.459A12.449,12.449,0,0,1,0,56.141V12.459A12.449,12.449,0,0,1,12.459,0Z" fill="#001e36"/>
          </g>
        </g>
      </g>
      <g id="Outlined_Mnemonics_Logos" data-name="Outlined Mnemonics Logos" transform="translate(15.831 17.443)">
        <g id="Ps">
          <path id="Caminho_7364" data-name="Caminho 7364" d="M54,90.165V60c0-.205.088-.322.293-.322.5,0,.967,0,1.642-.029.7-.029,1.437-.029,2.228-.059s1.642-.029,2.551-.059S62.5,59.5,63.381,59.5a17.238,17.238,0,0,1,6.039.909,10.469,10.469,0,0,1,3.928,2.4,9.334,9.334,0,0,1,2.14,3.342,11.221,11.221,0,0,1,.674,3.811A10.481,10.481,0,0,1,74.4,76.21a10.044,10.044,0,0,1-4.72,3.577,19,19,0,0,1-6.6,1c-.7,0-1.173,0-1.466-.029s-.7-.029-1.261-.029v9.411a.365.365,0,0,1-.322.41H54.352C54.117,90.546,54,90.429,54,90.165Zm6.391-24.831v9.85c.41.029.792.059,1.143.059h1.554a10.951,10.951,0,0,0,3.371-.528,5.042,5.042,0,0,0,2.4-1.554,4.53,4.53,0,0,0,.909-3.02,4.825,4.825,0,0,0-.674-2.609,4.251,4.251,0,0,0-2.052-1.671,8.6,8.6,0,0,0-3.459-.586c-.762,0-1.437,0-1.994.029a6.711,6.711,0,0,0-1.2.029Z" transform="translate(-54 -59.5)" fill="#31a8ff"/>
          <path id="Caminho_7365" data-name="Caminho 7365" d="M155.448,90.926a10.376,10.376,0,0,0-2.814-1,15.455,15.455,0,0,0-3.283-.381,5.9,5.9,0,0,0-1.759.205,1.505,1.505,0,0,0-.909.586,1.554,1.554,0,0,0-.235.792,1.3,1.3,0,0,0,.293.762,3.308,3.308,0,0,0,1,.792c.674.352,1.378.674,2.081.967a21.234,21.234,0,0,1,4.515,2.14,6.822,6.822,0,0,1,2.316,2.433,6.329,6.329,0,0,1,.674,3.02,6.821,6.821,0,0,1-1.143,3.9,7.347,7.347,0,0,1-3.283,2.609,13.433,13.433,0,0,1-5.306.938,20.194,20.194,0,0,1-3.987-.381,11.826,11.826,0,0,1-2.99-.938.577.577,0,0,1-.322-.557v-5.1a.318.318,0,0,1,.117-.264.223.223,0,0,1,.264.029,12.549,12.549,0,0,0,3.635,1.437,13.647,13.647,0,0,0,3.459.44,5.6,5.6,0,0,0,2.433-.41,1.362,1.362,0,0,0,.792-1.231,1.553,1.553,0,0,0-.7-1.173,12.433,12.433,0,0,0-2.873-1.378,17.937,17.937,0,0,1-4.163-2.111,7.591,7.591,0,0,1-2.228-2.492,6.29,6.29,0,0,1-.674-2.99,6.9,6.9,0,0,1,1-3.547,7.226,7.226,0,0,1,3.078-2.7,11.368,11.368,0,0,1,5.189-1.026,25.273,25.273,0,0,1,3.635.264,10.315,10.315,0,0,1,2.521.674.515.515,0,0,1,.293.264,1.472,1.472,0,0,1,.059.352v4.779a.361.361,0,0,1-.147.293A.781.781,0,0,1,155.448,90.926Z" transform="translate(-114.991 -77.03)" fill="#31a8ff"/>
        </g>
      </g>
    </g>
  </g>
</svg>
